<?xml version="1.0" encoding="UTF-8" standalone="no"?>
<!DOCTYPE svg PUBLIC "-//W3C//DTD SVG 1.1//EN"
 "http://www.w3.org/Graphics/SVG/1.1/DTD/svg11.dtd">
<!-- Generated by graphviz version 2.43.0 (0)
 -->
<!-- Title: examples/arduino/Arduino_HAL.hpp Pages: 1 -->
<svg width="398pt" height="164pt"
 viewBox="0.00 0.00 397.50 164.00" xmlns="http://www.w3.org/2000/svg" xmlns:xlink="http://www.w3.org/1999/xlink">

<svg id="main" version="1.1" xmlns="http://www.w3.org/2000/svg" xmlns:xlink="http://www.w3.org/1999/xlink" xml:space="preserve" onload="init(evt)">
<style type="text/css"><![CDATA[
.node, .edge {opacity: 0.7;}
.node.selected, .edge.selected {opacity: 1;}
.edge:hover path { stroke: red; }
.edge:hover polygon { stroke: red; fill: red; }
]]></style>
<script type="application/ecmascript" xlink:href="svg.min.js"/>
<svg id="graph" class="graph">
<g id="graph0" class="graph" transform="scale(1 1) rotate(0) translate(4 160)">
<title>examples/arduino/Arduino_HAL.hpp</title>
<!-- Node1 -->
<g id="Node000001" class="node">
<title>Node1</title>
<g id="a_Node000001"><a xlink:title="Arduino Hardware Abstraction Layer for TLE92466ED Driver.">
<polygon fill="#999999" stroke="#666666" points="204,-156 30,-156 30,-118 204,-118 204,-156"/>
<text text-anchor="start" x="38" y="-140.8" font-family="Arial" font-size="14.00">examples/arduino/Arduino</text>
<text text-anchor="middle" x="117" y="-125.8" font-family="Arial" font-size="14.00">_HAL.hpp</text>
</a>
</g>
</g>
<!-- Node2 -->
<g id="Node000002" class="node">
<title>Node2</title>
<g id="a_Node000002"><a xlink:title=" ">
<polygon fill="#e0e0e0" stroke="#999999" points="74,-82 0,-82 0,-59 74,-59 74,-82"/>
<text text-anchor="middle" x="37" y="-66.8" font-family="Arial" font-size="14.00">Arduino.h</text>
</a>
</g>
</g>
<!-- Node1&#45;&gt;Node2 -->
<g id="edge1_Node000001_Node000002" class="edge">
<title>Node1&#45;&gt;Node2</title>
<g id="a_edge1_Node000001_Node000002"><a xlink:title=" ">
<path fill="none" stroke="#63b8ff" d="M94.29,-117.69C82.95,-108.55 69.32,-97.56 58.2,-88.59"/>
<polygon fill="#63b8ff" stroke="#63b8ff" points="60.24,-85.74 50.26,-82.19 55.85,-91.19 60.24,-85.74"/>
</a>
</g>
</g>
<!-- Node3 -->
<g id="Node000003" class="node">
<title>Node3</title>
<g id="a_Node000003"><a xlink:title=" ">
<polygon fill="#e0e0e0" stroke="#999999" points="142,-82 92,-82 92,-59 142,-59 142,-82"/>
<text text-anchor="middle" x="117" y="-66.8" font-family="Arial" font-size="14.00">SPI.h</text>
</a>
</g>
</g>
<!-- Node1&#45;&gt;Node3 -->
<g id="edge2_Node000001_Node000003" class="edge">
<title>Node1&#45;&gt;Node3</title>
<g id="a_edge2_Node000001_Node000003"><a xlink:title=" ">
<path fill="none" stroke="#63b8ff" d="M117,-117.69C117,-109.8 117,-100.54 117,-92.39"/>
<polygon fill="#63b8ff" stroke="#63b8ff" points="120.5,-92.19 117,-82.19 113.5,-92.19 120.5,-92.19"/>
</a>
</g>
</g>
<!-- Node4 -->
<g id="Node000004" class="node">
<title>Node4</title>
<g id="a_Node000004"><a xlink:href="TLE92466ED__HAL_8hpp.html" target="_top" xlink:title="Hardware Abstraction Layer (HAL) base class for TLE92466ED driver.">
<polygon fill="white" stroke="#666666" points="318,-82 160,-82 160,-59 318,-59 318,-82"/>
<text text-anchor="middle" x="239" y="-66.8" font-family="Arial" font-size="14.00">TLE92466ED_HAL.hpp</text>
</a>
</g>
</g>
<!-- Node1&#45;&gt;Node4 -->
<g id="edge3_Node000001_Node000004" class="edge">
<title>Node1&#45;&gt;Node4</title>
<g id="a_edge3_Node000001_Node000004"><a xlink:title=" ">
<path fill="none" stroke="#63b8ff" d="M151.31,-117.86C169.74,-108.12 192.23,-96.23 209.81,-86.93"/>
<polygon fill="#63b8ff" stroke="#63b8ff" points="211.82,-89.83 219.02,-82.06 208.55,-83.64 211.82,-89.83"/>
</a>
</g>
</g>
<!-- Node5 -->
<g id="Node000005" class="node">
<title>Node5</title>
<g id="a_Node000005"><a xlink:title=" ">
<polygon fill="#e0e0e0" stroke="#999999" points="146,-23 90,-23 90,0 146,0 146,-23"/>
<text text-anchor="middle" x="118" y="-7.8" font-family="Arial" font-size="14.00">cstdint</text>
</a>
</g>
</g>
<!-- Node4&#45;&gt;Node5 -->
<g id="edge4_Node000004_Node000005" class="edge">
<title>Node4&#45;&gt;Node5</title>
<g id="a_edge4_Node000004_Node000005"><a xlink:title=" ">
<path fill="none" stroke="#63b8ff" d="M216.52,-58.91C197.68,-50.03 170.55,-37.26 149.53,-27.35"/>
<polygon fill="#63b8ff" stroke="#63b8ff" points="150.89,-24.13 140.36,-23.03 147.91,-30.46 150.89,-24.13"/>
</a>
</g>
</g>
<!-- Node6 -->
<g id="Node000006" class="node">
<title>Node6</title>
<g id="a_Node000006"><a xlink:title=" ">
<polygon fill="#e0e0e0" stroke="#999999" points="235.5,-23 164.5,-23 164.5,0 235.5,0 235.5,-23"/>
<text text-anchor="middle" x="200" y="-7.8" font-family="Arial" font-size="14.00">concepts</text>
</a>
</g>
</g>
<!-- Node4&#45;&gt;Node6 -->
<g id="edge5_Node000004_Node000006" class="edge">
<title>Node4&#45;&gt;Node6</title>
<g id="a_edge5_Node000004_Node000006"><a xlink:title=" ">
<path fill="none" stroke="#63b8ff" d="M231.66,-58.78C226.43,-51.14 219.26,-40.65 213.07,-31.6"/>
<polygon fill="#63b8ff" stroke="#63b8ff" points="215.84,-29.45 207.3,-23.17 210.06,-33.4 215.84,-29.45"/>
</a>
</g>
</g>
<!-- Node7 -->
<g id="Node000007" class="node">
<title>Node7</title>
<g id="a_Node000007"><a xlink:title=" ">
<polygon fill="#e0e0e0" stroke="#999999" points="300,-23 254,-23 254,0 300,0 300,-23"/>
<text text-anchor="middle" x="277" y="-7.8" font-family="Arial" font-size="14.00">span</text>
</a>
</g>
</g>
<!-- Node4&#45;&gt;Node7 -->
<g id="edge6_Node000004_Node000007" class="edge">
<title>Node4&#45;&gt;Node7</title>
<g id="a_edge6_Node000004_Node000007"><a xlink:title=" ">
<path fill="none" stroke="#63b8ff" d="M246.15,-58.78C251.24,-51.14 258.23,-40.65 264.27,-31.6"/>
<polygon fill="#63b8ff" stroke="#63b8ff" points="267.25,-33.44 269.88,-23.17 261.43,-29.55 267.25,-33.44"/>
</a>
</g>
</g>
<!-- Node8 -->
<g id="Node000008" class="node">
<title>Node8</title>
<g id="a_Node000008"><a xlink:title=" ">
<polygon fill="#e0e0e0" stroke="#999999" points="389.5,-23 318.5,-23 318.5,0 389.5,0 389.5,-23"/>
<text text-anchor="middle" x="354" y="-7.8" font-family="Arial" font-size="14.00">expected</text>
</a>
</g>
</g>
<!-- Node4&#45;&gt;Node8 -->
<g id="edge7_Node000004_Node000008" class="edge">
<title>Node4&#45;&gt;Node8</title>
<g id="a_edge7_Node000004_Node000008"><a xlink:title=" ">
<path fill="none" stroke="#63b8ff" d="M260.36,-58.91C278.19,-50.07 303.82,-37.37 323.76,-27.49"/>
<polygon fill="#63b8ff" stroke="#63b8ff" points="325.35,-30.61 332.75,-23.03 322.24,-24.34 325.35,-30.61"/>
</a>
</g>
</g>
</g>
</svg>
</svg>

<style type='text/css'>
<![CDATA[
[data-mouse-over-selected='false'] { opacity: 0.7; }
[data-mouse-over-selected='true']  { opacity: 1.0; }
]]>
</style>
<script type="application/ecmascript"><![CDATA[
document.addEventListener('DOMContentLoaded', (event) => {
  highlightEdges();
  highlightAdjacentNodes();
});
]]></script>
</svg>
