<?xml version="1.0" encoding="UTF-8" standalone="no"?>
<!DOCTYPE svg PUBLIC "-//W3C//DTD SVG 1.1//EN"
 "http://www.w3.org/Graphics/SVG/1.1/DTD/svg11.dtd">
<!-- Generated by graphviz version 2.43.0 (0)
 -->
<!-- Title: examples/esp32/main/Esp32TleCommInterface.hpp Pages: 1 -->
<svg width="579pt" height="120pt"
 viewBox="0.00 0.00 578.50 120.00" xmlns="http://www.w3.org/2000/svg" xmlns:xlink="http://www.w3.org/1999/xlink">
<g id="graph0" class="graph" transform="scale(1 1) rotate(0) translate(4 116)">
<title>examples/esp32/main/Esp32TleCommInterface.hpp</title>
<!-- Node1 -->
<g id="Node000001" class="node">
<title>Node1</title>
<g id="a_Node000001"><a xlink:title="ESP32 Communication Interface implementation for TLE92466ED driver.">
<polygon fill="#999999" stroke="#666666" points="385.5,-112 188.5,-112 188.5,-74 385.5,-74 385.5,-112"/>
<text text-anchor="start" x="196.5" y="-96.8" font-family="Arial" font-size="14.00">examples/esp32/main</text>
<text text-anchor="middle" x="287" y="-81.8" font-family="Arial" font-size="14.00">/Esp32TleCommInterface.hpp</text>
</a>
</g>
</g>
<!-- Node2 -->
<g id="Node000002" class="node">
<title>Node2</title>
<g id="a_Node000002"><a xlink:href="DriverIntegrationTest_8cpp.html" target="_top" xlink:title="Comprehensive Integration Test Suite for TLE92466ED Driver.">
<polygon fill="white" stroke="#666666" points="170,-38 0,-38 0,0 170,0 170,-38"/>
<text text-anchor="start" x="8" y="-22.8" font-family="Arial" font-size="14.00">examples/esp32/main</text>
<text text-anchor="middle" x="85" y="-7.8" font-family="Arial" font-size="14.00">/DriverIntegrationTest.cpp</text>
</a>
</g>
</g>
<!-- Node1&#45;&gt;Node2 -->
<g id="edge1_Node000001_Node000002" class="edge">
<title>Node1&#45;&gt;Node2</title>
<g id="a_edge1_Node000001_Node000002"><a xlink:title=" ">
<path fill="none" stroke="#63b8ff" d="M226.68,-70.5C197.7,-60.17 163.35,-47.93 135.73,-38.08"/>
<polygon fill="#63b8ff" stroke="#63b8ff" points="225.69,-73.86 236.29,-73.92 228.04,-67.27 225.69,-73.86"/>
</a>
</g>
</g>
<!-- Node3 -->
<g id="Node000003" class="node">
<title>Node3</title>
<g id="a_Node000003"><a xlink:href="Esp32TleCommInterface_8cpp.html" target="_top" xlink:title="ESP32 Communication Interface implementation for TLE92466ED driver.">
<polygon fill="white" stroke="#666666" points="385.5,-38 188.5,-38 188.5,0 385.5,0 385.5,-38"/>
<text text-anchor="start" x="196.5" y="-22.8" font-family="Arial" font-size="14.00">examples/esp32/main</text>
<text text-anchor="middle" x="287" y="-7.8" font-family="Arial" font-size="14.00">/Esp32TleCommInterface.cpp</text>
</a>
</g>
</g>
<!-- Node1&#45;&gt;Node3 -->
<g id="edge2_Node000001_Node000003" class="edge">
<title>Node1&#45;&gt;Node3</title>
<g id="a_edge2_Node000001_Node000003"><a xlink:title=" ">
<path fill="none" stroke="#63b8ff" d="M287,-63.57C287,-55.11 287,-46.06 287,-38.41"/>
<polygon fill="#63b8ff" stroke="#63b8ff" points="283.5,-63.83 287,-73.83 290.5,-63.83 283.5,-63.83"/>
</a>
</g>
</g>
<!-- Node4 -->
<g id="Node000004" class="node">
<title>Node4</title>
<g id="a_Node000004"><a xlink:href="SolenoidControlTest_8cpp.html" target="_top" xlink:title="Real Hardware Solenoid Control Test with ADC&#45;Based Current Control.">
<polygon fill="white" stroke="#666666" points="570.5,-38 403.5,-38 403.5,0 570.5,0 570.5,-38"/>
<text text-anchor="start" x="411.5" y="-22.8" font-family="Arial" font-size="14.00">examples/esp32/main</text>
<text text-anchor="middle" x="487" y="-7.8" font-family="Arial" font-size="14.00">/SolenoidControlTest.cpp</text>
</a>
</g>
</g>
<!-- Node1&#45;&gt;Node4 -->
<g id="edge3_Node000001_Node000004" class="edge">
<title>Node1&#45;&gt;Node4</title>
<g id="a_edge3_Node000001_Node000004"><a xlink:title=" ">
<path fill="none" stroke="#63b8ff" d="M346.72,-70.5C375.42,-60.17 409.42,-47.93 436.77,-38.08"/>
<polygon fill="#63b8ff" stroke="#63b8ff" points="345.43,-67.24 337.21,-73.92 347.8,-73.83 345.43,-67.24"/>
</a>
</g>
</g>
</g>
</svg>
