<?xml version="1.0" encoding="UTF-8" standalone="no"?>
<!DOCTYPE svg PUBLIC "-//W3C//DTD SVG 1.1//EN"
 "http://www.w3.org/Graphics/SVG/1.1/DTD/svg11.dtd">
<!-- Generated by graphviz version 2.43.0 (0)
 -->
<!-- Title: examples/esp32/main/MultiChannelExample.cpp Pages: 1 -->
<svg width="1337pt" height="223pt"
 viewBox="0.00 0.00 1337.00 223.00" xmlns="http://www.w3.org/2000/svg" xmlns:xlink="http://www.w3.org/1999/xlink">
<g id="graph0" class="graph" transform="scale(1 1) rotate(0) translate(4 219)">
<title>examples/esp32/main/MultiChannelExample.cpp</title>
<!-- Node1 -->
<g id="Node000001" class="node">
<title>Node1</title>
<g id="a_Node000001"><a xlink:title="Multi&#45;channel control example for TLE92466ED driver on ESP32&#45;C6.">
<polygon fill="#999999" stroke="#666666" points="814,-215 635,-215 635,-177 814,-177 814,-215"/>
<text text-anchor="start" x="643" y="-199.8" font-family="Arial" font-size="14.00">examples/esp32/main</text>
<text text-anchor="middle" x="724.5" y="-184.8" font-family="Arial" font-size="14.00">/MultiChannelExample.cpp</text>
</a>
</g>
</g>
<!-- Node2 -->
<g id="Node000002" class="node">
<title>Node2</title>
<g id="a_Node000002"><a xlink:title=" ">
<polygon fill="#e0e0e0" stroke="#999999" points="277.5,-141 221.5,-141 221.5,-118 277.5,-118 277.5,-141"/>
<text text-anchor="middle" x="249.5" y="-125.8" font-family="Arial" font-size="14.00">stdio.h</text>
</a>
</g>
</g>
<!-- Node1&#45;&gt;Node2 -->
<g id="edge1_Node000001_Node000002" class="edge">
<title>Node1&#45;&gt;Node2</title>
<g id="a_edge1_Node000001_Node000002"><a xlink:title=" ">
<path fill="none" stroke="#63b8ff" d="M634.87,-187.01C546.96,-178.43 409.35,-163 291.5,-141 290.25,-140.77 288.99,-140.52 287.71,-140.26"/>
<polygon fill="#63b8ff" stroke="#63b8ff" points="288.38,-136.82 277.86,-138.08 286.87,-143.66 288.38,-136.82"/>
</a>
</g>
</g>
<!-- Node3 -->
<g id="Node000003" class="node">
<title>Node3</title>
<g id="a_Node000003"><a xlink:title=" ">
<polygon fill="#e0e0e0" stroke="#999999" points="67,-82 0,-82 0,-59 67,-59 67,-82"/>
<text text-anchor="middle" x="33.5" y="-66.8" font-family="Arial" font-size="14.00">memory</text>
</a>
</g>
</g>
<!-- Node1&#45;&gt;Node3 -->
<g id="edge2_Node000001_Node000003" class="edge">
<title>Node1&#45;&gt;Node3</title>
<g id="a_edge2_Node000001_Node000003"><a xlink:title=" ">
<path fill="none" stroke="#63b8ff" d="M634.6,-195.07C550.47,-192.36 422.64,-181.08 319.5,-141 302.84,-134.52 303.04,-124.78 286.5,-118 201.39,-83.13 170.65,-100.31 77.23,-82.2"/>
<polygon fill="#63b8ff" stroke="#63b8ff" points="77.87,-78.76 67.37,-80.2 76.48,-85.62 77.87,-78.76"/>
</a>
</g>
</g>
<!-- Node4 -->
<g id="Node000004" class="node">
<title>Node4</title>
<g id="a_Node000004"><a xlink:title=" ">
<polygon fill="#e0e0e0" stroke="#999999" points="1198,-82 1151,-82 1151,-59 1198,-59 1198,-82"/>
<text text-anchor="middle" x="1174.5" y="-66.8" font-family="Arial" font-size="14.00">array</text>
</a>
</g>
</g>
<!-- Node1&#45;&gt;Node4 -->
<g id="edge3_Node000001_Node000004" class="edge">
<title>Node1&#45;&gt;Node4</title>
<g id="a_edge3_Node000001_Node000004"><a xlink:title=" ">
<path fill="none" stroke="#63b8ff" d="M747.61,-176.82C774.07,-156.37 816.12,-125.07 834.5,-118 955.3,-71.52 995.79,-103.07 1123.5,-82 1129.13,-81.07 1135.08,-79.96 1140.86,-78.82"/>
<polygon fill="#63b8ff" stroke="#63b8ff" points="1141.86,-82.19 1150.96,-76.75 1140.46,-75.33 1141.86,-82.19"/>
</a>
</g>
</g>
<!-- Node5 -->
<g id="Node000005" class="node">
<title>Node5</title>
<g id="a_Node000005"><a xlink:title=" ">
<polygon fill="#e0e0e0" stroke="#999999" points="986,-141 843,-141 843,-118 986,-118 986,-141"/>
<text text-anchor="middle" x="914.5" y="-125.8" font-family="Arial" font-size="14.00">freertos/FreeRTOS.h</text>
</a>
</g>
</g>
<!-- Node1&#45;&gt;Node5 -->
<g id="edge4_Node000001_Node000005" class="edge">
<title>Node1&#45;&gt;Node5</title>
<g id="a_edge4_Node000001_Node000005"><a xlink:title=" ">
<path fill="none" stroke="#63b8ff" d="M777.68,-176.95C808.12,-166.61 845.72,-153.85 873.8,-144.32"/>
<polygon fill="#63b8ff" stroke="#63b8ff" points="874.96,-147.62 883.31,-141.09 872.71,-140.99 874.96,-147.62"/>
</a>
</g>
</g>
<!-- Node6 -->
<g id="Node000006" class="node">
<title>Node6</title>
<g id="a_Node000006"><a xlink:title=" ">
<polygon fill="#e0e0e0" stroke="#999999" points="1106.5,-141 1004.5,-141 1004.5,-118 1106.5,-118 1106.5,-141"/>
<text text-anchor="middle" x="1055.5" y="-125.8" font-family="Arial" font-size="14.00">freertos/task.h</text>
</a>
</g>
</g>
<!-- Node1&#45;&gt;Node6 -->
<g id="edge5_Node000001_Node000006" class="edge">
<title>Node1&#45;&gt;Node6</title>
<g id="a_edge5_Node000001_Node000006"><a xlink:title=" ">
<path fill="none" stroke="#63b8ff" d="M814.07,-177.55C871.21,-166.41 943.77,-152.27 994.35,-142.42"/>
<polygon fill="#63b8ff" stroke="#63b8ff" points="995.34,-145.79 1004.48,-140.44 994,-138.92 995.34,-145.79"/>
</a>
</g>
</g>
<!-- Node7 -->
<g id="Node000007" class="node">
<title>Node7</title>
<g id="a_Node000007"><a xlink:title=" ">
<polygon fill="#e0e0e0" stroke="#999999" points="160,-82 85,-82 85,-59 160,-59 160,-82"/>
<text text-anchor="middle" x="122.5" y="-66.8" font-family="Arial" font-size="14.00">esp_log.h</text>
</a>
</g>
</g>
<!-- Node1&#45;&gt;Node7 -->
<g id="edge6_Node000001_Node000007" class="edge">
<title>Node1&#45;&gt;Node7</title>
<g id="a_edge6_Node000001_Node000007"><a xlink:title=" ">
<path fill="none" stroke="#63b8ff" d="M634.98,-191.73C559.15,-186.65 448.56,-173.74 357.5,-141 338.92,-134.32 337.77,-125.47 319.5,-118 315.98,-116.56 227.14,-95.81 169.98,-82.52"/>
<polygon fill="#63b8ff" stroke="#63b8ff" points="170.59,-79.06 160.05,-80.21 169,-85.88 170.59,-79.06"/>
</a>
</g>
</g>
<!-- Node8 -->
<g id="Node000008" class="node">
<title>Node8</title>
<g id="a_Node000008"><a xlink:title=" ">
<polygon fill="#e0e0e0" stroke="#999999" points="1226,-141 1125,-141 1125,-118 1226,-118 1226,-141"/>
<text text-anchor="middle" x="1175.5" y="-125.8" font-family="Arial" font-size="14.00">esp_system.h</text>
</a>
</g>
</g>
<!-- Node1&#45;&gt;Node8 -->
<g id="edge7_Node000001_Node000008" class="edge">
<title>Node1&#45;&gt;Node8</title>
<g id="a_edge7_Node000001_Node000008"><a xlink:title=" ">
<path fill="none" stroke="#63b8ff" d="M814.32,-183.53C891.33,-173.48 1005.5,-158.07 1114.89,-141.05"/>
<polygon fill="#63b8ff" stroke="#63b8ff" points="1115.44,-144.51 1124.78,-139.51 1114.36,-137.59 1115.44,-144.51"/>
</a>
</g>
</g>
<!-- Node9 -->
<g id="Node000009" class="node">
<title>Node9</title>
<g id="a_Node000009"><a xlink:title=" ">
<polygon fill="#e0e0e0" stroke="#999999" points="265,-82 178,-82 178,-59 265,-59 265,-82"/>
<text text-anchor="middle" x="221.5" y="-66.8" font-family="Arial" font-size="14.00">esp_timer.h</text>
</a>
</g>
</g>
<!-- Node1&#45;&gt;Node9 -->
<g id="edge8_Node000001_Node000009" class="edge">
<title>Node1&#45;&gt;Node9</title>
<g id="a_edge8_Node000001_Node000009"><a xlink:title=" ">
<path fill="none" stroke="#63b8ff" d="M634.92,-187.98C568.78,-180.91 477.29,-167.14 400.5,-141 379.98,-134.01 377.37,-126.65 357.5,-118 328.08,-105.2 293.91,-93.53 267.17,-85.08"/>
<polygon fill="#63b8ff" stroke="#63b8ff" points="267.91,-81.64 257.32,-82.01 265.82,-88.33 267.91,-81.64"/>
</a>
</g>
</g>
<!-- Node10 -->
<g id="Node000010" class="node">
<title>Node10</title>
<g id="a_Node000010"><a xlink:title=" ">
<polygon fill="#e0e0e0" stroke="#999999" points="1329,-141 1244,-141 1244,-118 1329,-118 1329,-141"/>
<text text-anchor="middle" x="1286.5" y="-125.8" font-family="Arial" font-size="14.00">nvs_flash.h</text>
</a>
</g>
</g>
<!-- Node1&#45;&gt;Node10 -->
<g id="edge9_Node000001_Node000010" class="edge">
<title>Node1&#45;&gt;Node10</title>
<g id="a_edge9_Node000001_Node000010"><a xlink:title=" ">
<path fill="none" stroke="#63b8ff" d="M814.38,-188.18C914.52,-179.97 1081.37,-164.49 1233.95,-141.13"/>
<polygon fill="#63b8ff" stroke="#63b8ff" points="1234.63,-144.56 1243.98,-139.58 1233.56,-137.65 1234.63,-144.56"/>
</a>
</g>
</g>
<!-- Node11 -->
<g id="Node000011" class="node">
<title>Node11</title>
<g id="a_Node000011"><a xlink:href="TLE92466ED_8hpp.html" target="_top" xlink:title="Main driver class for TLE92466ED Six&#45;Channel Low&#45;Side Solenoid Driver IC.">
<polygon fill="white" stroke="#666666" points="786.5,-141 662.5,-141 662.5,-118 786.5,-118 786.5,-141"/>
<text text-anchor="middle" x="724.5" y="-125.8" font-family="Arial" font-size="14.00">TLE92466ED.hpp</text>
</a>
</g>
</g>
<!-- Node1&#45;&gt;Node11 -->
<g id="edge10_Node000001_Node000011" class="edge">
<title>Node1&#45;&gt;Node11</title>
<g id="a_edge10_Node000001_Node000011"><a xlink:title=" ">
<path fill="none" stroke="#63b8ff" d="M724.5,-176.69C724.5,-168.8 724.5,-159.54 724.5,-151.39"/>
<polygon fill="#63b8ff" stroke="#63b8ff" points="728,-151.19 724.5,-141.19 721,-151.19 728,-151.19"/>
</a>
</g>
</g>
<!-- Node18 -->
<g id="Node000018" class="node">
<title>Node18</title>
<g id="a_Node000018"><a xlink:href="ESP32C6__HAL_8hpp.html" target="_top" xlink:title="ESP32&#45;C6 Hardware Abstraction Layer for TLE92466ED driver.">
<polygon fill="white" stroke="#666666" points="545.5,-141 409.5,-141 409.5,-118 545.5,-118 545.5,-141"/>
<text text-anchor="middle" x="477.5" y="-125.8" font-family="Arial" font-size="14.00">ESP32C6_HAL.hpp</text>
</a>
</g>
</g>
<!-- Node1&#45;&gt;Node18 -->
<g id="edge20_Node000001_Node000018" class="edge">
<title>Node1&#45;&gt;Node18</title>
<g id="a_edge20_Node000001_Node000018"><a xlink:title=" ">
<path fill="none" stroke="#63b8ff" d="M655.37,-176.95C614.93,-166.39 564.77,-153.29 528.04,-143.7"/>
<polygon fill="#63b8ff" stroke="#63b8ff" points="528.61,-140.23 518.05,-141.09 526.84,-147 528.61,-140.23"/>
</a>
</g>
</g>
<!-- Node11&#45;&gt;Node4 -->
<g id="edge19_Node000011_Node000004" class="edge">
<title>Node11&#45;&gt;Node4</title>
<g id="a_edge19_Node000011_Node000004"><a xlink:title=" ">
<path fill="none" stroke="#63b8ff" d="M786.69,-119.75C791.36,-119.14 796,-118.55 800.5,-118 949.57,-99.72 988.96,-110.09 1136.5,-82 1137.97,-81.72 1139.47,-81.41 1140.98,-81.08"/>
<polygon fill="#63b8ff" stroke="#63b8ff" points="1142.04,-84.42 1150.92,-78.65 1140.38,-77.62 1142.04,-84.42"/>
</a>
</g>
</g>
<!-- Node12 -->
<g id="Node000012" class="node">
<title>Node12</title>
<g id="a_Node000012"><a xlink:href="TLE92466ED__HAL_8hpp.html" target="_top" xlink:title="Hardware Abstraction Layer (HAL) base class for TLE92466ED driver.">
<polygon fill="white" stroke="#666666" points="1094.5,-82 936.5,-82 936.5,-59 1094.5,-59 1094.5,-82"/>
<text text-anchor="middle" x="1015.5" y="-66.8" font-family="Arial" font-size="14.00">TLE92466ED_HAL.hpp</text>
</a>
</g>
</g>
<!-- Node11&#45;&gt;Node12 -->
<g id="edge11_Node000011_Node000012" class="edge">
<title>Node11&#45;&gt;Node12</title>
<g id="a_edge11_Node000011_Node000012"><a xlink:title=" ">
<path fill="none" stroke="#63b8ff" d="M778.21,-117.98C827.17,-108.39 899.57,-94.21 951.51,-84.03"/>
<polygon fill="#63b8ff" stroke="#63b8ff" points="952.47,-87.41 961.61,-82.06 951.12,-80.54 952.47,-87.41"/>
</a>
</g>
</g>
<!-- Node16 -->
<g id="Node000016" class="node">
<title>Node16</title>
<g id="a_Node000016"><a xlink:title=" ">
<polygon fill="#e0e0e0" stroke="#999999" points="1153,-23 1082,-23 1082,0 1153,0 1153,-23"/>
<text text-anchor="middle" x="1117.5" y="-7.8" font-family="Arial" font-size="14.00">expected</text>
</a>
</g>
</g>
<!-- Node11&#45;&gt;Node16 -->
<g id="edge18_Node000011_Node000016" class="edge">
<title>Node11&#45;&gt;Node16</title>
<g id="a_edge18_Node000011_Node000016"><a xlink:title=" ">
<path fill="none" stroke="#63b8ff" d="M786.7,-119.81C791.37,-119.19 796.01,-118.58 800.5,-118 867.75,-109.36 1053.66,-127.98 1103.5,-82 1116.68,-69.84 1119.39,-49.02 1119.28,-33.33"/>
<polygon fill="#63b8ff" stroke="#63b8ff" points="1122.76,-32.84 1118.82,-23.01 1115.77,-33.16 1122.76,-32.84"/>
</a>
</g>
</g>
<!-- Node17 -->
<g id="Node000017" class="node">
<title>Node17</title>
<g id="a_Node000017"><a xlink:href="TLE92466ED__Registers_8hpp.html" target="_top" xlink:title="Register definitions and bit field mappings for TLE92466ED IC.">
<polygon fill="white" stroke="#666666" points="918.5,-82 730.5,-82 730.5,-59 918.5,-59 918.5,-82"/>
<text text-anchor="middle" x="824.5" y="-66.8" font-family="Arial" font-size="14.00">TLE92466ED_Registers.hpp</text>
</a>
</g>
</g>
<!-- Node11&#45;&gt;Node17 -->
<g id="edge16_Node000011_Node000017" class="edge">
<title>Node11&#45;&gt;Node17</title>
<g id="a_edge16_Node000011_Node000017"><a xlink:title=" ">
<path fill="none" stroke="#63b8ff" d="M743.31,-117.78C758.39,-109.18 779.79,-96.99 796.82,-87.28"/>
<polygon fill="#63b8ff" stroke="#63b8ff" points="798.82,-90.17 805.78,-82.17 795.35,-84.08 798.82,-90.17"/>
</a>
</g>
</g>
<!-- Node13 -->
<g id="Node000013" class="node">
<title>Node13</title>
<g id="a_Node000013"><a xlink:title=" ">
<polygon fill="#e0e0e0" stroke="#999999" points="852.5,-23 796.5,-23 796.5,0 852.5,0 852.5,-23"/>
<text text-anchor="middle" x="824.5" y="-7.8" font-family="Arial" font-size="14.00">cstdint</text>
</a>
</g>
</g>
<!-- Node12&#45;&gt;Node13 -->
<g id="edge12_Node000012_Node000013" class="edge">
<title>Node12&#45;&gt;Node13</title>
<g id="a_edge12_Node000012_Node000013"><a xlink:title=" ">
<path fill="none" stroke="#63b8ff" d="M980.02,-58.91C946.54,-48.92 896.5,-33.99 862.28,-23.78"/>
<polygon fill="#63b8ff" stroke="#63b8ff" points="863.23,-20.41 852.65,-20.9 861.23,-27.11 863.23,-20.41"/>
</a>
</g>
</g>
<!-- Node14 -->
<g id="Node000014" class="node">
<title>Node14</title>
<g id="a_Node000014"><a xlink:title=" ">
<polygon fill="#e0e0e0" stroke="#999999" points="1055,-23 984,-23 984,0 1055,0 1055,-23"/>
<text text-anchor="middle" x="1019.5" y="-7.8" font-family="Arial" font-size="14.00">concepts</text>
</a>
</g>
</g>
<!-- Node12&#45;&gt;Node14 -->
<g id="edge13_Node000012_Node000014" class="edge">
<title>Node12&#45;&gt;Node14</title>
<g id="a_edge13_Node000012_Node000014"><a xlink:title=" ">
<path fill="none" stroke="#63b8ff" d="M1016.25,-58.78C1016.76,-51.61 1017.43,-41.95 1018.04,-33.31"/>
<polygon fill="#63b8ff" stroke="#63b8ff" points="1021.54,-33.39 1018.75,-23.17 1014.56,-32.9 1021.54,-33.39"/>
</a>
</g>
</g>
<!-- Node15 -->
<g id="Node000015" class="node">
<title>Node15</title>
<g id="a_Node000015"><a xlink:title=" ">
<polygon fill="#e0e0e0" stroke="#999999" points="965.5,-23 919.5,-23 919.5,0 965.5,0 965.5,-23"/>
<text text-anchor="middle" x="942.5" y="-7.8" font-family="Arial" font-size="14.00">span</text>
</a>
</g>
</g>
<!-- Node12&#45;&gt;Node15 -->
<g id="edge14_Node000012_Node000015" class="edge">
<title>Node12&#45;&gt;Node15</title>
<g id="a_edge14_Node000012_Node000015"><a xlink:title=" ">
<path fill="none" stroke="#63b8ff" d="M1001.77,-58.78C991.17,-50.5 976.29,-38.89 964.1,-29.36"/>
<polygon fill="#63b8ff" stroke="#63b8ff" points="966.21,-26.57 956.17,-23.17 961.9,-32.09 966.21,-26.57"/>
</a>
</g>
</g>
<!-- Node12&#45;&gt;Node16 -->
<g id="edge15_Node000012_Node000016" class="edge">
<title>Node12&#45;&gt;Node16</title>
<g id="a_edge15_Node000012_Node000016"><a xlink:title=" ">
<path fill="none" stroke="#63b8ff" d="M1034.69,-58.78C1050.07,-50.18 1071.89,-37.99 1089.27,-28.28"/>
<polygon fill="#63b8ff" stroke="#63b8ff" points="1091.38,-31.11 1098.4,-23.17 1087.96,-25 1091.38,-31.11"/>
</a>
</g>
</g>
<!-- Node17&#45;&gt;Node13 -->
<g id="edge17_Node000017_Node000013" class="edge">
<title>Node17&#45;&gt;Node13</title>
<g id="a_edge17_Node000017_Node000013"><a xlink:title=" ">
<path fill="none" stroke="#63b8ff" d="M824.5,-58.78C824.5,-51.61 824.5,-41.95 824.5,-33.31"/>
<polygon fill="#63b8ff" stroke="#63b8ff" points="828,-33.17 824.5,-23.17 821,-33.17 828,-33.17"/>
</a>
</g>
</g>
<!-- Node18&#45;&gt;Node3 -->
<g id="edge28_Node000018_Node000003" class="edge">
<title>Node18&#45;&gt;Node3</title>
<g id="a_edge28_Node000018_Node000003"><a xlink:title=" ">
<path fill="none" stroke="#63b8ff" d="M409.17,-123.32C330.99,-116.78 198.99,-103.87 77.21,-82.15"/>
<polygon fill="#63b8ff" stroke="#63b8ff" points="77.81,-78.7 67.34,-80.36 76.56,-85.59 77.81,-78.7"/>
</a>
</g>
</g>
<!-- Node18&#45;&gt;Node7 -->
<g id="edge27_Node000018_Node000007" class="edge">
<title>Node18&#45;&gt;Node7</title>
<g id="a_edge27_Node000018_Node000007"><a xlink:title=" ">
<path fill="none" stroke="#63b8ff" d="M409.44,-119.75C348.93,-111.63 257.86,-98.58 169.98,-82.18"/>
<polygon fill="#63b8ff" stroke="#63b8ff" points="170.58,-78.74 160.11,-80.33 169.29,-85.62 170.58,-78.74"/>
</a>
</g>
</g>
<!-- Node18&#45;&gt;Node9 -->
<g id="edge26_Node000018_Node000009" class="edge">
<title>Node18&#45;&gt;Node9</title>
<g id="a_edge26_Node000018_Node000009"><a xlink:title=" ">
<path fill="none" stroke="#63b8ff" d="M430.25,-117.98C386.23,-108.18 320.69,-93.59 274.82,-83.37"/>
<polygon fill="#63b8ff" stroke="#63b8ff" points="275.58,-79.96 265.06,-81.2 274.06,-86.79 275.58,-79.96"/>
</a>
</g>
</g>
<!-- Node18&#45;&gt;Node12 -->
<g id="edge21_Node000018_Node000012" class="edge">
<title>Node18&#45;&gt;Node12</title>
<g id="a_edge21_Node000018_Node000012"><a xlink:title=" ">
<path fill="none" stroke="#63b8ff" d="M545.77,-121.78C631.9,-113.23 784.88,-97.8 926.2,-82.13"/>
<polygon fill="#63b8ff" stroke="#63b8ff" points="926.8,-85.59 936.35,-81 926.03,-78.63 926.8,-85.59"/>
</a>
</g>
</g>
<!-- Node19 -->
<g id="Node000019" class="node">
<title>Node19</title>
<g id="a_Node000019"><a xlink:href="TLE92466ED__Config_8hpp.html" target="_top" xlink:title="Hardware configuration for TLE92466ED driver on ESP32&#45;C6.">
<polygon fill="white" stroke="#666666" points="562.5,-82 392.5,-82 392.5,-59 562.5,-59 562.5,-82"/>
<text text-anchor="middle" x="477.5" y="-66.8" font-family="Arial" font-size="14.00">TLE92466ED_Config.hpp</text>
</a>
</g>
</g>
<!-- Node18&#45;&gt;Node19 -->
<g id="edge22_Node000018_Node000019" class="edge">
<title>Node18&#45;&gt;Node19</title>
<g id="a_edge22_Node000018_Node000019"><a xlink:title=" ">
<path fill="none" stroke="#63b8ff" d="M477.5,-117.78C477.5,-110.61 477.5,-100.95 477.5,-92.31"/>
<polygon fill="#63b8ff" stroke="#63b8ff" points="481,-92.17 477.5,-82.17 474,-92.17 481,-92.17"/>
</a>
</g>
</g>
<!-- Node20 -->
<g id="Node000020" class="node">
<title>Node20</title>
<g id="a_Node000020"><a xlink:title=" ">
<polygon fill="#e0e0e0" stroke="#999999" points="712,-82 581,-82 581,-59 712,-59 712,-82"/>
<text text-anchor="middle" x="646.5" y="-66.8" font-family="Arial" font-size="14.00">driver/spi_master.h</text>
</a>
</g>
</g>
<!-- Node18&#45;&gt;Node20 -->
<g id="edge24_Node000018_Node000020" class="edge">
<title>Node18&#45;&gt;Node20</title>
<g id="a_edge24_Node000018_Node000020"><a xlink:title=" ">
<path fill="none" stroke="#63b8ff" d="M508.89,-117.91C536.16,-108.71 575.85,-95.33 605.6,-85.29"/>
<polygon fill="#63b8ff" stroke="#63b8ff" points="606.92,-88.54 615.28,-82.03 604.68,-81.91 606.92,-88.54"/>
</a>
</g>
</g>
<!-- Node21 -->
<g id="Node000021" class="node">
<title>Node21</title>
<g id="a_Node000021"><a xlink:title=" ">
<polygon fill="#e0e0e0" stroke="#999999" points="374,-82 283,-82 283,-59 374,-59 374,-82"/>
<text text-anchor="middle" x="328.5" y="-66.8" font-family="Arial" font-size="14.00">driver/gpio.h</text>
</a>
</g>
</g>
<!-- Node18&#45;&gt;Node21 -->
<g id="edge25_Node000018_Node000021" class="edge">
<title>Node18&#45;&gt;Node21</title>
<g id="a_edge25_Node000018_Node000021"><a xlink:title=" ">
<path fill="none" stroke="#63b8ff" d="M449.82,-117.91C426.09,-108.83 391.7,-95.68 365.59,-85.69"/>
<polygon fill="#63b8ff" stroke="#63b8ff" points="366.62,-82.34 356.03,-82.03 364.12,-88.87 366.62,-82.34"/>
</a>
</g>
</g>
<!-- Node19&#45;&gt;Node13 -->
<g id="edge23_Node000019_Node000013" class="edge">
<title>Node19&#45;&gt;Node13</title>
<g id="a_edge23_Node000019_Node000013"><a xlink:title=" ">
<path fill="none" stroke="#63b8ff" d="M541.55,-58.98C613.23,-47.2 727.03,-28.51 786.09,-18.81"/>
<polygon fill="#63b8ff" stroke="#63b8ff" points="786.82,-22.24 796.12,-17.16 785.68,-15.33 786.82,-22.24"/>
</a>
</g>
</g>
</g>
</svg>
