<?xml version="1.0" encoding="UTF-8" standalone="no"?>
<!DOCTYPE svg PUBLIC "-//W3C//DTD SVG 1.1//EN"
 "http://www.w3.org/Graphics/SVG/1.1/DTD/svg11.dtd">
<!-- Generated by graphviz version 2.43.0 (0)
 -->
<!-- Title: examples/esp32/main/TLE92466ED_Config.hpp Pages: 1 -->
<!--zoomable 194 -->

<svg id="main" version="1.1" xmlns="http://www.w3.org/2000/svg" xmlns:xlink="http://www.w3.org/1999/xlink" xml:space="preserve" onload="init(evt)">
<style type="text/css"><![CDATA[
.node, .edge {opacity: 0.7;}
.node.selected, .edge.selected {opacity: 1;}
.edge:hover path { stroke: red; }
.edge:hover polygon { stroke: red; fill: red; }
]]></style>

<defs>
  <circle id="rim" cx="0" cy="0" r="7"/>
  <circle id="rim2" cx="0" cy="0" r="3.5"/>
  <g id="zoomPlus">
    <use xlink:href="#rim" fill="#404040"><set attributeName="fill" to="#808080" begin="zoomplus.mouseover" end="zoomplus.mouseout"/></use>
    <path d="M-4,0h8M0,-4v8" fill="none" stroke="white" stroke-width="1.5" pointer-events="none"/>
  </g>
  <g id="zoomMin">
    <use xlink:href="#rim" fill="#404040"><set attributeName="fill" to="#808080" begin="zoomminus.mouseover" end="zoomminus.mouseout"/></use>
    <path d="M-4,0h8" fill="none" stroke="white" stroke-width="1.5" pointer-events="none"/>
  </g>
  <g id="arrowUp" transform="translate(30 24)">
    <use xlink:href="#rim"/>
    <path pointer-events="none" fill="none" stroke="white" stroke-width="1.5" d="M0,-3.0v7 M-2.5,-0.5L0,-3.0L2.5,-0.5"/>
  </g>
  <g id="arrowRight" transform="rotate(90) translate(36 -43)">
    <use xlink:href="#rim"/>
    <path pointer-events="none" fill="none" stroke="white" stroke-width="1.5" d="M0,-3.0v7 M-2.5,-0.5L0,-3.0L2.5,-0.5"/>
  </g>
  <g id="arrowDown" transform="rotate(180) translate(-30 -48)">
    <use xlink:href="#rim"/>
    <path pointer-events="none" fill="none" stroke="white" stroke-width="1.5" d="M0,-3.0v7 M-2.5,-0.5L0,-3.0L2.5,-0.5"/>
  </g>
  <g id="arrowLeft" transform="rotate(270) translate(-36 17)">
    <use xlink:href="#rim"/>
    <path pointer-events="none" fill="none" stroke="white" stroke-width="1.5" d="M0,-3.0v7 M-2.5,-0.5L0,-3.0L2.5,-0.5"/>
  </g>
  <g id="resetDef">
    <use xlink:href="#rim2" fill="#404040"><set attributeName="fill" to="#808080" begin="reset.mouseover" end="reset.mouseout"/></use>
  </g>
</defs>
<script type="application/ecmascript">
var viewWidth = 591;
var viewHeight = 194;
var sectionId = 'dynsection-1';
</script>
<script type="application/ecmascript" xlink:href="svg.min.js"/>
<svg id="graph" class="graph">
<g id="viewport">
<title>examples/esp32/main/TLE92466ED_Config.hpp</title>
<!-- Node1 -->
<g id="Node000001" class="node">
<title>Node1</title>
<g id="a_Node000001"><a xlink:title="Hardware configuration for TLE92466ED driver on ESP32&#45;C6.">
<polygon fill="#999999" stroke="#666666" points="374.5,-186 200.5,-186 200.5,-148 374.5,-148 374.5,-186"/>
<text text-anchor="start" x="208.5" y="-170.8" font-family="Arial" font-size="14.00">examples/esp32/main</text>
<text text-anchor="middle" x="287.5" y="-155.8" font-family="Arial" font-size="14.00">/TLE92466ED_Config.hpp</text>
</a>
</g>
</g>
<!-- Node2 -->
<g id="Node000002" class="node">
<title>Node2</title>
<g id="a_Node000002"><a xlink:href="Esp32TleCommInterface_8hpp.html" target="_top" xlink:title="ESP32 Communication Interface implementation for TLE92466ED driver.">
<polygon fill="white" stroke="#666666" points="386,-112 189,-112 189,-74 386,-74 386,-112"/>
<text text-anchor="start" x="197" y="-96.8" font-family="Arial" font-size="14.00">examples/esp32/main</text>
<text text-anchor="middle" x="287.5" y="-81.8" font-family="Arial" font-size="14.00">/Esp32TleCommInterface.hpp</text>
</a>
</g>
</g>
<!-- Node1&#45;&gt;Node2 -->
<g id="edge1_Node000001_Node000002" class="edge">
<title>Node1&#45;&gt;Node2</title>
<g id="a_edge1_Node000001_Node000002"><a xlink:title=" ">
<path fill="none" stroke="#63b8ff" d="M287.5,-137.57C287.5,-129.11 287.5,-120.06 287.5,-112.41"/>
<polygon fill="#63b8ff" stroke="#63b8ff" points="284,-137.83 287.5,-147.83 291,-137.83 284,-137.83"/>
</a>
</g>
</g>
<!-- Node3 -->
<g id="Node000003" class="node">
<title>Node3</title>
<g id="a_Node000003"><a xlink:href="BasicUsageExample_8cpp.html" target="_top" xlink:title="Basic usage example for TLE92466ED driver on ESP32&#45;C6.">
<polygon fill="white" stroke="#666666" points="171,-38 0,-38 0,0 171,0 171,-38"/>
<text text-anchor="start" x="8" y="-22.8" font-family="Arial" font-size="14.00">examples/esp32/main</text>
<text text-anchor="middle" x="85.5" y="-7.8" font-family="Arial" font-size="14.00">/BasicUsageExample.cpp</text>
</a>
</g>
</g>
<!-- Node2&#45;&gt;Node3 -->
<g id="edge2_Node000002_Node000003" class="edge">
<title>Node2&#45;&gt;Node3</title>
<g id="a_edge2_Node000002_Node000003"><a xlink:title=" ">
<path fill="none" stroke="#63b8ff" d="M227.18,-70.5C198.2,-60.17 163.85,-47.93 136.23,-38.08"/>
<polygon fill="#63b8ff" stroke="#63b8ff" points="226.19,-73.86 236.79,-73.92 228.54,-67.27 226.19,-73.86"/>
</a>
</g>
</g>
<!-- Node4 -->
<g id="Node000004" class="node">
<title>Node4</title>
<g id="a_Node000004"><a xlink:href="Esp32TleCommInterface_8cpp.html" target="_top" xlink:title="ESP32 Communication Interface implementation for TLE92466ED driver.">
<polygon fill="white" stroke="#666666" points="386,-38 189,-38 189,0 386,0 386,-38"/>
<text text-anchor="start" x="197" y="-22.8" font-family="Arial" font-size="14.00">examples/esp32/main</text>
<text text-anchor="middle" x="287.5" y="-7.8" font-family="Arial" font-size="14.00">/Esp32TleCommInterface.cpp</text>
</a>
</g>
</g>
<!-- Node2&#45;&gt;Node4 -->
<g id="edge3_Node000002_Node000004" class="edge">
<title>Node2&#45;&gt;Node4</title>
<g id="a_edge3_Node000002_Node000004"><a xlink:title=" ">
<path fill="none" stroke="#63b8ff" d="M287.5,-63.57C287.5,-55.11 287.5,-46.06 287.5,-38.41"/>
<polygon fill="#63b8ff" stroke="#63b8ff" points="284,-63.83 287.5,-73.83 291,-63.83 284,-63.83"/>
</a>
</g>
</g>
<!-- Node5 -->
<g id="Node000005" class="node">
<title>Node5</title>
<g id="a_Node000005"><a xlink:href="MultiChannelExample_8cpp.html" target="_top" xlink:title="Multi&#45;channel control example for TLE92466ED driver on ESP32&#45;C6.">
<polygon fill="white" stroke="#666666" points="583,-38 404,-38 404,0 583,0 583,-38"/>
<text text-anchor="start" x="412" y="-22.8" font-family="Arial" font-size="14.00">examples/esp32/main</text>
<text text-anchor="middle" x="493.5" y="-7.8" font-family="Arial" font-size="14.00">/MultiChannelExample.cpp</text>
</a>
</g>
</g>
<!-- Node2&#45;&gt;Node5 -->
<g id="edge4_Node000002_Node000005" class="edge">
<title>Node2&#45;&gt;Node5</title>
<g id="a_edge4_Node000002_Node000005"><a xlink:title=" ">
<path fill="none" stroke="#63b8ff" d="M349.01,-70.5C378.57,-60.17 413.6,-47.93 441.76,-38.08"/>
<polygon fill="#63b8ff" stroke="#63b8ff" points="347.5,-67.32 339.22,-73.92 349.81,-73.93 347.5,-67.32"/>
</a>
</g>
</g>
</g>
</svg>

<g id="navigator" transform="translate(0 0)" fill="#404254">
  <rect fill="#f2f5e9" fill-opacity="0.5" stroke="#606060" stroke-width=".5" x="0" y="0" width="60" height="60"/>
  <use id="zoomplus" xlink:href="#zoomPlus" x="17" y="9" onmousedown="handleZoom(evt,'in')"/>
  <use id="zoomminus" xlink:href="#zoomMin" x="42" y="9" onmousedown="handleZoom(evt,'out')"/>
  <use id="reset" xlink:href="#resetDef" x="30" y="36" onmousedown="handleReset()"/>
   <use id="arrowup" xlink:href="#arrowUp" x="0" y="0" onmousedown="handlePan(0,-1)"/>
  <use id="arrowright" xlink:href="#arrowRight" x="0" y="0" onmousedown="handlePan(1,0)"/>
  <use id="arrowdown" xlink:href="#arrowDown" x="0" y="0" onmousedown="handlePan(0,1)"/>
  <use id="arrowleft" xlink:href="#arrowLeft" x="0" y="0" onmousedown="handlePan(-1,0)"/>
</g>
<svg viewBox="0 0 15 15" width="100%" height="30px" preserveAspectRatio="xMaxYMin meet">
 <g id="arrow_out" transform="scale(0.3 0.3)">
  <a xlink:href="TLE92466ED__Config_8hpp__dep__incl_org.svg" target="_base">
   <rect id="button" ry="5" rx="5" y="6" x="6" height="38" width="38"
        fill="#f2f5e9" fill-opacity="0.5" stroke="#606060" stroke-width="1.0"/>
   <path id="arrow"
     d="M 11.500037,31.436501 C 11.940474,20.09759 22.043105,11.32322 32.158766,21.979434 L 37.068811,17.246167 C 37.068811,17.246167 37.088388,32 37.088388,32 L 22.160133,31.978069 C 22.160133,31.978069 26.997745,27.140456 26.997745,27.140456 C 18.528582,18.264221 13.291696,25.230495 11.500037,31.436501 z"
     style="fill:#404040;"/>
  </a>
 </g>
</svg>

<style type='text/css'>
<![CDATA[
[data-mouse-over-selected='false'] { opacity: 0.7; }
[data-mouse-over-selected='true']  { opacity: 1.0; }
]]>
</style>
<script type="application/ecmascript"><![CDATA[
document.addEventListener('DOMContentLoaded', (event) => {
  highlightEdges();
  highlightAdjacentNodes();
});
]]></script>
</svg>
