<?xml version="1.0" encoding="UTF-8" standalone="no"?>
<!DOCTYPE svg PUBLIC "-//W3C//DTD SVG 1.1//EN"
 "http://www.w3.org/Graphics/SVG/1.1/DTD/svg11.dtd">
<!-- Generated by graphviz version 2.43.0 (0)
 -->
<!-- Title: examples/esp32/main/TLE92466ED_TestConfig.hpp Pages: 1 -->
<svg width="579pt" height="194pt"
 viewBox="0.00 0.00 578.50 194.00" xmlns="http://www.w3.org/2000/svg" xmlns:xlink="http://www.w3.org/1999/xlink">
<g id="graph0" class="graph" transform="scale(1 1) rotate(0) translate(4 190)">
<title>examples/esp32/main/TLE92466ED_TestConfig.hpp</title>
<!-- Node1 -->
<g id="Node000001" class="node">
<title>Node1</title>
<g id="a_Node000001"><a xlink:title="Hardware configuration for TLE92466ED driver on ESP32&#45;C6.">
<polygon fill="#999999" stroke="#666666" points="485.5,-186 286.5,-186 286.5,-148 485.5,-148 485.5,-186"/>
<text text-anchor="start" x="294.5" y="-170.8" font-family="Arial" font-size="14.00">examples/esp32/main</text>
<text text-anchor="middle" x="386" y="-155.8" font-family="Arial" font-size="14.00">/TLE92466ED_TestConfig.hpp</text>
</a>
</g>
</g>
<!-- Node2 -->
<g id="Node000002" class="node">
<title>Node2</title>
<g id="a_Node000002"><a xlink:href="Esp32TleCommInterface_8hpp.html" target="_top" xlink:title="ESP32 Communication Interface implementation for TLE92466ED driver.">
<polygon fill="white" stroke="#666666" points="421.5,-112 224.5,-112 224.5,-74 421.5,-74 421.5,-112"/>
<text text-anchor="start" x="232.5" y="-96.8" font-family="Arial" font-size="14.00">examples/esp32/main</text>
<text text-anchor="middle" x="323" y="-81.8" font-family="Arial" font-size="14.00">/Esp32TleCommInterface.hpp</text>
</a>
</g>
</g>
<!-- Node1&#45;&gt;Node2 -->
<g id="edge1_Node000001_Node000002" class="edge">
<title>Node1&#45;&gt;Node2</title>
<g id="a_edge1_Node000001_Node000002"><a xlink:title=" ">
<path fill="none" stroke="#63b8ff" d="M363.33,-140.09C355.32,-130.93 346.47,-120.82 339.11,-112.41"/>
<polygon fill="#63b8ff" stroke="#63b8ff" points="360.88,-142.61 370.1,-147.83 366.15,-138 360.88,-142.61"/>
</a>
</g>
</g>
<!-- Node5 -->
<g id="Node000005" class="node">
<title>Node5</title>
<g id="a_Node000005"><a xlink:href="SolenoidControlTest_8cpp.html" target="_top" xlink:title="Real Hardware Solenoid Control Test with ADC&#45;Based Current Control.">
<polygon fill="white" stroke="#666666" points="570.5,-38 403.5,-38 403.5,0 570.5,0 570.5,-38"/>
<text text-anchor="start" x="411.5" y="-22.8" font-family="Arial" font-size="14.00">examples/esp32/main</text>
<text text-anchor="middle" x="487" y="-7.8" font-family="Arial" font-size="14.00">/SolenoidControlTest.cpp</text>
</a>
</g>
</g>
<!-- Node1&#45;&gt;Node5 -->
<g id="edge5_Node000001_Node000005" class="edge">
<title>Node1&#45;&gt;Node5</title>
<g id="a_edge5_Node000001_Node000005"><a xlink:title=" ">
<path fill="none" stroke="#63b8ff" d="M409.25,-139.7C416.49,-131.08 424.33,-121.33 431,-112 448.62,-87.36 466.36,-57.06 477.02,-38.14"/>
<polygon fill="#63b8ff" stroke="#63b8ff" points="406.37,-137.68 402.53,-147.55 411.69,-142.22 406.37,-137.68"/>
</a>
</g>
</g>
<!-- Node3 -->
<g id="Node000003" class="node">
<title>Node3</title>
<g id="a_Node000003"><a xlink:href="DriverIntegrationTest_8cpp.html" target="_top" xlink:title="Comprehensive Integration Test Suite for TLE92466ED Driver.">
<polygon fill="white" stroke="#666666" points="170,-38 0,-38 0,0 170,0 170,-38"/>
<text text-anchor="start" x="8" y="-22.8" font-family="Arial" font-size="14.00">examples/esp32/main</text>
<text text-anchor="middle" x="85" y="-7.8" font-family="Arial" font-size="14.00">/DriverIntegrationTest.cpp</text>
</a>
</g>
</g>
<!-- Node2&#45;&gt;Node3 -->
<g id="edge2_Node000002_Node000003" class="edge">
<title>Node2&#45;&gt;Node3</title>
<g id="a_edge2_Node000002_Node000003"><a xlink:title=" ">
<path fill="none" stroke="#63b8ff" d="M253.27,-70.9C218.84,-60.49 177.74,-48.06 144.77,-38.08"/>
<polygon fill="#63b8ff" stroke="#63b8ff" points="252.66,-74.38 263.25,-73.92 254.69,-67.68 252.66,-74.38"/>
</a>
</g>
</g>
<!-- Node4 -->
<g id="Node000004" class="node">
<title>Node4</title>
<g id="a_Node000004"><a xlink:href="Esp32TleCommInterface_8cpp.html" target="_top" xlink:title="ESP32 Communication Interface implementation for TLE92466ED driver.">
<polygon fill="white" stroke="#666666" points="385.5,-38 188.5,-38 188.5,0 385.5,0 385.5,-38"/>
<text text-anchor="start" x="196.5" y="-22.8" font-family="Arial" font-size="14.00">examples/esp32/main</text>
<text text-anchor="middle" x="287" y="-7.8" font-family="Arial" font-size="14.00">/Esp32TleCommInterface.cpp</text>
</a>
</g>
</g>
<!-- Node2&#45;&gt;Node4 -->
<g id="edge3_Node000002_Node000004" class="edge">
<title>Node2&#45;&gt;Node4</title>
<g id="a_edge3_Node000002_Node000004"><a xlink:title=" ">
<path fill="none" stroke="#63b8ff" d="M309.35,-64.7C304.96,-55.92 300.2,-46.4 296.21,-38.41"/>
<polygon fill="#63b8ff" stroke="#63b8ff" points="306.31,-66.45 313.92,-73.83 312.57,-63.32 306.31,-66.45"/>
</a>
</g>
</g>
<!-- Node2&#45;&gt;Node5 -->
<g id="edge4_Node000002_Node000005" class="edge">
<title>Node2&#45;&gt;Node5</title>
<g id="a_edge4_Node000002_Node000005"><a xlink:title=" ">
<path fill="none" stroke="#63b8ff" d="M373.72,-69.73C396.91,-59.55 424.03,-47.65 445.91,-38.04"/>
<polygon fill="#63b8ff" stroke="#63b8ff" points="372.13,-66.61 364.38,-73.83 374.95,-73.02 372.13,-66.61"/>
</a>
</g>
</g>
</g>
</svg>
