<?xml version="1.0" encoding="UTF-8" standalone="no"?>
<!DOCTYPE svg PUBLIC "-//W3C//DTD SVG 1.1//EN"
 "http://www.w3.org/Graphics/SVG/1.1/DTD/svg11.dtd">
<!-- Generated by graphviz version 2.43.0 (0)
 -->
<!-- Title: include/TLE92466ED.hpp Pages: 1 -->
<svg width="738pt" height="105pt"
 viewBox="0.00 0.00 737.50 105.00" xmlns="http://www.w3.org/2000/svg" xmlns:xlink="http://www.w3.org/1999/xlink">
<g id="graph0" class="graph" transform="scale(1 1) rotate(0) translate(4 101)">
<title>include/TLE92466ED.hpp</title>
<!-- Node1 -->
<g id="Node000001" class="node">
<title>Node1</title>
<g id="a_Node000001"><a xlink:title="Main driver class for TLE92466ED Six&#45;Channel Low&#45;Side Solenoid Driver IC.">
<polygon fill="#999999" stroke="#666666" points="465,-97 295,-97 295,-74 465,-74 465,-97"/>
<text text-anchor="middle" x="380" y="-81.8" font-family="Arial" font-size="14.00">include/TLE92466ED.hpp</text>
</a>
</g>
</g>
<!-- Node2 -->
<g id="Node000002" class="node">
<title>Node2</title>
<g id="a_Node000002"><a xlink:href="basic__usage_8cpp.html" target="_top" xlink:title="Basic usage example for TLE92466ED driver.">
<polygon fill="white" stroke="#666666" points="180,-30.5 0,-30.5 0,-7.5 180,-7.5 180,-30.5"/>
<text text-anchor="middle" x="90" y="-15.3" font-family="Arial" font-size="14.00">examples/basic_usage.cpp</text>
</a>
</g>
</g>
<!-- Node1&#45;&gt;Node2 -->
<g id="edge1_Node000001_Node000002" class="edge">
<title>Node1&#45;&gt;Node2</title>
<g id="a_edge1_Node000001_Node000002"><a xlink:title=" ">
<path fill="none" stroke="#63b8ff" d="M322.95,-71.81C268.67,-59.74 187.98,-41.79 137.22,-30.5"/>
<polygon fill="#63b8ff" stroke="#63b8ff" points="322.24,-75.24 332.76,-73.99 323.76,-68.41 322.24,-75.24"/>
</a>
</g>
</g>
<!-- Node3 -->
<g id="Node000003" class="node">
<title>Node3</title>
<g id="a_Node000003"><a xlink:href="BasicUsageExample_8cpp.html" target="_top" xlink:title="Basic usage example for TLE92466ED driver on ESP32&#45;C6.">
<polygon fill="white" stroke="#666666" points="369.5,-38 198.5,-38 198.5,0 369.5,0 369.5,-38"/>
<text text-anchor="start" x="206.5" y="-22.8" font-family="Arial" font-size="14.00">examples/esp32/main</text>
<text text-anchor="middle" x="284" y="-7.8" font-family="Arial" font-size="14.00">/BasicUsageExample.cpp</text>
</a>
</g>
</g>
<!-- Node1&#45;&gt;Node3 -->
<g id="edge2_Node000001_Node000003" class="edge">
<title>Node1&#45;&gt;Node3</title>
<g id="a_edge2_Node000001_Node000003"><a xlink:title=" ">
<path fill="none" stroke="#63b8ff" d="M355.77,-68.22C342.18,-59.09 325.19,-47.68 311.15,-38.24"/>
<polygon fill="#63b8ff" stroke="#63b8ff" points="353.9,-71.18 364.15,-73.85 357.8,-65.37 353.9,-71.18"/>
</a>
</g>
</g>
<!-- Node4 -->
<g id="Node000004" class="node">
<title>Node4</title>
<g id="a_Node000004"><a xlink:href="MultiChannelExample_8cpp.html" target="_top" xlink:title="Multi&#45;channel control example for TLE92466ED driver on ESP32&#45;C6.">
<polygon fill="white" stroke="#666666" points="566.5,-38 387.5,-38 387.5,0 566.5,0 566.5,-38"/>
<text text-anchor="start" x="395.5" y="-22.8" font-family="Arial" font-size="14.00">examples/esp32/main</text>
<text text-anchor="middle" x="477" y="-7.8" font-family="Arial" font-size="14.00">/MultiChannelExample.cpp</text>
</a>
</g>
</g>
<!-- Node1&#45;&gt;Node4 -->
<g id="edge3_Node000001_Node000004" class="edge">
<title>Node1&#45;&gt;Node4</title>
<g id="a_edge3_Node000001_Node000004"><a xlink:title=" ">
<path fill="none" stroke="#63b8ff" d="M404.48,-68.22C418.21,-59.09 435.38,-47.68 449.56,-38.24"/>
<polygon fill="#63b8ff" stroke="#63b8ff" points="402.41,-65.4 396.02,-73.85 406.28,-71.23 402.41,-65.4"/>
</a>
</g>
</g>
<!-- Node5 -->
<g id="Node000005" class="node">
<title>Node5</title>
<g id="a_Node000005"><a xlink:href="TLE92466ED_8cpp.html" target="_top" xlink:title="Implementation of TLE92466ED driver class.">
<polygon fill="white" stroke="#666666" points="729.5,-30.5 584.5,-30.5 584.5,-7.5 729.5,-7.5 729.5,-30.5"/>
<text text-anchor="middle" x="657" y="-15.3" font-family="Arial" font-size="14.00">src/TLE92466ED.cpp</text>
</a>
</g>
</g>
<!-- Node1&#45;&gt;Node5 -->
<g id="edge4_Node000001_Node000005" class="edge">
<title>Node1&#45;&gt;Node5</title>
<g id="a_edge4_Node000001_Node000005"><a xlink:title=" ">
<path fill="none" stroke="#63b8ff" d="M435.14,-71.66C486.98,-59.59 563.62,-41.74 611.9,-30.5"/>
<polygon fill="#63b8ff" stroke="#63b8ff" points="434.07,-68.32 425.12,-73.99 435.65,-75.13 434.07,-68.32"/>
</a>
</g>
</g>
</g>
</svg>
