<?xml version="1.0" encoding="UTF-8" standalone="no"?>
<!DOCTYPE svg PUBLIC "-//W3C//DTD SVG 1.1//EN"
 "http://www.w3.org/Graphics/SVG/1.1/DTD/svg11.dtd">
<!-- Generated by graphviz version 2.43.0 (0)
 -->
<!-- Title: examples/arduino/Arduino_HAL.hpp Pages: 1 -->
<svg width="394pt" height="105pt"
 viewBox="0.00 0.00 393.50 105.00" xmlns="http://www.w3.org/2000/svg" xmlns:xlink="http://www.w3.org/1999/xlink">

<svg id="main" version="1.1" xmlns="http://www.w3.org/2000/svg" xmlns:xlink="http://www.w3.org/1999/xlink" xml:space="preserve" onload="init(evt)">
<style type="text/css"><![CDATA[
.node, .edge {opacity: 0.7;}
.node.selected, .edge.selected {opacity: 1;}
.edge:hover path { stroke: red; }
.edge:hover polygon { stroke: red; fill: red; }
]]></style>
<script type="application/ecmascript" xlink:href="svg.min.js"/>
<svg id="graph" class="graph">
<g id="graph0" class="graph" transform="scale(1 1) rotate(0) translate(4 101)">
<title>examples/arduino/Arduino_HAL.hpp</title>
<!-- Node1 -->
<g id="Node000001" class="node">
<title>Node1</title>
<g id="a_Node000001"><a xlink:title="Arduino Hardware Abstraction Layer for TLE92466ED Driver.">
<polygon fill="#999999" stroke="#666666" points="204,-97 30,-97 30,-59 204,-59 204,-97"/>
<text text-anchor="start" x="38" y="-81.8" font-family="Arial" font-size="14.00">examples/arduino/Arduino</text>
<text text-anchor="middle" x="117" y="-66.8" font-family="Arial" font-size="14.00">_HAL.hpp</text>
</a>
</g>
</g>
<!-- Node2 -->
<g id="Node000002" class="node">
<title>Node2</title>
<g id="a_Node000002"><a xlink:title=" ">
<polygon fill="#e0e0e0" stroke="#999999" points="74,-23 0,-23 0,0 74,0 74,-23"/>
<text text-anchor="middle" x="37" y="-7.8" font-family="Arial" font-size="14.00">Arduino.h</text>
</a>
</g>
</g>
<!-- Node1&#45;&gt;Node2 -->
<g id="edge1_Node000001_Node000002" class="edge">
<title>Node1&#45;&gt;Node2</title>
<g id="a_edge1_Node000001_Node000002"><a xlink:title=" ">
<path fill="none" stroke="#63b8ff" d="M94.29,-58.69C82.95,-49.55 69.32,-38.56 58.2,-29.59"/>
<polygon fill="#63b8ff" stroke="#63b8ff" points="60.24,-26.74 50.26,-23.19 55.85,-32.19 60.24,-26.74"/>
</a>
</g>
</g>
<!-- Node3 -->
<g id="Node000003" class="node">
<title>Node3</title>
<g id="a_Node000003"><a xlink:title=" ">
<polygon fill="#e0e0e0" stroke="#999999" points="142,-23 92,-23 92,0 142,0 142,-23"/>
<text text-anchor="middle" x="117" y="-7.8" font-family="Arial" font-size="14.00">SPI.h</text>
</a>
</g>
</g>
<!-- Node1&#45;&gt;Node3 -->
<g id="edge2_Node000001_Node000003" class="edge">
<title>Node1&#45;&gt;Node3</title>
<g id="a_edge2_Node000001_Node000003"><a xlink:title=" ">
<path fill="none" stroke="#63b8ff" d="M117,-58.69C117,-50.8 117,-41.54 117,-33.39"/>
<polygon fill="#63b8ff" stroke="#63b8ff" points="120.5,-33.19 117,-23.19 113.5,-33.19 120.5,-33.19"/>
</a>
</g>
</g>
<!-- Node4 -->
<g id="Node000004" class="node">
<title>Node4</title>
<g id="a_Node000004"><a xlink:title=" ">
<polygon fill="#e0e0e0" stroke="#999999" points="385.5,-23 160.5,-23 160.5,0 385.5,0 385.5,-23"/>
<text text-anchor="middle" x="273" y="-7.8" font-family="Arial" font-size="14.00">TLE92466ED_CommInterface.hpp</text>
</a>
</g>
</g>
<!-- Node1&#45;&gt;Node4 -->
<g id="edge3_Node000001_Node000004" class="edge">
<title>Node1&#45;&gt;Node4</title>
<g id="a_edge3_Node000001_Node000004"><a xlink:title=" ">
<path fill="none" stroke="#63b8ff" d="M160.87,-58.86C185.31,-48.75 215.33,-36.34 238.15,-26.91"/>
<polygon fill="#63b8ff" stroke="#63b8ff" points="239.55,-30.12 247.46,-23.06 236.88,-23.65 239.55,-30.12"/>
</a>
</g>
</g>
</g>
</svg>
</svg>

<style type='text/css'>
<![CDATA[
[data-mouse-over-selected='false'] { opacity: 0.7; }
[data-mouse-over-selected='true']  { opacity: 1.0; }
]]>
</style>
<script type="application/ecmascript"><![CDATA[
document.addEventListener('DOMContentLoaded', (event) => {
  highlightEdges();
  highlightAdjacentNodes();
});
]]></script>
</svg>
