<?xml version="1.0" encoding="UTF-8" standalone="no"?>
<!DOCTYPE svg PUBLIC "-//W3C//DTD SVG 1.1//EN"
 "http://www.w3.org/Graphics/SVG/1.1/DTD/svg11.dtd">
<!-- Generated by graphviz version 2.43.0 (0)
 -->
<!-- Title: examples/esp32/main/BasicUsageExample.cpp Pages: 1 -->
<!--zoomable 223 -->

<svg id="main" version="1.1" xmlns="http://www.w3.org/2000/svg" xmlns:xlink="http://www.w3.org/1999/xlink" xml:space="preserve" onload="init(evt)">
<style type="text/css"><![CDATA[
.node, .edge {opacity: 0.7;}
.node.selected, .edge.selected {opacity: 1;}
.edge:hover path { stroke: red; }
.edge:hover polygon { stroke: red; fill: red; }
]]></style>

<defs>
  <circle id="rim" cx="0" cy="0" r="7"/>
  <circle id="rim2" cx="0" cy="0" r="3.5"/>
  <g id="zoomPlus">
    <use xlink:href="#rim" fill="#404040"><set attributeName="fill" to="#808080" begin="zoomplus.mouseover" end="zoomplus.mouseout"/></use>
    <path d="M-4,0h8M0,-4v8" fill="none" stroke="white" stroke-width="1.5" pointer-events="none"/>
  </g>
  <g id="zoomMin">
    <use xlink:href="#rim" fill="#404040"><set attributeName="fill" to="#808080" begin="zoomminus.mouseover" end="zoomminus.mouseout"/></use>
    <path d="M-4,0h8" fill="none" stroke="white" stroke-width="1.5" pointer-events="none"/>
  </g>
  <g id="arrowUp" transform="translate(30 24)">
    <use xlink:href="#rim"/>
    <path pointer-events="none" fill="none" stroke="white" stroke-width="1.5" d="M0,-3.0v7 M-2.5,-0.5L0,-3.0L2.5,-0.5"/>
  </g>
  <g id="arrowRight" transform="rotate(90) translate(36 -43)">
    <use xlink:href="#rim"/>
    <path pointer-events="none" fill="none" stroke="white" stroke-width="1.5" d="M0,-3.0v7 M-2.5,-0.5L0,-3.0L2.5,-0.5"/>
  </g>
  <g id="arrowDown" transform="rotate(180) translate(-30 -48)">
    <use xlink:href="#rim"/>
    <path pointer-events="none" fill="none" stroke="white" stroke-width="1.5" d="M0,-3.0v7 M-2.5,-0.5L0,-3.0L2.5,-0.5"/>
  </g>
  <g id="arrowLeft" transform="rotate(270) translate(-36 17)">
    <use xlink:href="#rim"/>
    <path pointer-events="none" fill="none" stroke="white" stroke-width="1.5" d="M0,-3.0v7 M-2.5,-0.5L0,-3.0L2.5,-0.5"/>
  </g>
  <g id="resetDef">
    <use xlink:href="#rim2" fill="#404040"><set attributeName="fill" to="#808080" begin="reset.mouseover" end="reset.mouseout"/></use>
  </g>
</defs>
<script type="application/ecmascript">
var viewWidth = 1385;
var viewHeight = 223;
var sectionId = 'dynsection-0';
</script>
<script type="application/ecmascript" xlink:href="svg.min.js"/>
<svg id="graph" class="graph">
<g id="viewport">
<title>examples/esp32/main/BasicUsageExample.cpp</title>
<!-- Node1 -->
<g id="Node000001" class="node">
<title>Node1</title>
<g id="a_Node000001"><a xlink:title="Basic usage example for TLE92466ED driver on ESP32&#45;C6.">
<polygon fill="#999999" stroke="#666666" points="971,-215 800,-215 800,-177 971,-177 971,-215"/>
<text text-anchor="start" x="808" y="-199.8" font-family="Arial" font-size="14.00">examples/esp32/main</text>
<text text-anchor="middle" x="885.5" y="-184.8" font-family="Arial" font-size="14.00">/BasicUsageExample.cpp</text>
</a>
</g>
</g>
<!-- Node2 -->
<g id="Node000002" class="node">
<title>Node2</title>
<g id="a_Node000002"><a xlink:title=" ">
<polygon fill="#e0e0e0" stroke="#999999" points="467.5,-141 411.5,-141 411.5,-118 467.5,-118 467.5,-141"/>
<text text-anchor="middle" x="439.5" y="-125.8" font-family="Arial" font-size="14.00">stdio.h</text>
</a>
</g>
</g>
<!-- Node1&#45;&gt;Node2 -->
<g id="edge1_Node000001_Node000002" class="edge">
<title>Node1&#45;&gt;Node2</title>
<g id="a_edge1_Node000001_Node000002"><a xlink:title=" ">
<path fill="none" stroke="#63b8ff" d="M799.93,-186.38C717.85,-177.45 590.62,-161.86 481.5,-141 480.25,-140.76 478.99,-140.51 477.72,-140.25"/>
<polygon fill="#63b8ff" stroke="#63b8ff" points="478.39,-136.81 467.87,-138.05 476.87,-143.64 478.39,-136.81"/>
</a>
</g>
</g>
<!-- Node3 -->
<g id="Node000003" class="node">
<title>Node3</title>
<g id="a_Node000003"><a xlink:title=" ">
<polygon fill="#e0e0e0" stroke="#999999" points="67,-82 0,-82 0,-59 67,-59 67,-82"/>
<text text-anchor="middle" x="33.5" y="-66.8" font-family="Arial" font-size="14.00">memory</text>
</a>
</g>
</g>
<!-- Node1&#45;&gt;Node3 -->
<g id="edge2_Node000001_Node000003" class="edge">
<title>Node1&#45;&gt;Node3</title>
<g id="a_edge2_Node000001_Node000003"><a xlink:title=" ">
<path fill="none" stroke="#63b8ff" d="M799.93,-192.19C723.19,-187.43 608.54,-174.73 514.5,-141 495.92,-134.33 495.26,-124.15 476.5,-118 309.54,-63.24 253.95,-110.03 77.21,-82.06"/>
<polygon fill="#63b8ff" stroke="#63b8ff" points="77.77,-78.6 67.33,-80.44 76.63,-85.51 77.77,-78.6"/>
</a>
</g>
</g>
<!-- Node4 -->
<g id="Node000004" class="node">
<title>Node4</title>
<g id="a_Node000004"><a xlink:title=" ">
<polygon fill="#e0e0e0" stroke="#999999" points="1023,-82 880,-82 880,-59 1023,-59 1023,-82"/>
<text text-anchor="middle" x="951.5" y="-66.8" font-family="Arial" font-size="14.00">freertos/FreeRTOS.h</text>
</a>
</g>
</g>
<!-- Node1&#45;&gt;Node4 -->
<g id="edge3_Node000001_Node000004" class="edge">
<title>Node1&#45;&gt;Node4</title>
<g id="a_edge3_Node000001_Node000004"><a xlink:title=" ">
<path fill="none" stroke="#63b8ff" d="M814.83,-176.97C777.81,-164 744.03,-144.19 764.5,-118 772.15,-108.21 833.93,-94.12 884.41,-84.02"/>
<polygon fill="#63b8ff" stroke="#63b8ff" points="885.21,-87.43 894.34,-82.05 883.85,-80.56 885.21,-87.43"/>
</a>
</g>
</g>
<!-- Node5 -->
<g id="Node000005" class="node">
<title>Node5</title>
<g id="a_Node000005"><a xlink:title=" ">
<polygon fill="#e0e0e0" stroke="#999999" points="1376.5,-82 1274.5,-82 1274.5,-59 1376.5,-59 1376.5,-82"/>
<text text-anchor="middle" x="1325.5" y="-66.8" font-family="Arial" font-size="14.00">freertos/task.h</text>
</a>
</g>
</g>
<!-- Node1&#45;&gt;Node5 -->
<g id="edge4_Node000001_Node000005" class="edge">
<title>Node1&#45;&gt;Node5</title>
<g id="a_edge4_Node000001_Node000005"><a xlink:title=" ">
<path fill="none" stroke="#63b8ff" d="M971.34,-192.05C1072.94,-187.09 1234.64,-174.11 1284.5,-141 1301.92,-129.43 1312.97,-107.72 1319.15,-91.63"/>
<polygon fill="#63b8ff" stroke="#63b8ff" points="1322.51,-92.62 1322.53,-82.03 1315.91,-90.3 1322.51,-92.62"/>
</a>
</g>
</g>
<!-- Node6 -->
<g id="Node000006" class="node">
<title>Node6</title>
<g id="a_Node000006"><a xlink:title=" ">
<polygon fill="#e0e0e0" stroke="#999999" points="1257,-82 1182,-82 1182,-59 1257,-59 1257,-82"/>
<text text-anchor="middle" x="1219.5" y="-66.8" font-family="Arial" font-size="14.00">esp_log.h</text>
</a>
</g>
</g>
<!-- Node1&#45;&gt;Node6 -->
<g id="edge5_Node000001_Node000006" class="edge">
<title>Node1&#45;&gt;Node6</title>
<g id="a_edge5_Node000001_Node000006"><a xlink:title=" ">
<path fill="none" stroke="#63b8ff" d="M971.24,-195.43C1072.14,-193.9 1230.79,-184.4 1268.5,-141 1283.26,-124.01 1263.07,-102.61 1244.31,-88.08"/>
<polygon fill="#63b8ff" stroke="#63b8ff" points="1246.33,-85.22 1236.2,-82.11 1242.19,-90.86 1246.33,-85.22"/>
</a>
</g>
</g>
<!-- Node7 -->
<g id="Node000007" class="node">
<title>Node7</title>
<g id="a_Node000007"><a xlink:title=" ">
<polygon fill="#e0e0e0" stroke="#999999" points="1117,-141 1016,-141 1016,-118 1117,-118 1117,-141"/>
<text text-anchor="middle" x="1066.5" y="-125.8" font-family="Arial" font-size="14.00">esp_system.h</text>
</a>
</g>
</g>
<!-- Node1&#45;&gt;Node7 -->
<g id="edge6_Node000001_Node000007" class="edge">
<title>Node1&#45;&gt;Node7</title>
<g id="a_edge6_Node000001_Node000007"><a xlink:title=" ">
<path fill="none" stroke="#63b8ff" d="M936.4,-176.86C965.14,-166.62 1000.52,-154.01 1027.13,-144.53"/>
<polygon fill="#63b8ff" stroke="#63b8ff" points="1028.62,-147.71 1036.86,-141.06 1026.27,-141.12 1028.62,-147.71"/>
</a>
</g>
</g>
<!-- Node8 -->
<g id="Node000008" class="node">
<title>Node8</title>
<g id="a_Node000008"><a xlink:title=" ">
<polygon fill="#e0e0e0" stroke="#999999" points="1259.5,-141 1135.5,-141 1135.5,-118 1259.5,-118 1259.5,-141"/>
<text text-anchor="middle" x="1197.5" y="-125.8" font-family="Arial" font-size="14.00">TLE92466ED.hpp</text>
</a>
</g>
</g>
<!-- Node1&#45;&gt;Node8 -->
<g id="edge7_Node000001_Node000008" class="edge">
<title>Node1&#45;&gt;Node8</title>
<g id="a_edge7_Node000001_Node000008"><a xlink:title=" ">
<path fill="none" stroke="#63b8ff" d="M971.17,-177.29C1023.61,-166.45 1089.45,-152.84 1136.58,-143.09"/>
<polygon fill="#63b8ff" stroke="#63b8ff" points="1137.56,-146.47 1146.64,-141.01 1136.14,-139.61 1137.56,-146.47"/>
</a>
</g>
</g>
<!-- Node9 -->
<g id="Node000009" class="node">
<title>Node9</title>
<g id="a_Node000009"><a xlink:href="Esp32TleCommInterface_8hpp.html" target="_top" xlink:title="ESP32 Communication Interface implementation for TLE92466ED driver.">
<polygon fill="white" stroke="#666666" points="717.5,-141 523.5,-141 523.5,-118 717.5,-118 717.5,-141"/>
<text text-anchor="middle" x="620.5" y="-125.8" font-family="Arial" font-size="14.00">Esp32TleCommInterface.hpp</text>
</a>
</g>
</g>
<!-- Node1&#45;&gt;Node9 -->
<g id="edge8_Node000001_Node000009" class="edge">
<title>Node1&#45;&gt;Node9</title>
<g id="a_edge8_Node000001_Node000009"><a xlink:title=" ">
<path fill="none" stroke="#63b8ff" d="M811.33,-176.95C767.66,-166.32 713.44,-153.12 673.96,-143.51"/>
<polygon fill="#63b8ff" stroke="#63b8ff" points="674.55,-140.05 664.01,-141.09 672.9,-146.86 674.55,-140.05"/>
</a>
</g>
</g>
<!-- Node16 -->
<g id="Node000016" class="node">
<title>Node16</title>
<g id="a_Node000016"><a xlink:href="TLE92466ED__TestFramework_8hpp.html" target="_top" xlink:title="Testing framework for TLE92466ED driver examples on ESP32&#45;C6.">
<polygon fill="white" stroke="#666666" points="997.5,-141 773.5,-141 773.5,-118 997.5,-118 997.5,-141"/>
<text text-anchor="middle" x="885.5" y="-125.8" font-family="Arial" font-size="14.00">TLE92466ED_TestFramework.hpp</text>
</a>
</g>
</g>
<!-- Node1&#45;&gt;Node16 -->
<g id="edge17_Node000001_Node000016" class="edge">
<title>Node1&#45;&gt;Node16</title>
<g id="a_edge17_Node000001_Node000016"><a xlink:title=" ">
<path fill="none" stroke="#63b8ff" d="M885.5,-176.69C885.5,-168.8 885.5,-159.54 885.5,-151.39"/>
<polygon fill="#63b8ff" stroke="#63b8ff" points="889,-151.19 885.5,-141.19 882,-151.19 889,-151.19"/>
</a>
</g>
</g>
<!-- Node9&#45;&gt;Node3 -->
<g id="edge16_Node000009_Node000003" class="edge">
<title>Node9&#45;&gt;Node3</title>
<g id="a_edge16_Node000009_Node000003"><a xlink:title=" ">
<path fill="none" stroke="#63b8ff" d="M523.35,-119.24C518.67,-118.82 514.03,-118.4 509.5,-118 320,-101.18 268.22,-113.15 77.41,-82.12"/>
<polygon fill="#63b8ff" stroke="#63b8ff" points="77.76,-78.63 67.33,-80.46 76.63,-85.53 77.76,-78.63"/>
</a>
</g>
</g>
<!-- Node9&#45;&gt;Node6 -->
<g id="edge15_Node000009_Node000006" class="edge">
<title>Node9&#45;&gt;Node6</title>
<g id="a_edge15_Node000009_Node000006"><a xlink:title=" ">
<path fill="none" stroke="#63b8ff" d="M717.75,-121.03C856.46,-110.27 1101.3,-90.86 1171.77,-81.79"/>
<polygon fill="#63b8ff" stroke="#63b8ff" points="1172.46,-85.23 1181.88,-80.38 1171.49,-78.3 1172.46,-85.23"/>
</a>
</g>
</g>
<!-- Node10 -->
<g id="Node000010" class="node">
<title>Node10</title>
<g id="a_Node000010"><a xlink:title=" ">
<polygon fill="#e0e0e0" stroke="#999999" points="310,-82 85,-82 85,-59 310,-59 310,-82"/>
<text text-anchor="middle" x="197.5" y="-66.8" font-family="Arial" font-size="14.00">TLE92466ED_CommInterface.hpp</text>
</a>
</g>
</g>
<!-- Node9&#45;&gt;Node10 -->
<g id="edge9_Node000009_Node000010" class="edge">
<title>Node9&#45;&gt;Node10</title>
<g id="a_edge9_Node000009_Node000010"><a xlink:title=" ">
<path fill="none" stroke="#63b8ff" d="M542.42,-117.98C469.66,-108.17 361.28,-93.57 285.49,-83.36"/>
<polygon fill="#63b8ff" stroke="#63b8ff" points="285.86,-79.87 275.48,-82.01 284.92,-86.81 285.86,-79.87"/>
</a>
</g>
</g>
<!-- Node11 -->
<g id="Node000011" class="node">
<title>Node11</title>
<g id="a_Node000011"><a xlink:href="TLE92466ED__Config_8hpp.html" target="_top" xlink:title="Hardware configuration for TLE92466ED driver on ESP32&#45;C6.">
<polygon fill="white" stroke="#666666" points="498.5,-82 328.5,-82 328.5,-59 498.5,-59 498.5,-82"/>
<text text-anchor="middle" x="413.5" y="-66.8" font-family="Arial" font-size="14.00">TLE92466ED_Config.hpp</text>
</a>
</g>
</g>
<!-- Node9&#45;&gt;Node11 -->
<g id="edge10_Node000009_Node000011" class="edge">
<title>Node9&#45;&gt;Node11</title>
<g id="a_edge10_Node000009_Node000011"><a xlink:title=" ">
<path fill="none" stroke="#63b8ff" d="M582.05,-117.91C548.06,-108.55 498.34,-94.86 461.71,-84.77"/>
<polygon fill="#63b8ff" stroke="#63b8ff" points="462.31,-81.31 451.74,-82.03 460.46,-88.06 462.31,-81.31"/>
</a>
</g>
</g>
<!-- Node13 -->
<g id="Node000013" class="node">
<title>Node13</title>
<g id="a_Node000013"><a xlink:title=" ">
<polygon fill="#e0e0e0" stroke="#999999" points="648,-82 517,-82 517,-59 648,-59 648,-82"/>
<text text-anchor="middle" x="582.5" y="-66.8" font-family="Arial" font-size="14.00">driver/spi_master.h</text>
</a>
</g>
</g>
<!-- Node9&#45;&gt;Node13 -->
<g id="edge12_Node000009_Node000013" class="edge">
<title>Node9&#45;&gt;Node13</title>
<g id="a_edge12_Node000009_Node000013"><a xlink:title=" ">
<path fill="none" stroke="#63b8ff" d="M613.35,-117.78C608.26,-110.14 601.27,-99.65 595.23,-90.6"/>
<polygon fill="#63b8ff" stroke="#63b8ff" points="598.07,-88.55 589.62,-82.17 592.25,-92.44 598.07,-88.55"/>
</a>
</g>
</g>
<!-- Node14 -->
<g id="Node000014" class="node">
<title>Node14</title>
<g id="a_Node000014"><a xlink:title=" ">
<polygon fill="#e0e0e0" stroke="#999999" points="757,-82 666,-82 666,-59 757,-59 757,-82"/>
<text text-anchor="middle" x="711.5" y="-66.8" font-family="Arial" font-size="14.00">driver/gpio.h</text>
</a>
</g>
</g>
<!-- Node9&#45;&gt;Node14 -->
<g id="edge13_Node000009_Node000014" class="edge">
<title>Node9&#45;&gt;Node14</title>
<g id="a_edge13_Node000009_Node000014"><a xlink:title=" ">
<path fill="none" stroke="#63b8ff" d="M637.62,-117.78C651.22,-109.26 670.45,-97.21 685.88,-87.55"/>
<polygon fill="#63b8ff" stroke="#63b8ff" points="687.84,-90.45 694.46,-82.17 684.13,-84.52 687.84,-90.45"/>
</a>
</g>
</g>
<!-- Node15 -->
<g id="Node000015" class="node">
<title>Node15</title>
<g id="a_Node000015"><a xlink:title=" ">
<polygon fill="#e0e0e0" stroke="#999999" points="862,-82 775,-82 775,-59 862,-59 862,-82"/>
<text text-anchor="middle" x="818.5" y="-66.8" font-family="Arial" font-size="14.00">esp_timer.h</text>
</a>
</g>
</g>
<!-- Node9&#45;&gt;Node15 -->
<g id="edge14_Node000009_Node000015" class="edge">
<title>Node9&#45;&gt;Node15</title>
<g id="a_edge14_Node000009_Node000015"><a xlink:title=" ">
<path fill="none" stroke="#63b8ff" d="M657.28,-117.91C689.65,-108.59 736.94,-94.98 771.94,-84.9"/>
<polygon fill="#63b8ff" stroke="#63b8ff" points="773.28,-88.16 781.92,-82.03 771.34,-81.43 773.28,-88.16"/>
</a>
</g>
</g>
<!-- Node12 -->
<g id="Node000012" class="node">
<title>Node12</title>
<g id="a_Node000012"><a xlink:title=" ">
<polygon fill="#e0e0e0" stroke="#999999" points="441.5,-23 385.5,-23 385.5,0 441.5,0 441.5,-23"/>
<text text-anchor="middle" x="413.5" y="-7.8" font-family="Arial" font-size="14.00">cstdint</text>
</a>
</g>
</g>
<!-- Node11&#45;&gt;Node12 -->
<g id="edge11_Node000011_Node000012" class="edge">
<title>Node11&#45;&gt;Node12</title>
<g id="a_edge11_Node000011_Node000012"><a xlink:title=" ">
<path fill="none" stroke="#63b8ff" d="M413.5,-58.78C413.5,-51.61 413.5,-41.95 413.5,-33.31"/>
<polygon fill="#63b8ff" stroke="#63b8ff" points="417,-33.17 413.5,-23.17 410,-33.17 417,-33.17"/>
</a>
</g>
</g>
<!-- Node16&#45;&gt;Node4 -->
<g id="edge20_Node000016_Node000004" class="edge">
<title>Node16&#45;&gt;Node4</title>
<g id="a_edge20_Node000016_Node000004"><a xlink:title=" ">
<path fill="none" stroke="#63b8ff" d="M897.91,-117.78C907.32,-109.66 920.43,-98.33 931.33,-88.92"/>
<polygon fill="#63b8ff" stroke="#63b8ff" points="933.86,-91.36 939.14,-82.17 929.29,-86.06 933.86,-91.36"/>
</a>
</g>
</g>
<!-- Node16&#45;&gt;Node5 -->
<g id="edge21_Node000016_Node000005" class="edge">
<title>Node16&#45;&gt;Node5</title>
<g id="a_edge21_Node000016_Node000005"><a xlink:title=" ">
<path fill="none" stroke="#63b8ff" d="M983.98,-117.98C1058.54,-109.66 1163.74,-97.18 1264.33,-82.27"/>
<polygon fill="#63b8ff" stroke="#63b8ff" points="1264.99,-85.72 1274.36,-80.78 1263.95,-78.79 1264.99,-85.72"/>
</a>
</g>
</g>
<!-- Node16&#45;&gt;Node6 -->
<g id="edge18_Node000016_Node000006" class="edge">
<title>Node16&#45;&gt;Node6</title>
<g id="a_edge18_Node000016_Node000006"><a xlink:title=" ">
<path fill="none" stroke="#63b8ff" d="M957.95,-117.97C1013.72,-109.59 1092.94,-97.08 1171.73,-82.06"/>
<polygon fill="#63b8ff" stroke="#63b8ff" points="1172.67,-85.44 1181.83,-80.12 1171.35,-78.57 1172.67,-85.44"/>
</a>
</g>
</g>
<!-- Node16&#45;&gt;Node14 -->
<g id="edge23_Node000016_Node000014" class="edge">
<title>Node16&#45;&gt;Node14</title>
<g id="a_edge23_Node000016_Node000014"><a xlink:title=" ">
<path fill="none" stroke="#63b8ff" d="M853.18,-117.91C824.98,-108.67 783.89,-95.21 753.21,-85.16"/>
<polygon fill="#63b8ff" stroke="#63b8ff" points="754.24,-81.82 743.65,-82.03 752.06,-88.47 754.24,-81.82"/>
</a>
</g>
</g>
<!-- Node16&#45;&gt;Node15 -->
<g id="edge19_Node000016_Node000015" class="edge">
<title>Node16&#45;&gt;Node15</title>
<g id="a_edge19_Node000016_Node000015"><a xlink:title=" ">
<path fill="none" stroke="#63b8ff" d="M872.9,-117.78C863.35,-109.66 850.04,-98.33 838.97,-88.92"/>
<polygon fill="#63b8ff" stroke="#63b8ff" points="840.93,-85.99 831.05,-82.17 836.39,-91.32 840.93,-85.99"/>
</a>
</g>
</g>
<!-- Node17 -->
<g id="Node000017" class="node">
<title>Node17</title>
<g id="a_Node000017"><a xlink:title=" ">
<polygon fill="#e0e0e0" stroke="#999999" points="1163.5,-82 1041.5,-82 1041.5,-59 1163.5,-59 1163.5,-82"/>
<text text-anchor="middle" x="1102.5" y="-66.8" font-family="Arial" font-size="14.00">freertos/semphr.h</text>
</a>
</g>
</g>
<!-- Node16&#45;&gt;Node17 -->
<g id="edge22_Node000016_Node000017" class="edge">
<title>Node16&#45;&gt;Node17</title>
<g id="a_edge22_Node000016_Node000017"><a xlink:title=" ">
<path fill="none" stroke="#63b8ff" d="M925.55,-117.98C961.3,-108.59 1013.81,-94.8 1052.34,-84.68"/>
<polygon fill="#63b8ff" stroke="#63b8ff" points="1053.53,-87.98 1062.31,-82.06 1051.75,-81.21 1053.53,-87.98"/>
</a>
</g>
</g>
</g>
</svg>

<g id="navigator" transform="translate(0 0)" fill="#404254">
  <rect fill="#f2f5e9" fill-opacity="0.5" stroke="#606060" stroke-width=".5" x="0" y="0" width="60" height="60"/>
  <use id="zoomplus" xlink:href="#zoomPlus" x="17" y="9" onmousedown="handleZoom(evt,'in')"/>
  <use id="zoomminus" xlink:href="#zoomMin" x="42" y="9" onmousedown="handleZoom(evt,'out')"/>
  <use id="reset" xlink:href="#resetDef" x="30" y="36" onmousedown="handleReset()"/>
   <use id="arrowup" xlink:href="#arrowUp" x="0" y="0" onmousedown="handlePan(0,-1)"/>
  <use id="arrowright" xlink:href="#arrowRight" x="0" y="0" onmousedown="handlePan(1,0)"/>
  <use id="arrowdown" xlink:href="#arrowDown" x="0" y="0" onmousedown="handlePan(0,1)"/>
  <use id="arrowleft" xlink:href="#arrowLeft" x="0" y="0" onmousedown="handlePan(-1,0)"/>
</g>
<svg viewBox="0 0 15 15" width="100%" height="30px" preserveAspectRatio="xMaxYMin meet">
 <g id="arrow_out" transform="scale(0.3 0.3)">
  <a xlink:href="BasicUsageExample_8cpp__incl_org.svg" target="_base">
   <rect id="button" ry="5" rx="5" y="6" x="6" height="38" width="38"
        fill="#f2f5e9" fill-opacity="0.5" stroke="#606060" stroke-width="1.0"/>
   <path id="arrow"
     d="M 11.500037,31.436501 C 11.940474,20.09759 22.043105,11.32322 32.158766,21.979434 L 37.068811,17.246167 C 37.068811,17.246167 37.088388,32 37.088388,32 L 22.160133,31.978069 C 22.160133,31.978069 26.997745,27.140456 26.997745,27.140456 C 18.528582,18.264221 13.291696,25.230495 11.500037,31.436501 z"
     style="fill:#404040;"/>
  </a>
 </g>
</svg>

<style type='text/css'>
<![CDATA[
[data-mouse-over-selected='false'] { opacity: 0.7; }
[data-mouse-over-selected='true']  { opacity: 1.0; }
]]>
</style>
<script type="application/ecmascript"><![CDATA[
document.addEventListener('DOMContentLoaded', (event) => {
  highlightEdges();
  highlightAdjacentNodes();
});
]]></script>
</svg>
