<?xml version="1.0" encoding="UTF-8" standalone="no"?>
<!DOCTYPE svg PUBLIC "-//W3C//DTD SVG 1.1//EN"
 "http://www.w3.org/Graphics/SVG/1.1/DTD/svg11.dtd">
<!-- Generated by graphviz version 2.43.0 (0)
 -->
<!-- Title: examples/esp32/main/ESP32C6_HAL.cpp Pages: 1 -->
<svg width="917pt" height="223pt"
 viewBox="0.00 0.00 917.00 223.00" xmlns="http://www.w3.org/2000/svg" xmlns:xlink="http://www.w3.org/1999/xlink">
<g id="graph0" class="graph" transform="scale(1 1) rotate(0) translate(4 219)">
<title>examples/esp32/main/ESP32C6_HAL.cpp</title>
<!-- Node1 -->
<g id="Node000001" class="node">
<title>Node1</title>
<g id="a_Node000001"><a xlink:title="ESP32&#45;C6 Hardware Abstraction Layer implementation for TLE92466ED driver.">
<polygon fill="#999999" stroke="#666666" points="791.5,-215 642.5,-215 642.5,-177 791.5,-177 791.5,-215"/>
<text text-anchor="start" x="650.5" y="-199.8" font-family="Arial" font-size="14.00">examples/esp32/main</text>
<text text-anchor="middle" x="717" y="-184.8" font-family="Arial" font-size="14.00">/ESP32C6_HAL.cpp</text>
</a>
</g>
</g>
<!-- Node2 -->
<g id="Node000002" class="node">
<title>Node2</title>
<g id="a_Node000002"><a xlink:href="ESP32C6__HAL_8hpp.html" target="_top" xlink:title="ESP32&#45;C6 Hardware Abstraction Layer for TLE92466ED driver.">
<polygon fill="white" stroke="#666666" points="627,-141 491,-141 491,-118 627,-118 627,-141"/>
<text text-anchor="middle" x="559" y="-125.8" font-family="Arial" font-size="14.00">ESP32C6_HAL.hpp</text>
</a>
</g>
</g>
<!-- Node1&#45;&gt;Node2 -->
<g id="edge1_Node000001_Node000002" class="edge">
<title>Node1&#45;&gt;Node2</title>
<g id="a_edge1_Node000001_Node000002"><a xlink:title=" ">
<path fill="none" stroke="#63b8ff" d="M672.57,-176.86C647.81,-166.75 617.41,-154.34 594.29,-144.91"/>
<polygon fill="#63b8ff" stroke="#63b8ff" points="595.45,-141.6 584.87,-141.06 592.81,-148.08 595.45,-141.6"/>
</a>
</g>
</g>
<!-- Node14 -->
<g id="Node000014" class="node">
<title>Node14</title>
<g id="a_Node000014"><a xlink:title=" ">
<polygon fill="#e0e0e0" stroke="#999999" points="788.5,-141 645.5,-141 645.5,-118 788.5,-118 788.5,-141"/>
<text text-anchor="middle" x="717" y="-125.8" font-family="Arial" font-size="14.00">freertos/FreeRTOS.h</text>
</a>
</g>
</g>
<!-- Node1&#45;&gt;Node14 -->
<g id="edge14_Node000001_Node000014" class="edge">
<title>Node1&#45;&gt;Node14</title>
<g id="a_edge14_Node000001_Node000014"><a xlink:title=" ">
<path fill="none" stroke="#63b8ff" d="M717,-176.69C717,-168.8 717,-159.54 717,-151.39"/>
<polygon fill="#63b8ff" stroke="#63b8ff" points="720.5,-151.19 717,-141.19 713.5,-151.19 720.5,-151.19"/>
</a>
</g>
</g>
<!-- Node15 -->
<g id="Node000015" class="node">
<title>Node15</title>
<g id="a_Node000015"><a xlink:title=" ">
<polygon fill="#e0e0e0" stroke="#999999" points="909,-141 807,-141 807,-118 909,-118 909,-141"/>
<text text-anchor="middle" x="858" y="-125.8" font-family="Arial" font-size="14.00">freertos/task.h</text>
</a>
</g>
</g>
<!-- Node1&#45;&gt;Node15 -->
<g id="edge15_Node000001_Node000015" class="edge">
<title>Node1&#45;&gt;Node15</title>
<g id="a_edge15_Node000001_Node000015"><a xlink:title=" ">
<path fill="none" stroke="#63b8ff" d="M756.65,-176.86C778.45,-166.89 805.15,-154.68 825.67,-145.29"/>
<polygon fill="#63b8ff" stroke="#63b8ff" points="827.28,-148.4 834.91,-141.06 824.36,-142.04 827.28,-148.4"/>
</a>
</g>
</g>
<!-- Node3 -->
<g id="Node000003" class="node">
<title>Node3</title>
<g id="a_Node000003"><a xlink:href="TLE92466ED__HAL_8hpp.html" target="_top" xlink:title="Hardware Abstraction Layer (HAL) base class for TLE92466ED driver.">
<polygon fill="white" stroke="#666666" points="346,-82 188,-82 188,-59 346,-59 346,-82"/>
<text text-anchor="middle" x="267" y="-66.8" font-family="Arial" font-size="14.00">TLE92466ED_HAL.hpp</text>
</a>
</g>
</g>
<!-- Node2&#45;&gt;Node3 -->
<g id="edge2_Node000002_Node000003" class="edge">
<title>Node2&#45;&gt;Node3</title>
<g id="a_edge2_Node000002_Node000003"><a xlink:title=" ">
<path fill="none" stroke="#63b8ff" d="M505.1,-117.98C455.97,-108.39 383.33,-94.21 331.21,-84.03"/>
<polygon fill="#63b8ff" stroke="#63b8ff" points="331.56,-80.54 321.08,-82.06 330.22,-87.41 331.56,-80.54"/>
</a>
</g>
</g>
<!-- Node8 -->
<g id="Node000008" class="node">
<title>Node8</title>
<g id="a_Node000008"><a xlink:href="TLE92466ED__Config_8hpp.html" target="_top" xlink:title="Hardware configuration for TLE92466ED driver on ESP32&#45;C6.">
<polygon fill="white" stroke="#666666" points="170,-82 0,-82 0,-59 170,-59 170,-82"/>
<text text-anchor="middle" x="85" y="-66.8" font-family="Arial" font-size="14.00">TLE92466ED_Config.hpp</text>
</a>
</g>
</g>
<!-- Node2&#45;&gt;Node8 -->
<g id="edge7_Node000002_Node000008" class="edge">
<title>Node2&#45;&gt;Node8</title>
<g id="a_edge7_Node000002_Node000008"><a xlink:title=" ">
<path fill="none" stroke="#63b8ff" d="M490.84,-120.3C409.35,-110.5 272.48,-94.05 180.49,-82.98"/>
<polygon fill="#63b8ff" stroke="#63b8ff" points="180.68,-79.48 170.34,-81.76 179.85,-86.43 180.68,-79.48"/>
</a>
</g>
</g>
<!-- Node9 -->
<g id="Node000009" class="node">
<title>Node9</title>
<g id="a_Node000009"><a xlink:title=" ">
<polygon fill="#e0e0e0" stroke="#999999" points="495.5,-82 364.5,-82 364.5,-59 495.5,-59 495.5,-82"/>
<text text-anchor="middle" x="430" y="-66.8" font-family="Arial" font-size="14.00">driver/spi_master.h</text>
</a>
</g>
</g>
<!-- Node2&#45;&gt;Node9 -->
<g id="edge9_Node000002_Node000009" class="edge">
<title>Node2&#45;&gt;Node9</title>
<g id="a_edge9_Node000002_Node000009"><a xlink:title=" ">
<path fill="none" stroke="#63b8ff" d="M535.04,-117.91C514.76,-108.95 485.5,-96.02 463.01,-86.09"/>
<polygon fill="#63b8ff" stroke="#63b8ff" points="464.39,-82.87 453.83,-82.03 461.57,-89.27 464.39,-82.87"/>
</a>
</g>
</g>
<!-- Node10 -->
<g id="Node000010" class="node">
<title>Node10</title>
<g id="a_Node000010"><a xlink:title=" ">
<polygon fill="#e0e0e0" stroke="#999999" points="604.5,-82 513.5,-82 513.5,-59 604.5,-59 604.5,-82"/>
<text text-anchor="middle" x="559" y="-66.8" font-family="Arial" font-size="14.00">driver/gpio.h</text>
</a>
</g>
</g>
<!-- Node2&#45;&gt;Node10 -->
<g id="edge10_Node000002_Node000010" class="edge">
<title>Node2&#45;&gt;Node10</title>
<g id="a_edge10_Node000002_Node000010"><a xlink:title=" ">
<path fill="none" stroke="#63b8ff" d="M559,-117.78C559,-110.61 559,-100.95 559,-92.31"/>
<polygon fill="#63b8ff" stroke="#63b8ff" points="562.5,-92.17 559,-82.17 555.5,-92.17 562.5,-92.17"/>
</a>
</g>
</g>
<!-- Node11 -->
<g id="Node000011" class="node">
<title>Node11</title>
<g id="a_Node000011"><a xlink:title=" ">
<polygon fill="#e0e0e0" stroke="#999999" points="709.5,-82 622.5,-82 622.5,-59 709.5,-59 709.5,-82"/>
<text text-anchor="middle" x="666" y="-66.8" font-family="Arial" font-size="14.00">esp_timer.h</text>
</a>
</g>
</g>
<!-- Node2&#45;&gt;Node11 -->
<g id="edge11_Node000002_Node000011" class="edge">
<title>Node2&#45;&gt;Node11</title>
<g id="a_edge11_Node000002_Node000011"><a xlink:title=" ">
<path fill="none" stroke="#63b8ff" d="M578.88,-117.91C595.32,-109.15 618.88,-96.6 637.36,-86.76"/>
<polygon fill="#63b8ff" stroke="#63b8ff" points="639.05,-89.82 646.23,-82.03 635.76,-83.64 639.05,-89.82"/>
</a>
</g>
</g>
<!-- Node12 -->
<g id="Node000012" class="node">
<title>Node12</title>
<g id="a_Node000012"><a xlink:title=" ">
<polygon fill="#e0e0e0" stroke="#999999" points="802.5,-82 727.5,-82 727.5,-59 802.5,-59 802.5,-82"/>
<text text-anchor="middle" x="765" y="-66.8" font-family="Arial" font-size="14.00">esp_log.h</text>
</a>
</g>
</g>
<!-- Node2&#45;&gt;Node12 -->
<g id="edge12_Node000002_Node000012" class="edge">
<title>Node2&#45;&gt;Node12</title>
<g id="a_edge12_Node000002_Node000012"><a xlink:title=" ">
<path fill="none" stroke="#63b8ff" d="M597.26,-117.91C631.19,-108.52 680.88,-94.78 717.37,-84.68"/>
<polygon fill="#63b8ff" stroke="#63b8ff" points="718.58,-87.97 727.29,-81.93 716.72,-81.23 718.58,-87.97"/>
</a>
</g>
</g>
<!-- Node13 -->
<g id="Node000013" class="node">
<title>Node13</title>
<g id="a_Node000013"><a xlink:title=" ">
<polygon fill="#e0e0e0" stroke="#999999" points="887.5,-82 820.5,-82 820.5,-59 887.5,-59 887.5,-82"/>
<text text-anchor="middle" x="854" y="-66.8" font-family="Arial" font-size="14.00">memory</text>
</a>
</g>
</g>
<!-- Node2&#45;&gt;Node13 -->
<g id="edge13_Node000002_Node000013" class="edge">
<title>Node2&#45;&gt;Node13</title>
<g id="a_edge13_Node000002_Node000013"><a xlink:title=" ">
<path fill="none" stroke="#63b8ff" d="M622.38,-117.99C671.29,-109.63 740.84,-97.16 809.93,-82.37"/>
<polygon fill="#63b8ff" stroke="#63b8ff" points="811.08,-85.7 820.12,-80.17 809.6,-78.86 811.08,-85.7"/>
</a>
</g>
</g>
<!-- Node4 -->
<g id="Node000004" class="node">
<title>Node4</title>
<g id="a_Node000004"><a xlink:title=" ">
<polygon fill="#e0e0e0" stroke="#999999" points="125,-23 69,-23 69,0 125,0 125,-23"/>
<text text-anchor="middle" x="97" y="-7.8" font-family="Arial" font-size="14.00">cstdint</text>
</a>
</g>
</g>
<!-- Node3&#45;&gt;Node4 -->
<g id="edge3_Node000003_Node000004" class="edge">
<title>Node3&#45;&gt;Node4</title>
<g id="a_edge3_Node000003_Node000004"><a xlink:title=" ">
<path fill="none" stroke="#63b8ff" d="M235.42,-58.91C206.95,-49.37 165.04,-35.31 134.8,-25.17"/>
<polygon fill="#63b8ff" stroke="#63b8ff" points="135.62,-21.76 125.03,-21.9 133.39,-28.39 135.62,-21.76"/>
</a>
</g>
</g>
<!-- Node5 -->
<g id="Node000005" class="node">
<title>Node5</title>
<g id="a_Node000005"><a xlink:title=" ">
<polygon fill="#e0e0e0" stroke="#999999" points="225.5,-23 154.5,-23 154.5,0 225.5,0 225.5,-23"/>
<text text-anchor="middle" x="190" y="-7.8" font-family="Arial" font-size="14.00">concepts</text>
</a>
</g>
</g>
<!-- Node3&#45;&gt;Node5 -->
<g id="edge4_Node000003_Node000005" class="edge">
<title>Node3&#45;&gt;Node5</title>
<g id="a_edge4_Node000003_Node000005"><a xlink:title=" ">
<path fill="none" stroke="#63b8ff" d="M252.52,-58.78C241.33,-50.5 225.64,-38.89 212.78,-29.36"/>
<polygon fill="#63b8ff" stroke="#63b8ff" points="214.54,-26.31 204.42,-23.17 210.37,-31.94 214.54,-26.31"/>
</a>
</g>
</g>
<!-- Node6 -->
<g id="Node000006" class="node">
<title>Node6</title>
<g id="a_Node000006"><a xlink:title=" ">
<polygon fill="#e0e0e0" stroke="#999999" points="290,-23 244,-23 244,0 290,0 290,-23"/>
<text text-anchor="middle" x="267" y="-7.8" font-family="Arial" font-size="14.00">span</text>
</a>
</g>
</g>
<!-- Node3&#45;&gt;Node6 -->
<g id="edge5_Node000003_Node000006" class="edge">
<title>Node3&#45;&gt;Node6</title>
<g id="a_edge5_Node000003_Node000006"><a xlink:title=" ">
<path fill="none" stroke="#63b8ff" d="M267,-58.78C267,-51.61 267,-41.95 267,-33.31"/>
<polygon fill="#63b8ff" stroke="#63b8ff" points="270.5,-33.17 267,-23.17 263.5,-33.17 270.5,-33.17"/>
</a>
</g>
</g>
<!-- Node7 -->
<g id="Node000007" class="node">
<title>Node7</title>
<g id="a_Node000007"><a xlink:title=" ">
<polygon fill="#e0e0e0" stroke="#999999" points="379.5,-23 308.5,-23 308.5,0 379.5,0 379.5,-23"/>
<text text-anchor="middle" x="344" y="-7.8" font-family="Arial" font-size="14.00">expected</text>
</a>
</g>
</g>
<!-- Node3&#45;&gt;Node7 -->
<g id="edge6_Node000003_Node000007" class="edge">
<title>Node3&#45;&gt;Node7</title>
<g id="a_edge6_Node000003_Node000007"><a xlink:title=" ">
<path fill="none" stroke="#63b8ff" d="M281.48,-58.78C292.67,-50.5 308.36,-38.89 321.22,-29.36"/>
<polygon fill="#63b8ff" stroke="#63b8ff" points="323.63,-31.94 329.58,-23.17 319.46,-26.31 323.63,-31.94"/>
</a>
</g>
</g>
<!-- Node8&#45;&gt;Node4 -->
<g id="edge8_Node000008_Node000004" class="edge">
<title>Node8&#45;&gt;Node4</title>
<g id="a_edge8_Node000008_Node000004"><a xlink:title=" ">
<path fill="none" stroke="#63b8ff" d="M87.26,-58.78C88.78,-51.53 90.84,-41.74 92.68,-33.02"/>
<polygon fill="#63b8ff" stroke="#63b8ff" points="96.12,-33.68 94.75,-23.17 89.27,-32.24 96.12,-33.68"/>
</a>
</g>
</g>
</g>
</svg>
