<?xml version="1.0" encoding="UTF-8" standalone="no"?>
<!DOCTYPE svg PUBLIC "-//W3C//DTD SVG 1.1//EN"
 "http://www.w3.org/Graphics/SVG/1.1/DTD/svg11.dtd">
<!-- Generated by graphviz version 2.43.0 (0)
 -->
<!-- Title: examples/esp32/main/Esp32TleCommInterface.hpp Pages: 1 -->
<svg width="963pt" height="164pt"
 viewBox="0.00 0.00 963.00 164.00" xmlns="http://www.w3.org/2000/svg" xmlns:xlink="http://www.w3.org/1999/xlink">
<g id="graph0" class="graph" transform="scale(1 1) rotate(0) translate(4 160)">
<title>examples/esp32/main/Esp32TleCommInterface.hpp</title>
<!-- Node1 -->
<g id="Node000001" class="node">
<title>Node1</title>
<g id="a_Node000001"><a xlink:title="ESP32 Communication Interface implementation for TLE92466ED driver.">
<polygon fill="#999999" stroke="#666666" points="725,-156 528,-156 528,-118 725,-118 725,-156"/>
<text text-anchor="start" x="536" y="-140.8" font-family="Arial" font-size="14.00">examples/esp32/main</text>
<text text-anchor="middle" x="626.5" y="-125.8" font-family="Arial" font-size="14.00">/Esp32TleCommInterface.hpp</text>
</a>
</g>
</g>
<!-- Node2 -->
<g id="Node000002" class="node">
<title>Node2</title>
<g id="a_Node000002"><a xlink:title=" ">
<polygon fill="#e0e0e0" stroke="#999999" points="225,-82 0,-82 0,-59 225,-59 225,-82"/>
<text text-anchor="middle" x="112.5" y="-66.8" font-family="Arial" font-size="14.00">TLE92466ED_CommInterface.hpp</text>
</a>
</g>
</g>
<!-- Node1&#45;&gt;Node2 -->
<g id="edge1_Node000001_Node000002" class="edge">
<title>Node1&#45;&gt;Node2</title>
<g id="a_edge1_Node000001_Node000002"><a xlink:title=" ">
<path fill="none" stroke="#63b8ff" d="M527.7,-123.6C435.09,-111.98 297.61,-94.73 206.57,-83.3"/>
<polygon fill="#63b8ff" stroke="#63b8ff" points="206.88,-79.82 196.53,-82.04 206.01,-86.76 206.88,-79.82"/>
</a>
</g>
</g>
<!-- Node3 -->
<g id="Node000003" class="node">
<title>Node3</title>
<g id="a_Node000003"><a xlink:href="TLE92466ED__Config_8hpp.html" target="_top" xlink:title="Hardware configuration for TLE92466ED driver on ESP32&#45;C6.">
<polygon fill="white" stroke="#666666" points="413.5,-82 243.5,-82 243.5,-59 413.5,-59 413.5,-82"/>
<text text-anchor="middle" x="328.5" y="-66.8" font-family="Arial" font-size="14.00">TLE92466ED_Config.hpp</text>
</a>
</g>
</g>
<!-- Node1&#45;&gt;Node3 -->
<g id="edge2_Node000001_Node000003" class="edge">
<title>Node1&#45;&gt;Node3</title>
<g id="a_edge2_Node000001_Node000003"><a xlink:title=" ">
<path fill="none" stroke="#63b8ff" d="M543.09,-117.95C493.47,-107.21 431.72,-93.84 387.21,-84.21"/>
<polygon fill="#63b8ff" stroke="#63b8ff" points="387.94,-80.78 377.43,-82.09 386.46,-87.63 387.94,-80.78"/>
</a>
</g>
</g>
<!-- Node5 -->
<g id="Node000005" class="node">
<title>Node5</title>
<g id="a_Node000005"><a xlink:title=" ">
<polygon fill="#e0e0e0" stroke="#999999" points="563,-82 432,-82 432,-59 563,-59 563,-82"/>
<text text-anchor="middle" x="497.5" y="-66.8" font-family="Arial" font-size="14.00">driver/spi_master.h</text>
</a>
</g>
</g>
<!-- Node1&#45;&gt;Node5 -->
<g id="edge4_Node000001_Node000005" class="edge">
<title>Node1&#45;&gt;Node5</title>
<g id="a_edge4_Node000001_Node000005"><a xlink:title=" ">
<path fill="none" stroke="#63b8ff" d="M590.22,-117.86C570.46,-107.98 546.29,-95.9 527.59,-86.54"/>
<polygon fill="#63b8ff" stroke="#63b8ff" points="529.13,-83.4 518.62,-82.06 526,-89.66 529.13,-83.4"/>
</a>
</g>
</g>
<!-- Node6 -->
<g id="Node000006" class="node">
<title>Node6</title>
<g id="a_Node000006"><a xlink:title=" ">
<polygon fill="#e0e0e0" stroke="#999999" points="672,-82 581,-82 581,-59 672,-59 672,-82"/>
<text text-anchor="middle" x="626.5" y="-66.8" font-family="Arial" font-size="14.00">driver/gpio.h</text>
</a>
</g>
</g>
<!-- Node1&#45;&gt;Node6 -->
<g id="edge5_Node000001_Node000006" class="edge">
<title>Node1&#45;&gt;Node6</title>
<g id="a_edge5_Node000001_Node000006"><a xlink:title=" ">
<path fill="none" stroke="#63b8ff" d="M626.5,-117.69C626.5,-109.8 626.5,-100.54 626.5,-92.39"/>
<polygon fill="#63b8ff" stroke="#63b8ff" points="630,-92.19 626.5,-82.19 623,-92.19 630,-92.19"/>
</a>
</g>
</g>
<!-- Node7 -->
<g id="Node000007" class="node">
<title>Node7</title>
<g id="a_Node000007"><a xlink:title=" ">
<polygon fill="#e0e0e0" stroke="#999999" points="777,-82 690,-82 690,-59 777,-59 777,-82"/>
<text text-anchor="middle" x="733.5" y="-66.8" font-family="Arial" font-size="14.00">esp_timer.h</text>
</a>
</g>
</g>
<!-- Node1&#45;&gt;Node7 -->
<g id="edge6_Node000001_Node000007" class="edge">
<title>Node1&#45;&gt;Node7</title>
<g id="a_edge6_Node000001_Node000007"><a xlink:title=" ">
<path fill="none" stroke="#63b8ff" d="M656.59,-117.86C672.46,-108.3 691.75,-96.67 707.04,-87.45"/>
<polygon fill="#63b8ff" stroke="#63b8ff" points="709.22,-90.22 715.98,-82.06 705.61,-84.23 709.22,-90.22"/>
</a>
</g>
</g>
<!-- Node8 -->
<g id="Node000008" class="node">
<title>Node8</title>
<g id="a_Node000008"><a xlink:title=" ">
<polygon fill="#e0e0e0" stroke="#999999" points="870,-82 795,-82 795,-59 870,-59 870,-82"/>
<text text-anchor="middle" x="832.5" y="-66.8" font-family="Arial" font-size="14.00">esp_log.h</text>
</a>
</g>
</g>
<!-- Node1&#45;&gt;Node8 -->
<g id="edge7_Node000001_Node000008" class="edge">
<title>Node1&#45;&gt;Node8</title>
<g id="a_edge7_Node000001_Node000008"><a xlink:title=" ">
<path fill="none" stroke="#63b8ff" d="M684.16,-117.95C717.31,-107.57 758.29,-94.74 788.77,-85.19"/>
<polygon fill="#63b8ff" stroke="#63b8ff" points="790.18,-88.42 798.68,-82.09 788.09,-81.74 790.18,-88.42"/>
</a>
</g>
</g>
<!-- Node9 -->
<g id="Node000009" class="node">
<title>Node9</title>
<g id="a_Node000009"><a xlink:title=" ">
<polygon fill="#e0e0e0" stroke="#999999" points="955,-82 888,-82 888,-59 955,-59 955,-82"/>
<text text-anchor="middle" x="921.5" y="-66.8" font-family="Arial" font-size="14.00">memory</text>
</a>
</g>
</g>
<!-- Node1&#45;&gt;Node9 -->
<g id="edge8_Node000001_Node000009" class="edge">
<title>Node1&#45;&gt;Node9</title>
<g id="a_edge8_Node000001_Node000009"><a xlink:title=" ">
<path fill="none" stroke="#63b8ff" d="M714.77,-117.94C760.88,-108.32 818.47,-96.02 877.69,-82.37"/>
<polygon fill="#63b8ff" stroke="#63b8ff" points="878.64,-85.75 887.6,-80.08 877.07,-78.93 878.64,-85.75"/>
</a>
</g>
</g>
<!-- Node4 -->
<g id="Node000004" class="node">
<title>Node4</title>
<g id="a_Node000004"><a xlink:title=" ">
<polygon fill="#e0e0e0" stroke="#999999" points="356.5,-23 300.5,-23 300.5,0 356.5,0 356.5,-23"/>
<text text-anchor="middle" x="328.5" y="-7.8" font-family="Arial" font-size="14.00">cstdint</text>
</a>
</g>
</g>
<!-- Node3&#45;&gt;Node4 -->
<g id="edge3_Node000003_Node000004" class="edge">
<title>Node3&#45;&gt;Node4</title>
<g id="a_edge3_Node000003_Node000004"><a xlink:title=" ">
<path fill="none" stroke="#63b8ff" d="M328.5,-58.78C328.5,-51.61 328.5,-41.95 328.5,-33.31"/>
<polygon fill="#63b8ff" stroke="#63b8ff" points="332,-33.17 328.5,-23.17 325,-33.17 332,-33.17"/>
</a>
</g>
</g>
</g>
</svg>
