<?xml version="1.0" encoding="UTF-8" standalone="no"?>
<!DOCTYPE svg PUBLIC "-//W3C//DTD SVG 1.1//EN"
 "http://www.w3.org/Graphics/SVG/1.1/DTD/svg11.dtd">
<!-- Generated by graphviz version 2.43.0 (0)
 -->
<!-- Title: examples/esp32/main/Esp32TleCommInterface.cpp Pages: 1 -->
<svg width="1014pt" height="223pt"
 viewBox="0.00 0.00 1013.50 223.00" xmlns="http://www.w3.org/2000/svg" xmlns:xlink="http://www.w3.org/1999/xlink">
<g id="graph0" class="graph" transform="scale(1 1) rotate(0) translate(4 219)">
<title>examples/esp32/main/Esp32TleCommInterface.cpp</title>
<!-- Node1 -->
<g id="Node000001" class="node">
<title>Node1</title>
<g id="a_Node000001"><a xlink:title="ESP32 Communication Interface implementation for TLE92466ED driver.">
<polygon fill="#999999" stroke="#666666" points="912,-215 715,-215 715,-177 912,-177 912,-215"/>
<text text-anchor="start" x="723" y="-199.8" font-family="Arial" font-size="14.00">examples/esp32/main</text>
<text text-anchor="middle" x="813.5" y="-184.8" font-family="Arial" font-size="14.00">/Esp32TleCommInterface.cpp</text>
</a>
</g>
</g>
<!-- Node2 -->
<g id="Node000002" class="node">
<title>Node2</title>
<g id="a_Node000002"><a xlink:href="Esp32TleCommInterface_8hpp.html" target="_top" xlink:title="ESP32 Communication Interface implementation for TLE92466ED driver.">
<polygon fill="white" stroke="#666666" points="723.5,-141 529.5,-141 529.5,-118 723.5,-118 723.5,-141"/>
<text text-anchor="middle" x="626.5" y="-125.8" font-family="Arial" font-size="14.00">Esp32TleCommInterface.hpp</text>
</a>
</g>
</g>
<!-- Node1&#45;&gt;Node2 -->
<g id="edge1_Node000001_Node000002" class="edge">
<title>Node1&#45;&gt;Node2</title>
<g id="a_edge1_Node000001_Node000002"><a xlink:title=" ">
<path fill="none" stroke="#63b8ff" d="M760.91,-176.86C731.09,-166.57 694.34,-153.9 666.81,-144.41"/>
<polygon fill="#63b8ff" stroke="#63b8ff" points="667.71,-141.01 657.12,-141.06 665.43,-147.63 667.71,-141.01"/>
</a>
</g>
</g>
<!-- Node11 -->
<g id="Node000011" class="node">
<title>Node11</title>
<g id="a_Node000011"><a xlink:title=" ">
<polygon fill="#e0e0e0" stroke="#999999" points="885,-141 742,-141 742,-118 885,-118 885,-141"/>
<text text-anchor="middle" x="813.5" y="-125.8" font-family="Arial" font-size="14.00">freertos/FreeRTOS.h</text>
</a>
</g>
</g>
<!-- Node1&#45;&gt;Node11 -->
<g id="edge10_Node000001_Node000011" class="edge">
<title>Node1&#45;&gt;Node11</title>
<g id="a_edge10_Node000001_Node000011"><a xlink:title=" ">
<path fill="none" stroke="#63b8ff" d="M813.5,-176.69C813.5,-168.8 813.5,-159.54 813.5,-151.39"/>
<polygon fill="#63b8ff" stroke="#63b8ff" points="817,-151.19 813.5,-141.19 810,-151.19 817,-151.19"/>
</a>
</g>
</g>
<!-- Node12 -->
<g id="Node000012" class="node">
<title>Node12</title>
<g id="a_Node000012"><a xlink:title=" ">
<polygon fill="#e0e0e0" stroke="#999999" points="1005.5,-141 903.5,-141 903.5,-118 1005.5,-118 1005.5,-141"/>
<text text-anchor="middle" x="954.5" y="-125.8" font-family="Arial" font-size="14.00">freertos/task.h</text>
</a>
</g>
</g>
<!-- Node1&#45;&gt;Node12 -->
<g id="edge11_Node000001_Node000012" class="edge">
<title>Node1&#45;&gt;Node12</title>
<g id="a_edge11_Node000001_Node000012"><a xlink:title=" ">
<path fill="none" stroke="#63b8ff" d="M853.15,-176.86C874.95,-166.89 901.65,-154.68 922.17,-145.29"/>
<polygon fill="#63b8ff" stroke="#63b8ff" points="923.78,-148.4 931.41,-141.06 920.86,-142.04 923.78,-148.4"/>
</a>
</g>
</g>
<!-- Node3 -->
<g id="Node000003" class="node">
<title>Node3</title>
<g id="a_Node000003"><a xlink:title=" ">
<polygon fill="#e0e0e0" stroke="#999999" points="225,-82 0,-82 0,-59 225,-59 225,-82"/>
<text text-anchor="middle" x="112.5" y="-66.8" font-family="Arial" font-size="14.00">TLE92466ED_CommInterface.hpp</text>
</a>
</g>
</g>
<!-- Node2&#45;&gt;Node3 -->
<g id="edge2_Node000002_Node000003" class="edge">
<title>Node2&#45;&gt;Node3</title>
<g id="a_edge2_Node000002_Node000003"><a xlink:title=" ">
<path fill="none" stroke="#63b8ff" d="M531.63,-117.98C442.58,-108.1 309.63,-93.36 217.45,-83.14"/>
<polygon fill="#63b8ff" stroke="#63b8ff" points="217.58,-79.63 207.26,-82.01 216.81,-86.59 217.58,-79.63"/>
</a>
</g>
</g>
<!-- Node4 -->
<g id="Node000004" class="node">
<title>Node4</title>
<g id="a_Node000004"><a xlink:href="TLE92466ED__Config_8hpp.html" target="_top" xlink:title="Hardware configuration for TLE92466ED driver on ESP32&#45;C6.">
<polygon fill="white" stroke="#666666" points="413.5,-82 243.5,-82 243.5,-59 413.5,-59 413.5,-82"/>
<text text-anchor="middle" x="328.5" y="-66.8" font-family="Arial" font-size="14.00">TLE92466ED_Config.hpp</text>
</a>
</g>
</g>
<!-- Node2&#45;&gt;Node4 -->
<g id="edge3_Node000002_Node000004" class="edge">
<title>Node2&#45;&gt;Node4</title>
<g id="a_edge3_Node000002_Node000004"><a xlink:title=" ">
<path fill="none" stroke="#63b8ff" d="M571.49,-117.98C521.17,-108.35 446.68,-94.1 393.45,-83.92"/>
<polygon fill="#63b8ff" stroke="#63b8ff" points="393.92,-80.45 383.44,-82.01 392.6,-87.32 393.92,-80.45"/>
</a>
</g>
</g>
<!-- Node6 -->
<g id="Node000006" class="node">
<title>Node6</title>
<g id="a_Node000006"><a xlink:title=" ">
<polygon fill="#e0e0e0" stroke="#999999" points="563,-82 432,-82 432,-59 563,-59 563,-82"/>
<text text-anchor="middle" x="497.5" y="-66.8" font-family="Arial" font-size="14.00">driver/spi_master.h</text>
</a>
</g>
</g>
<!-- Node2&#45;&gt;Node6 -->
<g id="edge5_Node000002_Node000006" class="edge">
<title>Node2&#45;&gt;Node6</title>
<g id="a_edge5_Node000002_Node000006"><a xlink:title=" ">
<path fill="none" stroke="#63b8ff" d="M602.54,-117.91C582.26,-108.95 553,-96.02 530.51,-86.09"/>
<polygon fill="#63b8ff" stroke="#63b8ff" points="531.89,-82.87 521.33,-82.03 529.07,-89.27 531.89,-82.87"/>
</a>
</g>
</g>
<!-- Node7 -->
<g id="Node000007" class="node">
<title>Node7</title>
<g id="a_Node000007"><a xlink:title=" ">
<polygon fill="#e0e0e0" stroke="#999999" points="672,-82 581,-82 581,-59 672,-59 672,-82"/>
<text text-anchor="middle" x="626.5" y="-66.8" font-family="Arial" font-size="14.00">driver/gpio.h</text>
</a>
</g>
</g>
<!-- Node2&#45;&gt;Node7 -->
<g id="edge6_Node000002_Node000007" class="edge">
<title>Node2&#45;&gt;Node7</title>
<g id="a_edge6_Node000002_Node000007"><a xlink:title=" ">
<path fill="none" stroke="#63b8ff" d="M626.5,-117.78C626.5,-110.61 626.5,-100.95 626.5,-92.31"/>
<polygon fill="#63b8ff" stroke="#63b8ff" points="630,-92.17 626.5,-82.17 623,-92.17 630,-92.17"/>
</a>
</g>
</g>
<!-- Node8 -->
<g id="Node000008" class="node">
<title>Node8</title>
<g id="a_Node000008"><a xlink:title=" ">
<polygon fill="#e0e0e0" stroke="#999999" points="777,-82 690,-82 690,-59 777,-59 777,-82"/>
<text text-anchor="middle" x="733.5" y="-66.8" font-family="Arial" font-size="14.00">esp_timer.h</text>
</a>
</g>
</g>
<!-- Node2&#45;&gt;Node8 -->
<g id="edge7_Node000002_Node000008" class="edge">
<title>Node2&#45;&gt;Node8</title>
<g id="a_edge7_Node000002_Node000008"><a xlink:title=" ">
<path fill="none" stroke="#63b8ff" d="M646.38,-117.91C662.82,-109.15 686.38,-96.6 704.86,-86.76"/>
<polygon fill="#63b8ff" stroke="#63b8ff" points="706.55,-89.82 713.73,-82.03 703.26,-83.64 706.55,-89.82"/>
</a>
</g>
</g>
<!-- Node9 -->
<g id="Node000009" class="node">
<title>Node9</title>
<g id="a_Node000009"><a xlink:title=" ">
<polygon fill="#e0e0e0" stroke="#999999" points="870,-82 795,-82 795,-59 870,-59 870,-82"/>
<text text-anchor="middle" x="832.5" y="-66.8" font-family="Arial" font-size="14.00">esp_log.h</text>
</a>
</g>
</g>
<!-- Node2&#45;&gt;Node9 -->
<g id="edge8_Node000002_Node000009" class="edge">
<title>Node2&#45;&gt;Node9</title>
<g id="a_edge8_Node000002_Node000009"><a xlink:title=" ">
<path fill="none" stroke="#63b8ff" d="M664.76,-117.91C698.69,-108.52 748.38,-94.78 784.87,-84.68"/>
<polygon fill="#63b8ff" stroke="#63b8ff" points="786.08,-87.97 794.79,-81.93 784.22,-81.23 786.08,-87.97"/>
</a>
</g>
</g>
<!-- Node10 -->
<g id="Node000010" class="node">
<title>Node10</title>
<g id="a_Node000010"><a xlink:title=" ">
<polygon fill="#e0e0e0" stroke="#999999" points="955,-82 888,-82 888,-59 955,-59 955,-82"/>
<text text-anchor="middle" x="921.5" y="-66.8" font-family="Arial" font-size="14.00">memory</text>
</a>
</g>
</g>
<!-- Node2&#45;&gt;Node10 -->
<g id="edge9_Node000002_Node000010" class="edge">
<title>Node2&#45;&gt;Node10</title>
<g id="a_edge9_Node000002_Node000010"><a xlink:title=" ">
<path fill="none" stroke="#63b8ff" d="M689.88,-117.99C738.79,-109.63 808.34,-97.16 877.43,-82.37"/>
<polygon fill="#63b8ff" stroke="#63b8ff" points="878.58,-85.7 887.62,-80.17 877.1,-78.86 878.58,-85.7"/>
</a>
</g>
</g>
<!-- Node5 -->
<g id="Node000005" class="node">
<title>Node5</title>
<g id="a_Node000005"><a xlink:title=" ">
<polygon fill="#e0e0e0" stroke="#999999" points="356.5,-23 300.5,-23 300.5,0 356.5,0 356.5,-23"/>
<text text-anchor="middle" x="328.5" y="-7.8" font-family="Arial" font-size="14.00">cstdint</text>
</a>
</g>
</g>
<!-- Node4&#45;&gt;Node5 -->
<g id="edge4_Node000004_Node000005" class="edge">
<title>Node4&#45;&gt;Node5</title>
<g id="a_edge4_Node000004_Node000005"><a xlink:title=" ">
<path fill="none" stroke="#63b8ff" d="M328.5,-58.78C328.5,-51.61 328.5,-41.95 328.5,-33.31"/>
<polygon fill="#63b8ff" stroke="#63b8ff" points="332,-33.17 328.5,-23.17 325,-33.17 332,-33.17"/>
</a>
</g>
</g>
</g>
</svg>
