<?xml version="1.0" encoding="UTF-8" standalone="no"?>
<!DOCTYPE svg PUBLIC "-//W3C//DTD SVG 1.1//EN"
 "http://www.w3.org/Graphics/SVG/1.1/DTD/svg11.dtd">
<!-- Generated by graphviz version 2.43.0 (0)
 -->
<!-- Title: include/TLE92466ED_HAL.hpp Pages: 1 -->
<svg width="1097pt" height="194pt"
 viewBox="0.00 0.00 1097.00 194.00" xmlns="http://www.w3.org/2000/svg" xmlns:xlink="http://www.w3.org/1999/xlink">
<g id="graph0" class="graph" transform="scale(1 1) rotate(0) translate(4 190)">
<title>include/TLE92466ED_HAL.hpp</title>
<!-- Node1 -->
<g id="Node000001" class="node">
<title>Node1</title>
<g id="a_Node000001"><a xlink:title="Hardware Abstraction Layer (HAL) base class for TLE92466ED driver.">
<polygon fill="#999999" stroke="#666666" points="620,-186 476,-186 476,-148 620,-148 620,-186"/>
<text text-anchor="start" x="484" y="-170.8" font-family="Arial" font-size="14.00">include/TLE92466ED</text>
<text text-anchor="middle" x="548" y="-155.8" font-family="Arial" font-size="14.00">_HAL.hpp</text>
</a>
</g>
</g>
<!-- Node2 -->
<g id="Node000002" class="node">
<title>Node2</title>
<g id="a_Node000002"><a xlink:href="Arduino__HAL_8hpp.html" target="_top" xlink:title="Arduino Hardware Abstraction Layer for TLE92466ED Driver.">
<polygon fill="white" stroke="#666666" points="270,-112 96,-112 96,-74 270,-74 270,-112"/>
<text text-anchor="start" x="104" y="-96.8" font-family="Arial" font-size="14.00">examples/arduino/Arduino</text>
<text text-anchor="middle" x="183" y="-81.8" font-family="Arial" font-size="14.00">_HAL.hpp</text>
</a>
</g>
</g>
<!-- Node1&#45;&gt;Node2 -->
<g id="edge1_Node000001_Node000002" class="edge">
<title>Node1&#45;&gt;Node2</title>
<g id="a_edge1_Node000001_Node000002"><a xlink:title=" ">
<path fill="none" stroke="#63b8ff" d="M465.98,-149.82C407.67,-138.32 329.49,-122.9 270.08,-111.18"/>
<polygon fill="#63b8ff" stroke="#63b8ff" points="465.4,-153.27 475.89,-151.78 466.75,-146.41 465.4,-153.27"/>
</a>
</g>
</g>
<!-- Node4 -->
<g id="Node000004" class="node">
<title>Node4</title>
<g id="a_Node000004"><a xlink:href="ESP32C6__HAL_8hpp.html" target="_top" xlink:title="ESP32&#45;C6 Hardware Abstraction Layer for TLE92466ED driver.">
<polygon fill="white" stroke="#666666" points="526.5,-112 377.5,-112 377.5,-74 526.5,-74 526.5,-112"/>
<text text-anchor="start" x="385.5" y="-96.8" font-family="Arial" font-size="14.00">examples/esp32/main</text>
<text text-anchor="middle" x="452" y="-81.8" font-family="Arial" font-size="14.00">/ESP32C6_HAL.hpp</text>
</a>
</g>
</g>
<!-- Node1&#45;&gt;Node4 -->
<g id="edge3_Node000001_Node000004" class="edge">
<title>Node1&#45;&gt;Node4</title>
<g id="a_edge3_Node000001_Node000004"><a xlink:title=" ">
<path fill="none" stroke="#63b8ff" d="M515.6,-141.7C502.72,-132.04 488.15,-121.12 476.22,-112.16"/>
<polygon fill="#63b8ff" stroke="#63b8ff" points="513.68,-144.63 523.78,-147.83 517.88,-139.03 513.68,-144.63"/>
</a>
</g>
</g>
<!-- Node8 -->
<g id="Node000008" class="node">
<title>Node8</title>
<g id="a_Node000008"><a xlink:href="example__hal_8hpp.html" target="_top" xlink:title="Example HAL implementation for TLE92466ED driver.">
<polygon fill="white" stroke="#666666" points="1006,-104.5 824,-104.5 824,-81.5 1006,-81.5 1006,-104.5"/>
<text text-anchor="middle" x="915" y="-89.3" font-family="Arial" font-size="14.00">examples/example_hal.hpp</text>
</a>
</g>
</g>
<!-- Node1&#45;&gt;Node8 -->
<g id="edge7_Node000001_Node000008" class="edge">
<title>Node1&#45;&gt;Node8</title>
<g id="a_edge7_Node000001_Node000008"><a xlink:title=" ">
<path fill="none" stroke="#63b8ff" d="M630.26,-149.86C700.84,-136.02 800.49,-116.47 861.26,-104.54"/>
<polygon fill="#63b8ff" stroke="#63b8ff" points="629.21,-146.5 620.07,-151.86 630.56,-153.37 629.21,-146.5"/>
</a>
</g>
</g>
<!-- Node10 -->
<g id="Node000010" class="node">
<title>Node10</title>
<g id="a_Node000010"><a xlink:href="TLE92466ED_8hpp.html" target="_top" xlink:title="Main driver class for TLE92466ED Six&#45;Channel Low&#45;Side Solenoid Driver IC.">
<polygon fill="white" stroke="#666666" points="723,-104.5 553,-104.5 553,-81.5 723,-81.5 723,-104.5"/>
<text text-anchor="middle" x="638" y="-89.3" font-family="Arial" font-size="14.00">include/TLE92466ED.hpp</text>
</a>
</g>
</g>
<!-- Node1&#45;&gt;Node10 -->
<g id="edge9_Node000001_Node000010" class="edge">
<title>Node1&#45;&gt;Node10</title>
<g id="a_edge9_Node000001_Node000010"><a xlink:title=" ">
<path fill="none" stroke="#63b8ff" d="M578.65,-141.48C594.37,-128.9 612.71,-114.23 624.79,-104.57"/>
<polygon fill="#63b8ff" stroke="#63b8ff" points="576.33,-138.85 570.71,-147.83 580.71,-144.32 576.33,-138.85"/>
</a>
</g>
</g>
<!-- Node3 -->
<g id="Node000003" class="node">
<title>Node3</title>
<g id="a_Node000003"><a xlink:href="Arduino__HAL_8cpp.html" target="_top" xlink:title="Arduino Hardware Abstraction Layer Implementation.">
<polygon fill="white" stroke="#666666" points="174,-38 0,-38 0,0 174,0 174,-38"/>
<text text-anchor="start" x="8" y="-22.8" font-family="Arial" font-size="14.00">examples/arduino/Arduino</text>
<text text-anchor="middle" x="87" y="-7.8" font-family="Arial" font-size="14.00">_HAL.cpp</text>
</a>
</g>
</g>
<!-- Node2&#45;&gt;Node3 -->
<g id="edge2_Node000002_Node000003" class="edge">
<title>Node2&#45;&gt;Node3</title>
<g id="a_edge2_Node000002_Node000003"><a xlink:title=" ">
<path fill="none" stroke="#63b8ff" d="M150.6,-67.7C137.72,-58.04 123.15,-47.12 111.22,-38.16"/>
<polygon fill="#63b8ff" stroke="#63b8ff" points="148.68,-70.63 158.78,-73.83 152.88,-65.03 148.68,-70.63"/>
</a>
</g>
</g>
<!-- Node5 -->
<g id="Node000005" class="node">
<title>Node5</title>
<g id="a_Node000005"><a xlink:href="BasicUsageExample_8cpp.html" target="_top" xlink:title="Basic usage example for TLE92466ED driver on ESP32&#45;C6.">
<polygon fill="white" stroke="#666666" points="530.5,-38 359.5,-38 359.5,0 530.5,0 530.5,-38"/>
<text text-anchor="start" x="367.5" y="-22.8" font-family="Arial" font-size="14.00">examples/esp32/main</text>
<text text-anchor="middle" x="445" y="-7.8" font-family="Arial" font-size="14.00">/BasicUsageExample.cpp</text>
</a>
</g>
</g>
<!-- Node4&#45;&gt;Node5 -->
<g id="edge4_Node000004_Node000005" class="edge">
<title>Node4&#45;&gt;Node5</title>
<g id="a_edge4_Node000004_Node000005"><a xlink:title=" ">
<path fill="none" stroke="#63b8ff" d="M449.26,-63.85C448.43,-55.31 447.54,-46.14 446.79,-38.41"/>
<polygon fill="#63b8ff" stroke="#63b8ff" points="445.78,-64.22 450.23,-73.83 452.75,-63.54 445.78,-64.22"/>
</a>
</g>
</g>
<!-- Node6 -->
<g id="Node000006" class="node">
<title>Node6</title>
<g id="a_Node000006"><a xlink:href="ESP32C6__HAL_8cpp.html" target="_top" xlink:title="ESP32&#45;C6 Hardware Abstraction Layer implementation for TLE92466ED driver.">
<polygon fill="white" stroke="#666666" points="341.5,-38 192.5,-38 192.5,0 341.5,0 341.5,-38"/>
<text text-anchor="start" x="200.5" y="-22.8" font-family="Arial" font-size="14.00">examples/esp32/main</text>
<text text-anchor="middle" x="267" y="-7.8" font-family="Arial" font-size="14.00">/ESP32C6_HAL.cpp</text>
</a>
</g>
</g>
<!-- Node4&#45;&gt;Node6 -->
<g id="edge5_Node000004_Node000006" class="edge">
<title>Node4&#45;&gt;Node6</title>
<g id="a_edge5_Node000004_Node000006"><a xlink:title=" ">
<path fill="none" stroke="#63b8ff" d="M395.83,-70.14C369.44,-59.87 338.37,-47.77 313.35,-38.04"/>
<polygon fill="#63b8ff" stroke="#63b8ff" points="394.73,-73.47 405.32,-73.83 397.27,-66.94 394.73,-73.47"/>
</a>
</g>
</g>
<!-- Node7 -->
<g id="Node000007" class="node">
<title>Node7</title>
<g id="a_Node000007"><a xlink:href="MultiChannelExample_8cpp.html" target="_top" xlink:title="Multi&#45;channel control example for TLE92466ED driver on ESP32&#45;C6.">
<polygon fill="white" stroke="#666666" points="727.5,-38 548.5,-38 548.5,0 727.5,0 727.5,-38"/>
<text text-anchor="start" x="556.5" y="-22.8" font-family="Arial" font-size="14.00">examples/esp32/main</text>
<text text-anchor="middle" x="638" y="-7.8" font-family="Arial" font-size="14.00">/MultiChannelExample.cpp</text>
</a>
</g>
</g>
<!-- Node4&#45;&gt;Node7 -->
<g id="edge6_Node000004_Node000007" class="edge">
<title>Node4&#45;&gt;Node7</title>
<g id="a_edge6_Node000004_Node000007"><a xlink:title=" ">
<path fill="none" stroke="#63b8ff" d="M508.48,-70.14C535.01,-59.87 566.25,-47.77 591.4,-38.04"/>
<polygon fill="#63b8ff" stroke="#63b8ff" points="507,-66.96 498.94,-73.83 509.52,-73.49 507,-66.96"/>
</a>
</g>
</g>
<!-- Node9 -->
<g id="Node000009" class="node">
<title>Node9</title>
<g id="a_Node000009"><a xlink:href="basic__usage_8cpp.html" target="_top" xlink:title="Basic usage example for TLE92466ED driver.">
<polygon fill="white" stroke="#666666" points="1089,-30.5 909,-30.5 909,-7.5 1089,-7.5 1089,-30.5"/>
<text text-anchor="middle" x="999" y="-15.3" font-family="Arial" font-size="14.00">examples/basic_usage.cpp</text>
</a>
</g>
</g>
<!-- Node8&#45;&gt;Node9 -->
<g id="edge8_Node000008_Node000009" class="edge">
<title>Node8&#45;&gt;Node9</title>
<g id="a_edge8_Node000008_Node000009"><a xlink:title=" ">
<path fill="none" stroke="#63b8ff" d="M935.15,-74.73C951.15,-61.01 973.01,-42.28 986.55,-30.67"/>
<polygon fill="#63b8ff" stroke="#63b8ff" points="932.71,-72.21 927.39,-81.38 937.26,-77.53 932.71,-72.21"/>
</a>
</g>
</g>
<!-- Node10&#45;&gt;Node5 -->
<g id="edge11_Node000010_Node000005" class="edge">
<title>Node10&#45;&gt;Node5</title>
<g id="a_edge11_Node000010_Node000005"><a xlink:title=" ">
<path fill="none" stroke="#63b8ff" d="M600.08,-77.85C569.56,-66.47 526.46,-50.39 493.44,-38.07"/>
<polygon fill="#63b8ff" stroke="#63b8ff" points="598.93,-81.16 609.52,-81.38 601.38,-74.6 598.93,-81.16"/>
</a>
</g>
</g>
<!-- Node10&#45;&gt;Node7 -->
<g id="edge12_Node000010_Node000007" class="edge">
<title>Node10&#45;&gt;Node7</title>
<g id="a_edge12_Node000010_Node000007"><a xlink:title=" ">
<path fill="none" stroke="#63b8ff" d="M638,-71.1C638,-60.69 638,-48.23 638,-38.21"/>
<polygon fill="#63b8ff" stroke="#63b8ff" points="634.5,-71.38 638,-81.38 641.5,-71.38 634.5,-71.38"/>
</a>
</g>
</g>
<!-- Node10&#45;&gt;Node9 -->
<g id="edge10_Node000010_Node000009" class="edge">
<title>Node10&#45;&gt;Node9</title>
<g id="a_edge10_Node000010_Node000009"><a xlink:title=" ">
<path fill="none" stroke="#63b8ff" d="M700.82,-79.47C770.33,-65.61 881.11,-43.51 946.27,-30.52"/>
<polygon fill="#63b8ff" stroke="#63b8ff" points="700,-76.07 690.88,-81.45 701.37,-82.93 700,-76.07"/>
</a>
</g>
</g>
<!-- Node11 -->
<g id="Node000011" class="node">
<title>Node11</title>
<g id="a_Node000011"><a xlink:href="TLE92466ED_8cpp.html" target="_top" xlink:title="Implementation of TLE92466ED driver class.">
<polygon fill="white" stroke="#666666" points="890.5,-30.5 745.5,-30.5 745.5,-7.5 890.5,-7.5 890.5,-30.5"/>
<text text-anchor="middle" x="818" y="-15.3" font-family="Arial" font-size="14.00">src/TLE92466ED.cpp</text>
</a>
</g>
</g>
<!-- Node10&#45;&gt;Node11 -->
<g id="edge13_Node000010_Node000011" class="edge">
<title>Node10&#45;&gt;Node11</title>
<g id="a_edge13_Node000010_Node000011"><a xlink:title=" ">
<path fill="none" stroke="#63b8ff" d="M673.88,-77.65C708.63,-63.75 760.51,-43 791.62,-30.55"/>
<polygon fill="#63b8ff" stroke="#63b8ff" points="672.54,-74.41 664.56,-81.38 675.14,-80.91 672.54,-74.41"/>
</a>
</g>
</g>
</g>
</svg>
