<?xml version="1.0" encoding="UTF-8" standalone="no"?>
<!DOCTYPE svg PUBLIC "-//W3C//DTD SVG 1.1//EN"
 "http://www.w3.org/Graphics/SVG/1.1/DTD/svg11.dtd">
<!-- Generated by graphviz version 2.43.0 (0)
 -->
<!-- Title: examples/arduino/Arduino_HAL.cpp Pages: 1 -->
<svg width="394pt" height="164pt"
 viewBox="0.00 0.00 393.50 164.00" xmlns="http://www.w3.org/2000/svg" xmlns:xlink="http://www.w3.org/1999/xlink">

<svg id="main" version="1.1" xmlns="http://www.w3.org/2000/svg" xmlns:xlink="http://www.w3.org/1999/xlink" xml:space="preserve" onload="init(evt)">
<style type="text/css"><![CDATA[
.node, .edge {opacity: 0.7;}
.node.selected, .edge.selected {opacity: 1;}
.edge:hover path { stroke: red; }
.edge:hover polygon { stroke: red; fill: red; }
]]></style>
<script type="application/ecmascript" xlink:href="svg.min.js"/>
<svg id="graph" class="graph">
<g id="graph0" class="graph" transform="scale(1 1) rotate(0) translate(4 160)">
<title>examples/arduino/Arduino_HAL.cpp</title>
<!-- Node1 -->
<g id="Node000001" class="node">
<title>Node1</title>
<g id="a_Node000001"><a xlink:title="Arduino Hardware Abstraction Layer Implementation.">
<polygon fill="#999999" stroke="#666666" points="204,-156 30,-156 30,-118 204,-118 204,-156"/>
<text text-anchor="start" x="38" y="-140.8" font-family="Arial" font-size="14.00">examples/arduino/Arduino</text>
<text text-anchor="middle" x="117" y="-125.8" font-family="Arial" font-size="14.00">_HAL.cpp</text>
</a>
</g>
</g>
<!-- Node2 -->
<g id="Node000002" class="node">
<title>Node2</title>
<g id="a_Node000002"><a xlink:href="Arduino__HAL_8hpp.html" target="_top" xlink:title="Arduino Hardware Abstraction Layer for TLE92466ED Driver.">
<polygon fill="white" stroke="#666666" points="178.5,-82 55.5,-82 55.5,-59 178.5,-59 178.5,-82"/>
<text text-anchor="middle" x="117" y="-66.8" font-family="Arial" font-size="14.00">Arduino_HAL.hpp</text>
</a>
</g>
</g>
<!-- Node1&#45;&gt;Node2 -->
<g id="edge1_Node000001_Node000002" class="edge">
<title>Node1&#45;&gt;Node2</title>
<g id="a_edge1_Node000001_Node000002"><a xlink:title=" ">
<path fill="none" stroke="#63b8ff" d="M117,-117.69C117,-109.8 117,-100.54 117,-92.39"/>
<polygon fill="#63b8ff" stroke="#63b8ff" points="120.5,-92.19 117,-82.19 113.5,-92.19 120.5,-92.19"/>
</a>
</g>
</g>
<!-- Node3 -->
<g id="Node000003" class="node">
<title>Node3</title>
<g id="a_Node000003"><a xlink:title=" ">
<polygon fill="#e0e0e0" stroke="#999999" points="74,-23 0,-23 0,0 74,0 74,-23"/>
<text text-anchor="middle" x="37" y="-7.8" font-family="Arial" font-size="14.00">Arduino.h</text>
</a>
</g>
</g>
<!-- Node2&#45;&gt;Node3 -->
<g id="edge2_Node000002_Node000003" class="edge">
<title>Node2&#45;&gt;Node3</title>
<g id="a_edge2_Node000002_Node000003"><a xlink:title=" ">
<path fill="none" stroke="#63b8ff" d="M101.95,-58.78C90.22,-50.42 73.72,-38.66 60.28,-29.09"/>
<polygon fill="#63b8ff" stroke="#63b8ff" points="62.16,-26.13 51.98,-23.17 58.09,-31.83 62.16,-26.13"/>
</a>
</g>
</g>
<!-- Node4 -->
<g id="Node000004" class="node">
<title>Node4</title>
<g id="a_Node000004"><a xlink:title=" ">
<polygon fill="#e0e0e0" stroke="#999999" points="142,-23 92,-23 92,0 142,0 142,-23"/>
<text text-anchor="middle" x="117" y="-7.8" font-family="Arial" font-size="14.00">SPI.h</text>
</a>
</g>
</g>
<!-- Node2&#45;&gt;Node4 -->
<g id="edge3_Node000002_Node000004" class="edge">
<title>Node2&#45;&gt;Node4</title>
<g id="a_edge3_Node000002_Node000004"><a xlink:title=" ">
<path fill="none" stroke="#63b8ff" d="M117,-58.78C117,-51.61 117,-41.95 117,-33.31"/>
<polygon fill="#63b8ff" stroke="#63b8ff" points="120.5,-33.17 117,-23.17 113.5,-33.17 120.5,-33.17"/>
</a>
</g>
</g>
<!-- Node5 -->
<g id="Node000005" class="node">
<title>Node5</title>
<g id="a_Node000005"><a xlink:title=" ">
<polygon fill="#e0e0e0" stroke="#999999" points="385.5,-23 160.5,-23 160.5,0 385.5,0 385.5,-23"/>
<text text-anchor="middle" x="273" y="-7.8" font-family="Arial" font-size="14.00">TLE92466ED_CommInterface.hpp</text>
</a>
</g>
</g>
<!-- Node2&#45;&gt;Node5 -->
<g id="edge4_Node000002_Node000005" class="edge">
<title>Node2&#45;&gt;Node5</title>
<g id="a_edge4_Node000002_Node000005"><a xlink:title=" ">
<path fill="none" stroke="#63b8ff" d="M145.98,-58.91C170.93,-49.79 207.15,-36.56 234.53,-26.56"/>
<polygon fill="#63b8ff" stroke="#63b8ff" points="235.99,-29.75 244.18,-23.03 233.58,-23.18 235.99,-29.75"/>
</a>
</g>
</g>
</g>
</svg>
</svg>

<style type='text/css'>
<![CDATA[
[data-mouse-over-selected='false'] { opacity: 0.7; }
[data-mouse-over-selected='true']  { opacity: 1.0; }
]]>
</style>
<script type="application/ecmascript"><![CDATA[
document.addEventListener('DOMContentLoaded', (event) => {
  highlightEdges();
  highlightAdjacentNodes();
});
]]></script>
</svg>
