<?xml version="1.0" encoding="UTF-8" standalone="no"?>
<!DOCTYPE svg PUBLIC "-//W3C//DTD SVG 1.1//EN"
 "http://www.w3.org/Graphics/SVG/1.1/DTD/svg11.dtd">
<!-- Generated by graphviz version 2.43.0 (0)
 -->
<!-- Title: examples/esp32/main/DriverIntegrationTest.cpp Pages: 1 -->
<!--zoomable 223 -->

<svg id="main" version="1.1" xmlns="http://www.w3.org/2000/svg" xmlns:xlink="http://www.w3.org/1999/xlink" xml:space="preserve" onload="init(evt)">
<style type="text/css"><![CDATA[
.node, .edge {opacity: 0.7;}
.node.selected, .edge.selected {opacity: 1;}
.edge:hover path { stroke: red; }
.edge:hover polygon { stroke: red; fill: red; }
]]></style>

<defs>
  <circle id="rim" cx="0" cy="0" r="7"/>
  <circle id="rim2" cx="0" cy="0" r="3.5"/>
  <g id="zoomPlus">
    <use xlink:href="#rim" fill="#404040"><set attributeName="fill" to="#808080" begin="zoomplus.mouseover" end="zoomplus.mouseout"/></use>
    <path d="M-4,0h8M0,-4v8" fill="none" stroke="white" stroke-width="1.5" pointer-events="none"/>
  </g>
  <g id="zoomMin">
    <use xlink:href="#rim" fill="#404040"><set attributeName="fill" to="#808080" begin="zoomminus.mouseover" end="zoomminus.mouseout"/></use>
    <path d="M-4,0h8" fill="none" stroke="white" stroke-width="1.5" pointer-events="none"/>
  </g>
  <g id="arrowUp" transform="translate(30 24)">
    <use xlink:href="#rim"/>
    <path pointer-events="none" fill="none" stroke="white" stroke-width="1.5" d="M0,-3.0v7 M-2.5,-0.5L0,-3.0L2.5,-0.5"/>
  </g>
  <g id="arrowRight" transform="rotate(90) translate(36 -43)">
    <use xlink:href="#rim"/>
    <path pointer-events="none" fill="none" stroke="white" stroke-width="1.5" d="M0,-3.0v7 M-2.5,-0.5L0,-3.0L2.5,-0.5"/>
  </g>
  <g id="arrowDown" transform="rotate(180) translate(-30 -48)">
    <use xlink:href="#rim"/>
    <path pointer-events="none" fill="none" stroke="white" stroke-width="1.5" d="M0,-3.0v7 M-2.5,-0.5L0,-3.0L2.5,-0.5"/>
  </g>
  <g id="arrowLeft" transform="rotate(270) translate(-36 17)">
    <use xlink:href="#rim"/>
    <path pointer-events="none" fill="none" stroke="white" stroke-width="1.5" d="M0,-3.0v7 M-2.5,-0.5L0,-3.0L2.5,-0.5"/>
  </g>
  <g id="resetDef">
    <use xlink:href="#rim2" fill="#404040"><set attributeName="fill" to="#808080" begin="reset.mouseover" end="reset.mouseout"/></use>
  </g>
</defs>
<script type="application/ecmascript">
var viewWidth = 1543;
var viewHeight = 223;
var sectionId = 'dynsection-0';
</script>
<script type="application/ecmascript" xlink:href="svg.min.js"/>
<svg id="graph" class="graph">
<g id="viewport">
<title>examples/esp32/main/DriverIntegrationTest.cpp</title>
<!-- Node1 -->
<g id="Node000001" class="node">
<title>Node1</title>
<g id="a_Node000001"><a xlink:title="Comprehensive Integration Test Suite for TLE92466ED Driver.">
<polygon fill="#999999" stroke="#666666" points="830.5,-215 660.5,-215 660.5,-177 830.5,-177 830.5,-215"/>
<text text-anchor="start" x="668.5" y="-199.8" font-family="Arial" font-size="14.00">examples/esp32/main</text>
<text text-anchor="middle" x="745.5" y="-184.8" font-family="Arial" font-size="14.00">/DriverIntegrationTest.cpp</text>
</a>
</g>
</g>
<!-- Node2 -->
<g id="Node000002" class="node">
<title>Node2</title>
<g id="a_Node000002"><a xlink:title=" ">
<polygon fill="#e0e0e0" stroke="#999999" points="439.5,-141 383.5,-141 383.5,-118 439.5,-118 439.5,-141"/>
<text text-anchor="middle" x="411.5" y="-125.8" font-family="Arial" font-size="14.00">stdio.h</text>
</a>
</g>
</g>
<!-- Node1&#45;&gt;Node2 -->
<g id="edge1_Node000001_Node000002" class="edge">
<title>Node1&#45;&gt;Node2</title>
<g id="a_edge1_Node000001_Node000002"><a xlink:title=" ">
<path fill="none" stroke="#63b8ff" d="M660.25,-180.67C601.87,-170.51 522.77,-156.05 453.5,-141 452.26,-140.73 451,-140.45 449.73,-140.16"/>
<polygon fill="#63b8ff" stroke="#63b8ff" points="450.45,-136.74 439.91,-137.86 448.84,-143.55 450.45,-136.74"/>
</a>
</g>
</g>
<!-- Node3 -->
<g id="Node000003" class="node">
<title>Node3</title>
<g id="a_Node000003"><a xlink:title=" ">
<polygon fill="#e0e0e0" stroke="#999999" points="1535,-82 1468,-82 1468,-59 1535,-59 1535,-82"/>
<text text-anchor="middle" x="1501.5" y="-66.8" font-family="Arial" font-size="14.00">memory</text>
</a>
</g>
</g>
<!-- Node1&#45;&gt;Node3 -->
<g id="edge2_Node000001_Node000003" class="edge">
<title>Node1&#45;&gt;Node3</title>
<g id="a_edge2_Node000001_Node000003"><a xlink:title=" ">
<path fill="none" stroke="#63b8ff" d="M813.82,-176.96C845.11,-167.74 882.31,-155.41 914.5,-141 932.87,-132.78 934.29,-123.98 953.5,-118 1165.61,-51.94 1234.82,-115.55 1457.64,-82.05"/>
<polygon fill="#63b8ff" stroke="#63b8ff" points="1458.33,-85.49 1467.68,-80.49 1457.26,-78.57 1458.33,-85.49"/>
</a>
</g>
</g>
<!-- Node4 -->
<g id="Node000004" class="node">
<title>Node4</title>
<g id="a_Node000004"><a xlink:title=" ">
<polygon fill="#e0e0e0" stroke="#999999" points="1009,-141 962,-141 962,-118 1009,-118 1009,-141"/>
<text text-anchor="middle" x="985.5" y="-125.8" font-family="Arial" font-size="14.00">array</text>
</a>
</g>
</g>
<!-- Node1&#45;&gt;Node4 -->
<g id="edge3_Node000001_Node000004" class="edge">
<title>Node1&#45;&gt;Node4</title>
<g id="a_edge3_Node000001_Node000004"><a xlink:title=" ">
<path fill="none" stroke="#63b8ff" d="M813.79,-176.9C852.95,-166.48 903.01,-153.09 947.5,-141 948.94,-140.61 950.42,-140.21 951.91,-139.8"/>
<polygon fill="#63b8ff" stroke="#63b8ff" points="953.08,-143.11 961.79,-137.08 951.22,-136.36 953.08,-143.11"/>
</a>
</g>
</g>
<!-- Node5 -->
<g id="Node000005" class="node">
<title>Node5</title>
<g id="a_Node000005"><a xlink:title=" ">
<polygon fill="#e0e0e0" stroke="#999999" points="143,-82 0,-82 0,-59 143,-59 143,-82"/>
<text text-anchor="middle" x="71.5" y="-66.8" font-family="Arial" font-size="14.00">freertos/FreeRTOS.h</text>
</a>
</g>
</g>
<!-- Node1&#45;&gt;Node5 -->
<g id="edge4_Node000001_Node000005" class="edge">
<title>Node1&#45;&gt;Node5</title>
<g id="a_edge4_Node000001_Node000005"><a xlink:title=" ">
<path fill="none" stroke="#63b8ff" d="M660.23,-186.48C607.19,-179.04 538.47,-165.44 481.5,-141 465.07,-133.95 465.2,-124.38 448.5,-118 327.72,-71.87 286.03,-97.21 153.2,-82.02"/>
<polygon fill="#63b8ff" stroke="#63b8ff" points="153.4,-78.52 143.05,-80.81 152.56,-85.47 153.4,-78.52"/>
</a>
</g>
</g>
<!-- Node6 -->
<g id="Node000006" class="node">
<title>Node6</title>
<g id="a_Node000006"><a xlink:title=" ">
<polygon fill="#e0e0e0" stroke="#999999" points="263.5,-82 161.5,-82 161.5,-59 263.5,-59 263.5,-82"/>
<text text-anchor="middle" x="212.5" y="-66.8" font-family="Arial" font-size="14.00">freertos/task.h</text>
</a>
</g>
</g>
<!-- Node1&#45;&gt;Node6 -->
<g id="edge5_Node000001_Node000006" class="edge">
<title>Node1&#45;&gt;Node6</title>
<g id="a_edge5_Node000001_Node000006"><a xlink:title=" ">
<path fill="none" stroke="#63b8ff" d="M660.48,-179.14C619.05,-170.15 568.91,-157.4 525.5,-141 504.86,-133.2 502.4,-125.08 481.5,-118 480.88,-117.79 352.62,-95.66 273.45,-82.01"/>
<polygon fill="#63b8ff" stroke="#63b8ff" points="274.03,-78.55 263.58,-80.3 272.84,-85.45 274.03,-78.55"/>
</a>
</g>
</g>
<!-- Node7 -->
<g id="Node000007" class="node">
<title>Node7</title>
<g id="a_Node000007"><a xlink:title=" ">
<polygon fill="#e0e0e0" stroke="#999999" points="740,-82 665,-82 665,-59 740,-59 740,-82"/>
<text text-anchor="middle" x="702.5" y="-66.8" font-family="Arial" font-size="14.00">esp_log.h</text>
</a>
</g>
</g>
<!-- Node1&#45;&gt;Node7 -->
<g id="edge6_Node000001_Node000007" class="edge">
<title>Node1&#45;&gt;Node7</title>
<g id="a_edge6_Node000001_Node000007"><a xlink:title=" ">
<path fill="none" stroke="#63b8ff" d="M726,-176.97C716.99,-167.29 707.24,-154.58 702.5,-141 697.03,-125.36 697.43,-106.51 698.97,-92.38"/>
<polygon fill="#63b8ff" stroke="#63b8ff" points="702.48,-92.61 700.37,-82.22 695.54,-91.66 702.48,-92.61"/>
</a>
</g>
</g>
<!-- Node8 -->
<g id="Node000008" class="node">
<title>Node8</title>
<g id="a_Node000008"><a xlink:title=" ">
<polygon fill="#e0e0e0" stroke="#999999" points="1128,-141 1027,-141 1027,-118 1128,-118 1128,-141"/>
<text text-anchor="middle" x="1077.5" y="-125.8" font-family="Arial" font-size="14.00">esp_system.h</text>
</a>
</g>
</g>
<!-- Node1&#45;&gt;Node8 -->
<g id="edge7_Node000001_Node000008" class="edge">
<title>Node1&#45;&gt;Node8</title>
<g id="a_edge7_Node000001_Node000008"><a xlink:title=" ">
<path fill="none" stroke="#63b8ff" d="M830.57,-178.47C888.74,-167.17 964.48,-152.46 1016.66,-142.32"/>
<polygon fill="#63b8ff" stroke="#63b8ff" points="1017.62,-145.7 1026.77,-140.36 1016.28,-138.83 1017.62,-145.7"/>
</a>
</g>
</g>
<!-- Node9 -->
<g id="Node000009" class="node">
<title>Node9</title>
<g id="a_Node000009"><a xlink:title=" ">
<polygon fill="#e0e0e0" stroke="#999999" points="1270.5,-141 1146.5,-141 1146.5,-118 1270.5,-118 1270.5,-141"/>
<text text-anchor="middle" x="1208.5" y="-125.8" font-family="Arial" font-size="14.00">TLE92466ED.hpp</text>
</a>
</g>
</g>
<!-- Node1&#45;&gt;Node9 -->
<g id="edge8_Node000001_Node000009" class="edge">
<title>Node1&#45;&gt;Node9</title>
<g id="a_edge8_Node000001_Node000009"><a xlink:title=" ">
<path fill="none" stroke="#63b8ff" d="M830.8,-183.5C907.9,-173.04 1024.82,-157.05 1136.11,-141.19"/>
<polygon fill="#63b8ff" stroke="#63b8ff" points="1136.76,-144.63 1146.17,-139.75 1135.77,-137.7 1136.76,-144.63"/>
</a>
</g>
</g>
<!-- Node10 -->
<g id="Node000010" class="node">
<title>Node10</title>
<g id="a_Node000010"><a xlink:href="Esp32TleCommInterface_8hpp.html" target="_top" xlink:title="ESP32 Communication Interface implementation for TLE92466ED driver.">
<polygon fill="white" stroke="#666666" points="905.5,-141 711.5,-141 711.5,-118 905.5,-118 905.5,-141"/>
<text text-anchor="middle" x="808.5" y="-125.8" font-family="Arial" font-size="14.00">Esp32TleCommInterface.hpp</text>
</a>
</g>
</g>
<!-- Node1&#45;&gt;Node10 -->
<g id="edge9_Node000001_Node000010" class="edge">
<title>Node1&#45;&gt;Node10</title>
<g id="a_edge9_Node000001_Node000010"><a xlink:title=" ">
<path fill="none" stroke="#63b8ff" d="M763.38,-176.69C772.05,-167.82 782.42,-157.2 791.03,-148.39"/>
<polygon fill="#63b8ff" stroke="#63b8ff" points="793.57,-150.79 798.06,-141.19 788.57,-145.9 793.57,-150.79"/>
</a>
</g>
</g>
<!-- Node17 -->
<g id="Node000017" class="node">
<title>Node17</title>
<g id="a_Node000017"><a xlink:href="TestFramework_8h.html" target="_top" xlink:title="Shared testing framework for ESP32&#45;C6 comprehensive test suites.">
<polygon fill="white" stroke="#666666" points="655,-141 534,-141 534,-118 655,-118 655,-141"/>
<text text-anchor="middle" x="594.5" y="-125.8" font-family="Arial" font-size="14.00">TestFramework.h</text>
</a>
</g>
</g>
<!-- Node1&#45;&gt;Node17 -->
<g id="edge18_Node000001_Node000017" class="edge">
<title>Node1&#45;&gt;Node17</title>
<g id="a_edge18_Node000001_Node000017"><a xlink:title=" ">
<path fill="none" stroke="#63b8ff" d="M703.04,-176.86C679.48,-166.8 650.58,-154.45 628.53,-145.03"/>
<polygon fill="#63b8ff" stroke="#63b8ff" points="629.8,-141.77 619.22,-141.06 627.05,-148.21 629.8,-141.77"/>
</a>
</g>
</g>
<!-- Node10&#45;&gt;Node3 -->
<g id="edge17_Node000010_Node000003" class="edge">
<title>Node10&#45;&gt;Node3</title>
<g id="a_edge17_Node000010_Node000003"><a xlink:title=" ">
<path fill="none" stroke="#63b8ff" d="M905.65,-119.15C910.33,-118.75 914.97,-118.37 919.5,-118 1155.98,-98.94 1220.13,-118.76 1457.7,-82.06"/>
<polygon fill="#63b8ff" stroke="#63b8ff" points="1458.34,-85.51 1467.68,-80.51 1457.26,-78.59 1458.34,-85.51"/>
</a>
</g>
</g>
<!-- Node10&#45;&gt;Node7 -->
<g id="edge16_Node000010_Node000007" class="edge">
<title>Node10&#45;&gt;Node7</title>
<g id="a_edge16_Node000010_Node000007"><a xlink:title=" ">
<path fill="none" stroke="#63b8ff" d="M788.56,-117.78C772.42,-109.1 749.48,-96.76 731.34,-87.01"/>
<polygon fill="#63b8ff" stroke="#63b8ff" points="732.81,-83.83 722.35,-82.17 729.5,-89.99 732.81,-83.83"/>
</a>
</g>
</g>
<!-- Node11 -->
<g id="Node000011" class="node">
<title>Node11</title>
<g id="a_Node000011"><a xlink:title=" ">
<polygon fill="#e0e0e0" stroke="#999999" points="1237,-82 1012,-82 1012,-59 1237,-59 1237,-82"/>
<text text-anchor="middle" x="1124.5" y="-66.8" font-family="Arial" font-size="14.00">TLE92466ED_CommInterface.hpp</text>
</a>
</g>
</g>
<!-- Node10&#45;&gt;Node11 -->
<g id="edge10_Node000010_Node000011" class="edge">
<title>Node10&#45;&gt;Node11</title>
<g id="a_edge10_Node000010_Node000011"><a xlink:title=" ">
<path fill="none" stroke="#63b8ff" d="M866.83,-117.98C920.41,-108.31 999.84,-93.99 1056.33,-83.8"/>
<polygon fill="#63b8ff" stroke="#63b8ff" points="1057.03,-87.23 1066.25,-82.01 1055.78,-80.34 1057.03,-87.23"/>
</a>
</g>
</g>
<!-- Node12 -->
<g id="Node000012" class="node">
<title>Node12</title>
<g id="a_Node000012"><a xlink:href="TLE92466ED__TestConfig_8hpp.html" target="_top" xlink:title="Hardware configuration for TLE92466ED driver on ESP32&#45;C6.">
<polygon fill="white" stroke="#666666" points="1450,-82 1255,-82 1255,-59 1450,-59 1450,-82"/>
<text text-anchor="middle" x="1352.5" y="-66.8" font-family="Arial" font-size="14.00">TLE92466ED_TestConfig.hpp</text>
</a>
</g>
</g>
<!-- Node10&#45;&gt;Node12 -->
<g id="edge11_Node000010_Node000012" class="edge">
<title>Node10&#45;&gt;Node12</title>
<g id="a_edge11_Node000010_Node000012"><a xlink:title=" ">
<path fill="none" stroke="#63b8ff" d="M905.76,-118.31C1001.04,-108.33 1145.95,-93.14 1244.7,-82.79"/>
<polygon fill="#63b8ff" stroke="#63b8ff" points="1245.13,-86.27 1254.71,-81.75 1244.4,-79.31 1245.13,-86.27"/>
</a>
</g>
</g>
<!-- Node14 -->
<g id="Node000014" class="node">
<title>Node14</title>
<g id="a_Node000014"><a xlink:title=" ">
<polygon fill="#e0e0e0" stroke="#999999" points="994,-82 863,-82 863,-59 994,-59 994,-82"/>
<text text-anchor="middle" x="928.5" y="-66.8" font-family="Arial" font-size="14.00">driver/spi_master.h</text>
</a>
</g>
</g>
<!-- Node10&#45;&gt;Node14 -->
<g id="edge13_Node000010_Node000014" class="edge">
<title>Node10&#45;&gt;Node14</title>
<g id="a_edge13_Node000010_Node000014"><a xlink:title=" ">
<path fill="none" stroke="#63b8ff" d="M830.79,-117.91C849.48,-109.03 876.38,-96.26 897.23,-86.35"/>
<polygon fill="#63b8ff" stroke="#63b8ff" points="898.8,-89.48 906.33,-82.03 895.8,-83.16 898.8,-89.48"/>
</a>
</g>
</g>
<!-- Node15 -->
<g id="Node000015" class="node">
<title>Node15</title>
<g id="a_Node000015"><a xlink:title=" ">
<polygon fill="#e0e0e0" stroke="#999999" points="647,-82 556,-82 556,-59 647,-59 647,-82"/>
<text text-anchor="middle" x="601.5" y="-66.8" font-family="Arial" font-size="14.00">driver/gpio.h</text>
</a>
</g>
</g>
<!-- Node10&#45;&gt;Node15 -->
<g id="edge14_Node000010_Node000015" class="edge">
<title>Node10&#45;&gt;Node15</title>
<g id="a_edge14_Node000010_Node000015"><a xlink:title=" ">
<path fill="none" stroke="#63b8ff" d="M770.05,-117.91C736.06,-108.55 686.34,-94.86 649.71,-84.77"/>
<polygon fill="#63b8ff" stroke="#63b8ff" points="650.31,-81.31 639.74,-82.03 648.46,-88.06 650.31,-81.31"/>
</a>
</g>
</g>
<!-- Node16 -->
<g id="Node000016" class="node">
<title>Node16</title>
<g id="a_Node000016"><a xlink:title=" ">
<polygon fill="#e0e0e0" stroke="#999999" points="845,-82 758,-82 758,-59 845,-59 845,-82"/>
<text text-anchor="middle" x="801.5" y="-66.8" font-family="Arial" font-size="14.00">esp_timer.h</text>
</a>
</g>
</g>
<!-- Node10&#45;&gt;Node16 -->
<g id="edge15_Node000010_Node000016" class="edge">
<title>Node10&#45;&gt;Node16</title>
<g id="a_edge15_Node000010_Node000016"><a xlink:title=" ">
<path fill="none" stroke="#63b8ff" d="M807.18,-117.78C806.3,-110.61 805.12,-100.95 804.06,-92.31"/>
<polygon fill="#63b8ff" stroke="#63b8ff" points="807.5,-91.67 802.81,-82.17 800.56,-92.53 807.5,-91.67"/>
</a>
</g>
</g>
<!-- Node13 -->
<g id="Node000013" class="node">
<title>Node13</title>
<g id="a_Node000013"><a xlink:title=" ">
<polygon fill="#e0e0e0" stroke="#999999" points="1380.5,-23 1324.5,-23 1324.5,0 1380.5,0 1380.5,-23"/>
<text text-anchor="middle" x="1352.5" y="-7.8" font-family="Arial" font-size="14.00">cstdint</text>
</a>
</g>
</g>
<!-- Node12&#45;&gt;Node13 -->
<g id="edge12_Node000012_Node000013" class="edge">
<title>Node12&#45;&gt;Node13</title>
<g id="a_edge12_Node000012_Node000013"><a xlink:title=" ">
<path fill="none" stroke="#63b8ff" d="M1352.5,-58.78C1352.5,-51.61 1352.5,-41.95 1352.5,-33.31"/>
<polygon fill="#63b8ff" stroke="#63b8ff" points="1356,-33.17 1352.5,-23.17 1349,-33.17 1356,-33.17"/>
</a>
</g>
</g>
<!-- Node17&#45;&gt;Node5 -->
<g id="edge22_Node000017_Node000005" class="edge">
<title>Node17&#45;&gt;Node5</title>
<g id="a_edge22_Node000017_Node000005"><a xlink:title=" ">
<path fill="none" stroke="#63b8ff" d="M533.68,-122.57C450.41,-114.35 295.98,-98.72 153.29,-82.07"/>
<polygon fill="#63b8ff" stroke="#63b8ff" points="153.38,-78.56 143.04,-80.87 152.57,-85.51 153.38,-78.56"/>
</a>
</g>
</g>
<!-- Node17&#45;&gt;Node6 -->
<g id="edge25_Node000017_Node000006" class="edge">
<title>Node17&#45;&gt;Node6</title>
<g id="a_edge25_Node000017_Node000006"><a xlink:title=" ">
<path fill="none" stroke="#63b8ff" d="M533.72,-119.89C459.36,-109.33 336.66,-91.79 273.99,-82.03"/>
<polygon fill="#63b8ff" stroke="#63b8ff" points="274.16,-78.52 263.74,-80.42 273.07,-85.43 274.16,-78.52"/>
</a>
</g>
</g>
<!-- Node17&#45;&gt;Node7 -->
<g id="edge19_Node000017_Node000007" class="edge">
<title>Node17&#45;&gt;Node7</title>
<g id="a_edge19_Node000017_Node000007"><a xlink:title=" ">
<path fill="none" stroke="#63b8ff" d="M614.56,-117.91C631.16,-109.15 654.94,-96.6 673.59,-86.76"/>
<polygon fill="#63b8ff" stroke="#63b8ff" points="675.34,-89.79 682.55,-82.03 672.07,-83.6 675.34,-89.79"/>
</a>
</g>
</g>
<!-- Node17&#45;&gt;Node15 -->
<g id="edge21_Node000017_Node000015" class="edge">
<title>Node17&#45;&gt;Node15</title>
<g id="a_edge21_Node000017_Node000015"><a xlink:title=" ">
<path fill="none" stroke="#63b8ff" d="M595.82,-117.78C596.7,-110.61 597.88,-100.95 598.94,-92.31"/>
<polygon fill="#63b8ff" stroke="#63b8ff" points="602.44,-92.53 600.19,-82.17 595.5,-91.67 602.44,-92.53"/>
</a>
</g>
</g>
<!-- Node17&#45;&gt;Node16 -->
<g id="edge20_Node000017_Node000016" class="edge">
<title>Node17&#45;&gt;Node16</title>
<g id="a_edge20_Node000017_Node000016"><a xlink:title=" ">
<path fill="none" stroke="#63b8ff" d="M632.95,-117.91C666.94,-108.55 716.66,-94.86 753.29,-84.77"/>
<polygon fill="#63b8ff" stroke="#63b8ff" points="754.54,-88.06 763.26,-82.03 752.69,-81.31 754.54,-88.06"/>
</a>
</g>
</g>
<!-- Node18 -->
<g id="Node000018" class="node">
<title>Node18</title>
<g id="a_Node000018"><a xlink:title=" ">
<polygon fill="#e0e0e0" stroke="#999999" points="397,-82 282,-82 282,-59 397,-59 397,-82"/>
<text text-anchor="middle" x="339.5" y="-66.8" font-family="Arial" font-size="14.00">freertos/queue.h</text>
</a>
</g>
</g>
<!-- Node17&#45;&gt;Node18 -->
<g id="edge23_Node000017_Node000018" class="edge">
<title>Node17&#45;&gt;Node18</title>
<g id="a_edge23_Node000017_Node000018"><a xlink:title=" ">
<path fill="none" stroke="#63b8ff" d="M547.43,-117.98C504.89,-108.47 442.15,-94.44 396.72,-84.29"/>
<polygon fill="#63b8ff" stroke="#63b8ff" points="397.25,-80.82 386.73,-82.06 395.72,-87.65 397.25,-80.82"/>
</a>
</g>
</g>
<!-- Node19 -->
<g id="Node000019" class="node">
<title>Node19</title>
<g id="a_Node000019"><a xlink:title=" ">
<polygon fill="#e0e0e0" stroke="#999999" points="537.5,-82 415.5,-82 415.5,-59 537.5,-59 537.5,-82"/>
<text text-anchor="middle" x="476.5" y="-66.8" font-family="Arial" font-size="14.00">freertos/semphr.h</text>
</a>
</g>
</g>
<!-- Node17&#45;&gt;Node19 -->
<g id="edge24_Node000017_Node000019" class="edge">
<title>Node17&#45;&gt;Node19</title>
<g id="a_edge24_Node000017_Node000019"><a xlink:title=" ">
<path fill="none" stroke="#63b8ff" d="M572.58,-117.91C554.28,-109.07 527.99,-96.37 507.53,-86.49"/>
<polygon fill="#63b8ff" stroke="#63b8ff" points="508.83,-83.23 498.3,-82.03 505.78,-89.53 508.83,-83.23"/>
</a>
</g>
</g>
</g>
</svg>

<g id="navigator" transform="translate(0 0)" fill="#404254">
  <rect fill="#f2f5e9" fill-opacity="0.5" stroke="#606060" stroke-width=".5" x="0" y="0" width="60" height="60"/>
  <use id="zoomplus" xlink:href="#zoomPlus" x="17" y="9" onmousedown="handleZoom(evt,'in')"/>
  <use id="zoomminus" xlink:href="#zoomMin" x="42" y="9" onmousedown="handleZoom(evt,'out')"/>
  <use id="reset" xlink:href="#resetDef" x="30" y="36" onmousedown="handleReset()"/>
   <use id="arrowup" xlink:href="#arrowUp" x="0" y="0" onmousedown="handlePan(0,-1)"/>
  <use id="arrowright" xlink:href="#arrowRight" x="0" y="0" onmousedown="handlePan(1,0)"/>
  <use id="arrowdown" xlink:href="#arrowDown" x="0" y="0" onmousedown="handlePan(0,1)"/>
  <use id="arrowleft" xlink:href="#arrowLeft" x="0" y="0" onmousedown="handlePan(-1,0)"/>
</g>
<svg viewBox="0 0 15 15" width="100%" height="30px" preserveAspectRatio="xMaxYMin meet">
 <g id="arrow_out" transform="scale(0.3 0.3)">
  <a xlink:href="DriverIntegrationTest_8cpp__incl_org.svg" target="_base">
   <rect id="button" ry="5" rx="5" y="6" x="6" height="38" width="38"
        fill="#f2f5e9" fill-opacity="0.5" stroke="#606060" stroke-width="1.0"/>
   <path id="arrow"
     d="M 11.500037,31.436501 C 11.940474,20.09759 22.043105,11.32322 32.158766,21.979434 L 37.068811,17.246167 C 37.068811,17.246167 37.088388,32 37.088388,32 L 22.160133,31.978069 C 22.160133,31.978069 26.997745,27.140456 26.997745,27.140456 C 18.528582,18.264221 13.291696,25.230495 11.500037,31.436501 z"
     style="fill:#404040;"/>
  </a>
 </g>
</svg>

<style type='text/css'>
<![CDATA[
[data-mouse-over-selected='false'] { opacity: 0.7; }
[data-mouse-over-selected='true']  { opacity: 1.0; }
]]>
</style>
<script type="application/ecmascript"><![CDATA[
document.addEventListener('DOMContentLoaded', (event) => {
  highlightEdges();
  highlightAdjacentNodes();
});
]]></script>
</svg>
