<?xml version="1.0" encoding="UTF-8" standalone="no"?>
<!DOCTYPE svg PUBLIC "-//W3C//DTD SVG 1.1//EN"
 "http://www.w3.org/Graphics/SVG/1.1/DTD/svg11.dtd">
<!-- Generated by graphviz version 2.43.0 (0)
 -->
<!-- Title: examples/esp32/main/Esp32TleCommInterface.hpp Pages: 1 -->
<svg width="987pt" height="164pt"
 viewBox="0.00 0.00 987.00 164.00" xmlns="http://www.w3.org/2000/svg" xmlns:xlink="http://www.w3.org/1999/xlink">
<g id="graph0" class="graph" transform="scale(1 1) rotate(0) translate(4 160)">
<title>examples/esp32/main/Esp32TleCommInterface.hpp</title>
<!-- Node1 -->
<g id="Node000001" class="node">
<title>Node1</title>
<g id="a_Node000001"><a xlink:title="ESP32 Communication Interface implementation for TLE92466ED driver.">
<polygon fill="#999999" stroke="#666666" points="749,-156 552,-156 552,-118 749,-118 749,-156"/>
<text text-anchor="start" x="560" y="-140.8" font-family="Arial" font-size="14.00">examples/esp32/main</text>
<text text-anchor="middle" x="650.5" y="-125.8" font-family="Arial" font-size="14.00">/Esp32TleCommInterface.hpp</text>
</a>
</g>
</g>
<!-- Node2 -->
<g id="Node000002" class="node">
<title>Node2</title>
<g id="a_Node000002"><a xlink:title=" ">
<polygon fill="#e0e0e0" stroke="#999999" points="225,-82 0,-82 0,-59 225,-59 225,-82"/>
<text text-anchor="middle" x="112.5" y="-66.8" font-family="Arial" font-size="14.00">TLE92466ED_CommInterface.hpp</text>
</a>
</g>
</g>
<!-- Node1&#45;&gt;Node2 -->
<g id="edge1_Node000001_Node000002" class="edge">
<title>Node1&#45;&gt;Node2</title>
<g id="a_edge1_Node000001_Node000002"><a xlink:title=" ">
<path fill="none" stroke="#63b8ff" d="M551.82,-124.17C454.7,-112.53 307.25,-94.85 210.4,-83.24"/>
<polygon fill="#63b8ff" stroke="#63b8ff" points="210.66,-79.74 200.31,-82.03 209.82,-86.69 210.66,-79.74"/>
</a>
</g>
</g>
<!-- Node3 -->
<g id="Node000003" class="node">
<title>Node3</title>
<g id="a_Node000003"><a xlink:href="TLE92466ED__TestConfig_8hpp.html" target="_top" xlink:title="Hardware configuration for TLE92466ED driver on ESP32&#45;C6.">
<polygon fill="white" stroke="#666666" points="438,-82 243,-82 243,-59 438,-59 438,-82"/>
<text text-anchor="middle" x="340.5" y="-66.8" font-family="Arial" font-size="14.00">TLE92466ED_TestConfig.hpp</text>
</a>
</g>
</g>
<!-- Node1&#45;&gt;Node3 -->
<g id="edge2_Node000001_Node000003" class="edge">
<title>Node1&#45;&gt;Node3</title>
<g id="a_edge2_Node000001_Node000003"><a xlink:title=" ">
<path fill="none" stroke="#63b8ff" d="M563.74,-117.95C512,-107.18 447.6,-93.78 401.29,-84.15"/>
<polygon fill="#63b8ff" stroke="#63b8ff" points="401.9,-80.7 391.4,-82.09 400.47,-87.55 401.9,-80.7"/>
</a>
</g>
</g>
<!-- Node5 -->
<g id="Node000005" class="node">
<title>Node5</title>
<g id="a_Node000005"><a xlink:title=" ">
<polygon fill="#e0e0e0" stroke="#999999" points="587,-82 456,-82 456,-59 587,-59 587,-82"/>
<text text-anchor="middle" x="521.5" y="-66.8" font-family="Arial" font-size="14.00">driver/spi_master.h</text>
</a>
</g>
</g>
<!-- Node1&#45;&gt;Node5 -->
<g id="edge4_Node000001_Node000005" class="edge">
<title>Node1&#45;&gt;Node5</title>
<g id="a_edge4_Node000001_Node000005"><a xlink:title=" ">
<path fill="none" stroke="#63b8ff" d="M614.22,-117.86C594.46,-107.98 570.29,-95.9 551.59,-86.54"/>
<polygon fill="#63b8ff" stroke="#63b8ff" points="553.13,-83.4 542.62,-82.06 550,-89.66 553.13,-83.4"/>
</a>
</g>
</g>
<!-- Node6 -->
<g id="Node000006" class="node">
<title>Node6</title>
<g id="a_Node000006"><a xlink:title=" ">
<polygon fill="#e0e0e0" stroke="#999999" points="696,-82 605,-82 605,-59 696,-59 696,-82"/>
<text text-anchor="middle" x="650.5" y="-66.8" font-family="Arial" font-size="14.00">driver/gpio.h</text>
</a>
</g>
</g>
<!-- Node1&#45;&gt;Node6 -->
<g id="edge5_Node000001_Node000006" class="edge">
<title>Node1&#45;&gt;Node6</title>
<g id="a_edge5_Node000001_Node000006"><a xlink:title=" ">
<path fill="none" stroke="#63b8ff" d="M650.5,-117.69C650.5,-109.8 650.5,-100.54 650.5,-92.39"/>
<polygon fill="#63b8ff" stroke="#63b8ff" points="654,-92.19 650.5,-82.19 647,-92.19 654,-92.19"/>
</a>
</g>
</g>
<!-- Node7 -->
<g id="Node000007" class="node">
<title>Node7</title>
<g id="a_Node000007"><a xlink:title=" ">
<polygon fill="#e0e0e0" stroke="#999999" points="801,-82 714,-82 714,-59 801,-59 801,-82"/>
<text text-anchor="middle" x="757.5" y="-66.8" font-family="Arial" font-size="14.00">esp_timer.h</text>
</a>
</g>
</g>
<!-- Node1&#45;&gt;Node7 -->
<g id="edge6_Node000001_Node000007" class="edge">
<title>Node1&#45;&gt;Node7</title>
<g id="a_edge6_Node000001_Node000007"><a xlink:title=" ">
<path fill="none" stroke="#63b8ff" d="M680.59,-117.86C696.46,-108.3 715.75,-96.67 731.04,-87.45"/>
<polygon fill="#63b8ff" stroke="#63b8ff" points="733.22,-90.22 739.98,-82.06 729.61,-84.23 733.22,-90.22"/>
</a>
</g>
</g>
<!-- Node8 -->
<g id="Node000008" class="node">
<title>Node8</title>
<g id="a_Node000008"><a xlink:title=" ">
<polygon fill="#e0e0e0" stroke="#999999" points="894,-82 819,-82 819,-59 894,-59 894,-82"/>
<text text-anchor="middle" x="856.5" y="-66.8" font-family="Arial" font-size="14.00">esp_log.h</text>
</a>
</g>
</g>
<!-- Node1&#45;&gt;Node8 -->
<g id="edge7_Node000001_Node000008" class="edge">
<title>Node1&#45;&gt;Node8</title>
<g id="a_edge7_Node000001_Node000008"><a xlink:title=" ">
<path fill="none" stroke="#63b8ff" d="M708.16,-117.95C741.31,-107.57 782.29,-94.74 812.77,-85.19"/>
<polygon fill="#63b8ff" stroke="#63b8ff" points="814.18,-88.42 822.68,-82.09 812.09,-81.74 814.18,-88.42"/>
</a>
</g>
</g>
<!-- Node9 -->
<g id="Node000009" class="node">
<title>Node9</title>
<g id="a_Node000009"><a xlink:title=" ">
<polygon fill="#e0e0e0" stroke="#999999" points="979,-82 912,-82 912,-59 979,-59 979,-82"/>
<text text-anchor="middle" x="945.5" y="-66.8" font-family="Arial" font-size="14.00">memory</text>
</a>
</g>
</g>
<!-- Node1&#45;&gt;Node9 -->
<g id="edge8_Node000001_Node000009" class="edge">
<title>Node1&#45;&gt;Node9</title>
<g id="a_edge8_Node000001_Node000009"><a xlink:title=" ">
<path fill="none" stroke="#63b8ff" d="M738.77,-117.94C784.88,-108.32 842.47,-96.02 901.69,-82.37"/>
<polygon fill="#63b8ff" stroke="#63b8ff" points="902.64,-85.75 911.6,-80.08 901.07,-78.93 902.64,-85.75"/>
</a>
</g>
</g>
<!-- Node4 -->
<g id="Node000004" class="node">
<title>Node4</title>
<g id="a_Node000004"><a xlink:title=" ">
<polygon fill="#e0e0e0" stroke="#999999" points="368.5,-23 312.5,-23 312.5,0 368.5,0 368.5,-23"/>
<text text-anchor="middle" x="340.5" y="-7.8" font-family="Arial" font-size="14.00">cstdint</text>
</a>
</g>
</g>
<!-- Node3&#45;&gt;Node4 -->
<g id="edge3_Node000003_Node000004" class="edge">
<title>Node3&#45;&gt;Node4</title>
<g id="a_edge3_Node000003_Node000004"><a xlink:title=" ">
<path fill="none" stroke="#63b8ff" d="M340.5,-58.78C340.5,-51.61 340.5,-41.95 340.5,-33.31"/>
<polygon fill="#63b8ff" stroke="#63b8ff" points="344,-33.17 340.5,-23.17 337,-33.17 344,-33.17"/>
</a>
</g>
</g>
</g>
</svg>
