<?xml version="1.0" encoding="UTF-8" standalone="no"?>
<!DOCTYPE svg PUBLIC "-//W3C//DTD SVG 1.1//EN"
 "http://www.w3.org/Graphics/SVG/1.1/DTD/svg11.dtd">
<!-- Generated by graphviz version 2.43.0 (0)
 -->
<!-- Title: examples/esp32/main/esp32_tle_comm_interface.cpp Pages: 1 -->
<svg width="1267pt" height="223pt"
 viewBox="0.00 0.00 1266.50 223.00" xmlns="http://www.w3.org/2000/svg" xmlns:xlink="http://www.w3.org/1999/xlink">
<g id="graph0" class="graph" transform="scale(1 1) rotate(0) translate(4 219)">
<title>examples/esp32/main/esp32_tle_comm_interface.cpp</title>
<!-- Node1 -->
<g id="Node000001" class="node">
<title>Node1</title>
<g id="a_Node000001"><a xlink:title="ESP32 Communication Interface implementation for TLE92466ED driver.">
<polygon fill="#999999" stroke="#666666" points="1091.5,-215 882.5,-215 882.5,-177 1091.5,-177 1091.5,-215"/>
<text text-anchor="start" x="890.5" y="-199.8" font-family="Arial" font-size="14.00">examples/esp32/main</text>
<text text-anchor="middle" x="987" y="-184.8" font-family="Arial" font-size="14.00">/esp32_tle_comm_interface.cpp</text>
</a>
</g>
</g>
<!-- Node2 -->
<g id="Node000002" class="node">
<title>Node2</title>
<g id="a_Node000002"><a xlink:href="esp32__tle__comm__interface_8hpp.html" target="_top" xlink:title="ESP32 Communication Interface implementation for TLE92466ED driver.">
<polygon fill="white" stroke="#666666" points="710,-141 504,-141 504,-118 710,-118 710,-141"/>
<text text-anchor="middle" x="607" y="-125.8" font-family="Arial" font-size="14.00">esp32_tle_comm_interface.hpp</text>
</a>
</g>
</g>
<!-- Node1&#45;&gt;Node2 -->
<g id="edge1_Node000001_Node000002" class="edge">
<title>Node1&#45;&gt;Node2</title>
<g id="a_edge1_Node000001_Node000002"><a xlink:title=" ">
<path fill="none" stroke="#63b8ff" d="M882.41,-177.25C817.75,-166.27 736.41,-152.47 678.95,-142.71"/>
<polygon fill="#63b8ff" stroke="#63b8ff" points="679.31,-139.22 668.86,-141 678.14,-146.12 679.31,-139.22"/>
</a>
</g>
</g>
<!-- Node11 -->
<g id="Node000011" class="node">
<title>Node11</title>
<g id="a_Node000011"><a xlink:title=" ">
<polygon fill="#e0e0e0" stroke="#999999" points="897.5,-141 728.5,-141 728.5,-118 897.5,-118 897.5,-141"/>
<text text-anchor="middle" x="813" y="-125.8" font-family="Arial" font-size="14.00">tle92466ed_registers.hpp</text>
</a>
</g>
</g>
<!-- Node1&#45;&gt;Node11 -->
<g id="edge10_Node000001_Node000011" class="edge">
<title>Node1&#45;&gt;Node11</title>
<g id="a_edge10_Node000001_Node000011"><a xlink:title=" ">
<path fill="none" stroke="#63b8ff" d="M938.07,-176.86C910.56,-166.66 876.73,-154.12 851.19,-144.66"/>
<polygon fill="#63b8ff" stroke="#63b8ff" points="852.08,-141.26 841.49,-141.06 849.65,-147.82 852.08,-141.26"/>
</a>
</g>
</g>
<!-- Node12 -->
<g id="Node000012" class="node">
<title>Node12</title>
<g id="a_Node000012"><a xlink:title=" ">
<polygon fill="#e0e0e0" stroke="#999999" points="1058.5,-141 915.5,-141 915.5,-118 1058.5,-118 1058.5,-141"/>
<text text-anchor="middle" x="987" y="-125.8" font-family="Arial" font-size="14.00">freertos/FreeRTOS.h</text>
</a>
</g>
</g>
<!-- Node1&#45;&gt;Node12 -->
<g id="edge11_Node000001_Node000012" class="edge">
<title>Node1&#45;&gt;Node12</title>
<g id="a_edge11_Node000001_Node000012"><a xlink:title=" ">
<path fill="none" stroke="#63b8ff" d="M987,-176.69C987,-168.8 987,-159.54 987,-151.39"/>
<polygon fill="#63b8ff" stroke="#63b8ff" points="990.5,-151.19 987,-141.19 983.5,-151.19 990.5,-151.19"/>
</a>
</g>
</g>
<!-- Node13 -->
<g id="Node000013" class="node">
<title>Node13</title>
<g id="a_Node000013"><a xlink:title=" ">
<polygon fill="#e0e0e0" stroke="#999999" points="1179,-141 1077,-141 1077,-118 1179,-118 1179,-141"/>
<text text-anchor="middle" x="1128" y="-125.8" font-family="Arial" font-size="14.00">freertos/task.h</text>
</a>
</g>
</g>
<!-- Node1&#45;&gt;Node13 -->
<g id="edge12_Node000001_Node000013" class="edge">
<title>Node1&#45;&gt;Node13</title>
<g id="a_edge12_Node000001_Node000013"><a xlink:title=" ">
<path fill="none" stroke="#63b8ff" d="M1026.65,-176.86C1048.45,-166.89 1075.15,-154.68 1095.67,-145.29"/>
<polygon fill="#63b8ff" stroke="#63b8ff" points="1097.28,-148.4 1104.91,-141.06 1094.36,-142.04 1097.28,-148.4"/>
</a>
</g>
</g>
<!-- Node14 -->
<g id="Node000014" class="node">
<title>Node14</title>
<g id="a_Node000014"><a xlink:title=" ">
<polygon fill="#e0e0e0" stroke="#999999" points="1258.5,-141 1197.5,-141 1197.5,-118 1258.5,-118 1258.5,-141"/>
<text text-anchor="middle" x="1228" y="-125.8" font-family="Arial" font-size="14.00">cstdarg</text>
</a>
</g>
</g>
<!-- Node1&#45;&gt;Node14 -->
<g id="edge13_Node000001_Node000014" class="edge">
<title>Node1&#45;&gt;Node14</title>
<g id="a_edge13_Node000001_Node000014"><a xlink:title=" ">
<path fill="none" stroke="#63b8ff" d="M1054.45,-176.95C1097.35,-165.47 1151.45,-150.99 1187.74,-141.27"/>
<polygon fill="#63b8ff" stroke="#63b8ff" points="1188.73,-144.63 1197.48,-138.67 1186.92,-137.87 1188.73,-144.63"/>
</a>
</g>
</g>
<!-- Node3 -->
<g id="Node000003" class="node">
<title>Node3</title>
<g id="a_Node000003"><a xlink:title=" ">
<polygon fill="#e0e0e0" stroke="#999999" points="194,-82 0,-82 0,-59 194,-59 194,-82"/>
<text text-anchor="middle" x="97" y="-66.8" font-family="Arial" font-size="14.00">tle92466ed_spi_interface.hpp</text>
</a>
</g>
</g>
<!-- Node2&#45;&gt;Node3 -->
<g id="edge2_Node000002_Node000003" class="edge">
<title>Node2&#45;&gt;Node3</title>
<g id="a_edge2_Node000002_Node000003"><a xlink:title=" ">
<path fill="none" stroke="#63b8ff" d="M512.86,-117.98C424.51,-108.1 292.6,-93.36 201.13,-83.14"/>
<polygon fill="#63b8ff" stroke="#63b8ff" points="201.35,-79.64 191.02,-82.01 200.57,-86.6 201.35,-79.64"/>
</a>
</g>
</g>
<!-- Node4 -->
<g id="Node000004" class="node">
<title>Node4</title>
<g id="a_Node000004"><a xlink:href="tle92466ed__test__config_8hpp.html" target="_top" xlink:title="Hardware configuration for TLE92466ED driver on ESP32&#45;C6.">
<polygon fill="white" stroke="#666666" points="394,-82 212,-82 212,-59 394,-59 394,-82"/>
<text text-anchor="middle" x="303" y="-66.8" font-family="Arial" font-size="14.00">tle92466ed_test_config.hpp</text>
</a>
</g>
</g>
<!-- Node2&#45;&gt;Node4 -->
<g id="edge3_Node000002_Node000004" class="edge">
<title>Node2&#45;&gt;Node4</title>
<g id="a_edge3_Node000002_Node000004"><a xlink:title=" ">
<path fill="none" stroke="#63b8ff" d="M550.89,-117.98C499.45,-108.33 423.24,-94.05 368.92,-83.86"/>
<polygon fill="#63b8ff" stroke="#63b8ff" points="369.52,-80.41 359.04,-82.01 368.23,-87.29 369.52,-80.41"/>
</a>
</g>
</g>
<!-- Node6 -->
<g id="Node000006" class="node">
<title>Node6</title>
<g id="a_Node000006"><a xlink:title=" ">
<polygon fill="#e0e0e0" stroke="#999999" points="543.5,-82 412.5,-82 412.5,-59 543.5,-59 543.5,-82"/>
<text text-anchor="middle" x="478" y="-66.8" font-family="Arial" font-size="14.00">driver/spi_master.h</text>
</a>
</g>
</g>
<!-- Node2&#45;&gt;Node6 -->
<g id="edge5_Node000002_Node000006" class="edge">
<title>Node2&#45;&gt;Node6</title>
<g id="a_edge5_Node000002_Node000006"><a xlink:title=" ">
<path fill="none" stroke="#63b8ff" d="M583.04,-117.91C562.76,-108.95 533.5,-96.02 511.01,-86.09"/>
<polygon fill="#63b8ff" stroke="#63b8ff" points="512.39,-82.87 501.83,-82.03 509.57,-89.27 512.39,-82.87"/>
</a>
</g>
</g>
<!-- Node7 -->
<g id="Node000007" class="node">
<title>Node7</title>
<g id="a_Node000007"><a xlink:title=" ">
<polygon fill="#e0e0e0" stroke="#999999" points="652.5,-82 561.5,-82 561.5,-59 652.5,-59 652.5,-82"/>
<text text-anchor="middle" x="607" y="-66.8" font-family="Arial" font-size="14.00">driver/gpio.h</text>
</a>
</g>
</g>
<!-- Node2&#45;&gt;Node7 -->
<g id="edge6_Node000002_Node000007" class="edge">
<title>Node2&#45;&gt;Node7</title>
<g id="a_edge6_Node000002_Node000007"><a xlink:title=" ">
<path fill="none" stroke="#63b8ff" d="M607,-117.78C607,-110.61 607,-100.95 607,-92.31"/>
<polygon fill="#63b8ff" stroke="#63b8ff" points="610.5,-92.17 607,-82.17 603.5,-92.17 610.5,-92.17"/>
</a>
</g>
</g>
<!-- Node8 -->
<g id="Node000008" class="node">
<title>Node8</title>
<g id="a_Node000008"><a xlink:title=" ">
<polygon fill="#e0e0e0" stroke="#999999" points="757.5,-82 670.5,-82 670.5,-59 757.5,-59 757.5,-82"/>
<text text-anchor="middle" x="714" y="-66.8" font-family="Arial" font-size="14.00">esp_timer.h</text>
</a>
</g>
</g>
<!-- Node2&#45;&gt;Node8 -->
<g id="edge7_Node000002_Node000008" class="edge">
<title>Node2&#45;&gt;Node8</title>
<g id="a_edge7_Node000002_Node000008"><a xlink:title=" ">
<path fill="none" stroke="#63b8ff" d="M626.88,-117.91C643.32,-109.15 666.88,-96.6 685.36,-86.76"/>
<polygon fill="#63b8ff" stroke="#63b8ff" points="687.05,-89.82 694.23,-82.03 683.76,-83.64 687.05,-89.82"/>
</a>
</g>
</g>
<!-- Node9 -->
<g id="Node000009" class="node">
<title>Node9</title>
<g id="a_Node000009"><a xlink:title=" ">
<polygon fill="#e0e0e0" stroke="#999999" points="850.5,-82 775.5,-82 775.5,-59 850.5,-59 850.5,-82"/>
<text text-anchor="middle" x="813" y="-66.8" font-family="Arial" font-size="14.00">esp_log.h</text>
</a>
</g>
</g>
<!-- Node2&#45;&gt;Node9 -->
<g id="edge8_Node000002_Node000009" class="edge">
<title>Node2&#45;&gt;Node9</title>
<g id="a_edge8_Node000002_Node000009"><a xlink:title=" ">
<path fill="none" stroke="#63b8ff" d="M645.26,-117.91C679.19,-108.52 728.88,-94.78 765.37,-84.68"/>
<polygon fill="#63b8ff" stroke="#63b8ff" points="766.58,-87.97 775.29,-81.93 764.72,-81.23 766.58,-87.97"/>
</a>
</g>
</g>
<!-- Node10 -->
<g id="Node000010" class="node">
<title>Node10</title>
<g id="a_Node000010"><a xlink:title=" ">
<polygon fill="#e0e0e0" stroke="#999999" points="935.5,-82 868.5,-82 868.5,-59 935.5,-59 935.5,-82"/>
<text text-anchor="middle" x="902" y="-66.8" font-family="Arial" font-size="14.00">memory</text>
</a>
</g>
</g>
<!-- Node2&#45;&gt;Node10 -->
<g id="edge9_Node000002_Node000010" class="edge">
<title>Node2&#45;&gt;Node10</title>
<g id="a_edge9_Node000002_Node000010"><a xlink:title=" ">
<path fill="none" stroke="#63b8ff" d="M670.38,-117.99C719.29,-109.63 788.84,-97.16 857.93,-82.37"/>
<polygon fill="#63b8ff" stroke="#63b8ff" points="859.08,-85.7 868.12,-80.17 857.6,-78.86 859.08,-85.7"/>
</a>
</g>
</g>
<!-- Node5 -->
<g id="Node000005" class="node">
<title>Node5</title>
<g id="a_Node000005"><a xlink:title=" ">
<polygon fill="#e0e0e0" stroke="#999999" points="331,-23 275,-23 275,0 331,0 331,-23"/>
<text text-anchor="middle" x="303" y="-7.8" font-family="Arial" font-size="14.00">cstdint</text>
</a>
</g>
</g>
<!-- Node4&#45;&gt;Node5 -->
<g id="edge4_Node000004_Node000005" class="edge">
<title>Node4&#45;&gt;Node5</title>
<g id="a_edge4_Node000004_Node000005"><a xlink:title=" ">
<path fill="none" stroke="#63b8ff" d="M303,-58.78C303,-51.61 303,-41.95 303,-33.31"/>
<polygon fill="#63b8ff" stroke="#63b8ff" points="306.5,-33.17 303,-23.17 299.5,-33.17 306.5,-33.17"/>
</a>
</g>
</g>
</g>
</svg>
