<?xml version="1.0" encoding="UTF-8" standalone="no"?>
<!DOCTYPE svg PUBLIC "-//W3C//DTD SVG 1.1//EN"
 "http://www.w3.org/Graphics/SVG/1.1/DTD/svg11.dtd">
<!-- Generated by graphviz version 2.43.0 (0)
 -->
<!-- Title: Graphical Class Hierarchy Pages: 1 -->
<svg width="285pt" height="72pt"
 viewBox="0.00 0.00 285.00 72.00" xmlns="http://www.w3.org/2000/svg" xmlns:xlink="http://www.w3.org/1999/xlink">
<g id="graph0" class="graph" transform="scale(1 1) rotate(0) translate(4 68)">
<title>Graphical Class Hierarchy</title>
<!-- Node0 -->
<g id="Node000000" class="node">
<title>Node0</title>
<g id="a_Node000000"><a xlink:title=" ">
<polygon fill="#e0e0e0" stroke="#999999" points="131,-43 0,-43 0,-20 131,-20 131,-43"/>
<text text-anchor="middle" x="65.5" y="-27.8" font-family="Arial" font-size="14.00">TLE92466ED_HAL</text>
</a>
</g>
</g>
<!-- Node1 -->
<g id="Node000001" class="node">
<title>Node1</title>
<g id="a_Node000001"><a xlink:href="classArduino__HAL.html" target="_top" xlink:title="Arduino implementation of TLE92466ED HAL interface.">
<polygon fill="white" stroke="#666666" points="270.5,-64 173.5,-64 173.5,-41 270.5,-41 270.5,-64"/>
<text text-anchor="middle" x="222" y="-48.8" font-family="Arial" font-size="14.00">Arduino_HAL</text>
</a>
</g>
</g>
<!-- Node0&#45;&gt;Node1 -->
<g id="edge2_Node000000_Node000001" class="edge">
<title>Node0&#45;&gt;Node1</title>
<g id="a_edge2_Node000000_Node000001"><a xlink:title=" ">
<path fill="none" stroke="#63b8ff" d="M141.08,-41.64C151.97,-43.12 162.93,-44.61 173.09,-45.99"/>
<polygon fill="#63b8ff" stroke="#63b8ff" points="141.51,-38.16 131.13,-40.28 140.56,-45.1 141.51,-38.16"/>
</a>
</g>
</g>
<!-- Node2 -->
<g id="Node000002" class="node">
<title>Node2</title>
<g id="a_Node000002"><a xlink:href="classESP32C6__HAL.html" target="_top" xlink:title="ESP32&#45;C6 implementation of the TLE92466ED HAL interface.">
<polygon fill="white" stroke="#666666" points="277,-23 167,-23 167,0 277,0 277,-23"/>
<text text-anchor="middle" x="222" y="-7.8" font-family="Arial" font-size="14.00">ESP32C6_HAL</text>
</a>
</g>
</g>
<!-- Node0&#45;&gt;Node2 -->
<g id="edge3_Node000000_Node000002" class="edge">
<title>Node0&#45;&gt;Node2</title>
<g id="a_edge3_Node000000_Node000002"><a xlink:title=" ">
<path fill="none" stroke="#63b8ff" d="M141.24,-21.82C149.9,-20.7 158.6,-19.58 166.91,-18.5"/>
<polygon fill="#63b8ff" stroke="#63b8ff" points="140.59,-18.38 131.13,-23.13 141.49,-25.32 140.59,-18.38"/>
</a>
</g>
</g>
</g>
</svg>
