<?xml version="1.0" encoding="UTF-8" standalone="no"?>
<!DOCTYPE svg PUBLIC "-//W3C//DTD SVG 1.1//EN"
 "http://www.w3.org/Graphics/SVG/1.1/DTD/svg11.dtd">
<!-- Generated by graphviz version 2.43.0 (0)
 -->
<!-- Title: examples/esp32/main/MultiChannelExample.cpp Pages: 1 -->
<svg width="1206pt" height="223pt"
 viewBox="0.00 0.00 1205.50 223.00" xmlns="http://www.w3.org/2000/svg" xmlns:xlink="http://www.w3.org/1999/xlink">
<g id="graph0" class="graph" transform="scale(1 1) rotate(0) translate(4 219)">
<title>examples/esp32/main/MultiChannelExample.cpp</title>
<!-- Node1 -->
<g id="Node000001" class="node">
<title>Node1</title>
<g id="a_Node000001"><a xlink:title="Multi&#45;channel control example for TLE92466ED driver on ESP32&#45;C6.">
<polygon fill="#999999" stroke="#666666" points="578,-215 399,-215 399,-177 578,-177 578,-215"/>
<text text-anchor="start" x="407" y="-199.8" font-family="Arial" font-size="14.00">examples/esp32/main</text>
<text text-anchor="middle" x="488.5" y="-184.8" font-family="Arial" font-size="14.00">/MultiChannelExample.cpp</text>
</a>
</g>
</g>
<!-- Node2 -->
<g id="Node000002" class="node">
<title>Node2</title>
<g id="a_Node000002"><a xlink:title=" ">
<polygon fill="#e0e0e0" stroke="#999999" points="86.5,-141 30.5,-141 30.5,-118 86.5,-118 86.5,-141"/>
<text text-anchor="middle" x="58.5" y="-125.8" font-family="Arial" font-size="14.00">stdio.h</text>
</a>
</g>
</g>
<!-- Node1&#45;&gt;Node2 -->
<g id="edge1_Node000001_Node000002" class="edge">
<title>Node1&#45;&gt;Node2</title>
<g id="a_edge1_Node000001_Node000002"><a xlink:title=" ">
<path fill="none" stroke="#63b8ff" d="M398.67,-185.25C319.74,-176.03 201.98,-160.69 100.5,-141 99.25,-140.76 97.99,-140.5 96.72,-140.24"/>
<polygon fill="#63b8ff" stroke="#63b8ff" points="97.4,-136.8 86.87,-138.03 95.87,-143.63 97.4,-136.8"/>
</a>
</g>
</g>
<!-- Node3 -->
<g id="Node000003" class="node">
<title>Node3</title>
<g id="a_Node000003"><a xlink:title=" ">
<polygon fill="#e0e0e0" stroke="#999999" points="67,-82 0,-82 0,-59 67,-59 67,-82"/>
<text text-anchor="middle" x="33.5" y="-66.8" font-family="Arial" font-size="14.00">memory</text>
</a>
</g>
</g>
<!-- Node1&#45;&gt;Node3 -->
<g id="edge2_Node000001_Node000003" class="edge">
<title>Node1&#45;&gt;Node3</title>
<g id="a_edge2_Node000001_Node000003"><a xlink:title=" ">
<path fill="none" stroke="#63b8ff" d="M398.75,-188.3C331.92,-181.38 239.19,-167.66 161.5,-141 122.94,-127.77 82.19,-103.64 57.3,-87.59"/>
<polygon fill="#63b8ff" stroke="#63b8ff" points="59.16,-84.63 48.87,-82.08 55.32,-90.48 59.16,-84.63"/>
</a>
</g>
</g>
<!-- Node4 -->
<g id="Node000004" class="node">
<title>Node4</title>
<g id="a_Node000004"><a xlink:title=" ">
<polygon fill="#e0e0e0" stroke="#999999" points="478,-141 431,-141 431,-118 478,-118 478,-141"/>
<text text-anchor="middle" x="454.5" y="-125.8" font-family="Arial" font-size="14.00">array</text>
</a>
</g>
</g>
<!-- Node1&#45;&gt;Node4 -->
<g id="edge3_Node000001_Node000004" class="edge">
<title>Node1&#45;&gt;Node4</title>
<g id="a_edge3_Node000001_Node000004"><a xlink:title=" ">
<path fill="none" stroke="#63b8ff" d="M478.85,-176.69C474.5,-168.44 469.36,-158.69 464.93,-150.28"/>
<polygon fill="#63b8ff" stroke="#63b8ff" points="467.9,-148.41 460.14,-141.19 461.7,-151.67 467.9,-148.41"/>
</a>
</g>
</g>
<!-- Node5 -->
<g id="Node000005" class="node">
<title>Node5</title>
<g id="a_Node000005"><a xlink:title=" ">
<polygon fill="#e0e0e0" stroke="#999999" points="550.5,-141 496.5,-141 496.5,-118 550.5,-118 550.5,-141"/>
<text text-anchor="middle" x="523.5" y="-125.8" font-family="Arial" font-size="14.00">cmath</text>
</a>
</g>
</g>
<!-- Node1&#45;&gt;Node5 -->
<g id="edge4_Node000001_Node000005" class="edge">
<title>Node1&#45;&gt;Node5</title>
<g id="a_edge4_Node000001_Node000005"><a xlink:title=" ">
<path fill="none" stroke="#63b8ff" d="M498.44,-176.69C502.96,-168.35 508.32,-158.48 512.91,-150.01"/>
<polygon fill="#63b8ff" stroke="#63b8ff" points="516.01,-151.65 517.7,-141.19 509.85,-148.31 516.01,-151.65"/>
</a>
</g>
</g>
<!-- Node6 -->
<g id="Node000006" class="node">
<title>Node6</title>
<g id="a_Node000006"><a xlink:title=" ">
<polygon fill="#e0e0e0" stroke="#999999" points="712,-141 569,-141 569,-118 712,-118 712,-141"/>
<text text-anchor="middle" x="640.5" y="-125.8" font-family="Arial" font-size="14.00">freertos/FreeRTOS.h</text>
</a>
</g>
</g>
<!-- Node1&#45;&gt;Node6 -->
<g id="edge5_Node000001_Node000006" class="edge">
<title>Node1&#45;&gt;Node6</title>
<g id="a_edge5_Node000001_Node000006"><a xlink:title=" ">
<path fill="none" stroke="#63b8ff" d="M531.24,-176.86C554.96,-166.8 584.05,-154.45 606.25,-145.03"/>
<polygon fill="#63b8ff" stroke="#63b8ff" points="607.77,-148.19 615.61,-141.06 605.04,-141.75 607.77,-148.19"/>
</a>
</g>
</g>
<!-- Node7 -->
<g id="Node000007" class="node">
<title>Node7</title>
<g id="a_Node000007"><a xlink:title=" ">
<polygon fill="#e0e0e0" stroke="#999999" points="832.5,-141 730.5,-141 730.5,-118 832.5,-118 832.5,-141"/>
<text text-anchor="middle" x="781.5" y="-125.8" font-family="Arial" font-size="14.00">freertos/task.h</text>
</a>
</g>
</g>
<!-- Node1&#45;&gt;Node7 -->
<g id="edge6_Node000001_Node000007" class="edge">
<title>Node1&#45;&gt;Node7</title>
<g id="a_edge6_Node000001_Node000007"><a xlink:title=" ">
<path fill="none" stroke="#63b8ff" d="M570.51,-176.95C619.2,-166.23 679.76,-152.9 723.49,-143.27"/>
<polygon fill="#63b8ff" stroke="#63b8ff" points="724.38,-146.66 733.4,-141.09 722.88,-139.82 724.38,-146.66"/>
</a>
</g>
</g>
<!-- Node8 -->
<g id="Node000008" class="node">
<title>Node8</title>
<g id="a_Node000008"><a xlink:title=" ">
<polygon fill="#e0e0e0" stroke="#999999" points="160,-82 85,-82 85,-59 160,-59 160,-82"/>
<text text-anchor="middle" x="122.5" y="-66.8" font-family="Arial" font-size="14.00">esp_log.h</text>
</a>
</g>
</g>
<!-- Node1&#45;&gt;Node8 -->
<g id="edge7_Node000001_Node000008" class="edge">
<title>Node1&#45;&gt;Node8</title>
<g id="a_edge7_Node000001_Node000008"><a xlink:title=" ">
<path fill="none" stroke="#63b8ff" d="M398.82,-191.07C339.36,-185.47 261.06,-172.19 198.5,-141 173.84,-128.71 151.32,-106.02 137.31,-89.92"/>
<polygon fill="#63b8ff" stroke="#63b8ff" points="139.91,-87.57 130.79,-82.18 134.56,-92.08 139.91,-87.57"/>
</a>
</g>
</g>
<!-- Node9 -->
<g id="Node000009" class="node">
<title>Node9</title>
<g id="a_Node000009"><a xlink:title=" ">
<polygon fill="#e0e0e0" stroke="#999999" points="952,-141 851,-141 851,-118 952,-118 952,-141"/>
<text text-anchor="middle" x="901.5" y="-125.8" font-family="Arial" font-size="14.00">esp_system.h</text>
</a>
</g>
</g>
<!-- Node1&#45;&gt;Node9 -->
<g id="edge8_Node000001_Node000009" class="edge">
<title>Node1&#45;&gt;Node9</title>
<g id="a_edge8_Node000001_Node000009"><a xlink:title=" ">
<path fill="none" stroke="#63b8ff" d="M578.17,-181.82C647.13,-171.57 745.06,-156.73 840.64,-141.12"/>
<polygon fill="#63b8ff" stroke="#63b8ff" points="841.47,-144.53 850.77,-139.46 840.34,-137.62 841.47,-144.53"/>
</a>
</g>
</g>
<!-- Node10 -->
<g id="Node000010" class="node">
<title>Node10</title>
<g id="a_Node000010"><a xlink:title=" ">
<polygon fill="#e0e0e0" stroke="#999999" points="265,-82 178,-82 178,-59 265,-59 265,-82"/>
<text text-anchor="middle" x="221.5" y="-66.8" font-family="Arial" font-size="14.00">esp_timer.h</text>
</a>
</g>
</g>
<!-- Node1&#45;&gt;Node10 -->
<g id="edge9_Node000001_Node000010" class="edge">
<title>Node1&#45;&gt;Node10</title>
<g id="a_edge9_Node000001_Node000010"><a xlink:title=" ">
<path fill="none" stroke="#63b8ff" d="M398.87,-189.76C326.63,-183.45 233.28,-169.83 209.5,-141 198.12,-127.21 203.63,-106.54 210.46,-91.33"/>
<polygon fill="#63b8ff" stroke="#63b8ff" points="213.66,-92.75 214.97,-82.24 207.39,-89.64 213.66,-92.75"/>
</a>
</g>
</g>
<!-- Node11 -->
<g id="Node000011" class="node">
<title>Node11</title>
<g id="a_Node000011"><a xlink:title=" ">
<polygon fill="#e0e0e0" stroke="#999999" points="1055,-141 970,-141 970,-118 1055,-118 1055,-141"/>
<text text-anchor="middle" x="1012.5" y="-125.8" font-family="Arial" font-size="14.00">nvs_flash.h</text>
</a>
</g>
</g>
<!-- Node1&#45;&gt;Node11 -->
<g id="edge10_Node000001_Node000011" class="edge">
<title>Node1&#45;&gt;Node11</title>
<g id="a_edge10_Node000001_Node000011"><a xlink:title=" ">
<path fill="none" stroke="#63b8ff" d="M578.18,-187.17C671.32,-178.49 821.43,-162.96 960.02,-141.13"/>
<polygon fill="#63b8ff" stroke="#63b8ff" points="960.65,-144.58 969.98,-139.55 959.55,-137.66 960.65,-144.58"/>
</a>
</g>
</g>
<!-- Node12 -->
<g id="Node000012" class="node">
<title>Node12</title>
<g id="a_Node000012"><a xlink:title=" ">
<polygon fill="#e0e0e0" stroke="#999999" points="1197.5,-141 1073.5,-141 1073.5,-118 1197.5,-118 1197.5,-141"/>
<text text-anchor="middle" x="1135.5" y="-125.8" font-family="Arial" font-size="14.00">TLE92466ED.hpp</text>
</a>
</g>
</g>
<!-- Node1&#45;&gt;Node12 -->
<g id="edge11_Node000001_Node000012" class="edge">
<title>Node1&#45;&gt;Node12</title>
<g id="a_edge11_Node000001_Node000012"><a xlink:title=" ">
<path fill="none" stroke="#63b8ff" d="M578.45,-188.06C689.83,-179.13 885.56,-162.34 1063.14,-141.12"/>
<polygon fill="#63b8ff" stroke="#63b8ff" points="1063.68,-144.58 1073.19,-139.91 1062.84,-137.63 1063.68,-144.58"/>
</a>
</g>
</g>
<!-- Node13 -->
<g id="Node000013" class="node">
<title>Node13</title>
<g id="a_Node000013"><a xlink:href="Esp32TleCommInterface_8hpp.html" target="_top" xlink:title="ESP32 Communication Interface implementation for TLE92466ED driver.">
<polygon fill="white" stroke="#666666" points="412.5,-141 218.5,-141 218.5,-118 412.5,-118 412.5,-141"/>
<text text-anchor="middle" x="315.5" y="-125.8" font-family="Arial" font-size="14.00">Esp32TleCommInterface.hpp</text>
</a>
</g>
</g>
<!-- Node1&#45;&gt;Node13 -->
<g id="edge12_Node000001_Node000013" class="edge">
<title>Node1&#45;&gt;Node13</title>
<g id="a_edge12_Node000001_Node000013"><a xlink:title=" ">
<path fill="none" stroke="#63b8ff" d="M439.85,-176.86C412.5,-166.66 378.86,-154.12 353.47,-144.66"/>
<polygon fill="#63b8ff" stroke="#63b8ff" points="354.42,-141.28 343.83,-141.06 351.97,-147.83 354.42,-141.28"/>
</a>
</g>
</g>
<!-- Node13&#45;&gt;Node3 -->
<g id="edge20_Node000013_Node000003" class="edge">
<title>Node13&#45;&gt;Node3</title>
<g id="a_edge20_Node000013_Node000003"><a xlink:title=" ">
<path fill="none" stroke="#63b8ff" d="M257.39,-117.99C211.17,-109.45 144.62,-96.75 77.21,-82.08"/>
<polygon fill="#63b8ff" stroke="#63b8ff" points="77.78,-78.62 67.27,-79.91 76.29,-85.46 77.78,-78.62"/>
</a>
</g>
</g>
<!-- Node13&#45;&gt;Node8 -->
<g id="edge19_Node000013_Node000008" class="edge">
<title>Node13&#45;&gt;Node8</title>
<g id="a_edge19_Node000013_Node000008"><a xlink:title=" ">
<path fill="none" stroke="#63b8ff" d="M279.65,-117.91C248.1,-108.59 202,-94.98 167.88,-84.9"/>
<polygon fill="#63b8ff" stroke="#63b8ff" points="168.74,-81.51 158.16,-82.03 166.76,-88.22 168.74,-81.51"/>
</a>
</g>
</g>
<!-- Node13&#45;&gt;Node10 -->
<g id="edge18_Node000013_Node000010" class="edge">
<title>Node13&#45;&gt;Node10</title>
<g id="a_edge18_Node000013_Node000010"><a xlink:title=" ">
<path fill="none" stroke="#63b8ff" d="M297.82,-117.78C283.77,-109.26 263.9,-97.21 247.96,-87.55"/>
<polygon fill="#63b8ff" stroke="#63b8ff" points="249.47,-84.37 239.1,-82.17 245.84,-90.35 249.47,-84.37"/>
</a>
</g>
</g>
<!-- Node14 -->
<g id="Node000014" class="node">
<title>Node14</title>
<g id="a_Node000014"><a xlink:title=" ">
<polygon fill="#e0e0e0" stroke="#999999" points="955,-82 730,-82 730,-59 955,-59 955,-82"/>
<text text-anchor="middle" x="842.5" y="-66.8" font-family="Arial" font-size="14.00">TLE92466ED_CommInterface.hpp</text>
</a>
</g>
</g>
<!-- Node13&#45;&gt;Node14 -->
<g id="edge13_Node000013_Node000014" class="edge">
<title>Node13&#45;&gt;Node14</title>
<g id="a_edge13_Node000013_Node000014"><a xlink:title=" ">
<path fill="none" stroke="#63b8ff" d="M412.77,-117.98C504.17,-108.09 640.66,-93.33 735.19,-83.11"/>
<polygon fill="#63b8ff" stroke="#63b8ff" points="735.78,-86.56 745.35,-82.01 735.03,-79.6 735.78,-86.56"/>
</a>
</g>
</g>
<!-- Node15 -->
<g id="Node000015" class="node">
<title>Node15</title>
<g id="a_Node000015"><a xlink:href="TLE92466ED__Config_8hpp.html" target="_top" xlink:title="Hardware configuration for TLE92466ED driver on ESP32&#45;C6.">
<polygon fill="white" stroke="#666666" points="453.5,-82 283.5,-82 283.5,-59 453.5,-59 453.5,-82"/>
<text text-anchor="middle" x="368.5" y="-66.8" font-family="Arial" font-size="14.00">TLE92466ED_Config.hpp</text>
</a>
</g>
</g>
<!-- Node13&#45;&gt;Node15 -->
<g id="edge14_Node000013_Node000015" class="edge">
<title>Node13&#45;&gt;Node15</title>
<g id="a_edge14_Node000013_Node000015"><a xlink:title=" ">
<path fill="none" stroke="#63b8ff" d="M325.47,-117.78C332.8,-109.9 342.93,-98.99 351.53,-89.75"/>
<polygon fill="#63b8ff" stroke="#63b8ff" points="354.33,-91.88 358.58,-82.17 349.2,-87.11 354.33,-91.88"/>
</a>
</g>
</g>
<!-- Node17 -->
<g id="Node000017" class="node">
<title>Node17</title>
<g id="a_Node000017"><a xlink:title=" ">
<polygon fill="#e0e0e0" stroke="#999999" points="603,-82 472,-82 472,-59 603,-59 603,-82"/>
<text text-anchor="middle" x="537.5" y="-66.8" font-family="Arial" font-size="14.00">driver/spi_master.h</text>
</a>
</g>
</g>
<!-- Node13&#45;&gt;Node17 -->
<g id="edge16_Node000013_Node000017" class="edge">
<title>Node13&#45;&gt;Node17</title>
<g id="a_edge16_Node000013_Node000017"><a xlink:title=" ">
<path fill="none" stroke="#63b8ff" d="M356.48,-117.98C393.2,-108.55 447.22,-94.68 486.69,-84.55"/>
<polygon fill="#63b8ff" stroke="#63b8ff" points="487.57,-87.93 496.39,-82.06 485.83,-81.15 487.57,-87.93"/>
</a>
</g>
</g>
<!-- Node18 -->
<g id="Node000018" class="node">
<title>Node18</title>
<g id="a_Node000018"><a xlink:title=" ">
<polygon fill="#e0e0e0" stroke="#999999" points="712,-82 621,-82 621,-59 712,-59 712,-82"/>
<text text-anchor="middle" x="666.5" y="-66.8" font-family="Arial" font-size="14.00">driver/gpio.h</text>
</a>
</g>
</g>
<!-- Node13&#45;&gt;Node18 -->
<g id="edge17_Node000013_Node000018" class="edge">
<title>Node13&#45;&gt;Node18</title>
<g id="a_edge17_Node000013_Node000018"><a xlink:title=" ">
<path fill="none" stroke="#63b8ff" d="M387.64,-117.96C445.51,-109.34 529.07,-96.49 610.89,-82.24"/>
<polygon fill="#63b8ff" stroke="#63b8ff" points="611.61,-85.67 620.86,-80.5 610.4,-78.77 611.61,-85.67"/>
</a>
</g>
</g>
<!-- Node16 -->
<g id="Node000016" class="node">
<title>Node16</title>
<g id="a_Node000016"><a xlink:title=" ">
<polygon fill="#e0e0e0" stroke="#999999" points="396.5,-23 340.5,-23 340.5,0 396.5,0 396.5,-23"/>
<text text-anchor="middle" x="368.5" y="-7.8" font-family="Arial" font-size="14.00">cstdint</text>
</a>
</g>
</g>
<!-- Node15&#45;&gt;Node16 -->
<g id="edge15_Node000015_Node000016" class="edge">
<title>Node15&#45;&gt;Node16</title>
<g id="a_edge15_Node000015_Node000016"><a xlink:title=" ">
<path fill="none" stroke="#63b8ff" d="M368.5,-58.78C368.5,-51.61 368.5,-41.95 368.5,-33.31"/>
<polygon fill="#63b8ff" stroke="#63b8ff" points="372,-33.17 368.5,-23.17 365,-33.17 372,-33.17"/>
</a>
</g>
</g>
</g>
</svg>
