<?xml version="1.0" encoding="UTF-8" standalone="no"?>
<!DOCTYPE svg PUBLIC "-//W3C//DTD SVG 1.1//EN"
 "http://www.w3.org/Graphics/SVG/1.1/DTD/svg11.dtd">
<!-- Generated by graphviz version 2.43.0 (0)
 -->
<!-- Title: examples/esp32/main/SolenoidControlTest.cpp Pages: 1 -->
<!--zoomable 223 -->

<svg id="main" version="1.1" xmlns="http://www.w3.org/2000/svg" xmlns:xlink="http://www.w3.org/1999/xlink" xml:space="preserve" onload="init(evt)">
<style type="text/css"><![CDATA[
.node, .edge {opacity: 0.7;}
.node.selected, .edge.selected {opacity: 1;}
.edge:hover path { stroke: red; }
.edge:hover polygon { stroke: red; fill: red; }
]]></style>

<defs>
  <circle id="rim" cx="0" cy="0" r="7"/>
  <circle id="rim2" cx="0" cy="0" r="3.5"/>
  <g id="zoomPlus">
    <use xlink:href="#rim" fill="#404040"><set attributeName="fill" to="#808080" begin="zoomplus.mouseover" end="zoomplus.mouseout"/></use>
    <path d="M-4,0h8M0,-4v8" fill="none" stroke="white" stroke-width="1.5" pointer-events="none"/>
  </g>
  <g id="zoomMin">
    <use xlink:href="#rim" fill="#404040"><set attributeName="fill" to="#808080" begin="zoomminus.mouseover" end="zoomminus.mouseout"/></use>
    <path d="M-4,0h8" fill="none" stroke="white" stroke-width="1.5" pointer-events="none"/>
  </g>
  <g id="arrowUp" transform="translate(30 24)">
    <use xlink:href="#rim"/>
    <path pointer-events="none" fill="none" stroke="white" stroke-width="1.5" d="M0,-3.0v7 M-2.5,-0.5L0,-3.0L2.5,-0.5"/>
  </g>
  <g id="arrowRight" transform="rotate(90) translate(36 -43)">
    <use xlink:href="#rim"/>
    <path pointer-events="none" fill="none" stroke="white" stroke-width="1.5" d="M0,-3.0v7 M-2.5,-0.5L0,-3.0L2.5,-0.5"/>
  </g>
  <g id="arrowDown" transform="rotate(180) translate(-30 -48)">
    <use xlink:href="#rim"/>
    <path pointer-events="none" fill="none" stroke="white" stroke-width="1.5" d="M0,-3.0v7 M-2.5,-0.5L0,-3.0L2.5,-0.5"/>
  </g>
  <g id="arrowLeft" transform="rotate(270) translate(-36 17)">
    <use xlink:href="#rim"/>
    <path pointer-events="none" fill="none" stroke="white" stroke-width="1.5" d="M0,-3.0v7 M-2.5,-0.5L0,-3.0L2.5,-0.5"/>
  </g>
  <g id="resetDef">
    <use xlink:href="#rim2" fill="#404040"><set attributeName="fill" to="#808080" begin="reset.mouseover" end="reset.mouseout"/></use>
  </g>
</defs>
<script type="application/ecmascript">
var viewWidth = 1603;
var viewHeight = 223;
var sectionId = 'dynsection-0';
</script>
<script type="application/ecmascript" xlink:href="svg.min.js"/>
<svg id="graph" class="graph">
<g id="viewport">
<title>examples/esp32/main/SolenoidControlTest.cpp</title>
<!-- Node1 -->
<g id="Node000001" class="node">
<title>Node1</title>
<g id="a_Node000001"><a xlink:title="Real Hardware Solenoid Control Test with ADC&#45;Based Current Control.">
<polygon fill="#999999" stroke="#666666" points="690,-215 523,-215 523,-177 690,-177 690,-215"/>
<text text-anchor="start" x="531" y="-199.8" font-family="Arial" font-size="14.00">examples/esp32/main</text>
<text text-anchor="middle" x="606.5" y="-184.8" font-family="Arial" font-size="14.00">/SolenoidControlTest.cpp</text>
</a>
</g>
</g>
<!-- Node2 -->
<g id="Node000002" class="node">
<title>Node2</title>
<g id="a_Node000002"><a xlink:title=" ">
<polygon fill="#e0e0e0" stroke="#999999" points="118.5,-141 62.5,-141 62.5,-118 118.5,-118 118.5,-141"/>
<text text-anchor="middle" x="90.5" y="-125.8" font-family="Arial" font-size="14.00">stdio.h</text>
</a>
</g>
</g>
<!-- Node1&#45;&gt;Node2 -->
<g id="edge1_Node000001_Node000002" class="edge">
<title>Node1&#45;&gt;Node2</title>
<g id="a_edge1_Node000001_Node000002"><a xlink:title=" ">
<path fill="none" stroke="#63b8ff" d="M522.96,-188.83C427.89,-181.03 268.19,-165.58 132.5,-141 131.25,-140.77 129.99,-140.53 128.71,-140.28"/>
<polygon fill="#63b8ff" stroke="#63b8ff" points="129.37,-136.84 118.86,-138.13 127.88,-143.68 129.37,-136.84"/>
</a>
</g>
</g>
<!-- Node3 -->
<g id="Node000003" class="node">
<title>Node3</title>
<g id="a_Node000003"><a xlink:title=" ">
<polygon fill="#e0e0e0" stroke="#999999" points="67,-82 0,-82 0,-59 67,-59 67,-82"/>
<text text-anchor="middle" x="33.5" y="-66.8" font-family="Arial" font-size="14.00">memory</text>
</a>
</g>
</g>
<!-- Node1&#45;&gt;Node3 -->
<g id="edge2_Node000001_Node000003" class="edge">
<title>Node1&#45;&gt;Node3</title>
<g id="a_edge2_Node000001_Node000003"><a xlink:title=" ">
<path fill="none" stroke="#63b8ff" d="M522.89,-195.11C432.41,-192.89 285.05,-182.36 165.5,-141 146.84,-134.55 144.81,-127.5 127.5,-118 107.11,-106.81 83.67,-95.21 65.29,-86.4"/>
<polygon fill="#63b8ff" stroke="#63b8ff" points="66.72,-83.2 56.19,-82.06 63.71,-89.52 66.72,-83.2"/>
</a>
</g>
</g>
<!-- Node4 -->
<g id="Node000004" class="node">
<title>Node4</title>
<g id="a_Node000004"><a xlink:title=" ">
<polygon fill="#e0e0e0" stroke="#999999" points="516.5,-141 462.5,-141 462.5,-118 516.5,-118 516.5,-141"/>
<text text-anchor="middle" x="489.5" y="-125.8" font-family="Arial" font-size="14.00">cmath</text>
</a>
</g>
</g>
<!-- Node1&#45;&gt;Node4 -->
<g id="edge3_Node000001_Node000004" class="edge">
<title>Node1&#45;&gt;Node4</title>
<g id="a_edge3_Node000001_Node000004"><a xlink:title=" ">
<path fill="none" stroke="#63b8ff" d="M573.6,-176.86C555.92,-167.12 534.35,-155.23 517.49,-145.93"/>
<polygon fill="#63b8ff" stroke="#63b8ff" points="519.1,-142.82 508.66,-141.06 515.73,-148.95 519.1,-142.82"/>
</a>
</g>
</g>
<!-- Node5 -->
<g id="Node000005" class="node">
<title>Node5</title>
<g id="a_Node000005"><a xlink:title=" ">
<polygon fill="#e0e0e0" stroke="#999999" points="678,-141 535,-141 535,-118 678,-118 678,-141"/>
<text text-anchor="middle" x="606.5" y="-125.8" font-family="Arial" font-size="14.00">freertos/FreeRTOS.h</text>
</a>
</g>
</g>
<!-- Node1&#45;&gt;Node5 -->
<g id="edge4_Node000001_Node000005" class="edge">
<title>Node1&#45;&gt;Node5</title>
<g id="a_edge4_Node000001_Node000005"><a xlink:title=" ">
<path fill="none" stroke="#63b8ff" d="M606.5,-176.69C606.5,-168.8 606.5,-159.54 606.5,-151.39"/>
<polygon fill="#63b8ff" stroke="#63b8ff" points="610,-151.19 606.5,-141.19 603,-151.19 610,-151.19"/>
</a>
</g>
</g>
<!-- Node6 -->
<g id="Node000006" class="node">
<title>Node6</title>
<g id="a_Node000006"><a xlink:title=" ">
<polygon fill="#e0e0e0" stroke="#999999" points="798.5,-141 696.5,-141 696.5,-118 798.5,-118 798.5,-141"/>
<text text-anchor="middle" x="747.5" y="-125.8" font-family="Arial" font-size="14.00">freertos/task.h</text>
</a>
</g>
</g>
<!-- Node1&#45;&gt;Node6 -->
<g id="edge5_Node000001_Node000006" class="edge">
<title>Node1&#45;&gt;Node6</title>
<g id="a_edge5_Node000001_Node000006"><a xlink:title=" ">
<path fill="none" stroke="#63b8ff" d="M646.15,-176.86C667.95,-166.89 694.65,-154.68 715.17,-145.29"/>
<polygon fill="#63b8ff" stroke="#63b8ff" points="716.78,-148.4 724.41,-141.06 713.86,-142.04 716.78,-148.4"/>
</a>
</g>
</g>
<!-- Node7 -->
<g id="Node000007" class="node">
<title>Node7</title>
<g id="a_Node000007"><a xlink:title=" ">
<polygon fill="#e0e0e0" stroke="#999999" points="160,-82 85,-82 85,-59 160,-59 160,-82"/>
<text text-anchor="middle" x="122.5" y="-66.8" font-family="Arial" font-size="14.00">esp_log.h</text>
</a>
</g>
</g>
<!-- Node1&#45;&gt;Node7 -->
<g id="edge6_Node000001_Node000007" class="edge">
<title>Node1&#45;&gt;Node7</title>
<g id="a_edge6_Node000001_Node000007"><a xlink:title=" ">
<path fill="none" stroke="#63b8ff" d="M522.7,-189.39C421.78,-181.66 258.9,-165.82 203.5,-141 177.29,-129.26 153.13,-106.26 138.14,-89.94"/>
<polygon fill="#63b8ff" stroke="#63b8ff" points="140.44,-87.26 131.18,-82.11 135.21,-91.91 140.44,-87.26"/>
</a>
</g>
</g>
<!-- Node8 -->
<g id="Node000008" class="node">
<title>Node8</title>
<g id="a_Node000008"><a xlink:title=" ">
<polygon fill="#e0e0e0" stroke="#999999" points="918,-141 817,-141 817,-118 918,-118 918,-141"/>
<text text-anchor="middle" x="867.5" y="-125.8" font-family="Arial" font-size="14.00">esp_system.h</text>
</a>
</g>
</g>
<!-- Node1&#45;&gt;Node8 -->
<g id="edge7_Node000001_Node000008" class="edge">
<title>Node1&#45;&gt;Node8</title>
<g id="a_edge7_Node000001_Node000008"><a xlink:title=" ">
<path fill="none" stroke="#63b8ff" d="M679.55,-176.95C722.47,-166.34 775.74,-153.18 814.59,-143.57"/>
<polygon fill="#63b8ff" stroke="#63b8ff" points="815.78,-146.89 824.65,-141.09 814.1,-140.09 815.78,-146.89"/>
</a>
</g>
</g>
<!-- Node9 -->
<g id="Node000009" class="node">
<title>Node9</title>
<g id="a_Node000009"><a xlink:title=" ">
<polygon fill="#e0e0e0" stroke="#999999" points="1096.5,-141 936.5,-141 936.5,-118 1096.5,-118 1096.5,-141"/>
<text text-anchor="middle" x="1016.5" y="-125.8" font-family="Arial" font-size="14.00">esp_adc/adc_oneshot.h</text>
</a>
</g>
</g>
<!-- Node1&#45;&gt;Node9 -->
<g id="edge8_Node000001_Node000009" class="edge">
<title>Node1&#45;&gt;Node9</title>
<g id="a_edge8_Node000001_Node000009"><a xlink:title=" ">
<path fill="none" stroke="#63b8ff" d="M690.46,-181.79C763.48,-170.3 868.41,-153.8 939.35,-142.64"/>
<polygon fill="#63b8ff" stroke="#63b8ff" points="940.23,-146.04 949.57,-141.03 939.14,-139.13 940.23,-146.04"/>
</a>
</g>
</g>
<!-- Node10 -->
<g id="Node000010" class="node">
<title>Node10</title>
<g id="a_Node000010"><a xlink:title=" ">
<polygon fill="#e0e0e0" stroke="#999999" points="1246.5,-141 1114.5,-141 1114.5,-118 1246.5,-118 1246.5,-141"/>
<text text-anchor="middle" x="1180.5" y="-125.8" font-family="Arial" font-size="14.00">esp_adc/adc_cali.h</text>
</a>
</g>
</g>
<!-- Node1&#45;&gt;Node10 -->
<g id="edge9_Node000001_Node000010" class="edge">
<title>Node1&#45;&gt;Node10</title>
<g id="a_edge9_Node000001_Node000010"><a xlink:title=" ">
<path fill="none" stroke="#63b8ff" d="M690.03,-186.77C787.08,-177.02 952.29,-159.86 1104.27,-141.12"/>
<polygon fill="#63b8ff" stroke="#63b8ff" points="1104.77,-144.59 1114.26,-139.89 1103.91,-137.64 1104.77,-144.59"/>
</a>
</g>
</g>
<!-- Node11 -->
<g id="Node000011" class="node">
<title>Node11</title>
<g id="a_Node000011"><a xlink:title=" ">
<polygon fill="#e0e0e0" stroke="#999999" points="1452.5,-141 1264.5,-141 1264.5,-118 1452.5,-118 1452.5,-141"/>
<text text-anchor="middle" x="1358.5" y="-125.8" font-family="Arial" font-size="14.00">esp_adc/adc_cali_scheme.h</text>
</a>
</g>
</g>
<!-- Node1&#45;&gt;Node11 -->
<g id="edge10_Node000001_Node000011" class="edge">
<title>Node1&#45;&gt;Node11</title>
<g id="a_edge10_Node000001_Node000011"><a xlink:title=" ">
<path fill="none" stroke="#63b8ff" d="M690.04,-188.55C811.67,-179.04 1044.9,-160.4 1254.22,-141.11"/>
<polygon fill="#63b8ff" stroke="#63b8ff" points="1254.85,-144.56 1264.48,-140.16 1254.2,-137.59 1254.85,-144.56"/>
</a>
</g>
</g>
<!-- Node12 -->
<g id="Node000012" class="node">
<title>Node12</title>
<g id="a_Node000012"><a xlink:title=" ">
<polygon fill="#e0e0e0" stroke="#999999" points="1594.5,-141 1470.5,-141 1470.5,-118 1594.5,-118 1594.5,-141"/>
<text text-anchor="middle" x="1532.5" y="-125.8" font-family="Arial" font-size="14.00">TLE92466ED.hpp</text>
</a>
</g>
</g>
<!-- Node1&#45;&gt;Node12 -->
<g id="edge11_Node000001_Node000012" class="edge">
<title>Node1&#45;&gt;Node12</title>
<g id="a_edge11_Node000001_Node000012"><a xlink:title=" ">
<path fill="none" stroke="#63b8ff" d="M690.13,-192.04C841.62,-186.18 1171.68,-171.06 1459.96,-141.09"/>
<polygon fill="#63b8ff" stroke="#63b8ff" points="1460.62,-144.54 1470.2,-140.01 1459.89,-137.58 1460.62,-144.54"/>
</a>
</g>
</g>
<!-- Node13 -->
<g id="Node000013" class="node">
<title>Node13</title>
<g id="a_Node000013"><a xlink:href="Esp32TleCommInterface_8hpp.html" target="_top" xlink:title="ESP32 Communication Interface implementation for TLE92466ED driver.">
<polygon fill="white" stroke="#666666" points="406.5,-141 212.5,-141 212.5,-118 406.5,-118 406.5,-141"/>
<text text-anchor="middle" x="309.5" y="-125.8" font-family="Arial" font-size="14.00">Esp32TleCommInterface.hpp</text>
</a>
</g>
</g>
<!-- Node1&#45;&gt;Node13 -->
<g id="edge12_Node000001_Node000013" class="edge">
<title>Node1&#45;&gt;Node13</title>
<g id="a_edge12_Node000001_Node000013"><a xlink:title=" ">
<path fill="none" stroke="#63b8ff" d="M523.37,-176.95C474.02,-166.23 412.63,-152.9 368.3,-143.27"/>
<polygon fill="#63b8ff" stroke="#63b8ff" points="368.78,-139.79 358.26,-141.09 367.29,-146.63 368.78,-139.79"/>
</a>
</g>
</g>
<!-- Node15 -->
<g id="Node000015" class="node">
<title>Node15</title>
<g id="a_Node000015"><a xlink:href="TLE92466ED__TestConfig_8hpp.html" target="_top" xlink:title="Hardware configuration for TLE92466ED driver on ESP32&#45;C6.">
<polygon fill="white" stroke="#666666" points="979,-82 784,-82 784,-59 979,-59 979,-82"/>
<text text-anchor="middle" x="881.5" y="-66.8" font-family="Arial" font-size="14.00">TLE92466ED_TestConfig.hpp</text>
</a>
</g>
</g>
<!-- Node1&#45;&gt;Node15 -->
<g id="edge21_Node000001_Node000015" class="edge">
<title>Node1&#45;&gt;Node15</title>
<g id="a_edge21_Node000001_Node000015"><a xlink:title=" ">
<path fill="none" stroke="#63b8ff" d="M522.8,-180.79C473.55,-168.89 425.85,-148.82 453.5,-118 456.18,-115.01 647.85,-95.11 773.76,-82.33"/>
<polygon fill="#63b8ff" stroke="#63b8ff" points="774.24,-85.8 783.84,-81.31 773.54,-78.83 774.24,-85.8"/>
</a>
</g>
</g>
<!-- Node13&#45;&gt;Node3 -->
<g id="edge20_Node000013_Node000003" class="edge">
<title>Node13&#45;&gt;Node3</title>
<g id="a_edge20_Node000013_Node000003"><a xlink:title=" ">
<path fill="none" stroke="#63b8ff" d="M252.6,-118C207.43,-109.48 142.44,-96.81 77.41,-82.36"/>
<polygon fill="#63b8ff" stroke="#63b8ff" points="77.92,-78.89 67.39,-80.12 76.39,-85.72 77.92,-78.89"/>
</a>
</g>
</g>
<!-- Node13&#45;&gt;Node7 -->
<g id="edge19_Node000013_Node000007" class="edge">
<title>Node13&#45;&gt;Node7</title>
<g id="a_edge19_Node000013_Node000007"><a xlink:title=" ">
<path fill="none" stroke="#63b8ff" d="M274.76,-117.91C244.33,-108.63 199.91,-95.1 166.9,-85.03"/>
<polygon fill="#63b8ff" stroke="#63b8ff" points="167.64,-81.6 157.05,-82.03 165.59,-88.29 167.64,-81.6"/>
</a>
</g>
</g>
<!-- Node14 -->
<g id="Node000014" class="node">
<title>Node14</title>
<g id="a_Node000014"><a xlink:title=" ">
<polygon fill="#e0e0e0" stroke="#999999" points="766,-82 541,-82 541,-59 766,-59 766,-82"/>
<text text-anchor="middle" x="653.5" y="-66.8" font-family="Arial" font-size="14.00">TLE92466ED_CommInterface.hpp</text>
</a>
</g>
</g>
<!-- Node13&#45;&gt;Node14 -->
<g id="edge13_Node000013_Node000014" class="edge">
<title>Node13&#45;&gt;Node14</title>
<g id="a_edge13_Node000013_Node000014"><a xlink:title=" ">
<path fill="none" stroke="#63b8ff" d="M373,-117.98C431.57,-108.27 518.51,-93.87 580.05,-83.67"/>
<polygon fill="#63b8ff" stroke="#63b8ff" points="580.79,-87.1 590.08,-82.01 579.65,-80.19 580.79,-87.1"/>
</a>
</g>
</g>
<!-- Node13&#45;&gt;Node15 -->
<g id="edge14_Node000013_Node000015" class="edge">
<title>Node13&#45;&gt;Node15</title>
<g id="a_edge14_Node000013_Node000015"><a xlink:title=" ">
<path fill="none" stroke="#63b8ff" d="M406.53,-118.83C508.43,-108.68 668.25,-92.75 773.94,-82.22"/>
<polygon fill="#63b8ff" stroke="#63b8ff" points="774.39,-85.69 783.99,-81.22 773.69,-78.73 774.39,-85.69"/>
</a>
</g>
</g>
<!-- Node17 -->
<g id="Node000017" class="node">
<title>Node17</title>
<g id="a_Node000017"><a xlink:title=" ">
<polygon fill="#e0e0e0" stroke="#999999" points="309,-82 178,-82 178,-59 309,-59 309,-82"/>
<text text-anchor="middle" x="243.5" y="-66.8" font-family="Arial" font-size="14.00">driver/spi_master.h</text>
</a>
</g>
</g>
<!-- Node13&#45;&gt;Node17 -->
<g id="edge16_Node000013_Node000017" class="edge">
<title>Node13&#45;&gt;Node17</title>
<g id="a_edge16_Node000013_Node000017"><a xlink:title=" ">
<path fill="none" stroke="#63b8ff" d="M297.09,-117.78C287.68,-109.66 274.57,-98.33 263.67,-88.92"/>
<polygon fill="#63b8ff" stroke="#63b8ff" points="265.71,-86.06 255.86,-82.17 261.14,-91.36 265.71,-86.06"/>
</a>
</g>
</g>
<!-- Node18 -->
<g id="Node000018" class="node">
<title>Node18</title>
<g id="a_Node000018"><a xlink:title=" ">
<polygon fill="#e0e0e0" stroke="#999999" points="418,-82 327,-82 327,-59 418,-59 418,-82"/>
<text text-anchor="middle" x="372.5" y="-66.8" font-family="Arial" font-size="14.00">driver/gpio.h</text>
</a>
</g>
</g>
<!-- Node13&#45;&gt;Node18 -->
<g id="edge17_Node000013_Node000018" class="edge">
<title>Node13&#45;&gt;Node18</title>
<g id="a_edge17_Node000013_Node000018"><a xlink:title=" ">
<path fill="none" stroke="#63b8ff" d="M321.35,-117.78C330.33,-109.66 342.84,-98.33 353.25,-88.92"/>
<polygon fill="#63b8ff" stroke="#63b8ff" points="355.64,-91.48 360.7,-82.17 350.94,-86.29 355.64,-91.48"/>
</a>
</g>
</g>
<!-- Node19 -->
<g id="Node000019" class="node">
<title>Node19</title>
<g id="a_Node000019"><a xlink:title=" ">
<polygon fill="#e0e0e0" stroke="#999999" points="523,-82 436,-82 436,-59 523,-59 523,-82"/>
<text text-anchor="middle" x="479.5" y="-66.8" font-family="Arial" font-size="14.00">esp_timer.h</text>
</a>
</g>
</g>
<!-- Node13&#45;&gt;Node19 -->
<g id="edge18_Node000013_Node000019" class="edge">
<title>Node13&#45;&gt;Node19</title>
<g id="a_edge18_Node000013_Node000019"><a xlink:title=" ">
<path fill="none" stroke="#63b8ff" d="M341.08,-117.91C368.51,-108.71 408.43,-95.33 438.36,-85.29"/>
<polygon fill="#63b8ff" stroke="#63b8ff" points="439.72,-88.53 448.09,-82.03 437.5,-81.89 439.72,-88.53"/>
</a>
</g>
</g>
<!-- Node16 -->
<g id="Node000016" class="node">
<title>Node16</title>
<g id="a_Node000016"><a xlink:title=" ">
<polygon fill="#e0e0e0" stroke="#999999" points="909.5,-23 853.5,-23 853.5,0 909.5,0 909.5,-23"/>
<text text-anchor="middle" x="881.5" y="-7.8" font-family="Arial" font-size="14.00">cstdint</text>
</a>
</g>
</g>
<!-- Node15&#45;&gt;Node16 -->
<g id="edge15_Node000015_Node000016" class="edge">
<title>Node15&#45;&gt;Node16</title>
<g id="a_edge15_Node000015_Node000016"><a xlink:title=" ">
<path fill="none" stroke="#63b8ff" d="M881.5,-58.78C881.5,-51.61 881.5,-41.95 881.5,-33.31"/>
<polygon fill="#63b8ff" stroke="#63b8ff" points="885,-33.17 881.5,-23.17 878,-33.17 885,-33.17"/>
</a>
</g>
</g>
</g>
</svg>

<g id="navigator" transform="translate(0 0)" fill="#404254">
  <rect fill="#f2f5e9" fill-opacity="0.5" stroke="#606060" stroke-width=".5" x="0" y="0" width="60" height="60"/>
  <use id="zoomplus" xlink:href="#zoomPlus" x="17" y="9" onmousedown="handleZoom(evt,'in')"/>
  <use id="zoomminus" xlink:href="#zoomMin" x="42" y="9" onmousedown="handleZoom(evt,'out')"/>
  <use id="reset" xlink:href="#resetDef" x="30" y="36" onmousedown="handleReset()"/>
   <use id="arrowup" xlink:href="#arrowUp" x="0" y="0" onmousedown="handlePan(0,-1)"/>
  <use id="arrowright" xlink:href="#arrowRight" x="0" y="0" onmousedown="handlePan(1,0)"/>
  <use id="arrowdown" xlink:href="#arrowDown" x="0" y="0" onmousedown="handlePan(0,1)"/>
  <use id="arrowleft" xlink:href="#arrowLeft" x="0" y="0" onmousedown="handlePan(-1,0)"/>
</g>
<svg viewBox="0 0 15 15" width="100%" height="30px" preserveAspectRatio="xMaxYMin meet">
 <g id="arrow_out" transform="scale(0.3 0.3)">
  <a xlink:href="SolenoidControlTest_8cpp__incl_org.svg" target="_base">
   <rect id="button" ry="5" rx="5" y="6" x="6" height="38" width="38"
        fill="#f2f5e9" fill-opacity="0.5" stroke="#606060" stroke-width="1.0"/>
   <path id="arrow"
     d="M 11.500037,31.436501 C 11.940474,20.09759 22.043105,11.32322 32.158766,21.979434 L 37.068811,17.246167 C 37.068811,17.246167 37.088388,32 37.088388,32 L 22.160133,31.978069 C 22.160133,31.978069 26.997745,27.140456 26.997745,27.140456 C 18.528582,18.264221 13.291696,25.230495 11.500037,31.436501 z"
     style="fill:#404040;"/>
  </a>
 </g>
</svg>

<style type='text/css'>
<![CDATA[
[data-mouse-over-selected='false'] { opacity: 0.7; }
[data-mouse-over-selected='true']  { opacity: 1.0; }
]]>
</style>
<script type="application/ecmascript"><![CDATA[
document.addEventListener('DOMContentLoaded', (event) => {
  highlightEdges();
  highlightAdjacentNodes();
});
]]></script>
</svg>
