<?xml version="1.0" encoding="UTF-8" standalone="no"?>
<!DOCTYPE svg PUBLIC "-//W3C//DTD SVG 1.1//EN"
 "http://www.w3.org/Graphics/SVG/1.1/DTD/svg11.dtd">
<!-- Generated by graphviz version 2.43.0 (0)
 -->
<!-- Title: examples/esp32/main/TLE92466ED_Config.hpp Pages: 1 -->
<svg width="543pt" height="194pt"
 viewBox="0.00 0.00 543.00 194.00" xmlns="http://www.w3.org/2000/svg" xmlns:xlink="http://www.w3.org/1999/xlink">
<g id="graph0" class="graph" transform="scale(1 1) rotate(0) translate(4 190)">
<title>examples/esp32/main/TLE92466ED_Config.hpp</title>
<!-- Node1 -->
<g id="Node000001" class="node">
<title>Node1</title>
<g id="a_Node000001"><a xlink:title="Hardware configuration for TLE92466ED driver on ESP32&#45;C6.">
<polygon fill="#999999" stroke="#666666" points="350.5,-186 176.5,-186 176.5,-148 350.5,-148 350.5,-186"/>
<text text-anchor="start" x="184.5" y="-170.8" font-family="Arial" font-size="14.00">examples/esp32/main</text>
<text text-anchor="middle" x="263.5" y="-155.8" font-family="Arial" font-size="14.00">/TLE92466ED_Config.hpp</text>
</a>
</g>
</g>
<!-- Node2 -->
<g id="Node000002" class="node">
<title>Node2</title>
<g id="a_Node000002"><a xlink:href="ESP32C6__HAL_8hpp.html" target="_top" xlink:title="ESP32&#45;C6 Hardware Abstraction Layer for TLE92466ED driver.">
<polygon fill="white" stroke="#666666" points="338,-112 189,-112 189,-74 338,-74 338,-112"/>
<text text-anchor="start" x="197" y="-96.8" font-family="Arial" font-size="14.00">examples/esp32/main</text>
<text text-anchor="middle" x="263.5" y="-81.8" font-family="Arial" font-size="14.00">/ESP32C6_HAL.hpp</text>
</a>
</g>
</g>
<!-- Node1&#45;&gt;Node2 -->
<g id="edge1_Node000001_Node000002" class="edge">
<title>Node1&#45;&gt;Node2</title>
<g id="a_edge1_Node000001_Node000002"><a xlink:title=" ">
<path fill="none" stroke="#63b8ff" d="M263.5,-137.57C263.5,-129.11 263.5,-120.06 263.5,-112.41"/>
<polygon fill="#63b8ff" stroke="#63b8ff" points="260,-137.83 263.5,-147.83 267,-137.83 260,-137.83"/>
</a>
</g>
</g>
<!-- Node3 -->
<g id="Node000003" class="node">
<title>Node3</title>
<g id="a_Node000003"><a xlink:href="BasicUsageExample_8cpp.html" target="_top" xlink:title="Basic usage example for TLE92466ED driver on ESP32&#45;C6.">
<polygon fill="white" stroke="#666666" points="171,-38 0,-38 0,0 171,0 171,-38"/>
<text text-anchor="start" x="8" y="-22.8" font-family="Arial" font-size="14.00">examples/esp32/main</text>
<text text-anchor="middle" x="85.5" y="-7.8" font-family="Arial" font-size="14.00">/BasicUsageExample.cpp</text>
</a>
</g>
</g>
<!-- Node2&#45;&gt;Node3 -->
<g id="edge2_Node000002_Node000003" class="edge">
<title>Node2&#45;&gt;Node3</title>
<g id="a_edge2_Node000002_Node000003"><a xlink:title=" ">
<path fill="none" stroke="#63b8ff" d="M209.12,-70C183.8,-59.76 154.06,-47.73 130.09,-38.04"/>
<polygon fill="#63b8ff" stroke="#63b8ff" points="208,-73.33 218.58,-73.83 210.63,-66.84 208,-73.33"/>
</a>
</g>
</g>
<!-- Node4 -->
<g id="Node000004" class="node">
<title>Node4</title>
<g id="a_Node000004"><a xlink:href="ESP32C6__HAL_8cpp.html" target="_top" xlink:title="ESP32&#45;C6 Hardware Abstraction Layer implementation for TLE92466ED driver.">
<polygon fill="white" stroke="#666666" points="338,-38 189,-38 189,0 338,0 338,-38"/>
<text text-anchor="start" x="197" y="-22.8" font-family="Arial" font-size="14.00">examples/esp32/main</text>
<text text-anchor="middle" x="263.5" y="-7.8" font-family="Arial" font-size="14.00">/ESP32C6_HAL.cpp</text>
</a>
</g>
</g>
<!-- Node2&#45;&gt;Node4 -->
<g id="edge3_Node000002_Node000004" class="edge">
<title>Node2&#45;&gt;Node4</title>
<g id="a_edge3_Node000002_Node000004"><a xlink:title=" ">
<path fill="none" stroke="#63b8ff" d="M263.5,-63.57C263.5,-55.11 263.5,-46.06 263.5,-38.41"/>
<polygon fill="#63b8ff" stroke="#63b8ff" points="260,-63.83 263.5,-73.83 267,-63.83 260,-63.83"/>
</a>
</g>
</g>
<!-- Node5 -->
<g id="Node000005" class="node">
<title>Node5</title>
<g id="a_Node000005"><a xlink:href="MultiChannelExample_8cpp.html" target="_top" xlink:title="Multi&#45;channel control example for TLE92466ED driver on ESP32&#45;C6.">
<polygon fill="white" stroke="#666666" points="535,-38 356,-38 356,0 535,0 535,-38"/>
<text text-anchor="start" x="364" y="-22.8" font-family="Arial" font-size="14.00">examples/esp32/main</text>
<text text-anchor="middle" x="445.5" y="-7.8" font-family="Arial" font-size="14.00">/MultiChannelExample.cpp</text>
</a>
</g>
</g>
<!-- Node2&#45;&gt;Node5 -->
<g id="edge4_Node000002_Node000005" class="edge">
<title>Node2&#45;&gt;Node5</title>
<g id="a_edge4_Node000002_Node000005"><a xlink:title=" ">
<path fill="none" stroke="#63b8ff" d="M318.76,-70.14C344.72,-59.87 375.29,-47.77 399.9,-38.04"/>
<polygon fill="#63b8ff" stroke="#63b8ff" points="317.44,-66.9 309.43,-73.83 320.01,-73.41 317.44,-66.9"/>
</a>
</g>
</g>
</g>
</svg>
