<?xml version="1.0" encoding="UTF-8" standalone="no"?>
<!DOCTYPE svg PUBLIC "-//W3C//DTD SVG 1.1//EN"
 "http://www.w3.org/Graphics/SVG/1.1/DTD/svg11.dtd">
<!-- Generated by graphviz version 2.43.0 (0)
 -->
<!-- Title: examples/arduino/Arduino_HAL.cpp Pages: 1 -->
<svg width="398pt" height="223pt"
 viewBox="0.00 0.00 397.50 223.00" xmlns="http://www.w3.org/2000/svg" xmlns:xlink="http://www.w3.org/1999/xlink">
<g id="graph0" class="graph" transform="scale(1 1) rotate(0) translate(4 219)">
<title>examples/arduino/Arduino_HAL.cpp</title>
<!-- Node1 -->
<g id="Node000001" class="node">
<title>Node1</title>
<g id="a_Node000001"><a xlink:title="Arduino Hardware Abstraction Layer Implementation.">
<polygon fill="#999999" stroke="#666666" points="204,-215 30,-215 30,-177 204,-177 204,-215"/>
<text text-anchor="start" x="38" y="-199.8" font-family="Arial" font-size="14.00">examples/arduino/Arduino</text>
<text text-anchor="middle" x="117" y="-184.8" font-family="Arial" font-size="14.00">_HAL.cpp</text>
</a>
</g>
</g>
<!-- Node2 -->
<g id="Node000002" class="node">
<title>Node2</title>
<g id="a_Node000002"><a xlink:href="Arduino__HAL_8hpp.html" target="_top" xlink:title="Arduino Hardware Abstraction Layer for TLE92466ED Driver.">
<polygon fill="white" stroke="#666666" points="178.5,-141 55.5,-141 55.5,-118 178.5,-118 178.5,-141"/>
<text text-anchor="middle" x="117" y="-125.8" font-family="Arial" font-size="14.00">Arduino_HAL.hpp</text>
</a>
</g>
</g>
<!-- Node1&#45;&gt;Node2 -->
<g id="edge1_Node000001_Node000002" class="edge">
<title>Node1&#45;&gt;Node2</title>
<g id="a_edge1_Node000001_Node000002"><a xlink:title=" ">
<path fill="none" stroke="#63b8ff" d="M117,-176.69C117,-168.8 117,-159.54 117,-151.39"/>
<polygon fill="#63b8ff" stroke="#63b8ff" points="120.5,-151.19 117,-141.19 113.5,-151.19 120.5,-151.19"/>
</a>
</g>
</g>
<!-- Node3 -->
<g id="Node000003" class="node">
<title>Node3</title>
<g id="a_Node000003"><a xlink:title=" ">
<polygon fill="#e0e0e0" stroke="#999999" points="74,-82 0,-82 0,-59 74,-59 74,-82"/>
<text text-anchor="middle" x="37" y="-66.8" font-family="Arial" font-size="14.00">Arduino.h</text>
</a>
</g>
</g>
<!-- Node2&#45;&gt;Node3 -->
<g id="edge2_Node000002_Node000003" class="edge">
<title>Node2&#45;&gt;Node3</title>
<g id="a_edge2_Node000002_Node000003"><a xlink:title=" ">
<path fill="none" stroke="#63b8ff" d="M101.95,-117.78C90.22,-109.42 73.72,-97.66 60.28,-88.09"/>
<polygon fill="#63b8ff" stroke="#63b8ff" points="62.16,-85.13 51.98,-82.17 58.09,-90.83 62.16,-85.13"/>
</a>
</g>
</g>
<!-- Node4 -->
<g id="Node000004" class="node">
<title>Node4</title>
<g id="a_Node000004"><a xlink:title=" ">
<polygon fill="#e0e0e0" stroke="#999999" points="142,-82 92,-82 92,-59 142,-59 142,-82"/>
<text text-anchor="middle" x="117" y="-66.8" font-family="Arial" font-size="14.00">SPI.h</text>
</a>
</g>
</g>
<!-- Node2&#45;&gt;Node4 -->
<g id="edge3_Node000002_Node000004" class="edge">
<title>Node2&#45;&gt;Node4</title>
<g id="a_edge3_Node000002_Node000004"><a xlink:title=" ">
<path fill="none" stroke="#63b8ff" d="M117,-117.78C117,-110.61 117,-100.95 117,-92.31"/>
<polygon fill="#63b8ff" stroke="#63b8ff" points="120.5,-92.17 117,-82.17 113.5,-92.17 120.5,-92.17"/>
</a>
</g>
</g>
<!-- Node5 -->
<g id="Node000005" class="node">
<title>Node5</title>
<g id="a_Node000005"><a xlink:href="TLE92466ED__HAL_8hpp.html" target="_top" xlink:title="Hardware Abstraction Layer (HAL) base class for TLE92466ED driver.">
<polygon fill="white" stroke="#666666" points="318,-82 160,-82 160,-59 318,-59 318,-82"/>
<text text-anchor="middle" x="239" y="-66.8" font-family="Arial" font-size="14.00">TLE92466ED_HAL.hpp</text>
</a>
</g>
</g>
<!-- Node2&#45;&gt;Node5 -->
<g id="edge4_Node000002_Node000005" class="edge">
<title>Node2&#45;&gt;Node5</title>
<g id="a_edge4_Node000002_Node000005"><a xlink:title=" ">
<path fill="none" stroke="#63b8ff" d="M139.66,-117.91C158.66,-109.03 186.01,-96.26 207.21,-86.35"/>
<polygon fill="#63b8ff" stroke="#63b8ff" points="208.88,-89.43 216.46,-82.03 205.92,-83.09 208.88,-89.43"/>
</a>
</g>
</g>
<!-- Node6 -->
<g id="Node000006" class="node">
<title>Node6</title>
<g id="a_Node000006"><a xlink:title=" ">
<polygon fill="#e0e0e0" stroke="#999999" points="146,-23 90,-23 90,0 146,0 146,-23"/>
<text text-anchor="middle" x="118" y="-7.8" font-family="Arial" font-size="14.00">cstdint</text>
</a>
</g>
</g>
<!-- Node5&#45;&gt;Node6 -->
<g id="edge5_Node000005_Node000006" class="edge">
<title>Node5&#45;&gt;Node6</title>
<g id="a_edge5_Node000005_Node000006"><a xlink:title=" ">
<path fill="none" stroke="#63b8ff" d="M216.52,-58.91C197.68,-50.03 170.55,-37.26 149.53,-27.35"/>
<polygon fill="#63b8ff" stroke="#63b8ff" points="150.89,-24.13 140.36,-23.03 147.91,-30.46 150.89,-24.13"/>
</a>
</g>
</g>
<!-- Node7 -->
<g id="Node000007" class="node">
<title>Node7</title>
<g id="a_Node000007"><a xlink:title=" ">
<polygon fill="#e0e0e0" stroke="#999999" points="235.5,-23 164.5,-23 164.5,0 235.5,0 235.5,-23"/>
<text text-anchor="middle" x="200" y="-7.8" font-family="Arial" font-size="14.00">concepts</text>
</a>
</g>
</g>
<!-- Node5&#45;&gt;Node7 -->
<g id="edge6_Node000005_Node000007" class="edge">
<title>Node5&#45;&gt;Node7</title>
<g id="a_edge6_Node000005_Node000007"><a xlink:title=" ">
<path fill="none" stroke="#63b8ff" d="M231.66,-58.78C226.43,-51.14 219.26,-40.65 213.07,-31.6"/>
<polygon fill="#63b8ff" stroke="#63b8ff" points="215.84,-29.45 207.3,-23.17 210.06,-33.4 215.84,-29.45"/>
</a>
</g>
</g>
<!-- Node8 -->
<g id="Node000008" class="node">
<title>Node8</title>
<g id="a_Node000008"><a xlink:title=" ">
<polygon fill="#e0e0e0" stroke="#999999" points="300,-23 254,-23 254,0 300,0 300,-23"/>
<text text-anchor="middle" x="277" y="-7.8" font-family="Arial" font-size="14.00">span</text>
</a>
</g>
</g>
<!-- Node5&#45;&gt;Node8 -->
<g id="edge7_Node000005_Node000008" class="edge">
<title>Node5&#45;&gt;Node8</title>
<g id="a_edge7_Node000005_Node000008"><a xlink:title=" ">
<path fill="none" stroke="#63b8ff" d="M246.15,-58.78C251.24,-51.14 258.23,-40.65 264.27,-31.6"/>
<polygon fill="#63b8ff" stroke="#63b8ff" points="267.25,-33.44 269.88,-23.17 261.43,-29.55 267.25,-33.44"/>
</a>
</g>
</g>
<!-- Node9 -->
<g id="Node000009" class="node">
<title>Node9</title>
<g id="a_Node000009"><a xlink:title=" ">
<polygon fill="#e0e0e0" stroke="#999999" points="389.5,-23 318.5,-23 318.5,0 389.5,0 389.5,-23"/>
<text text-anchor="middle" x="354" y="-7.8" font-family="Arial" font-size="14.00">expected</text>
</a>
</g>
</g>
<!-- Node5&#45;&gt;Node9 -->
<g id="edge8_Node000005_Node000009" class="edge">
<title>Node5&#45;&gt;Node9</title>
<g id="a_edge8_Node000005_Node000009"><a xlink:title=" ">
<path fill="none" stroke="#63b8ff" d="M260.36,-58.91C278.19,-50.07 303.82,-37.37 323.76,-27.49"/>
<polygon fill="#63b8ff" stroke="#63b8ff" points="325.35,-30.61 332.75,-23.03 322.24,-24.34 325.35,-30.61"/>
</a>
</g>
</g>
</g>
</svg>
