<?xml version="1.0" encoding="UTF-8" standalone="no"?>
<!DOCTYPE svg PUBLIC "-//W3C//DTD SVG 1.1//EN"
 "http://www.w3.org/Graphics/SVG/1.1/DTD/svg11.dtd">
<!-- Generated by graphviz version 2.43.0 (0)
 -->
<!-- Title: src/TLE92466ED.cpp Pages: 1 -->
<svg width="476pt" height="208pt"
 viewBox="0.00 0.00 475.50 208.00" xmlns="http://www.w3.org/2000/svg" xmlns:xlink="http://www.w3.org/1999/xlink">

<svg id="main" version="1.1" xmlns="http://www.w3.org/2000/svg" xmlns:xlink="http://www.w3.org/1999/xlink" xml:space="preserve" onload="init(evt)">
<style type="text/css"><![CDATA[
.node, .edge {opacity: 0.7;}
.node.selected, .edge.selected {opacity: 1;}
.edge:hover path { stroke: red; }
.edge:hover polygon { stroke: red; fill: red; }
]]></style>
<script type="application/ecmascript" xlink:href="svg.min.js"/>
<svg id="graph" class="graph">
<g id="graph0" class="graph" transform="scale(1 1) rotate(0) translate(4 204)">
<title>src/TLE92466ED.cpp</title>
<!-- Node1 -->
<g id="Node000001" class="node">
<title>Node1</title>
<g id="a_Node000001"><a xlink:title="Implementation of TLE92466ED driver class.">
<polygon fill="#999999" stroke="#666666" points="410.5,-200 265.5,-200 265.5,-177 410.5,-177 410.5,-200"/>
<text text-anchor="middle" x="338" y="-184.8" font-family="Arial" font-size="14.00">src/TLE92466ED.cpp</text>
</a>
</g>
</g>
<!-- Node2 -->
<g id="Node000002" class="node">
<title>Node2</title>
<g id="a_Node000002"><a xlink:href="TLE92466ED_8hpp.html" target="_top" xlink:title="Main driver class for TLE92466ED Six&#45;Channel Low&#45;Side Solenoid Driver IC.">
<polygon fill="white" stroke="#666666" points="400,-141 276,-141 276,-118 400,-118 400,-141"/>
<text text-anchor="middle" x="338" y="-125.8" font-family="Arial" font-size="14.00">TLE92466ED.hpp</text>
</a>
</g>
</g>
<!-- Node1&#45;&gt;Node2 -->
<g id="edge1_Node000001_Node000002" class="edge">
<title>Node1&#45;&gt;Node2</title>
<g id="a_edge1_Node000001_Node000002"><a xlink:title=" ">
<path fill="none" stroke="#63b8ff" d="M338,-176.78C338,-169.61 338,-159.95 338,-151.31"/>
<polygon fill="#63b8ff" stroke="#63b8ff" points="341.5,-151.17 338,-141.17 334.5,-151.17 341.5,-151.17"/>
</a>
</g>
</g>
<!-- Node3 -->
<g id="Node000003" class="node">
<title>Node3</title>
<g id="a_Node000003"><a xlink:href="TLE92466ED__HAL_8hpp.html" target="_top" xlink:title="Hardware Abstraction Layer (HAL) base class for TLE92466ED driver.">
<polygon fill="white" stroke="#666666" points="364,-82 206,-82 206,-59 364,-59 364,-82"/>
<text text-anchor="middle" x="285" y="-66.8" font-family="Arial" font-size="14.00">TLE92466ED_HAL.hpp</text>
</a>
</g>
</g>
<!-- Node2&#45;&gt;Node3 -->
<g id="edge2_Node000002_Node000003" class="edge">
<title>Node2&#45;&gt;Node3</title>
<g id="a_edge2_Node000002_Node000003"><a xlink:title=" ">
<path fill="none" stroke="#63b8ff" d="M328.03,-117.78C320.7,-109.9 310.57,-98.99 301.97,-89.75"/>
<polygon fill="#63b8ff" stroke="#63b8ff" points="304.3,-87.11 294.92,-82.17 299.17,-91.88 304.3,-87.11"/>
</a>
</g>
</g>
<!-- Node7 -->
<g id="Node000007" class="node">
<title>Node7</title>
<g id="a_Node000007"><a xlink:title=" ">
<polygon fill="#e0e0e0" stroke="#999999" points="419.5,-23 348.5,-23 348.5,0 419.5,0 419.5,-23"/>
<text text-anchor="middle" x="384" y="-7.8" font-family="Arial" font-size="14.00">expected</text>
</a>
</g>
</g>
<!-- Node2&#45;&gt;Node7 -->
<g id="edge9_Node000002_Node000007" class="edge">
<title>Node2&#45;&gt;Node7</title>
<g id="a_edge9_Node000002_Node000007"><a xlink:title=" ">
<path fill="none" stroke="#63b8ff" d="M348.64,-117.64C356.67,-108.8 367.24,-95.58 373,-82 379.55,-66.56 382.24,-47.69 383.32,-33.51"/>
<polygon fill="#63b8ff" stroke="#63b8ff" points="386.83,-33.48 383.89,-23.3 379.84,-33.09 386.83,-33.48"/>
</a>
</g>
</g>
<!-- Node8 -->
<g id="Node000008" class="node">
<title>Node8</title>
<g id="a_Node000008"><a xlink:href="TLE92466ED__Registers_8hpp.html" target="_top" xlink:title="Register definitions and bit field mappings for TLE92466ED IC.">
<polygon fill="white" stroke="#666666" points="188,-82 0,-82 0,-59 188,-59 188,-82"/>
<text text-anchor="middle" x="94" y="-66.8" font-family="Arial" font-size="14.00">TLE92466ED_Registers.hpp</text>
</a>
</g>
</g>
<!-- Node2&#45;&gt;Node8 -->
<g id="edge7_Node000002_Node000008" class="edge">
<title>Node2&#45;&gt;Node8</title>
<g id="a_edge7_Node000002_Node000008"><a xlink:title=" ">
<path fill="none" stroke="#63b8ff" d="M292.96,-117.98C252.34,-108.49 192.47,-94.5 149.02,-84.35"/>
<polygon fill="#63b8ff" stroke="#63b8ff" points="149.72,-80.92 139.19,-82.06 148.13,-87.74 149.72,-80.92"/>
</a>
</g>
</g>
<!-- Node9 -->
<g id="Node000009" class="node">
<title>Node9</title>
<g id="a_Node000009"><a xlink:title=" ">
<polygon fill="#e0e0e0" stroke="#999999" points="467.5,-82 420.5,-82 420.5,-59 467.5,-59 467.5,-82"/>
<text text-anchor="middle" x="444" y="-66.8" font-family="Arial" font-size="14.00">array</text>
</a>
</g>
</g>
<!-- Node2&#45;&gt;Node9 -->
<g id="edge10_Node000002_Node000009" class="edge">
<title>Node2&#45;&gt;Node9</title>
<g id="a_edge10_Node000002_Node000009"><a xlink:title=" ">
<path fill="none" stroke="#63b8ff" d="M357.94,-117.78C374.08,-109.1 397.02,-96.76 415.16,-87.01"/>
<polygon fill="#63b8ff" stroke="#63b8ff" points="417,-89.99 424.15,-82.17 413.69,-83.83 417,-89.99"/>
</a>
</g>
</g>
<!-- Node4 -->
<g id="Node000004" class="node">
<title>Node4</title>
<g id="a_Node000004"><a xlink:title=" ">
<polygon fill="#e0e0e0" stroke="#999999" points="145,-23 89,-23 89,0 145,0 145,-23"/>
<text text-anchor="middle" x="117" y="-7.8" font-family="Arial" font-size="14.00">cstdint</text>
</a>
</g>
</g>
<!-- Node3&#45;&gt;Node4 -->
<g id="edge3_Node000003_Node000004" class="edge">
<title>Node3&#45;&gt;Node4</title>
<g id="a_edge3_Node000003_Node000004"><a xlink:title=" ">
<path fill="none" stroke="#63b8ff" d="M253.79,-58.91C225.83,-49.42 184.74,-35.48 154.9,-25.36"/>
<polygon fill="#63b8ff" stroke="#63b8ff" points="155.84,-21.98 145.24,-22.08 153.59,-28.61 155.84,-21.98"/>
</a>
</g>
</g>
<!-- Node5 -->
<g id="Node000005" class="node">
<title>Node5</title>
<g id="a_Node000005"><a xlink:title=" ">
<polygon fill="#e0e0e0" stroke="#999999" points="250.5,-23 179.5,-23 179.5,0 250.5,0 250.5,-23"/>
<text text-anchor="middle" x="215" y="-7.8" font-family="Arial" font-size="14.00">concepts</text>
</a>
</g>
</g>
<!-- Node3&#45;&gt;Node5 -->
<g id="edge4_Node000003_Node000005" class="edge">
<title>Node3&#45;&gt;Node5</title>
<g id="a_edge4_Node000003_Node000005"><a xlink:title=" ">
<path fill="none" stroke="#63b8ff" d="M271.83,-58.78C261.76,-50.58 247.68,-39.11 236.05,-29.64"/>
<polygon fill="#63b8ff" stroke="#63b8ff" points="238.07,-26.77 228.11,-23.17 233.65,-32.2 238.07,-26.77"/>
</a>
</g>
</g>
<!-- Node6 -->
<g id="Node000006" class="node">
<title>Node6</title>
<g id="a_Node000006"><a xlink:title=" ">
<polygon fill="#e0e0e0" stroke="#999999" points="315,-23 269,-23 269,0 315,0 315,-23"/>
<text text-anchor="middle" x="292" y="-7.8" font-family="Arial" font-size="14.00">span</text>
</a>
</g>
</g>
<!-- Node3&#45;&gt;Node6 -->
<g id="edge5_Node000003_Node000006" class="edge">
<title>Node3&#45;&gt;Node6</title>
<g id="a_edge5_Node000003_Node000006"><a xlink:title=" ">
<path fill="none" stroke="#63b8ff" d="M286.32,-58.78C287.2,-51.61 288.38,-41.95 289.44,-33.31"/>
<polygon fill="#63b8ff" stroke="#63b8ff" points="292.94,-33.53 290.69,-23.17 286,-32.67 292.94,-33.53"/>
</a>
</g>
</g>
<!-- Node3&#45;&gt;Node7 -->
<g id="edge6_Node000003_Node000007" class="edge">
<title>Node3&#45;&gt;Node7</title>
<g id="a_edge6_Node000003_Node000007"><a xlink:title=" ">
<path fill="none" stroke="#63b8ff" d="M303.62,-58.78C318.56,-50.18 339.73,-37.99 356.6,-28.28"/>
<polygon fill="#63b8ff" stroke="#63b8ff" points="358.54,-31.2 365.46,-23.17 355.05,-25.13 358.54,-31.2"/>
</a>
</g>
</g>
<!-- Node8&#45;&gt;Node4 -->
<g id="edge8_Node000008_Node000004" class="edge">
<title>Node8&#45;&gt;Node4</title>
<g id="a_edge8_Node000008_Node000004"><a xlink:title=" ">
<path fill="none" stroke="#63b8ff" d="M98.33,-58.78C101.31,-51.37 105.38,-41.3 108.95,-32.45"/>
<polygon fill="#63b8ff" stroke="#63b8ff" points="112.2,-33.76 112.69,-23.17 105.71,-31.14 112.2,-33.76"/>
</a>
</g>
</g>
</g>
</svg>
</svg>

<style type='text/css'>
<![CDATA[
[data-mouse-over-selected='false'] { opacity: 0.7; }
[data-mouse-over-selected='true']  { opacity: 1.0; }
]]>
</style>
<script type="application/ecmascript"><![CDATA[
document.addEventListener('DOMContentLoaded', (event) => {
  highlightEdges();
  highlightAdjacentNodes();
});
]]></script>
</svg>
