<?xml version="1.0" encoding="UTF-8" standalone="no"?>
<!DOCTYPE svg PUBLIC "-//W3C//DTD SVG 1.1//EN"
 "http://www.w3.org/Graphics/SVG/1.1/DTD/svg11.dtd">
<!-- Generated by graphviz version 2.43.0 (0)
 -->
<!-- Title: Arduino_HAL Pages: 1 -->
<svg width="322pt" height="105pt"
 viewBox="0.00 0.00 322.00 105.00" xmlns="http://www.w3.org/2000/svg" xmlns:xlink="http://www.w3.org/1999/xlink">
<g id="graph0" class="graph" transform="scale(1 1) rotate(0) translate(4 101)">
<title>Arduino_HAL</title>
<!-- Node1 -->
<g id="Node000001" class="node">
<title>Node1</title>
<g id="a_Node000001"><a xlink:title="Arduino implementation of TLE92466ED HAL interface.">
<polygon fill="#999999" stroke="#666666" points="197,-23 100,-23 100,0 197,0 197,-23"/>
<text text-anchor="middle" x="148.5" y="-7.8" font-family="Arial" font-size="14.00">Arduino_HAL</text>
</a>
</g>
</g>
<!-- Node2 -->
<g id="Node000002" class="node">
<title>Node2</title>
<g id="a_Node000002"><a xlink:title=" ">
<polygon fill="white" stroke="#666666" points="131,-97 0,-97 0,-74 131,-74 131,-97"/>
<text text-anchor="middle" x="65.5" y="-81.8" font-family="Arial" font-size="14.00">TLE92466ED_HAL</text>
</a>
</g>
</g>
<!-- Node2&#45;&gt;Node1 -->
<g id="edge1_Node000001_Node000002" class="edge">
<title>Node2&#45;&gt;Node1</title>
<g id="a_edge1_Node000001_Node000002"><a xlink:title=" ">
<path fill="none" stroke="#63b8ff" d="M85.41,-67.23C101.22,-53.51 122.82,-34.78 136.2,-23.17"/>
<polygon fill="#63b8ff" stroke="#63b8ff" points="83.01,-64.68 77.75,-73.88 87.59,-69.97 83.01,-64.68"/>
</a>
</g>
</g>
<!-- Node3 -->
<g id="Node000003" class="node">
<title>Node3</title>
<g id="a_Node000003"><a xlink:href="structArduino__HAL_1_1SPIConfig.html" target="_top" xlink:title="SPI configuration for Arduino.">
<polygon fill="white" stroke="#666666" points="314,-97 149,-97 149,-74 314,-74 314,-97"/>
<text text-anchor="middle" x="231.5" y="-81.8" font-family="Arial" font-size="14.00">Arduino_HAL::SPIConfig</text>
</a>
</g>
</g>
<!-- Node3&#45;&gt;Node1 -->
<g id="edge2_Node000001_Node000003" class="edge">
<title>Node3&#45;&gt;Node1</title>
<g id="a_edge2_Node000001_Node000003"><a xlink:title=" ">
<path fill="none" stroke="#9a32cd" stroke-dasharray="5,2" d="M211.59,-67.23C195.78,-53.51 174.18,-34.78 160.8,-23.17"/>
<polygon fill="#9a32cd" stroke="#9a32cd" points="209.41,-69.97 219.25,-73.88 213.99,-64.68 209.41,-69.97"/>
</a>
</g>
<text text-anchor="middle" x="227.5" y="-44.8" font-family="Arial" font-size="14.00" fill="grey"> m_config</text>
</g>
</g>
</svg>
