<?xml version="1.0" encoding="UTF-8" standalone="no"?>
<!DOCTYPE svg PUBLIC "-//W3C//DTD SVG 1.1//EN"
 "http://www.w3.org/Graphics/SVG/1.1/DTD/svg11.dtd">
<!-- Generated by graphviz version 2.43.0 (0)
 -->
<!-- Title: examples/esp32/main/DriverIntegrationTest.cpp Pages: 1 -->
<svg width="1409pt" height="223pt"
 viewBox="0.00 0.00 1409.00 223.00" xmlns="http://www.w3.org/2000/svg" xmlns:xlink="http://www.w3.org/1999/xlink">
<g id="graph0" class="graph" transform="scale(1 1) rotate(0) translate(4 219)">
<title>examples/esp32/main/DriverIntegrationTest.cpp</title>
<!-- Node1 -->
<g id="Node000001" class="node">
<title>Node1</title>
<g id="a_Node000001"><a xlink:title="Comprehensive Integration Test Suite for TLE92466ED Driver.">
<polygon fill="#999999" stroke="#666666" points="752.5,-215 582.5,-215 582.5,-177 752.5,-177 752.5,-215"/>
<text text-anchor="start" x="590.5" y="-199.8" font-family="Arial" font-size="14.00">examples/esp32/main</text>
<text text-anchor="middle" x="667.5" y="-184.8" font-family="Arial" font-size="14.00">/DriverIntegrationTest.cpp</text>
</a>
</g>
</g>
<!-- Node2 -->
<g id="Node000002" class="node">
<title>Node2</title>
<g id="a_Node000002"><a xlink:title=" ">
<polygon fill="#e0e0e0" stroke="#999999" points="259.5,-141 203.5,-141 203.5,-118 259.5,-118 259.5,-141"/>
<text text-anchor="middle" x="231.5" y="-125.8" font-family="Arial" font-size="14.00">stdio.h</text>
</a>
</g>
</g>
<!-- Node1&#45;&gt;Node2 -->
<g id="edge1_Node000001_Node000002" class="edge">
<title>Node1&#45;&gt;Node2</title>
<g id="a_edge1_Node000001_Node000002"><a xlink:title=" ">
<path fill="none" stroke="#63b8ff" d="M582.14,-186.01C502.03,-176.94 379.09,-161.37 273.5,-141 272.25,-140.76 270.99,-140.51 269.72,-140.24"/>
<polygon fill="#63b8ff" stroke="#63b8ff" points="270.4,-136.81 259.87,-138.04 268.87,-143.64 270.4,-136.81"/>
</a>
</g>
</g>
<!-- Node3 -->
<g id="Node000003" class="node">
<title>Node3</title>
<g id="a_Node000003"><a xlink:title=" ">
<polygon fill="#e0e0e0" stroke="#999999" points="1401,-82 1334,-82 1334,-59 1401,-59 1401,-82"/>
<text text-anchor="middle" x="1367.5" y="-66.8" font-family="Arial" font-size="14.00">memory</text>
</a>
</g>
</g>
<!-- Node1&#45;&gt;Node3 -->
<g id="edge2_Node000001_Node000003" class="edge">
<title>Node1&#45;&gt;Node3</title>
<g id="a_edge2_Node000001_Node000003"><a xlink:title=" ">
<path fill="none" stroke="#63b8ff" d="M735.82,-176.96C767.11,-167.74 804.31,-155.41 836.5,-141 854.87,-132.78 856.31,-124.07 875.5,-118 1063.62,-58.5 1125.45,-112.58 1323.52,-82.08"/>
<polygon fill="#63b8ff" stroke="#63b8ff" points="1324.35,-85.5 1333.67,-80.47 1323.25,-78.58 1324.35,-85.5"/>
</a>
</g>
</g>
<!-- Node4 -->
<g id="Node000004" class="node">
<title>Node4</title>
<g id="a_Node000004"><a xlink:title=" ">
<polygon fill="#e0e0e0" stroke="#999999" points="931,-141 884,-141 884,-118 931,-118 931,-141"/>
<text text-anchor="middle" x="907.5" y="-125.8" font-family="Arial" font-size="14.00">array</text>
</a>
</g>
</g>
<!-- Node1&#45;&gt;Node4 -->
<g id="edge3_Node000001_Node000004" class="edge">
<title>Node1&#45;&gt;Node4</title>
<g id="a_edge3_Node000001_Node000004"><a xlink:title=" ">
<path fill="none" stroke="#63b8ff" d="M735.79,-176.9C774.95,-166.48 825.01,-153.09 869.5,-141 870.94,-140.61 872.42,-140.21 873.91,-139.8"/>
<polygon fill="#63b8ff" stroke="#63b8ff" points="875.08,-143.11 883.79,-137.08 873.22,-136.36 875.08,-143.11"/>
</a>
</g>
</g>
<!-- Node5 -->
<g id="Node000005" class="node">
<title>Node5</title>
<g id="a_Node000005"><a xlink:title=" ">
<polygon fill="#e0e0e0" stroke="#999999" points="143,-82 0,-82 0,-59 143,-59 143,-82"/>
<text text-anchor="middle" x="71.5" y="-66.8" font-family="Arial" font-size="14.00">freertos/FreeRTOS.h</text>
</a>
</g>
</g>
<!-- Node1&#45;&gt;Node5 -->
<g id="edge4_Node000001_Node000005" class="edge">
<title>Node1&#45;&gt;Node5</title>
<g id="a_edge4_Node000001_Node000005"><a xlink:title=" ">
<path fill="none" stroke="#63b8ff" d="M582.17,-193.42C506.11,-189.48 393,-177.29 301.5,-141 284.88,-134.41 284.82,-125.29 268.5,-118 232.28,-101.82 189.7,-90.86 153.41,-83.67"/>
<polygon fill="#63b8ff" stroke="#63b8ff" points="153.83,-80.19 143.35,-81.75 152.51,-87.07 153.83,-80.19"/>
</a>
</g>
</g>
<!-- Node6 -->
<g id="Node000006" class="node">
<title>Node6</title>
<g id="a_Node000006"><a xlink:title=" ">
<polygon fill="#e0e0e0" stroke="#999999" points="263.5,-82 161.5,-82 161.5,-59 263.5,-59 263.5,-82"/>
<text text-anchor="middle" x="212.5" y="-66.8" font-family="Arial" font-size="14.00">freertos/task.h</text>
</a>
</g>
</g>
<!-- Node1&#45;&gt;Node6 -->
<g id="edge5_Node000001_Node000006" class="edge">
<title>Node1&#45;&gt;Node6</title>
<g id="a_edge5_Node000001_Node000006"><a xlink:title=" ">
<path fill="none" stroke="#63b8ff" d="M582.34,-188.38C516.11,-181.43 422.67,-167.64 344.5,-141 323.99,-134.01 320.66,-128.13 301.5,-118 281.73,-107.55 259.44,-95.9 242.1,-86.88"/>
<polygon fill="#63b8ff" stroke="#63b8ff" points="243.52,-83.67 233.03,-82.16 240.29,-89.88 243.52,-83.67"/>
</a>
</g>
</g>
<!-- Node7 -->
<g id="Node000007" class="node">
<title>Node7</title>
<g id="a_Node000007"><a xlink:title=" ">
<polygon fill="#e0e0e0" stroke="#999999" points="711,-82 636,-82 636,-59 711,-59 711,-82"/>
<text text-anchor="middle" x="673.5" y="-66.8" font-family="Arial" font-size="14.00">esp_log.h</text>
</a>
</g>
</g>
<!-- Node1&#45;&gt;Node7 -->
<g id="edge6_Node000001_Node000007" class="edge">
<title>Node1&#45;&gt;Node7</title>
<g id="a_edge6_Node000001_Node000007"><a xlink:title=" ">
<path fill="none" stroke="#63b8ff" d="M646.52,-176.88C631.54,-161.61 615.49,-138.96 624.5,-118 629.51,-106.33 639.05,-96.22 648.39,-88.43"/>
<polygon fill="#63b8ff" stroke="#63b8ff" points="650.67,-91.09 656.43,-82.2 646.38,-85.56 650.67,-91.09"/>
</a>
</g>
</g>
<!-- Node8 -->
<g id="Node000008" class="node">
<title>Node8</title>
<g id="a_Node000008"><a xlink:title=" ">
<polygon fill="#e0e0e0" stroke="#999999" points="1050,-141 949,-141 949,-118 1050,-118 1050,-141"/>
<text text-anchor="middle" x="999.5" y="-125.8" font-family="Arial" font-size="14.00">esp_system.h</text>
</a>
</g>
</g>
<!-- Node1&#45;&gt;Node8 -->
<g id="edge7_Node000001_Node000008" class="edge">
<title>Node1&#45;&gt;Node8</title>
<g id="a_edge7_Node000001_Node000008"><a xlink:title=" ">
<path fill="none" stroke="#63b8ff" d="M752.57,-178.47C810.74,-167.17 886.48,-152.46 938.66,-142.32"/>
<polygon fill="#63b8ff" stroke="#63b8ff" points="939.62,-145.7 948.77,-140.36 938.28,-138.83 939.62,-145.7"/>
</a>
</g>
</g>
<!-- Node9 -->
<g id="Node000009" class="node">
<title>Node9</title>
<g id="a_Node000009"><a xlink:title=" ">
<polygon fill="#e0e0e0" stroke="#999999" points="1192.5,-141 1068.5,-141 1068.5,-118 1192.5,-118 1192.5,-141"/>
<text text-anchor="middle" x="1130.5" y="-125.8" font-family="Arial" font-size="14.00">TLE92466ED.hpp</text>
</a>
</g>
</g>
<!-- Node1&#45;&gt;Node9 -->
<g id="edge8_Node000001_Node000009" class="edge">
<title>Node1&#45;&gt;Node9</title>
<g id="a_edge8_Node000001_Node000009"><a xlink:title=" ">
<path fill="none" stroke="#63b8ff" d="M752.8,-183.5C829.9,-173.04 946.82,-157.05 1058.11,-141.19"/>
<polygon fill="#63b8ff" stroke="#63b8ff" points="1058.76,-144.63 1068.17,-139.75 1057.77,-137.7 1058.76,-144.63"/>
</a>
</g>
</g>
<!-- Node10 -->
<g id="Node000010" class="node">
<title>Node10</title>
<g id="a_Node000010"><a xlink:href="Esp32TleCommInterface_8hpp.html" target="_top" xlink:title="ESP32 Communication Interface implementation for TLE92466ED driver.">
<polygon fill="white" stroke="#666666" points="827.5,-141 633.5,-141 633.5,-118 827.5,-118 827.5,-141"/>
<text text-anchor="middle" x="730.5" y="-125.8" font-family="Arial" font-size="14.00">Esp32TleCommInterface.hpp</text>
</a>
</g>
</g>
<!-- Node1&#45;&gt;Node10 -->
<g id="edge9_Node000001_Node000010" class="edge">
<title>Node1&#45;&gt;Node10</title>
<g id="a_edge9_Node000001_Node000010"><a xlink:title=" ">
<path fill="none" stroke="#63b8ff" d="M685.38,-176.69C694.05,-167.82 704.42,-157.2 713.03,-148.39"/>
<polygon fill="#63b8ff" stroke="#63b8ff" points="715.57,-150.79 720.06,-141.19 710.57,-145.9 715.57,-150.79"/>
</a>
</g>
</g>
<!-- Node17 -->
<g id="Node000017" class="node">
<title>Node17</title>
<g id="a_Node000017"><a xlink:href="TLE92466ED__TestFramework_8hpp.html" target="_top" xlink:title="Testing framework for TLE92466ED driver examples on ESP32&#45;C6.">
<polygon fill="white" stroke="#666666" points="577.5,-141 353.5,-141 353.5,-118 577.5,-118 577.5,-141"/>
<text text-anchor="middle" x="465.5" y="-125.8" font-family="Arial" font-size="14.00">TLE92466ED_TestFramework.hpp</text>
</a>
</g>
</g>
<!-- Node1&#45;&gt;Node17 -->
<g id="edge18_Node000001_Node000017" class="edge">
<title>Node1&#45;&gt;Node17</title>
<g id="a_edge18_Node000001_Node000017"><a xlink:title=" ">
<path fill="none" stroke="#63b8ff" d="M610.96,-176.95C578.46,-166.57 538.27,-153.74 508.38,-144.19"/>
<polygon fill="#63b8ff" stroke="#63b8ff" points="509.26,-140.8 498.66,-141.09 507.13,-147.47 509.26,-140.8"/>
</a>
</g>
</g>
<!-- Node10&#45;&gt;Node3 -->
<g id="edge17_Node000010_Node000003" class="edge">
<title>Node10&#45;&gt;Node3</title>
<g id="a_edge17_Node000010_Node000003"><a xlink:title=" ">
<path fill="none" stroke="#63b8ff" d="M827.65,-119.2C832.33,-118.78 836.97,-118.38 841.5,-118 1053.19,-100.12 1110.8,-115.79 1323.75,-82.07"/>
<polygon fill="#63b8ff" stroke="#63b8ff" points="1324.36,-85.52 1333.68,-80.48 1323.25,-78.61 1324.36,-85.52"/>
</a>
</g>
</g>
<!-- Node10&#45;&gt;Node7 -->
<g id="edge16_Node000010_Node000007" class="edge">
<title>Node10&#45;&gt;Node7</title>
<g id="a_edge16_Node000010_Node000007"><a xlink:title=" ">
<path fill="none" stroke="#63b8ff" d="M719.78,-117.78C711.82,-109.82 700.77,-98.77 691.47,-89.47"/>
<polygon fill="#63b8ff" stroke="#63b8ff" points="693.72,-86.77 684.17,-82.17 688.77,-91.72 693.72,-86.77"/>
</a>
</g>
</g>
<!-- Node11 -->
<g id="Node000011" class="node">
<title>Node11</title>
<g id="a_Node000011"><a xlink:title=" ">
<polygon fill="#e0e0e0" stroke="#999999" points="1316,-82 1091,-82 1091,-59 1316,-59 1316,-82"/>
<text text-anchor="middle" x="1203.5" y="-66.8" font-family="Arial" font-size="14.00">TLE92466ED_CommInterface.hpp</text>
</a>
</g>
</g>
<!-- Node10&#45;&gt;Node11 -->
<g id="edge10_Node000010_Node000011" class="edge">
<title>Node10&#45;&gt;Node11</title>
<g id="a_edge10_Node000010_Node000011"><a xlink:title=" ">
<path fill="none" stroke="#63b8ff" d="M817.81,-117.98C899.5,-108.13 1021.35,-93.45 1106.15,-83.23"/>
<polygon fill="#63b8ff" stroke="#63b8ff" points="1106.79,-86.68 1116.3,-82.01 1105.96,-79.73 1106.79,-86.68"/>
</a>
</g>
</g>
<!-- Node12 -->
<g id="Node000012" class="node">
<title>Node12</title>
<g id="a_Node000012"><a xlink:href="TLE92466ED__TestConfig_8hpp.html" target="_top" xlink:title="Hardware configuration for TLE92466ED driver on ESP32&#45;C6.">
<polygon fill="white" stroke="#666666" points="924,-82 729,-82 729,-59 924,-59 924,-82"/>
<text text-anchor="middle" x="826.5" y="-66.8" font-family="Arial" font-size="14.00">TLE92466ED_TestConfig.hpp</text>
</a>
</g>
</g>
<!-- Node10&#45;&gt;Node12 -->
<g id="edge11_Node000010_Node000012" class="edge">
<title>Node10&#45;&gt;Node12</title>
<g id="a_edge11_Node000010_Node000012"><a xlink:title=" ">
<path fill="none" stroke="#63b8ff" d="M748.56,-117.78C762.9,-109.26 783.19,-97.21 799.48,-87.55"/>
<polygon fill="#63b8ff" stroke="#63b8ff" points="801.71,-90.29 808.52,-82.17 798.14,-84.27 801.71,-90.29"/>
</a>
</g>
</g>
<!-- Node14 -->
<g id="Node000014" class="node">
<title>Node14</title>
<g id="a_Node000014"><a xlink:title=" ">
<polygon fill="#e0e0e0" stroke="#999999" points="1073,-82 942,-82 942,-59 1073,-59 1073,-82"/>
<text text-anchor="middle" x="1007.5" y="-66.8" font-family="Arial" font-size="14.00">driver/spi_master.h</text>
</a>
</g>
</g>
<!-- Node10&#45;&gt;Node14 -->
<g id="edge13_Node000010_Node000014" class="edge">
<title>Node10&#45;&gt;Node14</title>
<g id="a_edge13_Node000010_Node000014"><a xlink:title=" ">
<path fill="none" stroke="#63b8ff" d="M781.63,-117.98C828.14,-108.41 896.86,-94.27 946.28,-84.1"/>
<polygon fill="#63b8ff" stroke="#63b8ff" points="947.11,-87.5 956.2,-82.06 945.7,-80.64 947.11,-87.5"/>
</a>
</g>
</g>
<!-- Node15 -->
<g id="Node000015" class="node">
<title>Node15</title>
<g id="a_Node000015"><a xlink:title=" ">
<polygon fill="#e0e0e0" stroke="#999999" points="618,-82 527,-82 527,-59 618,-59 618,-82"/>
<text text-anchor="middle" x="572.5" y="-66.8" font-family="Arial" font-size="14.00">driver/gpio.h</text>
</a>
</g>
</g>
<!-- Node10&#45;&gt;Node15 -->
<g id="edge14_Node000010_Node000015" class="edge">
<title>Node10&#45;&gt;Node15</title>
<g id="a_edge14_Node000010_Node000015"><a xlink:title=" ">
<path fill="none" stroke="#63b8ff" d="M701.15,-117.91C675.77,-108.75 638.88,-95.45 611.1,-85.43"/>
<polygon fill="#63b8ff" stroke="#63b8ff" points="612.29,-82.13 601.69,-82.03 609.91,-88.72 612.29,-82.13"/>
</a>
</g>
</g>
<!-- Node16 -->
<g id="Node000016" class="node">
<title>Node16</title>
<g id="a_Node000016"><a xlink:title=" ">
<polygon fill="#e0e0e0" stroke="#999999" points="509,-82 422,-82 422,-59 509,-59 509,-82"/>
<text text-anchor="middle" x="465.5" y="-66.8" font-family="Arial" font-size="14.00">esp_timer.h</text>
</a>
</g>
</g>
<!-- Node10&#45;&gt;Node16 -->
<g id="edge15_Node000010_Node000016" class="edge">
<title>Node10&#45;&gt;Node16</title>
<g id="a_edge15_Node000010_Node000016"><a xlink:title=" ">
<path fill="none" stroke="#63b8ff" d="M681.59,-117.98C635.51,-108.07 566.65,-93.26 519.1,-83.03"/>
<polygon fill="#63b8ff" stroke="#63b8ff" points="519.81,-79.6 509.29,-80.92 518.33,-86.44 519.81,-79.6"/>
</a>
</g>
</g>
<!-- Node13 -->
<g id="Node000013" class="node">
<title>Node13</title>
<g id="a_Node000013"><a xlink:title=" ">
<polygon fill="#e0e0e0" stroke="#999999" points="854.5,-23 798.5,-23 798.5,0 854.5,0 854.5,-23"/>
<text text-anchor="middle" x="826.5" y="-7.8" font-family="Arial" font-size="14.00">cstdint</text>
</a>
</g>
</g>
<!-- Node12&#45;&gt;Node13 -->
<g id="edge12_Node000012_Node000013" class="edge">
<title>Node12&#45;&gt;Node13</title>
<g id="a_edge12_Node000012_Node000013"><a xlink:title=" ">
<path fill="none" stroke="#63b8ff" d="M826.5,-58.78C826.5,-51.61 826.5,-41.95 826.5,-33.31"/>
<polygon fill="#63b8ff" stroke="#63b8ff" points="830,-33.17 826.5,-23.17 823,-33.17 830,-33.17"/>
</a>
</g>
</g>
<!-- Node17&#45;&gt;Node5 -->
<g id="edge21_Node000017_Node000005" class="edge">
<title>Node17&#45;&gt;Node5</title>
<g id="a_edge21_Node000017_Node000005"><a xlink:title=" ">
<path fill="none" stroke="#63b8ff" d="M392.78,-117.98C324.96,-108.17 223.93,-93.55 153.32,-83.34"/>
<polygon fill="#63b8ff" stroke="#63b8ff" points="153.53,-79.83 143.14,-81.86 152.53,-86.76 153.53,-79.83"/>
</a>
</g>
</g>
<!-- Node17&#45;&gt;Node6 -->
<g id="edge22_Node000017_Node000006" class="edge">
<title>Node17&#45;&gt;Node6</title>
<g id="a_edge22_Node000017_Node000006"><a xlink:title=" ">
<path fill="none" stroke="#63b8ff" d="M418.8,-117.98C376.59,-108.47 314.34,-94.44 269.27,-84.29"/>
<polygon fill="#63b8ff" stroke="#63b8ff" points="269.88,-80.84 259.35,-82.06 268.34,-87.67 269.88,-80.84"/>
</a>
</g>
</g>
<!-- Node17&#45;&gt;Node7 -->
<g id="edge19_Node000017_Node000007" class="edge">
<title>Node17&#45;&gt;Node7</title>
<g id="a_edge19_Node000017_Node000007"><a xlink:title=" ">
<path fill="none" stroke="#63b8ff" d="M504.14,-117.91C538.5,-108.5 588.88,-94.69 625.75,-84.58"/>
<polygon fill="#63b8ff" stroke="#63b8ff" points="627.05,-87.86 635.77,-81.84 625.2,-81.11 627.05,-87.86"/>
</a>
</g>
</g>
<!-- Node17&#45;&gt;Node15 -->
<g id="edge24_Node000017_Node000015" class="edge">
<title>Node17&#45;&gt;Node15</title>
<g id="a_edge24_Node000017_Node000015"><a xlink:title=" ">
<path fill="none" stroke="#63b8ff" d="M485.38,-117.91C501.82,-109.15 525.38,-96.6 543.86,-86.76"/>
<polygon fill="#63b8ff" stroke="#63b8ff" points="545.55,-89.82 552.73,-82.03 542.26,-83.64 545.55,-89.82"/>
</a>
</g>
</g>
<!-- Node17&#45;&gt;Node16 -->
<g id="edge20_Node000017_Node000016" class="edge">
<title>Node17&#45;&gt;Node16</title>
<g id="a_edge20_Node000017_Node000016"><a xlink:title=" ">
<path fill="none" stroke="#63b8ff" d="M465.5,-117.78C465.5,-110.61 465.5,-100.95 465.5,-92.31"/>
<polygon fill="#63b8ff" stroke="#63b8ff" points="469,-92.17 465.5,-82.17 462,-92.17 469,-92.17"/>
</a>
</g>
</g>
<!-- Node18 -->
<g id="Node000018" class="node">
<title>Node18</title>
<g id="a_Node000018"><a xlink:title=" ">
<polygon fill="#e0e0e0" stroke="#999999" points="403.5,-82 281.5,-82 281.5,-59 403.5,-59 403.5,-82"/>
<text text-anchor="middle" x="342.5" y="-66.8" font-family="Arial" font-size="14.00">freertos/semphr.h</text>
</a>
</g>
</g>
<!-- Node17&#45;&gt;Node18 -->
<g id="edge23_Node000017_Node000018" class="edge">
<title>Node17&#45;&gt;Node18</title>
<g id="a_edge23_Node000017_Node000018"><a xlink:title=" ">
<path fill="none" stroke="#63b8ff" d="M442.65,-117.91C423.49,-109.03 395.92,-96.26 374.55,-86.35"/>
<polygon fill="#63b8ff" stroke="#63b8ff" points="375.77,-83.06 365.22,-82.03 372.83,-89.41 375.77,-83.06"/>
</a>
</g>
</g>
</g>
</svg>
