<?xml version="1.0" encoding="UTF-8" standalone="no"?>
<!DOCTYPE svg PUBLIC "-//W3C//DTD SVG 1.1//EN"
 "http://www.w3.org/Graphics/SVG/1.1/DTD/svg11.dtd">
<!-- Generated by graphviz version 2.43.0 (0)
 -->
<!-- Title: examples/esp32/main/esp32_tle_comm_interface.hpp Pages: 1 -->
<svg width="575pt" height="135pt"
 viewBox="0.00 0.00 575.00 135.00" xmlns="http://www.w3.org/2000/svg" xmlns:xlink="http://www.w3.org/1999/xlink">
<g id="graph0" class="graph" transform="scale(1 1) rotate(0) translate(4 131)">
<title>examples/esp32/main/esp32_tle_comm_interface.hpp</title>
<!-- Node1 -->
<g id="Node000001" class="node">
<title>Node1</title>
<g id="a_Node000001"><a xlink:title="ESP32 Communication Interface implementation for TLE92466ED driver.">
<polygon fill="#999999" stroke="#666666" points="376.5,-127 166.5,-127 166.5,-89 376.5,-89 376.5,-127"/>
<text text-anchor="start" x="174.5" y="-111.8" font-family="Arial" font-size="14.00">examples/esp32/main</text>
<text text-anchor="middle" x="271.5" y="-96.8" font-family="Arial" font-size="14.00">/esp32_tle_comm_interface.hpp</text>
</a>
</g>
</g>
<!-- Node2 -->
<g id="Node000002" class="node">
<title>Node2</title>
<g id="a_Node000002"><a xlink:href="driver__integration__test_8cpp.html" target="_top" xlink:title="Comprehensive Integration Test Suite for TLE92466ED Driver.">
<polygon fill="white" stroke="#666666" points="149,-53 0,-53 0,0 149,0 149,-53"/>
<text text-anchor="start" x="8" y="-37.8" font-family="Arial" font-size="14.00">examples/esp32/main</text>
<text text-anchor="start" x="8" y="-22.8" font-family="Arial" font-size="14.00">/driver_integration</text>
<text text-anchor="middle" x="74.5" y="-7.8" font-family="Arial" font-size="14.00">_test.cpp</text>
</a>
</g>
</g>
<!-- Node1&#45;&gt;Node2 -->
<g id="edge1_Node000001_Node000002" class="edge">
<title>Node1&#45;&gt;Node2</title>
<g id="a_edge1_Node000001_Node000002"><a xlink:title=" ">
<path fill="none" stroke="#63b8ff" d="M217.25,-85.11C192.62,-75.17 163.32,-63.34 137.7,-53"/>
<polygon fill="#63b8ff" stroke="#63b8ff" points="216.21,-88.46 226.8,-88.96 218.83,-81.97 216.21,-88.46"/>
</a>
</g>
</g>
<!-- Node3 -->
<g id="Node000003" class="node">
<title>Node3</title>
<g id="a_Node000003"><a xlink:href="esp32__tle__comm__interface_8cpp.html" target="_top" xlink:title="ESP32 Communication Interface implementation for TLE92466ED driver.">
<polygon fill="white" stroke="#666666" points="376,-45.5 167,-45.5 167,-7.5 376,-7.5 376,-45.5"/>
<text text-anchor="start" x="175" y="-30.3" font-family="Arial" font-size="14.00">examples/esp32/main</text>
<text text-anchor="middle" x="271.5" y="-15.3" font-family="Arial" font-size="14.00">/esp32_tle_comm_interface.cpp</text>
</a>
</g>
</g>
<!-- Node1&#45;&gt;Node3 -->
<g id="edge2_Node000001_Node000003" class="edge">
<title>Node1&#45;&gt;Node3</title>
<g id="a_edge2_Node000001_Node000003"><a xlink:title=" ">
<path fill="none" stroke="#63b8ff" d="M271.5,-78.92C271.5,-67.9 271.5,-55.57 271.5,-45.74"/>
<polygon fill="#63b8ff" stroke="#63b8ff" points="268,-78.96 271.5,-88.96 275,-78.96 268,-78.96"/>
</a>
</g>
</g>
<!-- Node4 -->
<g id="Node000004" class="node">
<title>Node4</title>
<g id="a_Node000004"><a xlink:href="solenoid__control__test_8cpp.html" target="_top" xlink:title="Real Hardware Solenoid Control Test with ADC&#45;Based Current Control.">
<polygon fill="white" stroke="#666666" points="567,-45.5 394,-45.5 394,-7.5 567,-7.5 567,-45.5"/>
<text text-anchor="start" x="402" y="-30.3" font-family="Arial" font-size="14.00">examples/esp32/main</text>
<text text-anchor="middle" x="480.5" y="-15.3" font-family="Arial" font-size="14.00">/solenoid_control_test.cpp</text>
</a>
</g>
</g>
<!-- Node1&#45;&gt;Node4 -->
<g id="edge3_Node000001_Node000004" class="edge">
<title>Node1&#45;&gt;Node4</title>
<g id="a_edge3_Node000001_Node000004"><a xlink:title=" ">
<path fill="none" stroke="#63b8ff" d="M328.38,-85.36C361.14,-72.9 401.84,-57.42 432.9,-45.61"/>
<polygon fill="#63b8ff" stroke="#63b8ff" points="327.03,-82.13 318.93,-88.96 329.52,-88.68 327.03,-82.13"/>
</a>
</g>
</g>
</g>
</svg>
