<?xml version="1.0" encoding="UTF-8" standalone="no"?>
<!DOCTYPE svg PUBLIC "-//W3C//DTD SVG 1.1//EN"
 "http://www.w3.org/Graphics/SVG/1.1/DTD/svg11.dtd">
<!-- Generated by graphviz version 2.43.0 (0)
 -->
<!-- Title: examples/esp32/main/esp32_tle_comm_interface.hpp Pages: 1 -->
<svg width="944pt" height="164pt"
 viewBox="0.00 0.00 943.50 164.00" xmlns="http://www.w3.org/2000/svg" xmlns:xlink="http://www.w3.org/1999/xlink">
<g id="graph0" class="graph" transform="scale(1 1) rotate(0) translate(4 160)">
<title>examples/esp32/main/esp32_tle_comm_interface.hpp</title>
<!-- Node1 -->
<g id="Node000001" class="node">
<title>Node1</title>
<g id="a_Node000001"><a xlink:title="ESP32 Communication Interface implementation for TLE92466ED driver.">
<polygon fill="#999999" stroke="#666666" points="712,-156 502,-156 502,-118 712,-118 712,-156"/>
<text text-anchor="start" x="510" y="-140.8" font-family="Arial" font-size="14.00">examples/esp32/main</text>
<text text-anchor="middle" x="607" y="-125.8" font-family="Arial" font-size="14.00">/esp32_tle_comm_interface.hpp</text>
</a>
</g>
</g>
<!-- Node2 -->
<g id="Node000002" class="node">
<title>Node2</title>
<g id="a_Node000002"><a xlink:title=" ">
<polygon fill="#e0e0e0" stroke="#999999" points="194,-82 0,-82 0,-59 194,-59 194,-82"/>
<text text-anchor="middle" x="97" y="-66.8" font-family="Arial" font-size="14.00">tle92466ed_spi_interface.hpp</text>
</a>
</g>
</g>
<!-- Node1&#45;&gt;Node2 -->
<g id="edge1_Node000001_Node000002" class="edge">
<title>Node1&#45;&gt;Node2</title>
<g id="a_edge1_Node000001_Node000002"><a xlink:title=" ">
<path fill="none" stroke="#63b8ff" d="M501.95,-122.71C410.13,-111.1 278.1,-94.4 190.04,-83.27"/>
<polygon fill="#63b8ff" stroke="#63b8ff" points="190.41,-79.79 180.05,-82 189.54,-86.73 190.41,-79.79"/>
</a>
</g>
</g>
<!-- Node3 -->
<g id="Node000003" class="node">
<title>Node3</title>
<g id="a_Node000003"><a xlink:href="tle92466ed__test__config_8hpp.html" target="_top" xlink:title="Hardware configuration for TLE92466ED driver on ESP32&#45;C6.">
<polygon fill="white" stroke="#666666" points="394,-82 212,-82 212,-59 394,-59 394,-82"/>
<text text-anchor="middle" x="303" y="-66.8" font-family="Arial" font-size="14.00">tle92466ed_test_config.hpp</text>
</a>
</g>
</g>
<!-- Node1&#45;&gt;Node3 -->
<g id="edge2_Node000001_Node000003" class="edge">
<title>Node1&#45;&gt;Node3</title>
<g id="a_edge2_Node000001_Node000003"><a xlink:title=" ">
<path fill="none" stroke="#63b8ff" d="M521.91,-117.95C471.29,-107.21 408.3,-93.84 362.9,-84.21"/>
<polygon fill="#63b8ff" stroke="#63b8ff" points="363.42,-80.74 352.91,-82.09 361.97,-87.59 363.42,-80.74"/>
</a>
</g>
</g>
<!-- Node5 -->
<g id="Node000005" class="node">
<title>Node5</title>
<g id="a_Node000005"><a xlink:title=" ">
<polygon fill="#e0e0e0" stroke="#999999" points="543.5,-82 412.5,-82 412.5,-59 543.5,-59 543.5,-82"/>
<text text-anchor="middle" x="478" y="-66.8" font-family="Arial" font-size="14.00">driver/spi_master.h</text>
</a>
</g>
</g>
<!-- Node1&#45;&gt;Node5 -->
<g id="edge4_Node000001_Node000005" class="edge">
<title>Node1&#45;&gt;Node5</title>
<g id="a_edge4_Node000001_Node000005"><a xlink:title=" ">
<path fill="none" stroke="#63b8ff" d="M570.72,-117.86C550.96,-107.98 526.79,-95.9 508.09,-86.54"/>
<polygon fill="#63b8ff" stroke="#63b8ff" points="509.63,-83.4 499.12,-82.06 506.5,-89.66 509.63,-83.4"/>
</a>
</g>
</g>
<!-- Node6 -->
<g id="Node000006" class="node">
<title>Node6</title>
<g id="a_Node000006"><a xlink:title=" ">
<polygon fill="#e0e0e0" stroke="#999999" points="652.5,-82 561.5,-82 561.5,-59 652.5,-59 652.5,-82"/>
<text text-anchor="middle" x="607" y="-66.8" font-family="Arial" font-size="14.00">driver/gpio.h</text>
</a>
</g>
</g>
<!-- Node1&#45;&gt;Node6 -->
<g id="edge5_Node000001_Node000006" class="edge">
<title>Node1&#45;&gt;Node6</title>
<g id="a_edge5_Node000001_Node000006"><a xlink:title=" ">
<path fill="none" stroke="#63b8ff" d="M607,-117.69C607,-109.8 607,-100.54 607,-92.39"/>
<polygon fill="#63b8ff" stroke="#63b8ff" points="610.5,-92.19 607,-82.19 603.5,-92.19 610.5,-92.19"/>
</a>
</g>
</g>
<!-- Node7 -->
<g id="Node000007" class="node">
<title>Node7</title>
<g id="a_Node000007"><a xlink:title=" ">
<polygon fill="#e0e0e0" stroke="#999999" points="757.5,-82 670.5,-82 670.5,-59 757.5,-59 757.5,-82"/>
<text text-anchor="middle" x="714" y="-66.8" font-family="Arial" font-size="14.00">esp_timer.h</text>
</a>
</g>
</g>
<!-- Node1&#45;&gt;Node7 -->
<g id="edge6_Node000001_Node000007" class="edge">
<title>Node1&#45;&gt;Node7</title>
<g id="a_edge6_Node000001_Node000007"><a xlink:title=" ">
<path fill="none" stroke="#63b8ff" d="M637.09,-117.86C652.96,-108.3 672.25,-96.67 687.54,-87.45"/>
<polygon fill="#63b8ff" stroke="#63b8ff" points="689.72,-90.22 696.48,-82.06 686.11,-84.23 689.72,-90.22"/>
</a>
</g>
</g>
<!-- Node8 -->
<g id="Node000008" class="node">
<title>Node8</title>
<g id="a_Node000008"><a xlink:title=" ">
<polygon fill="#e0e0e0" stroke="#999999" points="850.5,-82 775.5,-82 775.5,-59 850.5,-59 850.5,-82"/>
<text text-anchor="middle" x="813" y="-66.8" font-family="Arial" font-size="14.00">esp_log.h</text>
</a>
</g>
</g>
<!-- Node1&#45;&gt;Node8 -->
<g id="edge7_Node000001_Node000008" class="edge">
<title>Node1&#45;&gt;Node8</title>
<g id="a_edge7_Node000001_Node000008"><a xlink:title=" ">
<path fill="none" stroke="#63b8ff" d="M664.66,-117.95C697.81,-107.57 738.79,-94.74 769.27,-85.19"/>
<polygon fill="#63b8ff" stroke="#63b8ff" points="770.68,-88.42 779.18,-82.09 768.59,-81.74 770.68,-88.42"/>
</a>
</g>
</g>
<!-- Node9 -->
<g id="Node000009" class="node">
<title>Node9</title>
<g id="a_Node000009"><a xlink:title=" ">
<polygon fill="#e0e0e0" stroke="#999999" points="935.5,-82 868.5,-82 868.5,-59 935.5,-59 935.5,-82"/>
<text text-anchor="middle" x="902" y="-66.8" font-family="Arial" font-size="14.00">memory</text>
</a>
</g>
</g>
<!-- Node1&#45;&gt;Node9 -->
<g id="edge8_Node000001_Node000009" class="edge">
<title>Node1&#45;&gt;Node9</title>
<g id="a_edge8_Node000001_Node000009"><a xlink:title=" ">
<path fill="none" stroke="#63b8ff" d="M695.27,-117.94C741.38,-108.32 798.97,-96.02 858.19,-82.37"/>
<polygon fill="#63b8ff" stroke="#63b8ff" points="859.14,-85.75 868.1,-80.08 857.57,-78.93 859.14,-85.75"/>
</a>
</g>
</g>
<!-- Node4 -->
<g id="Node000004" class="node">
<title>Node4</title>
<g id="a_Node000004"><a xlink:title=" ">
<polygon fill="#e0e0e0" stroke="#999999" points="331,-23 275,-23 275,0 331,0 331,-23"/>
<text text-anchor="middle" x="303" y="-7.8" font-family="Arial" font-size="14.00">cstdint</text>
</a>
</g>
</g>
<!-- Node3&#45;&gt;Node4 -->
<g id="edge3_Node000003_Node000004" class="edge">
<title>Node3&#45;&gt;Node4</title>
<g id="a_edge3_Node000003_Node000004"><a xlink:title=" ">
<path fill="none" stroke="#63b8ff" d="M303,-58.78C303,-51.61 303,-41.95 303,-33.31"/>
<polygon fill="#63b8ff" stroke="#63b8ff" points="306.5,-33.17 303,-23.17 299.5,-33.17 306.5,-33.17"/>
</a>
</g>
</g>
</g>
</svg>
