<?xml version="1.0" encoding="UTF-8" standalone="no"?>
<!DOCTYPE svg PUBLIC "-//W3C//DTD SVG 1.1//EN"
 "http://www.w3.org/Graphics/SVG/1.1/DTD/svg11.dtd">
<!-- Generated by graphviz version 2.43.0 (0)
 -->
<!-- Title: examples/esp32/main/Esp32TleCommInterface.cpp Pages: 1 -->
<svg width="1323pt" height="223pt"
 viewBox="0.00 0.00 1323.00 223.00" xmlns="http://www.w3.org/2000/svg" xmlns:xlink="http://www.w3.org/1999/xlink">
<g id="graph0" class="graph" transform="scale(1 1) rotate(0) translate(4 219)">
<title>examples/esp32/main/Esp32TleCommInterface.cpp</title>
<!-- Node1 -->
<g id="Node000001" class="node">
<title>Node1</title>
<g id="a_Node000001"><a xlink:title="ESP32 Communication Interface implementation for TLE92466ED driver.">
<polygon fill="#999999" stroke="#666666" points="1142,-215 945,-215 945,-177 1142,-177 1142,-215"/>
<text text-anchor="start" x="953" y="-199.8" font-family="Arial" font-size="14.00">examples/esp32/main</text>
<text text-anchor="middle" x="1043.5" y="-184.8" font-family="Arial" font-size="14.00">/Esp32TleCommInterface.cpp</text>
</a>
</g>
</g>
<!-- Node2 -->
<g id="Node000002" class="node">
<title>Node2</title>
<g id="a_Node000002"><a xlink:href="Esp32TleCommInterface_8hpp.html" target="_top" xlink:title="ESP32 Communication Interface implementation for TLE92466ED driver.">
<polygon fill="white" stroke="#666666" points="747.5,-141 553.5,-141 553.5,-118 747.5,-118 747.5,-141"/>
<text text-anchor="middle" x="650.5" y="-125.8" font-family="Arial" font-size="14.00">Esp32TleCommInterface.hpp</text>
</a>
</g>
</g>
<!-- Node1&#45;&gt;Node2 -->
<g id="edge1_Node000001_Node000002" class="edge">
<title>Node1&#45;&gt;Node2</title>
<g id="a_edge1_Node000001_Node000002"><a xlink:title=" ">
<path fill="none" stroke="#63b8ff" d="M944.84,-178.81C876.56,-167.6 787.13,-152.92 724.84,-142.7"/>
<polygon fill="#63b8ff" stroke="#63b8ff" points="725.13,-139.2 714.7,-141.04 724,-146.11 725.13,-139.2"/>
</a>
</g>
</g>
<!-- Node11 -->
<g id="Node000011" class="node">
<title>Node11</title>
<g id="a_Node000011"><a xlink:title=" ">
<polygon fill="#e0e0e0" stroke="#999999" points="953.5,-141 765.5,-141 765.5,-118 953.5,-118 953.5,-141"/>
<text text-anchor="middle" x="859.5" y="-125.8" font-family="Arial" font-size="14.00">TLE92466ED_Registers.hpp</text>
</a>
</g>
</g>
<!-- Node1&#45;&gt;Node11 -->
<g id="edge10_Node000001_Node000011" class="edge">
<title>Node1&#45;&gt;Node11</title>
<g id="a_edge10_Node000001_Node000011"><a xlink:title=" ">
<path fill="none" stroke="#63b8ff" d="M991.76,-176.86C962.41,-166.57 926.25,-153.9 899.17,-144.41"/>
<polygon fill="#63b8ff" stroke="#63b8ff" points="900.22,-141.07 889.63,-141.06 897.91,-147.67 900.22,-141.07"/>
</a>
</g>
</g>
<!-- Node12 -->
<g id="Node000012" class="node">
<title>Node12</title>
<g id="a_Node000012"><a xlink:title=" ">
<polygon fill="#e0e0e0" stroke="#999999" points="1115,-141 972,-141 972,-118 1115,-118 1115,-141"/>
<text text-anchor="middle" x="1043.5" y="-125.8" font-family="Arial" font-size="14.00">freertos/FreeRTOS.h</text>
</a>
</g>
</g>
<!-- Node1&#45;&gt;Node12 -->
<g id="edge11_Node000001_Node000012" class="edge">
<title>Node1&#45;&gt;Node12</title>
<g id="a_edge11_Node000001_Node000012"><a xlink:title=" ">
<path fill="none" stroke="#63b8ff" d="M1043.5,-176.69C1043.5,-168.8 1043.5,-159.54 1043.5,-151.39"/>
<polygon fill="#63b8ff" stroke="#63b8ff" points="1047,-151.19 1043.5,-141.19 1040,-151.19 1047,-151.19"/>
</a>
</g>
</g>
<!-- Node13 -->
<g id="Node000013" class="node">
<title>Node13</title>
<g id="a_Node000013"><a xlink:title=" ">
<polygon fill="#e0e0e0" stroke="#999999" points="1235.5,-141 1133.5,-141 1133.5,-118 1235.5,-118 1235.5,-141"/>
<text text-anchor="middle" x="1184.5" y="-125.8" font-family="Arial" font-size="14.00">freertos/task.h</text>
</a>
</g>
</g>
<!-- Node1&#45;&gt;Node13 -->
<g id="edge12_Node000001_Node000013" class="edge">
<title>Node1&#45;&gt;Node13</title>
<g id="a_edge12_Node000001_Node000013"><a xlink:title=" ">
<path fill="none" stroke="#63b8ff" d="M1083.15,-176.86C1104.95,-166.89 1131.65,-154.68 1152.17,-145.29"/>
<polygon fill="#63b8ff" stroke="#63b8ff" points="1153.78,-148.4 1161.41,-141.06 1150.86,-142.04 1153.78,-148.4"/>
</a>
</g>
</g>
<!-- Node14 -->
<g id="Node000014" class="node">
<title>Node14</title>
<g id="a_Node000014"><a xlink:title=" ">
<polygon fill="#e0e0e0" stroke="#999999" points="1315,-141 1254,-141 1254,-118 1315,-118 1315,-141"/>
<text text-anchor="middle" x="1284.5" y="-125.8" font-family="Arial" font-size="14.00">cstdarg</text>
</a>
</g>
</g>
<!-- Node1&#45;&gt;Node14 -->
<g id="edge13_Node000001_Node000014" class="edge">
<title>Node1&#45;&gt;Node14</title>
<g id="a_edge13_Node000001_Node000014"><a xlink:title=" ">
<path fill="none" stroke="#63b8ff" d="M1110.95,-176.95C1153.85,-165.47 1207.95,-150.99 1244.24,-141.27"/>
<polygon fill="#63b8ff" stroke="#63b8ff" points="1245.23,-144.63 1253.98,-138.67 1243.42,-137.87 1245.23,-144.63"/>
</a>
</g>
</g>
<!-- Node3 -->
<g id="Node000003" class="node">
<title>Node3</title>
<g id="a_Node000003"><a xlink:title=" ">
<polygon fill="#e0e0e0" stroke="#999999" points="225,-82 0,-82 0,-59 225,-59 225,-82"/>
<text text-anchor="middle" x="112.5" y="-66.8" font-family="Arial" font-size="14.00">TLE92466ED_CommInterface.hpp</text>
</a>
</g>
</g>
<!-- Node2&#45;&gt;Node3 -->
<g id="edge2_Node000002_Node000003" class="edge">
<title>Node2&#45;&gt;Node3</title>
<g id="a_edge2_Node000002_Node000003"><a xlink:title=" ">
<path fill="none" stroke="#63b8ff" d="M553.38,-118.21C460.13,-108.33 319.46,-93.43 222.21,-83.12"/>
<polygon fill="#63b8ff" stroke="#63b8ff" points="222.37,-79.62 212.05,-82.05 221.63,-86.58 222.37,-79.62"/>
</a>
</g>
</g>
<!-- Node4 -->
<g id="Node000004" class="node">
<title>Node4</title>
<g id="a_Node000004"><a xlink:href="TLE92466ED__TestConfig_8hpp.html" target="_top" xlink:title="Hardware configuration for TLE92466ED driver on ESP32&#45;C6.">
<polygon fill="white" stroke="#666666" points="438,-82 243,-82 243,-59 438,-59 438,-82"/>
<text text-anchor="middle" x="340.5" y="-66.8" font-family="Arial" font-size="14.00">TLE92466ED_TestConfig.hpp</text>
</a>
</g>
</g>
<!-- Node2&#45;&gt;Node4 -->
<g id="edge3_Node000002_Node000004" class="edge">
<title>Node2&#45;&gt;Node4</title>
<g id="a_edge3_Node000002_Node000004"><a xlink:title=" ">
<path fill="none" stroke="#63b8ff" d="M593.28,-117.98C540.82,-108.33 463.12,-94.05 407.72,-83.86"/>
<polygon fill="#63b8ff" stroke="#63b8ff" points="408.12,-80.37 397.65,-82.01 406.85,-87.26 408.12,-80.37"/>
</a>
</g>
</g>
<!-- Node6 -->
<g id="Node000006" class="node">
<title>Node6</title>
<g id="a_Node000006"><a xlink:title=" ">
<polygon fill="#e0e0e0" stroke="#999999" points="587,-82 456,-82 456,-59 587,-59 587,-82"/>
<text text-anchor="middle" x="521.5" y="-66.8" font-family="Arial" font-size="14.00">driver/spi_master.h</text>
</a>
</g>
</g>
<!-- Node2&#45;&gt;Node6 -->
<g id="edge5_Node000002_Node000006" class="edge">
<title>Node2&#45;&gt;Node6</title>
<g id="a_edge5_Node000002_Node000006"><a xlink:title=" ">
<path fill="none" stroke="#63b8ff" d="M626.54,-117.91C606.26,-108.95 577,-96.02 554.51,-86.09"/>
<polygon fill="#63b8ff" stroke="#63b8ff" points="555.89,-82.87 545.33,-82.03 553.07,-89.27 555.89,-82.87"/>
</a>
</g>
</g>
<!-- Node7 -->
<g id="Node000007" class="node">
<title>Node7</title>
<g id="a_Node000007"><a xlink:title=" ">
<polygon fill="#e0e0e0" stroke="#999999" points="696,-82 605,-82 605,-59 696,-59 696,-82"/>
<text text-anchor="middle" x="650.5" y="-66.8" font-family="Arial" font-size="14.00">driver/gpio.h</text>
</a>
</g>
</g>
<!-- Node2&#45;&gt;Node7 -->
<g id="edge6_Node000002_Node000007" class="edge">
<title>Node2&#45;&gt;Node7</title>
<g id="a_edge6_Node000002_Node000007"><a xlink:title=" ">
<path fill="none" stroke="#63b8ff" d="M650.5,-117.78C650.5,-110.61 650.5,-100.95 650.5,-92.31"/>
<polygon fill="#63b8ff" stroke="#63b8ff" points="654,-92.17 650.5,-82.17 647,-92.17 654,-92.17"/>
</a>
</g>
</g>
<!-- Node8 -->
<g id="Node000008" class="node">
<title>Node8</title>
<g id="a_Node000008"><a xlink:title=" ">
<polygon fill="#e0e0e0" stroke="#999999" points="801,-82 714,-82 714,-59 801,-59 801,-82"/>
<text text-anchor="middle" x="757.5" y="-66.8" font-family="Arial" font-size="14.00">esp_timer.h</text>
</a>
</g>
</g>
<!-- Node2&#45;&gt;Node8 -->
<g id="edge7_Node000002_Node000008" class="edge">
<title>Node2&#45;&gt;Node8</title>
<g id="a_edge7_Node000002_Node000008"><a xlink:title=" ">
<path fill="none" stroke="#63b8ff" d="M670.38,-117.91C686.82,-109.15 710.38,-96.6 728.86,-86.76"/>
<polygon fill="#63b8ff" stroke="#63b8ff" points="730.55,-89.82 737.73,-82.03 727.26,-83.64 730.55,-89.82"/>
</a>
</g>
</g>
<!-- Node9 -->
<g id="Node000009" class="node">
<title>Node9</title>
<g id="a_Node000009"><a xlink:title=" ">
<polygon fill="#e0e0e0" stroke="#999999" points="894,-82 819,-82 819,-59 894,-59 894,-82"/>
<text text-anchor="middle" x="856.5" y="-66.8" font-family="Arial" font-size="14.00">esp_log.h</text>
</a>
</g>
</g>
<!-- Node2&#45;&gt;Node9 -->
<g id="edge8_Node000002_Node000009" class="edge">
<title>Node2&#45;&gt;Node9</title>
<g id="a_edge8_Node000002_Node000009"><a xlink:title=" ">
<path fill="none" stroke="#63b8ff" d="M688.76,-117.91C722.69,-108.52 772.38,-94.78 808.87,-84.68"/>
<polygon fill="#63b8ff" stroke="#63b8ff" points="810.08,-87.97 818.79,-81.93 808.22,-81.23 810.08,-87.97"/>
</a>
</g>
</g>
<!-- Node10 -->
<g id="Node000010" class="node">
<title>Node10</title>
<g id="a_Node000010"><a xlink:title=" ">
<polygon fill="#e0e0e0" stroke="#999999" points="979,-82 912,-82 912,-59 979,-59 979,-82"/>
<text text-anchor="middle" x="945.5" y="-66.8" font-family="Arial" font-size="14.00">memory</text>
</a>
</g>
</g>
<!-- Node2&#45;&gt;Node10 -->
<g id="edge9_Node000002_Node000010" class="edge">
<title>Node2&#45;&gt;Node10</title>
<g id="a_edge9_Node000002_Node000010"><a xlink:title=" ">
<path fill="none" stroke="#63b8ff" d="M713.88,-117.99C762.79,-109.63 832.34,-97.16 901.43,-82.37"/>
<polygon fill="#63b8ff" stroke="#63b8ff" points="902.58,-85.7 911.62,-80.17 901.1,-78.86 902.58,-85.7"/>
</a>
</g>
</g>
<!-- Node5 -->
<g id="Node000005" class="node">
<title>Node5</title>
<g id="a_Node000005"><a xlink:title=" ">
<polygon fill="#e0e0e0" stroke="#999999" points="368.5,-23 312.5,-23 312.5,0 368.5,0 368.5,-23"/>
<text text-anchor="middle" x="340.5" y="-7.8" font-family="Arial" font-size="14.00">cstdint</text>
</a>
</g>
</g>
<!-- Node4&#45;&gt;Node5 -->
<g id="edge4_Node000004_Node000005" class="edge">
<title>Node4&#45;&gt;Node5</title>
<g id="a_edge4_Node000004_Node000005"><a xlink:title=" ">
<path fill="none" stroke="#63b8ff" d="M340.5,-58.78C340.5,-51.61 340.5,-41.95 340.5,-33.31"/>
<polygon fill="#63b8ff" stroke="#63b8ff" points="344,-33.17 340.5,-23.17 337,-33.17 344,-33.17"/>
</a>
</g>
</g>
</g>
</svg>
