<?xml version="1.0" encoding="UTF-8" standalone="no"?>
<!DOCTYPE svg PUBLIC "-//W3C//DTD SVG 1.1//EN"
 "http://www.w3.org/Graphics/SVG/1.1/DTD/svg11.dtd">
<!-- Generated by graphviz version 2.43.0 (0)
 -->
<!-- Title: Graphical Class Hierarchy Pages: 1 -->
<svg width="360pt" height="72pt"
 viewBox="0.00 0.00 360.00 72.00" xmlns="http://www.w3.org/2000/svg" xmlns:xlink="http://www.w3.org/1999/xlink">
<g id="graph0" class="graph" transform="scale(1 1) rotate(0) translate(4 68)">
<title>Graphical Class Hierarchy</title>
<!-- Node0 -->
<g id="Node000000" class="node">
<title>Node0</title>
<g id="a_Node000000"><a xlink:href="classTLE92466ED_1_1HAL.html" target="_top" xlink:title="Abstract Hardware Abstraction Layer (HAL) base class.">
<polygon fill="white" stroke="#666666" points="131,-43 0,-43 0,-20 131,-20 131,-43"/>
<text text-anchor="middle" x="65.5" y="-27.8" font-family="Arial" font-size="14.00">TLE92466ED::HAL</text>
</a>
</g>
</g>
<!-- Node1 -->
<g id="Node000001" class="node">
<title>Node1</title>
<g id="a_Node000001"><a xlink:href="classESP32C6__HAL.html" target="_top" xlink:title="ESP32&#45;C6 implementation of the TLE92466ED HAL interface.">
<polygon fill="white" stroke="#666666" points="314.5,-64 204.5,-64 204.5,-41 314.5,-41 314.5,-64"/>
<text text-anchor="middle" x="259.5" y="-48.8" font-family="Arial" font-size="14.00">ESP32C6_HAL</text>
</a>
</g>
</g>
<!-- Node0&#45;&gt;Node1 -->
<g id="edge1_Node000000_Node000001" class="edge">
<title>Node0&#45;&gt;Node1</title>
<g id="a_edge1_Node000000_Node000001"><a xlink:title=" ">
<path fill="none" stroke="#63b8ff" d="M141.4,-39.69C162.37,-41.99 184.76,-44.43 204.28,-46.57"/>
<polygon fill="#63b8ff" stroke="#63b8ff" points="141.56,-36.19 131.23,-38.58 140.79,-43.15 141.56,-36.19"/>
</a>
</g>
</g>
<!-- Node2 -->
<g id="Node000002" class="node">
<title>Node2</title>
<g id="a_Node000002"><a xlink:href="classTLE92466ED_1_1ExampleHAL.html" target="_top" xlink:title="Example HAL implementation for 32&#45;bit SPI.">
<polygon fill="white" stroke="#666666" points="352,-23 167,-23 167,0 352,0 352,-23"/>
<text text-anchor="middle" x="259.5" y="-7.8" font-family="Arial" font-size="14.00">TLE92466ED::ExampleHAL</text>
</a>
</g>
</g>
<!-- Node0&#45;&gt;Node2 -->
<g id="edge2_Node000000_Node000002" class="edge">
<title>Node0&#45;&gt;Node2</title>
<g id="a_edge2_Node000000_Node000002"><a xlink:title=" ">
<path fill="none" stroke="#63b8ff" d="M141.3,-23.71C149.65,-22.84 158.23,-21.94 166.77,-21.06"/>
<polygon fill="#63b8ff" stroke="#63b8ff" points="140.82,-20.24 131.23,-24.76 141.54,-27.2 140.82,-20.24"/>
</a>
</g>
</g>
</g>
</svg>
