<?xml version="1.0" encoding="UTF-8" standalone="no"?>
<!DOCTYPE svg PUBLIC "-//W3C//DTD SVG 1.1//EN"
 "http://www.w3.org/Graphics/SVG/1.1/DTD/svg11.dtd">
<!-- Generated by graphviz version 2.43.0 (0)
 -->
<!-- Title: Graphical Class Hierarchy Pages: 1 -->
<svg width="410pt" height="72pt"
 viewBox="0.00 0.00 410.00 72.00" xmlns="http://www.w3.org/2000/svg" xmlns:xlink="http://www.w3.org/1999/xlink">
<g id="graph0" class="graph" transform="scale(1 1) rotate(0) translate(4 68)">
<title>Graphical Class Hierarchy</title>
<!-- Node0 -->
<g id="Node000000" class="node">
<title>Node0</title>
<g id="a_Node000000"><a xlink:title=" ">
<polygon fill="#e0e0e0" stroke="#999999" points="199,-43 0,-43 0,-20 199,-20 199,-43"/>
<text text-anchor="middle" x="99.5" y="-27.8" font-family="Arial" font-size="14.00">TLE92466ED::CommInterface</text>
</a>
</g>
</g>
<!-- Node1 -->
<g id="Node000001" class="node">
<title>Node1</title>
<g id="a_Node000001"><a xlink:href="classArduino__HAL.html" target="_top" xlink:title="Arduino implementation of TLE92466ED HAL interface.">
<polygon fill="white" stroke="#666666" points="367,-64 270,-64 270,-41 367,-41 367,-64"/>
<text text-anchor="middle" x="318.5" y="-48.8" font-family="Arial" font-size="14.00">Arduino_HAL</text>
</a>
</g>
</g>
<!-- Node0&#45;&gt;Node1 -->
<g id="edge1_Node000000_Node000001" class="edge">
<title>Node0&#45;&gt;Node1</title>
<g id="a_edge1_Node000000_Node000001"><a xlink:title=" ">
<path fill="none" stroke="#63b8ff" d="M209.29,-42.03C230.63,-44.09 251.95,-46.16 269.96,-47.9"/>
<polygon fill="#63b8ff" stroke="#63b8ff" points="209.45,-38.53 199.16,-41.05 208.77,-45.49 209.45,-38.53"/>
</a>
</g>
</g>
<!-- Node2 -->
<g id="Node000002" class="node">
<title>Node2</title>
<g id="a_Node000002"><a xlink:href="classEsp32TleCommInterface.html" target="_top" xlink:title="ESP32 implementation of the TLE92466ED CommInterface.">
<polygon fill="white" stroke="#666666" points="402,-23 235,-23 235,0 402,0 402,-23"/>
<text text-anchor="middle" x="318.5" y="-7.8" font-family="Arial" font-size="14.00">Esp32TleCommInterface</text>
</a>
</g>
</g>
<!-- Node0&#45;&gt;Node2 -->
<g id="edge2_Node000000_Node000002" class="edge">
<title>Node0&#45;&gt;Node2</title>
<g id="a_edge2_Node000000_Node000002"><a xlink:title=" ">
<path fill="none" stroke="#63b8ff" d="M209.29,-21.47C217.93,-20.68 226.57,-19.88 234.99,-19.1"/>
<polygon fill="#63b8ff" stroke="#63b8ff" points="208.79,-18 199.16,-22.41 209.44,-24.97 208.79,-18"/>
</a>
</g>
</g>
</g>
</svg>
