<?xml version="1.0" encoding="UTF-8" standalone="no"?>
<!DOCTYPE svg PUBLIC "-//W3C//DTD SVG 1.1//EN"
 "http://www.w3.org/Graphics/SVG/1.1/DTD/svg11.dtd">
<!-- Generated by graphviz version 2.43.0 (0)
 -->
<!-- Title: examples/esp32/main/BasicUsageExample.cpp Pages: 1 -->
<svg width="1629pt" height="223pt"
 viewBox="0.00 0.00 1629.00 223.00" xmlns="http://www.w3.org/2000/svg" xmlns:xlink="http://www.w3.org/1999/xlink">
<g id="graph0" class="graph" transform="scale(1 1) rotate(0) translate(4 219)">
<title>examples/esp32/main/BasicUsageExample.cpp</title>
<!-- Node1 -->
<g id="Node000001" class="node">
<title>Node1</title>
<g id="a_Node000001"><a xlink:title="Basic usage example for TLE92466ED driver on ESP32&#45;C6.">
<polygon fill="#999999" stroke="#666666" points="759,-215 588,-215 588,-177 759,-177 759,-215"/>
<text text-anchor="start" x="596" y="-199.8" font-family="Arial" font-size="14.00">examples/esp32/main</text>
<text text-anchor="middle" x="673.5" y="-184.8" font-family="Arial" font-size="14.00">/BasicUsageExample.cpp</text>
</a>
</g>
</g>
<!-- Node2 -->
<g id="Node000002" class="node">
<title>Node2</title>
<g id="a_Node000002"><a xlink:title=" ">
<polygon fill="#e0e0e0" stroke="#999999" points="293.5,-141 237.5,-141 237.5,-118 293.5,-118 293.5,-141"/>
<text text-anchor="middle" x="265.5" y="-125.8" font-family="Arial" font-size="14.00">stdio.h</text>
</a>
</g>
</g>
<!-- Node1&#45;&gt;Node2 -->
<g id="edge1_Node000001_Node000002" class="edge">
<title>Node1&#45;&gt;Node2</title>
<g id="a_edge1_Node000001_Node000002"><a xlink:title=" ">
<path fill="none" stroke="#63b8ff" d="M587.68,-184.77C513.24,-175.31 402.79,-159.89 307.5,-141 306.26,-140.75 304.99,-140.49 303.72,-140.22"/>
<polygon fill="#63b8ff" stroke="#63b8ff" points="304.41,-136.79 293.88,-138 302.86,-143.62 304.41,-136.79"/>
</a>
</g>
</g>
<!-- Node3 -->
<g id="Node000003" class="node">
<title>Node3</title>
<g id="a_Node000003"><a xlink:title=" ">
<polygon fill="#e0e0e0" stroke="#999999" points="1134,-82 1067,-82 1067,-59 1134,-59 1134,-82"/>
<text text-anchor="middle" x="1100.5" y="-66.8" font-family="Arial" font-size="14.00">memory</text>
</a>
</g>
</g>
<!-- Node1&#45;&gt;Node3 -->
<g id="edge2_Node000001_Node000003" class="edge">
<title>Node1&#45;&gt;Node3</title>
<g id="a_edge2_Node000001_Node000003"><a xlink:title=" ">
<path fill="none" stroke="#63b8ff" d="M736.05,-176.91C823.84,-151.52 981.35,-105.96 1057.26,-84.01"/>
<polygon fill="#63b8ff" stroke="#63b8ff" points="1058.35,-87.34 1066.98,-81.19 1056.4,-80.61 1058.35,-87.34"/>
</a>
</g>
</g>
<!-- Node4 -->
<g id="Node000004" class="node">
<title>Node4</title>
<g id="a_Node000004"><a xlink:title=" ">
<polygon fill="#e0e0e0" stroke="#999999" points="143,-82 0,-82 0,-59 143,-59 143,-82"/>
<text text-anchor="middle" x="71.5" y="-66.8" font-family="Arial" font-size="14.00">freertos/FreeRTOS.h</text>
</a>
</g>
</g>
<!-- Node1&#45;&gt;Node4 -->
<g id="edge3_Node000001_Node000004" class="edge">
<title>Node1&#45;&gt;Node4</title>
<g id="a_edge3_Node000001_Node000004"><a xlink:title=" ">
<path fill="none" stroke="#63b8ff" d="M587.69,-191.88C517.62,-186.86 417.2,-173.97 335.5,-141 318.92,-134.31 318.94,-125.02 302.5,-118 275.31,-106.38 205.16,-93.06 149.24,-83.66"/>
<polygon fill="#63b8ff" stroke="#63b8ff" points="149.77,-80.2 139.34,-82.01 148.62,-87.1 149.77,-80.2"/>
</a>
</g>
</g>
<!-- Node5 -->
<g id="Node000005" class="node">
<title>Node5</title>
<g id="a_Node000005"><a xlink:title=" ">
<polygon fill="#e0e0e0" stroke="#999999" points="263.5,-82 161.5,-82 161.5,-59 263.5,-59 263.5,-82"/>
<text text-anchor="middle" x="212.5" y="-66.8" font-family="Arial" font-size="14.00">freertos/task.h</text>
</a>
</g>
</g>
<!-- Node1&#45;&gt;Node5 -->
<g id="edge4_Node000001_Node000005" class="edge">
<title>Node1&#45;&gt;Node5</title>
<g id="a_edge4_Node000001_Node000005"><a xlink:title=" ">
<path fill="none" stroke="#63b8ff" d="M587.78,-186.43C527.92,-178.74 446.82,-164.87 378.5,-141 358.04,-133.85 355.23,-126.96 335.5,-118 308.64,-105.8 277.57,-94.07 253.37,-85.45"/>
<polygon fill="#63b8ff" stroke="#63b8ff" points="254.38,-82.09 243.79,-82.06 252.05,-88.69 254.38,-82.09"/>
</a>
</g>
</g>
<!-- Node6 -->
<g id="Node000006" class="node">
<title>Node6</title>
<g id="a_Node000006"><a xlink:title=" ">
<polygon fill="#e0e0e0" stroke="#999999" points="711,-82 636,-82 636,-59 711,-59 711,-82"/>
<text text-anchor="middle" x="673.5" y="-66.8" font-family="Arial" font-size="14.00">esp_log.h</text>
</a>
</g>
</g>
<!-- Node1&#45;&gt;Node6 -->
<g id="edge5_Node000001_Node000006" class="edge">
<title>Node1&#45;&gt;Node6</title>
<g id="a_edge5_Node000001_Node000006"><a xlink:title=" ">
<path fill="none" stroke="#63b8ff" d="M673.5,-176.78C673.5,-154.19 673.5,-115.78 673.5,-92.13"/>
<polygon fill="#63b8ff" stroke="#63b8ff" points="677,-92.13 673.5,-82.13 670,-92.13 677,-92.13"/>
</a>
</g>
</g>
<!-- Node7 -->
<g id="Node000007" class="node">
<title>Node7</title>
<g id="a_Node000007"><a xlink:title=" ">
<polygon fill="#e0e0e0" stroke="#999999" points="1523,-141 1422,-141 1422,-118 1523,-118 1523,-141"/>
<text text-anchor="middle" x="1472.5" y="-125.8" font-family="Arial" font-size="14.00">esp_system.h</text>
</a>
</g>
</g>
<!-- Node1&#45;&gt;Node7 -->
<g id="edge6_Node000001_Node000007" class="edge">
<title>Node1&#45;&gt;Node7</title>
<g id="a_edge6_Node000001_Node000007"><a xlink:title=" ">
<path fill="none" stroke="#63b8ff" d="M759.12,-191.54C895.19,-185.41 1169.33,-170.56 1411.75,-140.98"/>
<polygon fill="#63b8ff" stroke="#63b8ff" points="1412.32,-144.43 1421.81,-139.74 1411.46,-137.49 1412.32,-144.43"/>
</a>
</g>
</g>
<!-- Node8 -->
<g id="Node000008" class="node">
<title>Node8</title>
<g id="a_Node000008"><a xlink:href="TLE92466ED_8hpp.html" target="_top" xlink:title="Main driver class for TLE92466ED Six&#45;Channel Low&#45;Side Solenoid Driver IC.">
<polygon fill="white" stroke="#666666" points="1403.5,-141 1279.5,-141 1279.5,-118 1403.5,-118 1403.5,-141"/>
<text text-anchor="middle" x="1341.5" y="-125.8" font-family="Arial" font-size="14.00">TLE92466ED.hpp</text>
</a>
</g>
</g>
<!-- Node1&#45;&gt;Node8 -->
<g id="edge7_Node000001_Node000008" class="edge">
<title>Node1&#45;&gt;Node8</title>
<g id="a_edge7_Node000001_Node000008"><a xlink:title=" ">
<path fill="none" stroke="#63b8ff" d="M759.12,-186.73C891.81,-173.92 1144.74,-149.5 1268.97,-137.5"/>
<polygon fill="#63b8ff" stroke="#63b8ff" points="1269.52,-140.97 1279.14,-136.52 1268.85,-134 1269.52,-140.97"/>
</a>
</g>
</g>
<!-- Node16 -->
<g id="Node000016" class="node">
<title>Node16</title>
<g id="a_Node000016"><a xlink:href="ESP32C6__HAL_8hpp.html" target="_top" xlink:title="ESP32&#45;C6 Hardware Abstraction Layer for TLE92466ED driver.">
<polygon fill="white" stroke="#666666" points="850.5,-141 714.5,-141 714.5,-118 850.5,-118 850.5,-141"/>
<text text-anchor="middle" x="782.5" y="-125.8" font-family="Arial" font-size="14.00">ESP32C6_HAL.hpp</text>
</a>
</g>
</g>
<!-- Node1&#45;&gt;Node16 -->
<g id="edge17_Node000001_Node000016" class="edge">
<title>Node1&#45;&gt;Node16</title>
<g id="a_edge17_Node000001_Node000016"><a xlink:title=" ">
<path fill="none" stroke="#63b8ff" d="M704.15,-176.86C720.47,-167.21 740.34,-155.45 755.99,-146.19"/>
<polygon fill="#63b8ff" stroke="#63b8ff" points="757.83,-149.17 764.65,-141.06 754.26,-143.14 757.83,-149.17"/>
</a>
</g>
</g>
<!-- Node21 -->
<g id="Node000021" class="node">
<title>Node21</title>
<g id="a_Node000021"><a xlink:href="TLE92466ED__TestFramework_8hpp.html" target="_top" xlink:title="Testing framework for TLE92466ED driver examples on ESP32&#45;C6.">
<polygon fill="white" stroke="#666666" points="611.5,-141 387.5,-141 387.5,-118 611.5,-118 611.5,-141"/>
<text text-anchor="middle" x="499.5" y="-125.8" font-family="Arial" font-size="14.00">TLE92466ED_TestFramework.hpp</text>
</a>
</g>
</g>
<!-- Node1&#45;&gt;Node21 -->
<g id="edge26_Node000001_Node000021" class="edge">
<title>Node1&#45;&gt;Node21</title>
<g id="a_edge26_Node000001_Node000021"><a xlink:title=" ">
<path fill="none" stroke="#63b8ff" d="M624.57,-176.86C597.06,-166.66 563.23,-154.12 537.69,-144.66"/>
<polygon fill="#63b8ff" stroke="#63b8ff" points="538.58,-141.26 527.99,-141.06 536.15,-147.82 538.58,-141.26"/>
</a>
</g>
</g>
<!-- Node9 -->
<g id="Node000009" class="node">
<title>Node9</title>
<g id="a_Node000009"><a xlink:href="TLE92466ED__HAL_8hpp.html" target="_top" xlink:title="Hardware Abstraction Layer (HAL) base class for TLE92466ED driver.">
<polygon fill="white" stroke="#666666" points="1516.5,-82 1358.5,-82 1358.5,-59 1516.5,-59 1516.5,-82"/>
<text text-anchor="middle" x="1437.5" y="-66.8" font-family="Arial" font-size="14.00">TLE92466ED_HAL.hpp</text>
</a>
</g>
</g>
<!-- Node8&#45;&gt;Node9 -->
<g id="edge8_Node000008_Node000009" class="edge">
<title>Node8&#45;&gt;Node9</title>
<g id="a_edge8_Node000008_Node000009"><a xlink:title=" ">
<path fill="none" stroke="#63b8ff" d="M1359.56,-117.78C1373.9,-109.26 1394.19,-97.21 1410.48,-87.55"/>
<polygon fill="#63b8ff" stroke="#63b8ff" points="1412.71,-90.29 1419.52,-82.17 1409.14,-84.27 1412.71,-90.29"/>
</a>
</g>
</g>
<!-- Node13 -->
<g id="Node000013" class="node">
<title>Node13</title>
<g id="a_Node000013"><a xlink:title=" ">
<polygon fill="#e0e0e0" stroke="#999999" points="1621,-23 1550,-23 1550,0 1621,0 1621,-23"/>
<text text-anchor="middle" x="1585.5" y="-7.8" font-family="Arial" font-size="14.00">expected</text>
</a>
</g>
</g>
<!-- Node8&#45;&gt;Node13 -->
<g id="edge15_Node000008_Node000013" class="edge">
<title>Node8&#45;&gt;Node13</title>
<g id="a_edge15_Node000008_Node000013"><a xlink:title=" ">
<path fill="none" stroke="#63b8ff" d="M1403.64,-118.92C1475.41,-107.55 1584.49,-89.23 1590.5,-82 1601.74,-68.47 1598.6,-47.88 1593.78,-32.62"/>
<polygon fill="#63b8ff" stroke="#63b8ff" points="1597.02,-31.28 1590.34,-23.06 1590.43,-33.65 1597.02,-31.28"/>
</a>
</g>
</g>
<!-- Node14 -->
<g id="Node000014" class="node">
<title>Node14</title>
<g id="a_Node000014"><a xlink:href="TLE92466ED__Registers_8hpp.html" target="_top" xlink:title="Register definitions and bit field mappings for TLE92466ED IC.">
<polygon fill="white" stroke="#666666" points="1340.5,-82 1152.5,-82 1152.5,-59 1340.5,-59 1340.5,-82"/>
<text text-anchor="middle" x="1246.5" y="-66.8" font-family="Arial" font-size="14.00">TLE92466ED_Registers.hpp</text>
</a>
</g>
</g>
<!-- Node8&#45;&gt;Node14 -->
<g id="edge13_Node000008_Node000014" class="edge">
<title>Node8&#45;&gt;Node14</title>
<g id="a_edge13_Node000008_Node000014"><a xlink:title=" ">
<path fill="none" stroke="#63b8ff" d="M1323.63,-117.78C1309.43,-109.26 1289.35,-97.21 1273.24,-87.55"/>
<polygon fill="#63b8ff" stroke="#63b8ff" points="1274.66,-84.32 1264.29,-82.17 1271.06,-90.32 1274.66,-84.32"/>
</a>
</g>
</g>
<!-- Node15 -->
<g id="Node000015" class="node">
<title>Node15</title>
<g id="a_Node000015"><a xlink:title=" ">
<polygon fill="#e0e0e0" stroke="#999999" points="1581,-82 1534,-82 1534,-59 1581,-59 1581,-82"/>
<text text-anchor="middle" x="1557.5" y="-66.8" font-family="Arial" font-size="14.00">array</text>
</a>
</g>
</g>
<!-- Node8&#45;&gt;Node15 -->
<g id="edge16_Node000008_Node000015" class="edge">
<title>Node8&#45;&gt;Node15</title>
<g id="a_edge16_Node000008_Node000015"><a xlink:title=" ">
<path fill="none" stroke="#63b8ff" d="M1386.73,-118C1421.93,-109.62 1472.19,-97.19 1524.09,-82.29"/>
<polygon fill="#63b8ff" stroke="#63b8ff" points="1525.16,-85.63 1533.79,-79.48 1523.21,-78.9 1525.16,-85.63"/>
</a>
</g>
</g>
<!-- Node10 -->
<g id="Node000010" class="node">
<title>Node10</title>
<g id="a_Node000010"><a xlink:title=" ">
<polygon fill="#e0e0e0" stroke="#999999" points="1274.5,-23 1218.5,-23 1218.5,0 1274.5,0 1274.5,-23"/>
<text text-anchor="middle" x="1246.5" y="-7.8" font-family="Arial" font-size="14.00">cstdint</text>
</a>
</g>
</g>
<!-- Node9&#45;&gt;Node10 -->
<g id="edge9_Node000009_Node000010" class="edge">
<title>Node9&#45;&gt;Node10</title>
<g id="a_edge9_Node000009_Node000010"><a xlink:title=" ">
<path fill="none" stroke="#63b8ff" d="M1402.02,-58.91C1368.54,-48.92 1318.5,-33.99 1284.28,-23.78"/>
<polygon fill="#63b8ff" stroke="#63b8ff" points="1285.23,-20.41 1274.65,-20.9 1283.23,-27.11 1285.23,-20.41"/>
</a>
</g>
</g>
<!-- Node11 -->
<g id="Node000011" class="node">
<title>Node11</title>
<g id="a_Node000011"><a xlink:title=" ">
<polygon fill="#e0e0e0" stroke="#999999" points="1420,-23 1349,-23 1349,0 1420,0 1420,-23"/>
<text text-anchor="middle" x="1384.5" y="-7.8" font-family="Arial" font-size="14.00">concepts</text>
</a>
</g>
</g>
<!-- Node9&#45;&gt;Node11 -->
<g id="edge10_Node000009_Node000011" class="edge">
<title>Node9&#45;&gt;Node11</title>
<g id="a_edge10_Node000009_Node000011"><a xlink:title=" ">
<path fill="none" stroke="#63b8ff" d="M1427.53,-58.78C1420.2,-50.9 1410.07,-39.99 1401.47,-30.75"/>
<polygon fill="#63b8ff" stroke="#63b8ff" points="1403.8,-28.11 1394.42,-23.17 1398.67,-32.88 1403.8,-28.11"/>
</a>
</g>
</g>
<!-- Node12 -->
<g id="Node000012" class="node">
<title>Node12</title>
<g id="a_Node000012"><a xlink:title=" ">
<polygon fill="#e0e0e0" stroke="#999999" points="1484.5,-23 1438.5,-23 1438.5,0 1484.5,0 1484.5,-23"/>
<text text-anchor="middle" x="1461.5" y="-7.8" font-family="Arial" font-size="14.00">span</text>
</a>
</g>
</g>
<!-- Node9&#45;&gt;Node12 -->
<g id="edge11_Node000009_Node000012" class="edge">
<title>Node9&#45;&gt;Node12</title>
<g id="a_edge11_Node000009_Node000012"><a xlink:title=" ">
<path fill="none" stroke="#63b8ff" d="M1442.01,-58.78C1445.13,-51.37 1449.37,-41.3 1453.1,-32.45"/>
<polygon fill="#63b8ff" stroke="#63b8ff" points="1456.35,-33.75 1457.01,-23.17 1449.9,-31.03 1456.35,-33.75"/>
</a>
</g>
</g>
<!-- Node9&#45;&gt;Node13 -->
<g id="edge12_Node000009_Node000013" class="edge">
<title>Node9&#45;&gt;Node13</title>
<g id="a_edge12_Node000009_Node000013"><a xlink:title=" ">
<path fill="none" stroke="#63b8ff" d="M1464.99,-58.91C1488.56,-49.83 1522.72,-36.68 1548.66,-26.69"/>
<polygon fill="#63b8ff" stroke="#63b8ff" points="1550.08,-29.89 1558.16,-23.03 1547.57,-23.36 1550.08,-29.89"/>
</a>
</g>
</g>
<!-- Node14&#45;&gt;Node10 -->
<g id="edge14_Node000014_Node000010" class="edge">
<title>Node14&#45;&gt;Node10</title>
<g id="a_edge14_Node000014_Node000010"><a xlink:title=" ">
<path fill="none" stroke="#63b8ff" d="M1246.5,-58.78C1246.5,-51.61 1246.5,-41.95 1246.5,-33.31"/>
<polygon fill="#63b8ff" stroke="#63b8ff" points="1250,-33.17 1246.5,-23.17 1243,-33.17 1250,-33.17"/>
</a>
</g>
</g>
<!-- Node16&#45;&gt;Node3 -->
<g id="edge25_Node000016_Node000003" class="edge">
<title>Node16&#45;&gt;Node3</title>
<g id="a_edge25_Node000016_Node000003"><a xlink:title=" ">
<path fill="none" stroke="#63b8ff" d="M850.56,-118.39C903.97,-110.13 980.41,-97.62 1056.5,-82.09"/>
<polygon fill="#63b8ff" stroke="#63b8ff" points="1057.66,-85.43 1066.75,-79.98 1056.25,-78.57 1057.66,-85.43"/>
</a>
</g>
</g>
<!-- Node16&#45;&gt;Node6 -->
<g id="edge24_Node000016_Node000006" class="edge">
<title>Node16&#45;&gt;Node6</title>
<g id="a_edge24_Node000016_Node000006"><a xlink:title=" ">
<path fill="none" stroke="#63b8ff" d="M762.25,-117.91C745.5,-109.15 721.5,-96.6 702.68,-86.76"/>
<polygon fill="#63b8ff" stroke="#63b8ff" points="704.12,-83.56 693.64,-82.03 700.88,-89.77 704.12,-83.56"/>
</a>
</g>
</g>
<!-- Node16&#45;&gt;Node9 -->
<g id="edge18_Node000016_Node000009" class="edge">
<title>Node16&#45;&gt;Node9</title>
<g id="a_edge18_Node000016_Node000009"><a xlink:title=" ">
<path fill="none" stroke="#63b8ff" d="M850.65,-123.73C955.33,-116.22 1162.23,-100.66 1348.39,-82.08"/>
<polygon fill="#63b8ff" stroke="#63b8ff" points="1348.76,-85.56 1358.36,-81.08 1348.06,-78.6 1348.76,-85.56"/>
</a>
</g>
</g>
<!-- Node17 -->
<g id="Node000017" class="node">
<title>Node17</title>
<g id="a_Node000017"><a xlink:href="TLE92466ED__Config_8hpp.html" target="_top" xlink:title="Hardware configuration for TLE92466ED driver on ESP32&#45;C6.">
<polygon fill="white" stroke="#666666" points="1048.5,-82 878.5,-82 878.5,-59 1048.5,-59 1048.5,-82"/>
<text text-anchor="middle" x="963.5" y="-66.8" font-family="Arial" font-size="14.00">TLE92466ED_Config.hpp</text>
</a>
</g>
</g>
<!-- Node16&#45;&gt;Node17 -->
<g id="edge19_Node000016_Node000017" class="edge">
<title>Node16&#45;&gt;Node17</title>
<g id="a_edge19_Node000016_Node000017"><a xlink:title=" ">
<path fill="none" stroke="#63b8ff" d="M816.12,-117.91C845.46,-108.67 888.2,-95.21 920.11,-85.16"/>
<polygon fill="#63b8ff" stroke="#63b8ff" points="921.57,-88.37 930.06,-82.03 919.47,-81.7 921.57,-88.37"/>
</a>
</g>
</g>
<!-- Node18 -->
<g id="Node000018" class="node">
<title>Node18</title>
<g id="a_Node000018"><a xlink:title=" ">
<polygon fill="#e0e0e0" stroke="#999999" points="860,-82 729,-82 729,-59 860,-59 860,-82"/>
<text text-anchor="middle" x="794.5" y="-66.8" font-family="Arial" font-size="14.00">driver/spi_master.h</text>
</a>
</g>
</g>
<!-- Node16&#45;&gt;Node18 -->
<g id="edge21_Node000016_Node000018" class="edge">
<title>Node16&#45;&gt;Node18</title>
<g id="a_edge21_Node000016_Node000018"><a xlink:title=" ">
<path fill="none" stroke="#63b8ff" d="M784.76,-117.78C786.28,-110.53 788.34,-100.74 790.18,-92.02"/>
<polygon fill="#63b8ff" stroke="#63b8ff" points="793.62,-92.68 792.25,-82.17 786.77,-91.24 793.62,-92.68"/>
</a>
</g>
</g>
<!-- Node19 -->
<g id="Node000019" class="node">
<title>Node19</title>
<g id="a_Node000019"><a xlink:title=" ">
<polygon fill="#e0e0e0" stroke="#999999" points="618,-82 527,-82 527,-59 618,-59 618,-82"/>
<text text-anchor="middle" x="572.5" y="-66.8" font-family="Arial" font-size="14.00">driver/gpio.h</text>
</a>
</g>
</g>
<!-- Node16&#45;&gt;Node19 -->
<g id="edge22_Node000016_Node000019" class="edge">
<title>Node16&#45;&gt;Node19</title>
<g id="a_edge22_Node000016_Node000019"><a xlink:title=" ">
<path fill="none" stroke="#63b8ff" d="M743.49,-117.91C709.01,-108.55 658.57,-94.86 621.41,-84.77"/>
<polygon fill="#63b8ff" stroke="#63b8ff" points="621.87,-81.27 611.3,-82.03 620.03,-88.03 621.87,-81.27"/>
</a>
</g>
</g>
<!-- Node20 -->
<g id="Node000020" class="node">
<title>Node20</title>
<g id="a_Node000020"><a xlink:title=" ">
<polygon fill="#e0e0e0" stroke="#999999" points="509,-82 422,-82 422,-59 509,-59 509,-82"/>
<text text-anchor="middle" x="465.5" y="-66.8" font-family="Arial" font-size="14.00">esp_timer.h</text>
</a>
</g>
</g>
<!-- Node16&#45;&gt;Node20 -->
<g id="edge23_Node000016_Node000020" class="edge">
<title>Node16&#45;&gt;Node20</title>
<g id="a_edge23_Node000016_Node000020"><a xlink:title=" ">
<path fill="none" stroke="#63b8ff" d="M719.77,-117.96C668.33,-109.21 593.36,-96.21 519.16,-82.28"/>
<polygon fill="#63b8ff" stroke="#63b8ff" points="519.65,-78.81 509.18,-80.4 518.36,-85.69 519.65,-78.81"/>
</a>
</g>
</g>
<!-- Node17&#45;&gt;Node10 -->
<g id="edge20_Node000017_Node000010" class="edge">
<title>Node17&#45;&gt;Node10</title>
<g id="a_edge20_Node000017_Node000010"><a xlink:title=" ">
<path fill="none" stroke="#63b8ff" d="M1015.74,-58.98C1071.5,-47.75 1158.53,-30.22 1208.24,-20.21"/>
<polygon fill="#63b8ff" stroke="#63b8ff" points="1209.15,-23.59 1218.26,-18.19 1207.77,-16.73 1209.15,-23.59"/>
</a>
</g>
</g>
<!-- Node21&#45;&gt;Node4 -->
<g id="edge29_Node000021_Node000004" class="edge">
<title>Node21&#45;&gt;Node4</title>
<g id="a_edge29_Node000021_Node000004"><a xlink:title=" ">
<path fill="none" stroke="#63b8ff" d="M420.5,-117.98C344.56,-107.87 230.3,-92.65 153.4,-82.41"/>
<polygon fill="#63b8ff" stroke="#63b8ff" points="153.65,-78.91 143.28,-81.06 152.73,-85.85 153.65,-78.91"/>
</a>
</g>
</g>
<!-- Node21&#45;&gt;Node5 -->
<g id="edge30_Node000021_Node000005" class="edge">
<title>Node21&#45;&gt;Node5</title>
<g id="a_edge30_Node000021_Node000005"><a xlink:title=" ">
<path fill="none" stroke="#63b8ff" d="M446.53,-117.98C397.63,-108.27 325.04,-93.85 273.69,-83.65"/>
<polygon fill="#63b8ff" stroke="#63b8ff" points="274.21,-80.19 263.72,-81.67 272.84,-87.05 274.21,-80.19"/>
</a>
</g>
</g>
<!-- Node21&#45;&gt;Node6 -->
<g id="edge27_Node000021_Node000006" class="edge">
<title>Node21&#45;&gt;Node6</title>
<g id="a_edge27_Node000021_Node000006"><a xlink:title=" ">
<path fill="none" stroke="#63b8ff" d="M531.82,-117.91C560.02,-108.67 601.11,-95.21 631.79,-85.16"/>
<polygon fill="#63b8ff" stroke="#63b8ff" points="632.94,-88.47 641.35,-82.03 630.76,-81.82 632.94,-88.47"/>
</a>
</g>
</g>
<!-- Node21&#45;&gt;Node19 -->
<g id="edge32_Node000021_Node000019" class="edge">
<title>Node21&#45;&gt;Node19</title>
<g id="a_edge32_Node000021_Node000019"><a xlink:title=" ">
<path fill="none" stroke="#63b8ff" d="M513.23,-117.78C523.83,-109.5 538.71,-97.89 550.9,-88.36"/>
<polygon fill="#63b8ff" stroke="#63b8ff" points="553.1,-91.09 558.83,-82.17 548.79,-85.57 553.1,-91.09"/>
</a>
</g>
</g>
<!-- Node21&#45;&gt;Node20 -->
<g id="edge28_Node000021_Node000020" class="edge">
<title>Node21&#45;&gt;Node20</title>
<g id="a_edge28_Node000021_Node000020"><a xlink:title=" ">
<path fill="none" stroke="#63b8ff" d="M493.1,-117.78C488.59,-110.22 482.42,-99.87 477.06,-90.88"/>
<polygon fill="#63b8ff" stroke="#63b8ff" points="480,-88.97 471.87,-82.17 473.98,-92.55 480,-88.97"/>
</a>
</g>
</g>
<!-- Node22 -->
<g id="Node000022" class="node">
<title>Node22</title>
<g id="a_Node000022"><a xlink:title=" ">
<polygon fill="#e0e0e0" stroke="#999999" points="403.5,-82 281.5,-82 281.5,-59 403.5,-59 403.5,-82"/>
<text text-anchor="middle" x="342.5" y="-66.8" font-family="Arial" font-size="14.00">freertos/semphr.h</text>
</a>
</g>
</g>
<!-- Node21&#45;&gt;Node22 -->
<g id="edge31_Node000021_Node000022" class="edge">
<title>Node21&#45;&gt;Node22</title>
<g id="a_edge31_Node000021_Node000022"><a xlink:title=" ">
<path fill="none" stroke="#63b8ff" d="M470.34,-117.91C445.22,-108.79 408.78,-95.56 381.22,-85.56"/>
<polygon fill="#63b8ff" stroke="#63b8ff" points="382.1,-82.15 371.51,-82.03 379.71,-88.73 382.1,-82.15"/>
</a>
</g>
</g>
</g>
</svg>
