<?xml version="1.0" encoding="UTF-8" standalone="no"?>
<!DOCTYPE svg PUBLIC "-//W3C//DTD SVG 1.1//EN"
 "http://www.w3.org/Graphics/SVG/1.1/DTD/svg11.dtd">
<!-- Generated by graphviz version 2.43.0 (0)
 -->
<!-- Title: examples/example_hal.hpp Pages: 1 -->
<svg width="309pt" height="149pt"
 viewBox="0.00 0.00 309.00 149.00" xmlns="http://www.w3.org/2000/svg" xmlns:xlink="http://www.w3.org/1999/xlink">

<svg id="main" version="1.1" xmlns="http://www.w3.org/2000/svg" xmlns:xlink="http://www.w3.org/1999/xlink" xml:space="preserve" onload="init(evt)">
<style type="text/css"><![CDATA[
.node, .edge {opacity: 0.7;}
.node.selected, .edge.selected {opacity: 1;}
.edge:hover path { stroke: red; }
.edge:hover polygon { stroke: red; fill: red; }
]]></style>
<script type="application/ecmascript" xlink:href="svg.min.js"/>
<svg id="graph" class="graph">
<g id="graph0" class="graph" transform="scale(1 1) rotate(0) translate(4 145)">
<title>examples/example_hal.hpp</title>
<!-- Node1 -->
<g id="Node000001" class="node">
<title>Node1</title>
<g id="a_Node000001"><a xlink:title="Example HAL implementation for TLE92466ED driver.">
<polygon fill="#999999" stroke="#666666" points="301,-141 119,-141 119,-118 301,-118 301,-141"/>
<text text-anchor="middle" x="210" y="-125.8" font-family="Arial" font-size="14.00">examples/example_hal.hpp</text>
</a>
</g>
</g>
<!-- Node2 -->
<g id="Node000002" class="node">
<title>Node2</title>
<g id="a_Node000002"><a xlink:href="TLE92466ED__HAL_8hpp.html" target="_top" xlink:title="Hardware Abstraction Layer (HAL) base class for TLE92466ED driver.">
<polygon fill="white" stroke="#666666" points="227,-82 69,-82 69,-59 227,-59 227,-82"/>
<text text-anchor="middle" x="148" y="-66.8" font-family="Arial" font-size="14.00">TLE92466ED_HAL.hpp</text>
</a>
</g>
</g>
<!-- Node1&#45;&gt;Node2 -->
<g id="edge1_Node000001_Node000002" class="edge">
<title>Node1&#45;&gt;Node2</title>
<g id="a_edge1_Node000001_Node000002"><a xlink:title=" ">
<path fill="none" stroke="#63b8ff" d="M198.34,-117.78C189.59,-109.74 177.43,-98.55 167.25,-89.19"/>
<polygon fill="#63b8ff" stroke="#63b8ff" points="169.34,-86.36 159.61,-82.17 164.6,-91.52 169.34,-86.36"/>
</a>
</g>
</g>
<!-- Node7 -->
<g id="Node000007" class="node">
<title>Node7</title>
<g id="a_Node000007"><a xlink:title=" ">
<polygon fill="#e0e0e0" stroke="#999999" points="299.5,-82 244.5,-82 244.5,-59 299.5,-59 299.5,-82"/>
<text text-anchor="middle" x="272" y="-66.8" font-family="Arial" font-size="14.00">thread</text>
</a>
</g>
</g>
<!-- Node1&#45;&gt;Node7 -->
<g id="edge6_Node000001_Node000007" class="edge">
<title>Node1&#45;&gt;Node7</title>
<g id="a_edge6_Node000001_Node000007"><a xlink:title=" ">
<path fill="none" stroke="#63b8ff" d="M221.66,-117.78C230.41,-109.74 242.57,-98.55 252.75,-89.19"/>
<polygon fill="#63b8ff" stroke="#63b8ff" points="255.4,-91.52 260.39,-82.17 250.66,-86.36 255.4,-91.52"/>
</a>
</g>
</g>
<!-- Node3 -->
<g id="Node000003" class="node">
<title>Node3</title>
<g id="a_Node000003"><a xlink:title=" ">
<polygon fill="#e0e0e0" stroke="#999999" points="56,-23 0,-23 0,0 56,0 56,-23"/>
<text text-anchor="middle" x="28" y="-7.8" font-family="Arial" font-size="14.00">cstdint</text>
</a>
</g>
</g>
<!-- Node2&#45;&gt;Node3 -->
<g id="edge2_Node000002_Node000003" class="edge">
<title>Node2&#45;&gt;Node3</title>
<g id="a_edge2_Node000002_Node000003"><a xlink:title=" ">
<path fill="none" stroke="#63b8ff" d="M125.71,-58.91C107.02,-50.03 80.12,-37.26 59.27,-27.35"/>
<polygon fill="#63b8ff" stroke="#63b8ff" points="60.7,-24.16 50.17,-23.03 57.7,-30.48 60.7,-24.16"/>
</a>
</g>
</g>
<!-- Node4 -->
<g id="Node000004" class="node">
<title>Node4</title>
<g id="a_Node000004"><a xlink:title=" ">
<polygon fill="#e0e0e0" stroke="#999999" points="145.5,-23 74.5,-23 74.5,0 145.5,0 145.5,-23"/>
<text text-anchor="middle" x="110" y="-7.8" font-family="Arial" font-size="14.00">concepts</text>
</a>
</g>
</g>
<!-- Node2&#45;&gt;Node4 -->
<g id="edge3_Node000002_Node000004" class="edge">
<title>Node2&#45;&gt;Node4</title>
<g id="a_edge3_Node000002_Node000004"><a xlink:title=" ">
<path fill="none" stroke="#63b8ff" d="M140.85,-58.78C135.76,-51.14 128.77,-40.65 122.73,-31.6"/>
<polygon fill="#63b8ff" stroke="#63b8ff" points="125.57,-29.55 117.12,-23.17 119.75,-33.44 125.57,-29.55"/>
</a>
</g>
</g>
<!-- Node5 -->
<g id="Node000005" class="node">
<title>Node5</title>
<g id="a_Node000005"><a xlink:title=" ">
<polygon fill="#e0e0e0" stroke="#999999" points="210,-23 164,-23 164,0 210,0 210,-23"/>
<text text-anchor="middle" x="187" y="-7.8" font-family="Arial" font-size="14.00">span</text>
</a>
</g>
</g>
<!-- Node2&#45;&gt;Node5 -->
<g id="edge4_Node000002_Node000005" class="edge">
<title>Node2&#45;&gt;Node5</title>
<g id="a_edge4_Node000002_Node000005"><a xlink:title=" ">
<path fill="none" stroke="#63b8ff" d="M155.34,-58.78C160.57,-51.14 167.74,-40.65 173.93,-31.6"/>
<polygon fill="#63b8ff" stroke="#63b8ff" points="176.94,-33.4 179.7,-23.17 171.16,-29.45 176.94,-33.4"/>
</a>
</g>
</g>
<!-- Node6 -->
<g id="Node000006" class="node">
<title>Node6</title>
<g id="a_Node000006"><a xlink:title=" ">
<polygon fill="#e0e0e0" stroke="#999999" points="299.5,-23 228.5,-23 228.5,0 299.5,0 299.5,-23"/>
<text text-anchor="middle" x="264" y="-7.8" font-family="Arial" font-size="14.00">expected</text>
</a>
</g>
</g>
<!-- Node2&#45;&gt;Node6 -->
<g id="edge5_Node000002_Node000006" class="edge">
<title>Node2&#45;&gt;Node6</title>
<g id="a_edge5_Node000002_Node000006"><a xlink:title=" ">
<path fill="none" stroke="#63b8ff" d="M169.55,-58.91C187.53,-50.07 213.39,-37.37 233.5,-27.49"/>
<polygon fill="#63b8ff" stroke="#63b8ff" points="235.14,-30.58 242.57,-23.03 232.05,-24.3 235.14,-30.58"/>
</a>
</g>
</g>
</g>
</svg>
</svg>

<style type='text/css'>
<![CDATA[
[data-mouse-over-selected='false'] { opacity: 0.7; }
[data-mouse-over-selected='true']  { opacity: 1.0; }
]]>
</style>
<script type="application/ecmascript"><![CDATA[
document.addEventListener('DOMContentLoaded', (event) => {
  highlightEdges();
  highlightAdjacentNodes();
});
]]></script>
</svg>
