<?xml version="1.0" encoding="UTF-8" standalone="no"?>
<!DOCTYPE svg PUBLIC "-//W3C//DTD SVG 1.1//EN"
 "http://www.w3.org/Graphics/SVG/1.1/DTD/svg11.dtd">
<!-- Generated by graphviz version 2.43.0 (0)
 -->
<!-- Title: include/TLE92466ED_HAL.hpp Pages: 1 -->
<svg width="308pt" height="105pt"
 viewBox="0.00 0.00 307.50 105.00" xmlns="http://www.w3.org/2000/svg" xmlns:xlink="http://www.w3.org/1999/xlink">
<g id="graph0" class="graph" transform="scale(1 1) rotate(0) translate(4 101)">
<title>include/TLE92466ED_HAL.hpp</title>
<!-- Node1 -->
<g id="Node000001" class="node">
<title>Node1</title>
<g id="a_Node000001"><a xlink:title="Hardware Abstraction Layer (HAL) base class for TLE92466ED driver.">
<polygon fill="#999999" stroke="#666666" points="220,-97 76,-97 76,-59 220,-59 220,-97"/>
<text text-anchor="start" x="84" y="-81.8" font-family="Arial" font-size="14.00">include/TLE92466ED</text>
<text text-anchor="middle" x="148" y="-66.8" font-family="Arial" font-size="14.00">_HAL.hpp</text>
</a>
</g>
</g>
<!-- Node2 -->
<g id="Node000002" class="node">
<title>Node2</title>
<g id="a_Node000002"><a xlink:title=" ">
<polygon fill="#e0e0e0" stroke="#999999" points="56,-23 0,-23 0,0 56,0 56,-23"/>
<text text-anchor="middle" x="28" y="-7.8" font-family="Arial" font-size="14.00">cstdint</text>
</a>
</g>
</g>
<!-- Node1&#45;&gt;Node2 -->
<g id="edge1_Node000001_Node000002" class="edge">
<title>Node1&#45;&gt;Node2</title>
<g id="a_edge1_Node000001_Node000002"><a xlink:title=" ">
<path fill="none" stroke="#63b8ff" d="M114.25,-58.86C96.12,-49.12 74.01,-37.23 56.71,-27.93"/>
<polygon fill="#63b8ff" stroke="#63b8ff" points="58.11,-24.71 47.65,-23.06 54.8,-30.88 58.11,-24.71"/>
</a>
</g>
</g>
<!-- Node3 -->
<g id="Node000003" class="node">
<title>Node3</title>
<g id="a_Node000003"><a xlink:title=" ">
<polygon fill="#e0e0e0" stroke="#999999" points="145.5,-23 74.5,-23 74.5,0 145.5,0 145.5,-23"/>
<text text-anchor="middle" x="110" y="-7.8" font-family="Arial" font-size="14.00">concepts</text>
</a>
</g>
</g>
<!-- Node1&#45;&gt;Node3 -->
<g id="edge2_Node000001_Node000003" class="edge">
<title>Node1&#45;&gt;Node3</title>
<g id="a_edge2_Node000001_Node000003"><a xlink:title=" ">
<path fill="none" stroke="#63b8ff" d="M137.21,-58.69C132.3,-50.35 126.49,-40.48 121.49,-32.01"/>
<polygon fill="#63b8ff" stroke="#63b8ff" points="124.39,-30.03 116.3,-23.19 118.36,-33.58 124.39,-30.03"/>
</a>
</g>
</g>
<!-- Node4 -->
<g id="Node000004" class="node">
<title>Node4</title>
<g id="a_Node000004"><a xlink:title=" ">
<polygon fill="#e0e0e0" stroke="#999999" points="210,-23 164,-23 164,0 210,0 210,-23"/>
<text text-anchor="middle" x="187" y="-7.8" font-family="Arial" font-size="14.00">span</text>
</a>
</g>
</g>
<!-- Node1&#45;&gt;Node4 -->
<g id="edge3_Node000001_Node000004" class="edge">
<title>Node1&#45;&gt;Node4</title>
<g id="a_edge3_Node000001_Node000004"><a xlink:title=" ">
<path fill="none" stroke="#63b8ff" d="M159.07,-58.69C164.11,-50.35 170.08,-40.48 175.2,-32.01"/>
<polygon fill="#63b8ff" stroke="#63b8ff" points="178.36,-33.56 180.54,-23.19 172.37,-29.94 178.36,-33.56"/>
</a>
</g>
</g>
<!-- Node5 -->
<g id="Node000005" class="node">
<title>Node5</title>
<g id="a_Node000005"><a xlink:title=" ">
<polygon fill="#e0e0e0" stroke="#999999" points="299.5,-23 228.5,-23 228.5,0 299.5,0 299.5,-23"/>
<text text-anchor="middle" x="264" y="-7.8" font-family="Arial" font-size="14.00">expected</text>
</a>
</g>
</g>
<!-- Node1&#45;&gt;Node5 -->
<g id="edge4_Node000001_Node000005" class="edge">
<title>Node1&#45;&gt;Node5</title>
<g id="a_edge4_Node000001_Node000005"><a xlink:title=" ">
<path fill="none" stroke="#63b8ff" d="M180.62,-58.86C198.15,-49.12 219.53,-37.23 236.25,-27.93"/>
<polygon fill="#63b8ff" stroke="#63b8ff" points="237.97,-30.98 245.01,-23.06 234.57,-24.86 237.97,-30.98"/>
</a>
</g>
</g>
</g>
</svg>
