<?xml version="1.0" encoding="UTF-8" standalone="no"?>
<!DOCTYPE svg PUBLIC "-//W3C//DTD SVG 1.1//EN"
 "http://www.w3.org/Graphics/SVG/1.1/DTD/svg11.dtd">
<!-- Generated by graphviz version 2.43.0 (0)
 -->
<!-- Title: examples/esp32/main/ESP32C6_HAL.hpp Pages: 1 -->
<svg width="896pt" height="164pt"
 viewBox="0.00 0.00 895.50 164.00" xmlns="http://www.w3.org/2000/svg" xmlns:xlink="http://www.w3.org/1999/xlink">
<g id="graph0" class="graph" transform="scale(1 1) rotate(0) translate(4 160)">
<title>examples/esp32/main/ESP32C6_HAL.hpp</title>
<!-- Node1 -->
<g id="Node000001" class="node">
<title>Node1</title>
<g id="a_Node000001"><a xlink:title="ESP32&#45;C6 Hardware Abstraction Layer for TLE92466ED driver.">
<polygon fill="#999999" stroke="#666666" points="633.5,-156 484.5,-156 484.5,-118 633.5,-118 633.5,-156"/>
<text text-anchor="start" x="492.5" y="-140.8" font-family="Arial" font-size="14.00">examples/esp32/main</text>
<text text-anchor="middle" x="559" y="-125.8" font-family="Arial" font-size="14.00">/ESP32C6_HAL.hpp</text>
</a>
</g>
</g>
<!-- Node2 -->
<g id="Node000002" class="node">
<title>Node2</title>
<g id="a_Node000002"><a xlink:href="TLE92466ED__HAL_8hpp.html" target="_top" xlink:title="Hardware Abstraction Layer (HAL) base class for TLE92466ED driver.">
<polygon fill="white" stroke="#666666" points="346,-82 188,-82 188,-59 346,-59 346,-82"/>
<text text-anchor="middle" x="267" y="-66.8" font-family="Arial" font-size="14.00">TLE92466ED_HAL.hpp</text>
</a>
</g>
</g>
<!-- Node1&#45;&gt;Node2 -->
<g id="edge1_Node000001_Node000002" class="edge">
<title>Node1&#45;&gt;Node2</title>
<g id="a_edge1_Node000001_Node000002"><a xlink:title=" ">
<path fill="none" stroke="#63b8ff" d="M484.18,-119.47C434.54,-108.51 370.36,-94.33 324.67,-84.24"/>
<polygon fill="#63b8ff" stroke="#63b8ff" points="325.16,-80.76 314.64,-82.02 323.65,-87.6 325.16,-80.76"/>
</a>
</g>
</g>
<!-- Node7 -->
<g id="Node000007" class="node">
<title>Node7</title>
<g id="a_Node000007"><a xlink:href="TLE92466ED__Config_8hpp.html" target="_top" xlink:title="Hardware configuration for TLE92466ED driver on ESP32&#45;C6.">
<polygon fill="white" stroke="#666666" points="170,-82 0,-82 0,-59 170,-59 170,-82"/>
<text text-anchor="middle" x="85" y="-66.8" font-family="Arial" font-size="14.00">TLE92466ED_Config.hpp</text>
</a>
</g>
</g>
<!-- Node1&#45;&gt;Node7 -->
<g id="edge6_Node000001_Node000007" class="edge">
<title>Node1&#45;&gt;Node7</title>
<g id="a_edge6_Node000001_Node000007"><a xlink:title=" ">
<path fill="none" stroke="#63b8ff" d="M484.42,-125.85C399.82,-114.34 262.02,-95.59 172.43,-83.4"/>
<polygon fill="#63b8ff" stroke="#63b8ff" points="172.68,-79.9 162.29,-82.02 171.73,-86.83 172.68,-79.9"/>
</a>
</g>
</g>
<!-- Node8 -->
<g id="Node000008" class="node">
<title>Node8</title>
<g id="a_Node000008"><a xlink:title=" ">
<polygon fill="#e0e0e0" stroke="#999999" points="495.5,-82 364.5,-82 364.5,-59 495.5,-59 495.5,-82"/>
<text text-anchor="middle" x="430" y="-66.8" font-family="Arial" font-size="14.00">driver/spi_master.h</text>
</a>
</g>
</g>
<!-- Node1&#45;&gt;Node8 -->
<g id="edge8_Node000001_Node000008" class="edge">
<title>Node1&#45;&gt;Node8</title>
<g id="a_edge8_Node000001_Node000008"><a xlink:title=" ">
<path fill="none" stroke="#63b8ff" d="M522.72,-117.86C502.96,-107.98 478.79,-95.9 460.09,-86.54"/>
<polygon fill="#63b8ff" stroke="#63b8ff" points="461.63,-83.4 451.12,-82.06 458.5,-89.66 461.63,-83.4"/>
</a>
</g>
</g>
<!-- Node9 -->
<g id="Node000009" class="node">
<title>Node9</title>
<g id="a_Node000009"><a xlink:title=" ">
<polygon fill="#e0e0e0" stroke="#999999" points="604.5,-82 513.5,-82 513.5,-59 604.5,-59 604.5,-82"/>
<text text-anchor="middle" x="559" y="-66.8" font-family="Arial" font-size="14.00">driver/gpio.h</text>
</a>
</g>
</g>
<!-- Node1&#45;&gt;Node9 -->
<g id="edge9_Node000001_Node000009" class="edge">
<title>Node1&#45;&gt;Node9</title>
<g id="a_edge9_Node000001_Node000009"><a xlink:title=" ">
<path fill="none" stroke="#63b8ff" d="M559,-117.69C559,-109.8 559,-100.54 559,-92.39"/>
<polygon fill="#63b8ff" stroke="#63b8ff" points="562.5,-92.19 559,-82.19 555.5,-92.19 562.5,-92.19"/>
</a>
</g>
</g>
<!-- Node10 -->
<g id="Node000010" class="node">
<title>Node10</title>
<g id="a_Node000010"><a xlink:title=" ">
<polygon fill="#e0e0e0" stroke="#999999" points="709.5,-82 622.5,-82 622.5,-59 709.5,-59 709.5,-82"/>
<text text-anchor="middle" x="666" y="-66.8" font-family="Arial" font-size="14.00">esp_timer.h</text>
</a>
</g>
</g>
<!-- Node1&#45;&gt;Node10 -->
<g id="edge10_Node000001_Node000010" class="edge">
<title>Node1&#45;&gt;Node10</title>
<g id="a_edge10_Node000001_Node000010"><a xlink:title=" ">
<path fill="none" stroke="#63b8ff" d="M589.09,-117.86C604.96,-108.3 624.25,-96.67 639.54,-87.45"/>
<polygon fill="#63b8ff" stroke="#63b8ff" points="641.72,-90.22 648.48,-82.06 638.11,-84.23 641.72,-90.22"/>
</a>
</g>
</g>
<!-- Node11 -->
<g id="Node000011" class="node">
<title>Node11</title>
<g id="a_Node000011"><a xlink:title=" ">
<polygon fill="#e0e0e0" stroke="#999999" points="802.5,-82 727.5,-82 727.5,-59 802.5,-59 802.5,-82"/>
<text text-anchor="middle" x="765" y="-66.8" font-family="Arial" font-size="14.00">esp_log.h</text>
</a>
</g>
</g>
<!-- Node1&#45;&gt;Node11 -->
<g id="edge11_Node000001_Node000011" class="edge">
<title>Node1&#45;&gt;Node11</title>
<g id="a_edge11_Node000001_Node000011"><a xlink:title=" ">
<path fill="none" stroke="#63b8ff" d="M616.66,-117.95C649.81,-107.57 690.79,-94.74 721.27,-85.19"/>
<polygon fill="#63b8ff" stroke="#63b8ff" points="722.68,-88.42 731.18,-82.09 720.59,-81.74 722.68,-88.42"/>
</a>
</g>
</g>
<!-- Node12 -->
<g id="Node000012" class="node">
<title>Node12</title>
<g id="a_Node000012"><a xlink:title=" ">
<polygon fill="#e0e0e0" stroke="#999999" points="887.5,-82 820.5,-82 820.5,-59 887.5,-59 887.5,-82"/>
<text text-anchor="middle" x="854" y="-66.8" font-family="Arial" font-size="14.00">memory</text>
</a>
</g>
</g>
<!-- Node1&#45;&gt;Node12 -->
<g id="edge12_Node000001_Node000012" class="edge">
<title>Node1&#45;&gt;Node12</title>
<g id="a_edge12_Node000001_Node000012"><a xlink:title=" ">
<path fill="none" stroke="#63b8ff" d="M633.6,-120.79C681.6,-110.83 745.56,-97.26 810.15,-82.38"/>
<polygon fill="#63b8ff" stroke="#63b8ff" points="811.14,-85.75 820.1,-80.08 809.57,-78.93 811.14,-85.75"/>
</a>
</g>
</g>
<!-- Node3 -->
<g id="Node000003" class="node">
<title>Node3</title>
<g id="a_Node000003"><a xlink:title=" ">
<polygon fill="#e0e0e0" stroke="#999999" points="125,-23 69,-23 69,0 125,0 125,-23"/>
<text text-anchor="middle" x="97" y="-7.8" font-family="Arial" font-size="14.00">cstdint</text>
</a>
</g>
</g>
<!-- Node2&#45;&gt;Node3 -->
<g id="edge2_Node000002_Node000003" class="edge">
<title>Node2&#45;&gt;Node3</title>
<g id="a_edge2_Node000002_Node000003"><a xlink:title=" ">
<path fill="none" stroke="#63b8ff" d="M235.42,-58.91C206.95,-49.37 165.04,-35.31 134.8,-25.17"/>
<polygon fill="#63b8ff" stroke="#63b8ff" points="135.62,-21.76 125.03,-21.9 133.39,-28.39 135.62,-21.76"/>
</a>
</g>
</g>
<!-- Node4 -->
<g id="Node000004" class="node">
<title>Node4</title>
<g id="a_Node000004"><a xlink:title=" ">
<polygon fill="#e0e0e0" stroke="#999999" points="225.5,-23 154.5,-23 154.5,0 225.5,0 225.5,-23"/>
<text text-anchor="middle" x="190" y="-7.8" font-family="Arial" font-size="14.00">concepts</text>
</a>
</g>
</g>
<!-- Node2&#45;&gt;Node4 -->
<g id="edge3_Node000002_Node000004" class="edge">
<title>Node2&#45;&gt;Node4</title>
<g id="a_edge3_Node000002_Node000004"><a xlink:title=" ">
<path fill="none" stroke="#63b8ff" d="M252.52,-58.78C241.33,-50.5 225.64,-38.89 212.78,-29.36"/>
<polygon fill="#63b8ff" stroke="#63b8ff" points="214.54,-26.31 204.42,-23.17 210.37,-31.94 214.54,-26.31"/>
</a>
</g>
</g>
<!-- Node5 -->
<g id="Node000005" class="node">
<title>Node5</title>
<g id="a_Node000005"><a xlink:title=" ">
<polygon fill="#e0e0e0" stroke="#999999" points="290,-23 244,-23 244,0 290,0 290,-23"/>
<text text-anchor="middle" x="267" y="-7.8" font-family="Arial" font-size="14.00">span</text>
</a>
</g>
</g>
<!-- Node2&#45;&gt;Node5 -->
<g id="edge4_Node000002_Node000005" class="edge">
<title>Node2&#45;&gt;Node5</title>
<g id="a_edge4_Node000002_Node000005"><a xlink:title=" ">
<path fill="none" stroke="#63b8ff" d="M267,-58.78C267,-51.61 267,-41.95 267,-33.31"/>
<polygon fill="#63b8ff" stroke="#63b8ff" points="270.5,-33.17 267,-23.17 263.5,-33.17 270.5,-33.17"/>
</a>
</g>
</g>
<!-- Node6 -->
<g id="Node000006" class="node">
<title>Node6</title>
<g id="a_Node000006"><a xlink:title=" ">
<polygon fill="#e0e0e0" stroke="#999999" points="379.5,-23 308.5,-23 308.5,0 379.5,0 379.5,-23"/>
<text text-anchor="middle" x="344" y="-7.8" font-family="Arial" font-size="14.00">expected</text>
</a>
</g>
</g>
<!-- Node2&#45;&gt;Node6 -->
<g id="edge5_Node000002_Node000006" class="edge">
<title>Node2&#45;&gt;Node6</title>
<g id="a_edge5_Node000002_Node000006"><a xlink:title=" ">
<path fill="none" stroke="#63b8ff" d="M281.48,-58.78C292.67,-50.5 308.36,-38.89 321.22,-29.36"/>
<polygon fill="#63b8ff" stroke="#63b8ff" points="323.63,-31.94 329.58,-23.17 319.46,-26.31 323.63,-31.94"/>
</a>
</g>
</g>
<!-- Node7&#45;&gt;Node3 -->
<g id="edge7_Node000007_Node000003" class="edge">
<title>Node7&#45;&gt;Node3</title>
<g id="a_edge7_Node000007_Node000003"><a xlink:title=" ">
<path fill="none" stroke="#63b8ff" d="M87.26,-58.78C88.78,-51.53 90.84,-41.74 92.68,-33.02"/>
<polygon fill="#63b8ff" stroke="#63b8ff" points="96.12,-33.68 94.75,-23.17 89.27,-32.24 96.12,-33.68"/>
</a>
</g>
</g>
</g>
</svg>
