<?xml version="1.0" encoding="UTF-8" standalone="no"?>
<!DOCTYPE svg PUBLIC "-//W3C//DTD SVG 1.1//EN"
 "http://www.w3.org/Graphics/SVG/1.1/DTD/svg11.dtd">
<!-- Generated by graphviz version 2.43.0 (0)
 -->
<!-- Title: examples/esp32/main/TLE92466ED_TestFramework.hpp Pages: 1 -->
<svg width="719pt" height="105pt"
 viewBox="0.00 0.00 719.00 105.00" xmlns="http://www.w3.org/2000/svg" xmlns:xlink="http://www.w3.org/1999/xlink">
<g id="graph0" class="graph" transform="scale(1 1) rotate(0) translate(4 101)">
<title>examples/esp32/main/TLE92466ED_TestFramework.hpp</title>
<!-- Node1 -->
<g id="Node000001" class="node">
<title>Node1</title>
<g id="a_Node000001"><a xlink:title="Testing framework for TLE92466ED driver examples on ESP32&#45;C6.">
<polygon fill="#999999" stroke="#666666" points="453.5,-97 225.5,-97 225.5,-59 453.5,-59 453.5,-97"/>
<text text-anchor="start" x="233.5" y="-81.8" font-family="Arial" font-size="14.00">examples/esp32/main</text>
<text text-anchor="middle" x="339.5" y="-66.8" font-family="Arial" font-size="14.00">/TLE92466ED_TestFramework.hpp</text>
</a>
</g>
</g>
<!-- Node2 -->
<g id="Node000002" class="node">
<title>Node2</title>
<g id="a_Node000002"><a xlink:title=" ">
<polygon fill="#e0e0e0" stroke="#999999" points="75,-23 0,-23 0,0 75,0 75,-23"/>
<text text-anchor="middle" x="37.5" y="-7.8" font-family="Arial" font-size="14.00">esp_log.h</text>
</a>
</g>
</g>
<!-- Node1&#45;&gt;Node2 -->
<g id="edge1_Node000001_Node000002" class="edge">
<title>Node1&#45;&gt;Node2</title>
<g id="a_edge1_Node000001_Node000002"><a xlink:title=" ">
<path fill="none" stroke="#63b8ff" d="M252.33,-58.99C205.3,-49.18 146,-36.67 84.96,-23.3"/>
<polygon fill="#63b8ff" stroke="#63b8ff" points="85.66,-19.87 75.14,-21.15 84.16,-26.71 85.66,-19.87"/>
</a>
</g>
</g>
<!-- Node3 -->
<g id="Node000003" class="node">
<title>Node3</title>
<g id="a_Node000003"><a xlink:title=" ">
<polygon fill="#e0e0e0" stroke="#999999" points="180,-23 93,-23 93,0 180,0 180,-23"/>
<text text-anchor="middle" x="136.5" y="-7.8" font-family="Arial" font-size="14.00">esp_timer.h</text>
</a>
</g>
</g>
<!-- Node1&#45;&gt;Node3 -->
<g id="edge2_Node000001_Node000003" class="edge">
<title>Node1&#45;&gt;Node3</title>
<g id="a_edge2_Node000001_Node000003"><a xlink:title=" ">
<path fill="none" stroke="#63b8ff" d="M282.68,-58.95C250.02,-48.57 209.63,-35.74 179.59,-26.19"/>
<polygon fill="#63b8ff" stroke="#63b8ff" points="180.42,-22.78 169.83,-23.09 178.3,-29.45 180.42,-22.78"/>
</a>
</g>
</g>
<!-- Node4 -->
<g id="Node000004" class="node">
<title>Node4</title>
<g id="a_Node000004"><a xlink:title=" ">
<polygon fill="#e0e0e0" stroke="#999999" points="341,-23 198,-23 198,0 341,0 341,-23"/>
<text text-anchor="middle" x="269.5" y="-7.8" font-family="Arial" font-size="14.00">freertos/FreeRTOS.h</text>
</a>
</g>
</g>
<!-- Node1&#45;&gt;Node4 -->
<g id="edge3_Node000001_Node000004" class="edge">
<title>Node1&#45;&gt;Node4</title>
<g id="a_edge3_Node000001_Node000004"><a xlink:title=" ">
<path fill="none" stroke="#63b8ff" d="M319.63,-58.69C309.9,-49.73 298.25,-38.99 288.62,-30.12"/>
<polygon fill="#63b8ff" stroke="#63b8ff" points="290.83,-27.39 281.1,-23.19 286.09,-32.54 290.83,-27.39"/>
</a>
</g>
</g>
<!-- Node5 -->
<g id="Node000005" class="node">
<title>Node5</title>
<g id="a_Node000005"><a xlink:title=" ">
<polygon fill="#e0e0e0" stroke="#999999" points="461.5,-23 359.5,-23 359.5,0 461.5,0 461.5,-23"/>
<text text-anchor="middle" x="410.5" y="-7.8" font-family="Arial" font-size="14.00">freertos/task.h</text>
</a>
</g>
</g>
<!-- Node1&#45;&gt;Node5 -->
<g id="edge4_Node000001_Node000005" class="edge">
<title>Node1&#45;&gt;Node5</title>
<g id="a_edge4_Node000001_Node000005"><a xlink:title=" ">
<path fill="none" stroke="#63b8ff" d="M359.66,-58.69C369.52,-49.73 381.34,-38.99 391.1,-30.12"/>
<polygon fill="#63b8ff" stroke="#63b8ff" points="393.68,-32.51 398.73,-23.19 388.98,-27.33 393.68,-32.51"/>
</a>
</g>
</g>
<!-- Node6 -->
<g id="Node000006" class="node">
<title>Node6</title>
<g id="a_Node000006"><a xlink:title=" ">
<polygon fill="#e0e0e0" stroke="#999999" points="601.5,-23 479.5,-23 479.5,0 601.5,0 601.5,-23"/>
<text text-anchor="middle" x="540.5" y="-7.8" font-family="Arial" font-size="14.00">freertos/semphr.h</text>
</a>
</g>
</g>
<!-- Node1&#45;&gt;Node6 -->
<g id="edge5_Node000001_Node000006" class="edge">
<title>Node1&#45;&gt;Node6</title>
<g id="a_edge5_Node000001_Node000006"><a xlink:title=" ">
<path fill="none" stroke="#63b8ff" d="M395.76,-58.95C428.1,-48.57 468.09,-35.74 497.83,-26.19"/>
<polygon fill="#63b8ff" stroke="#63b8ff" points="499.05,-29.48 507.5,-23.09 496.91,-22.81 499.05,-29.48"/>
</a>
</g>
</g>
<!-- Node7 -->
<g id="Node000007" class="node">
<title>Node7</title>
<g id="a_Node000007"><a xlink:title=" ">
<polygon fill="#e0e0e0" stroke="#999999" points="711,-23 620,-23 620,0 711,0 711,-23"/>
<text text-anchor="middle" x="665.5" y="-7.8" font-family="Arial" font-size="14.00">driver/gpio.h</text>
</a>
</g>
</g>
<!-- Node1&#45;&gt;Node7 -->
<g id="edge6_Node000001_Node000007" class="edge">
<title>Node1&#45;&gt;Node7</title>
<g id="a_edge6_Node000001_Node000007"><a xlink:title=" ">
<path fill="none" stroke="#63b8ff" d="M430.74,-58.95C488.25,-47.57 560.64,-33.25 609.72,-23.54"/>
<polygon fill="#63b8ff" stroke="#63b8ff" points="610.7,-26.91 619.83,-21.54 609.34,-20.04 610.7,-26.91"/>
</a>
</g>
</g>
</g>
</svg>
